<svg width="277" height="293" viewBox="0 0 277 293" fill="none" xmlns="http://www.w3.org/2000/svg">
<path d="M160.36 172.042L162.624 173.362L203.925 149.683L201.661 148.363L160.36 172.042Z" fill="#D2CBBC"/>
<path d="M166.996 175.846L169.26 177.166L210.56 153.487L208.296 152.167L166.996 175.846Z" fill="#D2CBBC"/>
<path d="M173.633 179.728L175.897 180.97L217.197 157.291L214.933 156.049L173.633 179.728Z" fill="#D2CBBC"/>
<path d="M180.269 183.533L182.533 184.852L223.833 161.173L221.569 159.854L180.269 183.533Z" fill="#D2CBBC"/>
<path d="M186.904 187.337L189.168 188.657L230.469 164.978L228.204 163.658L186.904 187.337Z" fill="#D2CBBC"/>
<path d="M193.541 191.218L195.805 192.538L237.027 168.781L234.841 167.539L193.541 191.218Z" fill="#D2CBBC"/>
<path d="M200.177 195.023L202.441 196.343L243.663 172.664L241.477 171.344L200.177 195.023Z" fill="#D2CBBC"/>
<path d="M277 184.697L223.286 215.519L147.01 171.421L200.723 140.6L277 184.697ZM195.805 192.538L237.105 168.859L234.841 167.539L193.541 191.219L195.805 192.538ZM209.077 200.147L250.377 176.468L248.113 175.148L206.813 198.827L209.077 200.147ZM175.896 180.971L217.197 157.291L214.933 155.972L173.632 179.651L175.896 180.971ZM162.624 173.362L203.924 149.683L201.66 148.363L160.36 172.042L162.624 173.362ZM189.169 188.657L230.469 164.977L228.205 163.658L186.905 187.337L189.169 188.657ZM182.533 184.852L223.833 161.173L221.569 159.853L180.268 183.533L182.533 184.852ZM222.349 207.833L263.65 184.154L261.385 182.834L220.085 206.513L222.349 207.833ZM169.26 177.166L210.56 153.487L208.296 152.167L166.996 175.847L169.26 177.166ZM215.713 204.029L257.013 180.349L254.749 179.03L213.449 202.709L215.713 204.029ZM202.441 196.343L243.741 172.663L241.477 171.344L200.177 195.023L202.441 196.343Z" fill="white"/>
<path d="M206.813 198.904L209.078 200.146L250.3 176.467L248.114 175.147L206.813 198.904Z" fill="#D2CBBC"/>
<path d="M213.449 202.708L215.713 204.028L256.935 180.271L254.671 179.029L213.449 202.708Z" fill="#D2CBBC"/>
<path d="M220.085 206.513L222.349 207.833L263.571 184.154L261.307 182.834L220.085 206.513Z" fill="#D2CBBC"/>
<path d="M147.01 171.421V189.277L223.364 233.375L223.286 215.518L147.01 171.421Z" fill="#D2CBBC"/>
<path d="M223.286 215.519L223.364 233.375L277 202.554V184.697L223.286 215.519Z" fill="#A59D94"/>
<path d="M91.1104 244.788L169.885 289.895L245.771 246.108L166.996 201.001L91.1104 244.788Z" fill="#4A9CAF"/>
<path d="M123.823 260.626L15.459 197.973L91.5793 154.342L199.787 216.839L123.823 260.626Z" fill="#2A5462"/>
<path d="M129.366 233.065L21.1582 170.567L91.5012 130.196L199.709 192.694L129.366 233.065Z" fill="#55B7BA"/>
<path d="M135.143 221.651C134.987 221.651 134.753 221.574 134.597 221.496C131.396 219.633 127.492 219.633 124.291 221.496C123.979 221.729 123.51 221.729 123.198 221.496L44.1891 175.846C43.8768 175.613 43.6426 175.302 43.6426 174.914C43.6426 174.526 43.8768 174.138 44.1891 173.983C45.3602 173.284 46.1409 172.042 46.1409 170.644C46.1409 169.247 45.4382 168.005 44.1891 167.306C43.8768 167.073 43.6426 166.762 43.6426 166.374C43.6426 165.986 43.8768 165.598 44.1891 165.443L85.255 141.919C85.5673 141.686 86.0358 141.686 86.348 141.919C89.549 143.782 93.4526 143.782 96.6536 141.919C96.9659 141.686 97.4343 141.686 97.7466 141.919L176.678 187.569C176.99 187.802 177.224 188.113 177.224 188.501C177.224 188.889 176.99 189.277 176.678 189.432C175.506 190.131 174.726 191.373 174.726 192.771C174.726 194.168 175.428 195.41 176.678 196.109C176.99 196.342 177.224 196.653 177.224 197.041C177.224 197.429 176.99 197.817 176.678 197.972L135.612 221.496C135.534 221.574 135.299 221.651 135.143 221.651ZM129.366 217.847C131.318 217.847 133.269 218.313 135.065 219.245L174.101 196.808C173.086 195.721 172.462 194.246 172.462 192.693C172.462 191.14 173.086 189.665 174.101 188.578L97.122 144.093C93.5307 145.878 89.3148 145.878 85.7235 144.093L46.6874 166.53C47.7023 167.616 48.3269 169.092 48.3269 170.644C48.3269 172.197 47.7023 173.672 46.6874 174.759L123.667 219.245C125.462 218.313 127.414 217.847 129.366 217.847Z" fill="white"/>
<path d="M117.265 253.949C117.265 253.173 117.343 252.396 117.421 251.62C117.499 251.076 117.577 250.533 117.733 249.912C117.811 249.446 117.967 248.98 118.045 248.514C118.123 248.126 118.28 247.66 118.436 247.272C118.592 246.884 118.67 246.496 118.826 246.108C118.982 245.72 119.138 245.409 119.295 245.021L11.0865 182.523C10.9304 182.912 10.7742 183.222 10.6181 183.61C10.4619 183.999 10.3058 184.387 10.2277 184.775C10.0716 185.163 9.99351 185.629 9.83736 186.017C9.68122 186.483 9.60315 186.949 9.52507 187.415C9.36893 187.958 9.29086 188.501 9.21278 189.123C9.13471 189.899 9.05664 190.675 9.05664 191.452C9.05664 195.256 10.3839 197.973 12.5699 199.215L120.778 261.79C118.67 260.47 117.265 257.753 117.265 253.949Z" fill="#2A5462"/>
<path d="M21.1582 170.567C19.7529 171.421 18.3476 172.431 17.0985 173.673C16.63 174.139 16.1616 174.604 15.7712 175.07C15.459 175.458 15.0686 175.847 14.7563 176.235C14.444 176.623 14.2098 176.934 13.9756 177.322C13.7414 177.632 13.5072 178.02 13.2729 178.331C13.0387 178.642 12.8826 179.03 12.6484 179.34C12.4141 179.651 12.258 180.039 12.1019 180.35C11.9457 180.66 11.7115 181.048 11.5553 181.359C11.3992 181.669 11.2431 182.058 11.0869 182.446L119.295 245.021C119.451 244.633 119.607 244.322 119.763 243.934C119.919 243.623 120.076 243.235 120.31 242.925C120.466 242.614 120.7 242.226 120.856 241.915C121.091 241.605 121.247 241.217 121.481 240.906C121.715 240.518 121.949 240.207 122.184 239.897C122.418 239.509 122.73 239.198 122.964 238.81C123.277 238.422 123.589 238.033 123.979 237.645C124.37 237.179 124.838 236.714 125.306 236.248C126.556 235.006 127.961 233.919 129.366 233.142L21.1582 170.567Z" fill="#348A8B"/>
<path d="M122.652 256.899C119.451 256.899 119.061 253.095 119.061 251.465C119.061 244.943 123.901 236.636 129.6 233.298L195.259 195.566L195.337 216.14L126.555 255.657C125.15 256.511 123.823 256.899 122.652 256.899Z" fill="white"/>
<path d="M129.6 241.76L195.259 204.106V216.295L195.181 195.722L129.6 233.298C123.901 236.558 119.061 244.866 119.061 251.465C119.061 252.319 119.139 253.871 119.763 255.114C121.403 249.757 125.228 244.244 129.6 241.76Z" fill="#E4E5E6"/>
<path d="M199.865 220.487L129.522 260.858C122.808 264.74 117.343 261.635 117.343 253.949C117.343 246.263 122.73 236.946 129.444 233.064L199.787 192.693V196.265L131.005 235.782C125.306 239.042 120.466 247.349 120.466 253.949C120.466 255.579 120.856 259.383 124.057 259.383C125.15 259.383 126.555 258.917 127.961 258.141L199.865 216.838V220.487Z" fill="#2B7677"/>
<path d="M117.811 228.019L17.8789 170.257L88.0658 129.964L187.842 187.648L117.811 228.019Z" fill="#EF8E22"/>
<path d="M122.886 202.631L23.1094 144.948L87.9873 107.76L187.764 165.366L122.886 202.631Z" fill="#FDDD0C"/>
<path d="M128.195 192.073C128.039 192.073 127.805 191.996 127.648 191.918C124.682 190.21 121.09 190.21 118.124 191.918C117.811 192.073 117.421 192.073 117.109 191.918L44.3453 149.839C44.033 149.684 43.7988 149.296 43.7988 148.985C43.7988 148.597 44.033 148.286 44.3453 148.131C45.4383 147.51 46.141 146.345 46.141 145.026C46.141 143.783 45.5164 142.619 44.3453 141.92C44.033 141.765 43.7988 141.377 43.7988 141.066C43.7988 140.678 44.033 140.367 44.3453 140.212L82.1323 118.474C82.4446 118.319 82.8349 118.319 83.1472 118.474C86.114 120.182 89.7053 120.182 92.672 118.474C92.9843 118.319 93.3747 118.319 93.687 118.474L166.45 160.553C166.763 160.708 166.997 161.096 166.997 161.407C166.997 161.795 166.763 162.106 166.45 162.261C165.357 162.882 164.655 164.046 164.655 165.289C164.655 166.531 165.279 167.695 166.45 168.394C166.763 168.549 166.997 168.938 166.997 169.248C166.997 169.636 166.763 169.947 166.45 170.102L128.663 191.84C128.585 191.996 128.351 192.073 128.195 192.073ZM122.886 188.58C124.682 188.58 126.477 188.968 128.117 189.822L164.108 169.17C163.171 168.161 162.625 166.764 162.625 165.366C162.625 163.891 163.171 162.571 164.108 161.562L93.1405 120.57C89.8614 122.2 85.9578 122.2 82.6007 120.57L46.6094 141.221C47.5463 142.231 48.0928 143.628 48.0928 145.026C48.0928 146.501 47.5463 147.82 46.6094 148.83L117.577 189.822C119.295 189.045 121.09 188.58 122.886 188.58Z" fill="white"/>
<path d="M111.722 221.886C111.722 221.187 111.8 220.41 111.878 219.712C111.956 219.168 112.034 218.702 112.112 218.159C112.19 217.771 112.346 217.305 112.424 216.917C112.502 216.529 112.658 216.14 112.737 215.752C112.893 215.364 112.971 215.054 113.127 214.665C113.283 214.355 113.361 213.967 113.517 213.656L13.8191 156.05C13.663 156.36 13.5068 156.749 13.4287 157.059C13.2726 157.447 13.1945 157.758 13.0384 158.146C12.8822 158.534 12.8042 158.922 12.7261 159.311C12.5699 159.699 12.4919 160.165 12.4138 160.553C12.3357 161.096 12.1796 161.562 12.1796 162.105C12.1015 162.804 12.0234 163.581 12.0234 164.279C12.0234 167.773 13.2726 170.257 15.3025 171.422L115.001 229.028C112.971 227.864 111.722 225.379 111.722 221.886Z" fill="#EF8E22"/>
<path d="M23.1099 144.947C21.7826 145.724 20.5335 146.655 19.3624 147.82C18.972 148.208 18.5036 148.674 18.1133 149.14C17.801 149.528 17.4887 149.838 17.1764 150.227C16.9422 150.537 16.708 150.925 16.3957 151.236C16.1614 151.546 15.9272 151.857 15.7711 152.167C15.5369 152.478 15.3807 152.789 15.2246 153.099C15.0684 153.41 14.8342 153.72 14.6781 154.031C14.5219 154.341 14.3658 154.652 14.2096 154.962C14.0535 155.273 13.8974 155.583 13.7412 155.894L113.517 213.578C113.674 213.267 113.83 212.957 113.986 212.646C114.142 212.336 114.298 212.025 114.454 211.715C114.61 211.404 114.767 211.094 115.001 210.783C115.157 210.472 115.391 210.162 115.547 209.851C115.782 209.541 115.938 209.23 116.172 208.92C116.406 208.609 116.64 208.221 116.953 207.91C117.265 207.522 117.577 207.134 117.889 206.824C118.28 206.358 118.67 205.97 119.139 205.504C120.31 204.339 121.559 203.408 122.886 202.631L23.1099 144.947Z" fill="#F7BC1A"/>
<path d="M116.718 224.602C113.752 224.602 113.439 221.109 113.439 219.556C113.439 213.5 117.89 205.892 123.12 202.864L183.626 168.083L183.704 187.026L120.31 223.438C118.983 224.214 117.733 224.602 116.718 224.602Z" fill="#CFBF7D"/>
<path d="M116.718 224.602C113.752 224.602 113.439 221.109 113.439 219.556C113.439 213.5 117.89 205.892 123.12 202.864L183.626 168.083L183.704 187.026L120.31 223.438C118.983 224.214 117.733 224.602 116.718 224.602Z" fill="white"/>
<path d="M123.12 209.153L183.626 174.372V187.026L183.548 168.083L123.042 202.864C117.733 205.892 113.283 213.578 113.361 219.556C113.361 220.255 113.439 221.342 113.83 222.351C115.079 217.149 118.826 211.637 123.12 209.153Z" fill="#E4E5E6"/>
<path d="M187.842 190.986L122.964 228.252C116.796 231.823 111.722 228.95 111.722 221.886C111.722 214.821 116.718 206.203 122.886 202.632L187.764 165.366V168.627L124.369 205.038C119.06 208.066 114.61 215.752 114.688 221.73C114.688 223.205 115.001 226.777 117.967 226.777C118.982 226.777 120.232 226.388 121.559 225.612L187.842 187.493V190.986Z" fill="#F2A91E"/>
<path d="M114.767 201.622L6.40234 139.047L82.5227 95.3379L190.731 157.913L114.767 201.622Z" fill="#9E3A32"/>
<path d="M120.31 174.138L12.1016 111.563L82.4446 71.1924L190.653 133.767L120.31 174.138Z" fill="#B6533F"/>
<path d="M126.087 162.648C125.93 162.648 125.696 162.57 125.54 162.493C122.339 160.63 118.435 160.63 115.234 162.493C114.922 162.726 114.454 162.726 114.141 162.493L35.1324 116.92C34.8202 116.687 34.5859 116.377 34.5859 115.989C34.5859 115.6 34.8202 115.212 35.1324 115.057C36.3035 114.358 37.0842 113.116 37.0842 111.719C37.0842 110.321 36.3816 109.079 35.1324 108.38C34.8202 108.147 34.5859 107.837 34.5859 107.449C34.5859 107.06 34.8202 106.672 35.1324 106.517L76.1984 82.993C76.5107 82.7601 76.9791 82.7601 77.2914 82.993C80.4924 84.8563 84.396 84.8563 87.5969 82.993C87.9092 82.7601 88.3777 82.7601 88.69 82.993L167.621 128.643C167.933 128.876 168.167 129.187 168.167 129.575C168.167 129.963 167.933 130.351 167.621 130.507C166.45 131.205 165.669 132.447 165.669 133.845C165.669 135.242 166.372 136.485 167.621 137.183C167.933 137.416 168.167 137.727 168.167 138.115C168.167 138.503 167.933 138.891 167.621 139.047L126.555 162.57C126.477 162.648 126.243 162.648 126.087 162.648ZM120.309 158.921C122.261 158.921 124.213 159.387 126.008 160.319L165.045 137.882C164.03 136.795 163.405 135.32 163.405 133.767C163.405 132.215 164.03 130.739 165.045 129.653L88.0654 85.1669C84.4741 86.9525 80.2582 86.9525 76.6668 85.1669L37.6308 107.604C38.6457 108.691 39.2703 110.166 39.2703 111.719C39.2703 113.271 38.6457 114.746 37.6308 115.833L114.61 160.319C116.406 159.387 118.357 158.921 120.309 158.921Z" fill="#CA5C49"/>
<path d="M108.208 195.022C108.208 194.246 108.286 193.47 108.364 192.693C108.442 192.15 108.52 191.606 108.676 190.985C108.755 190.519 108.911 190.054 108.989 189.588C109.067 189.2 109.223 188.734 109.379 188.346C109.535 187.957 109.613 187.569 109.769 187.181C109.926 186.793 110.082 186.482 110.238 186.094L2.02988 123.597C1.87373 123.985 1.71759 124.295 1.56144 124.684C1.4053 125.072 1.24915 125.46 1.17108 125.848C1.01494 126.236 0.936866 126.702 0.780722 127.09C0.624577 127.556 0.546505 128.022 0.468433 128.488C0.312289 129.031 0.234216 129.575 0.156144 130.196C0.0780722 130.972 0 131.749 0 132.525C0 136.329 1.32723 139.046 3.51325 140.289L111.721 202.864C109.613 201.466 108.208 198.826 108.208 195.022Z" fill="#9E3A32"/>
<path d="M12.1016 111.563C10.6963 112.417 9.29098 113.427 8.04183 114.669C7.5734 115.135 7.10496 115.601 6.7146 116.066C6.40231 116.455 6.01195 116.843 5.69966 117.231C5.38738 117.619 5.15316 117.93 4.91894 118.318C4.68473 118.628 4.45051 119.017 4.21629 119.327C3.98208 119.638 3.82593 120.026 3.59172 120.336C3.3575 120.647 3.20136 121.035 3.04521 121.346C2.88907 121.656 2.65485 122.044 2.49871 122.355C2.34256 122.665 2.18642 123.054 2.03027 123.442L110.238 186.017C110.394 185.629 110.551 185.318 110.707 184.93C110.863 184.619 111.019 184.231 111.253 183.921C111.409 183.61 111.644 183.222 111.8 182.911C112.034 182.601 112.19 182.213 112.424 181.902C112.659 181.514 112.893 181.203 113.127 180.893C113.361 180.505 113.673 180.194 113.908 179.806C114.22 179.418 114.532 179.03 114.923 178.641C115.313 178.176 115.781 177.71 116.25 177.244C117.499 176.002 118.904 174.915 120.31 174.138L12.1016 111.563Z" fill="#B0483A"/>
<path d="M113.595 197.972C110.394 197.972 110.004 194.168 110.004 192.538C110.004 186.016 114.844 177.709 120.544 174.371L186.202 136.64L186.28 157.213L117.499 196.73C116.094 197.507 114.766 197.972 113.595 197.972Z" fill="white"/>
<path d="M120.544 182.756L186.202 145.024V157.213L186.124 136.64L120.466 174.371C114.766 177.632 109.926 185.939 109.926 192.538C109.926 193.392 110.004 194.945 110.628 196.187C112.346 190.752 116.172 185.318 120.544 182.756Z" fill="#E4E5E6"/>
<path d="M190.808 161.483L120.465 201.854C113.751 205.736 108.286 202.631 108.286 194.945C108.286 187.259 113.673 177.942 120.387 174.06L190.73 133.689V137.261L121.949 176.778C116.249 180.038 111.409 188.346 111.409 194.945C111.409 196.575 111.799 200.379 115 200.379C116.093 200.379 117.499 199.913 118.904 199.137L190.808 157.834V161.483Z" fill="#A44136"/>
<path d="M117.811 163.89L27.5596 111.718L90.9542 75.3066L181.127 127.478L117.811 163.89Z" fill="#183753"/>
<path d="M122.418 140.988L32.3223 88.8934L90.8764 55.1992L181.05 107.371L122.418 140.988Z" fill="#2F577B"/>
<path d="M127.258 131.438C127.102 131.438 126.946 131.36 126.79 131.283C124.135 129.73 120.856 129.73 118.202 131.283C117.889 131.438 117.577 131.438 117.265 131.283L51.528 93.2409C51.2157 93.0856 51.0596 92.7751 51.0596 92.4645C51.0596 92.154 51.2157 91.8434 51.528 91.6881C52.5429 91.1447 53.1675 90.0578 53.1675 88.8932C53.1675 87.7287 52.5429 86.7194 51.528 86.0983C51.2157 85.943 51.0596 85.6325 51.0596 85.322C51.0596 85.0114 51.2157 84.7009 51.528 84.5456L85.7236 64.9036C86.0359 64.7483 86.3482 64.7483 86.6605 64.9036C89.3149 66.4563 92.594 66.4563 95.2484 64.9036C95.5607 64.7483 95.873 64.7483 96.1853 64.9036L161.922 102.945C162.234 103.101 162.39 103.411 162.39 103.722C162.39 104.032 162.234 104.343 161.922 104.498C160.907 105.042 160.283 106.129 160.283 107.293C160.283 108.458 160.907 109.467 161.922 110.088C162.234 110.243 162.39 110.554 162.39 110.864C162.39 111.175 162.234 111.485 161.922 111.641L127.726 131.283C127.57 131.36 127.414 131.438 127.258 131.438ZM122.418 128.333C124.057 128.333 125.697 128.721 127.18 129.497L159.736 110.787C158.877 109.855 158.409 108.613 158.409 107.293C158.409 105.973 158.877 104.731 159.736 103.877L95.6388 66.7668C92.672 68.2419 89.0807 68.2419 86.114 66.7668L53.5579 85.4772C54.4167 86.4089 54.8851 87.651 54.8851 88.9709C54.8851 90.2907 54.4167 91.5329 53.5579 92.3869L117.733 129.419C119.217 128.643 120.856 128.333 122.418 128.333Z" fill="#337398"/>
<path d="M112.346 158.378C112.346 157.757 112.424 157.058 112.502 156.437C112.58 155.971 112.658 155.506 112.737 155.04C112.815 154.652 112.893 154.263 113.049 153.875C113.127 153.565 113.283 153.177 113.361 152.866C113.439 152.555 113.595 152.245 113.673 151.934C113.752 151.624 113.908 151.313 114.064 151.003L23.8904 98.8311C23.7343 99.1416 23.6562 99.4521 23.5001 99.7627C23.3439 100.073 23.2659 100.384 23.1878 100.694C23.1097 101.005 22.9536 101.393 22.8755 101.704C22.7974 102.092 22.6413 102.48 22.5632 102.868C22.4851 103.334 22.4071 103.8 22.329 104.266C22.2509 104.964 22.1729 105.585 22.1729 106.207C22.1729 109.39 23.3439 111.641 25.1396 112.65L115.313 164.744C113.517 163.735 112.346 161.561 112.346 158.378Z" fill="#183753"/>
<path d="M32.3224 88.8936C31.1513 89.5923 29.9802 90.4463 28.9653 91.5332C28.5749 91.9214 28.1845 92.3096 27.8723 92.6977C27.56 93.0083 27.3257 93.3188 27.0135 93.707C26.7792 94.0176 26.545 94.3281 26.3108 94.6387C26.0766 94.9492 25.9204 95.1821 25.6862 95.4927C25.5301 95.8032 25.2959 96.0361 25.1397 96.3467C24.9836 96.6572 24.8274 96.8901 24.6713 97.2007C24.5151 97.5112 24.359 97.7441 24.2029 98.0547C24.0467 98.3652 23.8906 98.5981 23.8125 98.9087L113.986 151.003C114.142 150.692 114.22 150.382 114.376 150.149C114.532 149.838 114.688 149.605 114.845 149.295C115.001 148.984 115.157 148.751 115.313 148.441C115.469 148.13 115.625 147.897 115.86 147.587C116.016 147.276 116.25 146.966 116.484 146.733C116.718 146.422 116.953 146.112 117.187 145.801C117.421 145.491 117.733 145.102 118.046 144.792C118.436 144.404 118.748 144.015 119.139 143.627C120.232 142.618 121.325 141.686 122.496 140.988L32.3224 88.8936Z" fill="#284C6D"/>
<path d="M116.875 160.863C114.22 160.863 113.908 157.68 113.908 156.36C113.908 150.925 117.89 144.016 122.652 141.221L177.381 109.855L177.459 127.013L120.154 159.931C118.905 160.474 117.812 160.863 116.875 160.863Z" fill="white"/>
<path d="M116.875 160.863C114.22 160.863 113.908 157.68 113.908 156.36C113.908 150.925 117.89 144.016 122.652 141.221L177.381 109.855L177.459 127.013L120.154 159.931C118.905 160.474 117.812 160.863 116.875 160.863Z" fill="white"/>
<path d="M122.651 146.888L177.38 115.523V127.013L177.302 109.855L122.573 141.221C117.811 143.938 113.751 150.848 113.829 156.36C113.829 156.981 113.907 157.99 114.22 158.844C115.391 154.108 118.748 149.062 122.651 146.888Z" fill="#E4E5E6"/>
<path d="M181.127 130.429L122.495 164.045C116.874 167.228 112.346 164.666 112.346 158.3C112.346 151.934 116.874 144.17 122.417 140.91L181.049 107.293V110.243L123.744 143.161C118.982 145.878 114.922 152.788 115 158.3C115 159.698 115.312 162.803 117.967 162.803C118.904 162.803 119.997 162.415 121.168 161.794L181.049 127.401L181.127 130.429Z" fill="#20415E"/>
<path d="M60.1162 263.032L112.112 293L129.366 283.062L77.3702 253.095L60.1162 263.032Z" fill="#4A9CAF"/>
<path d="M69.1719 257.831L60.1156 263.032L59.569 260.315L54.8066 259.927L63.9411 254.803L69.1719 257.831Z" fill="#B52D24"/>
<path d="M110.394 259.151C110.316 259.151 110.316 259.073 110.238 259.073C110.238 259.073 110.16 259.073 110.16 258.995C110.16 258.995 110.082 258.995 110.082 258.918C110.082 258.918 110.004 258.918 110.004 258.84C110.004 258.84 109.926 258.84 109.926 258.762C109.848 258.762 109.848 258.762 109.77 258.762H109.692C109.692 258.762 109.692 258.762 109.614 258.762C109.614 258.762 109.614 258.762 109.536 258.762H109.457H109.379C109.301 258.762 109.301 258.762 109.223 258.762H109.145C109.067 258.762 108.989 258.762 108.911 258.762C108.833 258.762 108.755 258.762 108.677 258.762C107.74 258.762 106.647 259.073 105.476 259.694C101.494 261.946 98.2932 267.38 98.2932 271.883C98.2932 271.961 98.2932 272.038 98.2932 272.116C98.2932 272.194 98.2932 272.271 98.2932 272.271C98.2932 272.349 98.2932 272.426 98.2932 272.504C98.2932 272.582 98.2932 272.659 98.2932 272.815C98.2932 272.892 98.2932 272.892 98.2932 272.97C98.2932 273.048 98.2932 273.203 98.3712 273.28C98.3712 273.358 98.3712 273.358 98.3712 273.436C98.3712 273.513 98.3712 273.591 98.4493 273.746C98.4493 273.824 98.5274 273.902 98.5274 273.979C98.5274 274.057 98.5274 274.057 98.5274 274.057C98.5274 274.212 98.6055 274.29 98.6835 274.445V274.523C98.6835 274.6 98.6835 274.6 98.7616 274.678C98.7616 274.756 98.8397 274.833 98.8397 274.911C98.9177 274.988 98.9177 275.066 98.9958 275.144C99.0739 275.221 99.0739 275.299 99.152 275.377C99.23 275.454 99.23 275.532 99.3081 275.532L99.3862 275.61C99.4643 275.687 99.4642 275.687 99.5423 275.765L99.6204 275.842C99.6985 275.92 99.6985 275.92 99.7765 275.998C99.8546 275.998 99.8546 276.075 99.9327 276.075C100.011 276.153 100.011 276.153 100.089 276.231C100.167 276.308 100.245 276.308 100.323 276.386L65.1906 255.657L59.4132 252.241L38.568 239.974C37.3188 239.198 36.5381 237.645 36.5381 235.394C36.5381 230.891 39.8171 225.456 43.7207 223.205C45.6725 222.118 47.5463 221.963 48.7954 222.739L69.4845 235.083L75.418 238.577L110.394 259.151Z" fill="white"/>
<path d="M79.1655 240.75C78.4628 240.906 77.6821 241.216 76.8233 241.682C72.2951 244.244 68.5476 250.533 68.5476 255.734C68.5476 256.511 68.6257 257.209 68.7819 257.908L63.0045 254.492C62.6141 253.638 62.458 252.629 62.458 251.464C62.458 246.573 65.9713 240.673 70.2652 238.266C71.3582 237.645 72.3732 237.334 73.232 237.257L79.1655 240.75Z" fill="#E14637"/>
<path d="M105.32 259.617C109.301 257.365 112.502 259.229 112.424 263.732C112.424 268.234 109.145 273.669 105.242 275.92C101.26 278.172 98.0591 276.309 98.1371 271.806C98.1371 267.38 101.338 261.868 105.32 259.617Z" fill="#B1CEDC"/>
<path d="M160.204 119.483L164.654 116.921L164.966 230.581L160.516 233.143V227.475L142.716 237.723V243.391L138.265 245.953L137.953 132.293L142.403 129.731V135.398L160.204 125.15V119.483ZM160.438 181.747V170.878L142.637 181.126V191.995L160.438 181.747ZM160.438 195.877V185.008L142.637 195.256V206.125L160.438 195.877ZM160.516 224.137V213.268L142.716 223.516V234.385L160.516 224.137ZM160.36 167.618V156.748L142.559 166.996V177.866L160.36 167.618ZM160.36 153.488V142.619L142.559 152.867V163.736L160.36 153.488ZM160.282 139.28V128.411L142.481 138.659V149.528L160.282 139.28ZM160.516 210.007V199.138L142.716 209.386V220.255L160.516 210.007Z" fill="#B2B3B5"/>
<path d="M187.218 245.874C183.626 243.778 178.239 243.312 173.867 244.554L189.56 253.638C191.59 251.076 190.809 247.97 187.218 245.874Z" fill="#B6E622"/>
<path d="M135.768 259.15L163.952 275.454L221.881 242.226L193.697 225.922L167.543 240.906L169.807 242.226L188.31 231.589C191.199 233.297 195.883 233.297 198.85 231.589L211.966 239.198C209.077 240.906 208.999 243.545 211.966 245.253L193.463 255.89L195.727 257.209L190.028 260.47L187.764 259.15L169.261 269.786C166.372 268.078 161.688 268.078 158.721 269.786L145.605 262.178C148.493 260.47 148.571 257.83 145.605 256.122L164.108 245.486L161.844 244.166L135.768 259.15Z" fill="#B6E622"/>
<path d="M198.928 231.589C196.039 233.297 191.277 233.297 188.388 231.589L169.885 242.225L173.866 244.477C178.238 243.312 183.625 243.778 187.217 245.796C190.808 247.893 191.589 250.998 189.481 253.482L193.463 255.734L211.966 245.098C209.077 243.39 209.077 240.672 211.966 239.042L198.928 231.589Z" fill="#90C410"/>
<path d="M168.089 247.815C166.059 250.3 166.762 253.405 170.431 255.501C174.022 257.598 179.409 258.063 183.781 256.821L168.089 247.815Z" fill="#B6E622"/>
<path d="M163.952 275.454V282.985L221.882 249.679V242.226L163.952 275.454Z" fill="#69A135"/>
<path d="M190.027 260.47L190.105 268L195.805 264.74L195.727 257.209L190.027 260.47Z" fill="#A68896"/>
<path d="M161.844 244.167L164.186 245.487L168.09 247.816L183.782 256.899L187.764 259.151L190.028 260.471L195.727 257.21L193.463 255.89L189.481 253.561L173.789 244.555L169.885 242.226L167.543 240.906L161.844 244.167Z" fill="#FFD1E7"/>
<path d="M145.604 256.123C148.493 257.831 148.493 260.548 145.604 262.178L158.721 269.787C161.609 268.079 166.372 268.079 169.26 269.787L187.763 259.15L183.782 256.899C179.41 258.063 174.023 257.598 170.431 255.579C166.84 253.483 166.059 250.377 168.089 247.893L164.108 245.642L145.604 256.123Z" fill="#90C410"/>
<path d="M135.768 259.15V266.681L163.952 282.985V275.454L135.768 259.15Z" fill="#83B83B"/>
<path d="M181.362 235.083C177.771 232.987 172.384 232.521 168.012 233.763L183.704 242.847C185.734 240.285 184.953 237.179 181.362 235.083Z" fill="#B6E622"/>
<path d="M129.912 248.359L158.096 264.663L216.026 231.435L187.842 215.131L161.687 230.115L163.952 231.435L182.455 220.798C185.343 222.506 190.028 222.506 192.994 220.798L206.111 228.407C203.222 230.115 203.144 232.754 206.111 234.462L187.607 245.099L189.872 246.418L184.172 249.679L181.908 248.359L163.405 258.995C160.516 257.287 155.832 257.287 152.865 258.995L139.749 251.387C142.638 249.679 142.716 247.039 139.749 245.331L158.252 234.695L155.988 233.375L129.912 248.359Z" fill="#B6E622"/>
<path d="M193.072 220.798C190.183 222.506 185.421 222.506 182.532 220.798L164.029 231.434L168.011 233.686C172.383 232.521 177.77 232.987 181.361 235.005C184.953 237.102 185.733 240.207 183.625 242.691L187.607 244.943L206.11 234.307C203.222 232.599 203.222 229.881 206.11 228.251L193.072 220.798Z" fill="#90C410"/>
<path d="M162.313 237.024C160.283 239.509 160.985 242.614 164.655 244.71C168.246 246.807 173.633 247.272 178.005 246.03L162.313 237.024Z" fill="#B6E622"/>
<path d="M158.097 264.663V272.194L216.104 238.888L216.026 231.435L158.097 264.663Z" fill="#69A135"/>
<path d="M184.25 249.679V257.209L189.949 253.871V246.418L184.25 249.679Z" fill="#A68896"/>
<path d="M156.066 233.376L158.331 234.696L162.312 237.025L177.927 246.031L181.908 248.36L184.25 249.68L189.95 246.419L187.608 245.099L183.704 242.77L168.011 233.764L164.03 231.435L161.766 230.115L156.066 233.376Z" fill="#FFD1E7"/>
<path d="M139.827 245.332C142.716 247.04 142.716 249.757 139.827 251.387L152.943 258.996C155.832 257.288 160.594 257.288 163.483 258.996L181.986 248.359L178.004 246.108C173.632 247.272 168.245 246.807 164.654 244.788C161.063 242.692 160.282 239.586 162.312 237.102L158.33 234.851L139.827 245.332Z" fill="#90C410"/>
<path d="M129.912 248.359V255.89L158.096 272.194V264.663L129.912 248.359Z" fill="#83B83B"/>
<path d="M185.187 234.462L181.752 232.289L180.815 226.621L184.251 228.795L185.187 234.462Z" fill="#DBA95E"/>
<path d="M183.704 225.456L180.269 223.283L178.474 212.336L181.909 214.51L183.704 225.456Z" fill="#DBA95E"/>
<path d="M162.156 237.334L158.721 235.161L180.269 223.282L183.704 225.456L162.156 237.334Z" fill="#EFDC74"/>
<path d="M181.362 211.171L177.927 208.998L176.131 198.051L179.566 200.225L181.362 211.171Z" fill="#DBA95E"/>
<path d="M159.814 223.049L156.379 220.953L177.927 208.997L181.362 211.171L159.814 223.049Z" fill="#EFDC74"/>
<path d="M179.02 196.963L175.585 194.79L173.789 183.843L177.224 186.017L179.02 196.963Z" fill="#DBA95E"/>
<path d="M157.471 208.842L154.036 206.668L175.584 194.79L179.019 196.964L157.471 208.842Z" fill="#EFDC74"/>
<path d="M176.755 182.678L173.242 180.504L171.446 169.558L174.96 171.731L176.755 182.678Z" fill="#DBA95E"/>
<path d="M155.13 194.557L151.694 192.383L173.242 180.505L176.755 182.679L155.13 194.557Z" fill="#EFDC74"/>
<path d="M174.413 168.393L170.9 166.219L169.104 155.272L172.618 157.446L174.413 168.393Z" fill="#DBA95E"/>
<path d="M152.788 180.35L149.353 178.176L170.9 166.22L174.414 168.394L152.788 180.35Z" fill="#EFDC74"/>
<path d="M172.072 154.186L168.636 152.012L166.841 141.065L170.276 143.239L172.072 154.186Z" fill="#DBA95E"/>
<path d="M150.445 166.064L147.01 163.89L168.636 152.012L172.071 154.186L150.445 166.064Z" fill="#EFDC74"/>
<path d="M169.729 139.901L166.294 137.727L164.498 126.78L167.933 128.954L169.729 139.901Z" fill="#DBA95E"/>
<path d="M148.103 151.779L144.668 149.605L166.294 137.727L169.729 139.9L148.103 151.779Z" fill="#EFDC74"/>
<path d="M167.387 125.616L163.952 123.52L163.015 117.774L166.45 119.948L167.387 125.616Z" fill="#DBA95E"/>
<path d="M166.45 119.948L163.015 117.774L168.324 114.824L171.837 116.998L166.45 119.948Z" fill="#FFF694"/>
<path d="M145.839 137.572L142.326 135.398L163.952 123.52L167.387 125.616L145.839 137.572Z" fill="#EFDC74"/>
<path d="M158.253 249.369L154.817 247.195L136.08 132.604L139.515 134.777L158.253 249.369Z" fill="#DBA95E"/>
<path d="M139.515 134.776L136.08 132.603L141.389 129.652L144.902 131.826L139.515 134.776Z" fill="#FFF694"/>
<path d="M171.838 116.998L190.575 231.589L185.188 234.54L184.251 228.795L162.703 240.673L163.64 246.418L158.253 249.368L139.516 134.777L144.903 131.827L145.839 137.572L167.387 125.693L166.451 119.948L171.838 116.998ZM153.334 183.61L155.13 194.557L176.678 182.678L174.882 171.732L153.334 183.61ZM148.65 155.118L150.446 166.064L171.994 154.186L170.198 143.239L148.65 155.118ZM162.157 237.335L183.705 225.456L181.909 214.509L160.361 226.388L162.157 237.335ZM155.677 197.895L157.472 208.842L179.02 196.964L177.225 186.017L155.677 197.895ZM150.992 169.403L152.788 180.349L174.336 168.471L172.54 157.524L150.992 169.403ZM158.019 212.18L159.814 223.127L181.362 211.249L179.567 200.302L158.019 212.18ZM146.386 140.832L148.182 151.779L169.73 139.901L167.934 128.954L146.386 140.832Z" fill="#EFDC74"/>
<path d="M117.343 135.165L44.8135 93.2411L95.7165 64.0498L168.089 105.896L117.343 135.165Z" fill="#66305A"/>
<path d="M121.012 116.765L48.6387 74.9188L95.7162 47.9014L168.089 89.7474L121.012 116.765Z" fill="#BC5EBB"/>
<path d="M124.837 109.079C124.681 109.079 124.603 109.079 124.447 109.001C122.339 107.759 119.685 107.759 117.577 109.001C117.343 109.156 117.03 109.156 116.796 109.001L64.0193 78.4899C63.7851 78.3346 63.6289 78.1017 63.6289 77.8688C63.6289 77.6359 63.7851 77.3254 64.0193 77.2477C64.8 76.7819 65.3465 75.9279 65.3465 74.9963C65.3465 74.0646 64.8781 73.2106 64.0973 72.7448C63.8631 72.5895 63.707 72.3566 63.707 72.1237C63.707 71.8908 63.8631 71.5803 64.0973 71.5026L91.5007 55.7424C91.7349 55.5872 92.0472 55.5872 92.2814 55.7424C94.3893 56.9846 97.0438 56.9846 99.1517 55.7424C99.386 55.5872 99.6982 55.5872 99.9325 55.7424L152.709 86.2536C152.943 86.4088 153.1 86.6418 153.1 86.8747C153.1 87.1076 152.943 87.4181 152.709 87.4957C151.929 87.9616 151.382 88.8156 151.382 89.7472C151.382 90.6788 151.85 91.5328 152.631 91.9987C152.865 92.1539 153.022 92.3869 153.022 92.6198C153.022 92.8527 152.865 93.1632 152.631 93.2408L125.228 109.001C125.15 109.079 124.994 109.079 124.837 109.079ZM121.012 106.594C122.339 106.594 123.666 106.905 124.837 107.526L150.992 92.5421C150.289 91.7658 149.899 90.8341 149.899 89.7472C149.899 88.6603 150.289 87.7287 150.992 86.9523L99.5421 57.2175C97.1219 58.4597 94.3113 58.4597 91.891 57.2175L65.7369 72.2014C66.4395 72.9777 66.8299 73.9094 66.8299 74.9963C66.8299 76.0832 66.4395 77.0148 65.7369 77.7912L117.186 107.526C118.436 106.827 119.763 106.594 121.012 106.594Z" fill="white"/>
<path d="M112.892 130.661C112.892 130.118 112.892 129.652 112.97 129.109C113.049 128.721 113.049 128.332 113.127 128.022C113.205 127.711 113.283 127.401 113.361 127.09C113.439 126.78 113.517 126.547 113.595 126.236C113.673 126.003 113.751 125.693 113.907 125.46C113.985 125.227 114.063 124.994 114.22 124.761L41.8468 82.915C41.7687 83.1479 41.6125 83.3809 41.5345 83.6138C41.4564 83.8467 41.3783 84.1572 41.2222 84.3901C41.1441 84.7007 41.066 84.9336 40.988 85.2441C40.9099 85.5547 40.8318 85.8652 40.7537 86.1758C40.6757 86.564 40.5976 86.9521 40.5976 87.2627C40.5195 87.8061 40.5195 88.3496 40.5195 88.8154C40.5195 91.3774 41.4564 93.163 42.8617 94.0171L115.235 135.863C113.829 135.009 112.97 133.223 112.892 130.661Z" fill="#66305A"/>
<path d="M48.6391 74.9189C47.7022 75.4624 46.7653 76.1611 45.9065 77.0151C45.5942 77.3257 45.282 77.6362 45.0477 77.9468C44.8135 78.1797 44.5793 78.4902 44.4232 78.7231C44.267 78.956 44.0328 79.189 43.8767 79.4219C43.7205 79.6548 43.5644 79.8877 43.4082 80.1206C43.2521 80.3535 43.0959 80.5864 43.0179 80.8193C42.8617 81.0522 42.7837 81.2851 42.6275 81.518C42.4714 81.751 42.3933 81.9839 42.3152 82.2168C42.2371 82.4497 42.081 82.6826 42.0029 82.9155L114.376 124.762C114.454 124.529 114.61 124.296 114.688 124.063C114.766 123.83 114.922 123.597 115 123.364C115.157 123.131 115.235 122.898 115.391 122.665C115.547 122.432 115.703 122.2 115.781 121.967C115.937 121.734 116.093 121.501 116.25 121.268C116.406 121.035 116.64 120.802 116.796 120.569C117.03 120.259 117.265 120.026 117.421 119.793C117.733 119.482 117.967 119.172 118.279 118.861C119.138 118.007 120.075 117.308 121.012 116.765L48.6391 74.9189Z" fill="#8F3C8F"/>
<path d="M116.562 132.681C114.376 132.681 114.142 130.119 114.142 129.032C114.142 124.684 117.343 119.094 121.168 116.92L165.045 91.6885V105.43L119.06 131.827C118.201 132.37 117.264 132.681 116.562 132.681Z" fill="white"/>
<path d="M121.168 122.51L165.045 97.2783V105.43V91.6885L121.168 116.92C117.343 119.094 114.142 124.684 114.142 129.032C114.142 129.653 114.22 130.662 114.61 131.438C115.625 127.867 118.201 124.218 121.168 122.51Z" fill="#E7E5E6"/>
<path d="M168.09 108.303L121.012 135.32C116.562 137.882 112.893 135.864 112.893 130.662C112.893 125.538 116.484 119.327 121.012 116.687L168.09 89.6699V92.0767L122.105 118.473C118.28 120.647 115.079 126.237 115.079 130.584C115.079 131.671 115.313 134.233 117.499 134.233C118.28 134.233 119.138 133.923 120.075 133.379L168.168 105.741L168.09 108.303Z" fill="#7B327B"/>
<path d="M117.343 114.203L44.8135 72.2792L95.7165 43.0879L168.089 84.9339L117.343 114.203Z" fill="#30664A"/>
<path d="M121.012 95.803L48.6387 53.9569L95.7162 26.9395L168.089 68.7855L121.012 95.803Z" fill="#5EBC77"/>
<path d="M124.837 88.1168C124.681 88.1168 124.603 88.1168 124.447 88.0391C122.339 86.7969 119.685 86.7969 117.577 88.0391C117.343 88.1944 117.03 88.1944 116.796 88.0391L64.0193 57.528C63.7851 57.3727 63.6289 57.1398 63.6289 56.9069C63.6289 56.674 63.7851 56.3635 64.0193 56.2858C64.8 55.82 65.3465 54.966 65.3465 54.0344C65.3465 53.1027 64.8781 52.2487 64.0973 51.7829C63.8631 51.6276 63.707 51.3947 63.707 51.1618C63.707 50.9289 63.8631 50.6184 64.0973 50.5407L91.5007 34.7805C91.7349 34.6252 92.0472 34.6252 92.2814 34.7805C94.3893 36.0227 97.0438 36.0227 99.1517 34.7805C99.386 34.6252 99.6982 34.6252 99.9325 34.7805L152.709 65.214C152.943 65.3693 153.1 65.6022 153.1 65.8351C153.1 66.068 152.943 66.3786 152.709 66.4562C151.929 66.922 151.382 67.776 151.382 68.7076C151.382 69.6393 151.85 70.4933 152.631 70.9591C152.865 71.1144 153.022 71.3473 153.022 71.5802C153.022 71.8131 152.865 72.1237 152.631 72.2013L125.228 87.9615C125.15 88.1168 124.994 88.1168 124.837 88.1168ZM121.012 85.6324C122.339 85.6324 123.666 85.9429 124.837 86.564L150.992 71.5802C150.289 70.8038 149.899 69.8722 149.899 68.7853C149.899 67.6984 150.289 66.7667 150.992 65.9904L99.5421 36.2556C97.1219 37.4978 94.3113 37.4978 91.891 36.2556L65.7369 51.2394C66.4395 52.0158 66.8299 52.9474 66.8299 54.0344C66.8299 55.1213 66.4395 56.0529 65.7369 56.8293L117.186 86.564C118.436 85.8653 119.763 85.6324 121.012 85.6324Z" fill="white"/>
<path d="M112.892 109.7C112.892 109.156 112.892 108.69 112.971 108.147C113.049 107.759 113.049 107.37 113.127 107.06C113.205 106.749 113.283 106.439 113.361 106.128C113.439 105.818 113.517 105.585 113.595 105.274C113.673 105.041 113.751 104.731 113.907 104.498C113.985 104.265 114.064 104.032 114.22 103.799L41.9249 61.9531C41.8468 62.186 41.6907 62.4189 41.6126 62.6518C41.5345 62.8848 41.4565 63.1953 41.3003 63.4282C41.2222 63.7388 41.1442 63.9717 41.0661 64.2822C40.988 64.5928 40.9099 64.9033 40.8319 65.2139C40.7538 65.602 40.6757 65.9902 40.6757 66.3008C40.5977 66.8442 40.5977 67.3877 40.5977 67.8535C40.5977 70.4155 41.5345 72.2011 42.9398 73.0551L115.313 114.901C113.829 114.047 112.971 112.262 112.892 109.7Z" fill="#30664A"/>
<path d="M48.6391 53.957C47.7022 54.5005 46.7653 55.1992 45.9065 56.0532C45.5942 56.3638 45.282 56.6743 45.0477 56.9849C44.8135 57.2178 44.5793 57.5283 44.4232 57.7612C44.267 57.9941 44.0328 58.227 43.8767 58.4599C43.7205 58.6929 43.5644 58.9258 43.4082 59.1587C43.2521 59.3916 43.0959 59.6245 43.0179 59.8574C42.8617 60.0903 42.7837 60.3232 42.6275 60.5561C42.4714 60.789 42.3933 61.0219 42.3152 61.2549C42.2371 61.4878 42.081 61.7207 42.0029 61.9536L114.376 103.8C114.454 103.567 114.61 103.334 114.688 103.101C114.766 102.868 114.922 102.635 115 102.402C115.157 102.169 115.235 101.936 115.391 101.703C115.547 101.471 115.703 101.238 115.781 101.005C115.937 100.772 116.093 100.539 116.25 100.306C116.406 100.073 116.64 99.8402 116.796 99.6073C117.03 99.2967 117.264 99.0638 117.421 98.8309C117.733 98.5204 117.967 98.2098 118.279 97.8993C119.138 97.0453 120.075 96.3465 121.012 95.8031L48.6391 53.957Z" fill="#3C8F51"/>
<path d="M116.562 111.719C114.376 111.719 114.142 109.157 114.142 108.07C114.142 103.722 117.343 98.1322 121.168 95.9584L165.045 70.7266V84.4682L119.06 110.865C118.201 111.408 117.264 111.719 116.562 111.719Z" fill="white"/>
<path d="M121.168 101.548L165.045 76.3164V84.4682V70.7266L121.168 95.9584C117.343 98.1322 114.142 103.722 114.142 108.07C114.142 108.691 114.22 109.7 114.61 110.476C115.625 106.905 118.201 103.256 121.168 101.548Z" fill="#E5E7E7"/>
<path d="M168.09 87.3408L121.012 114.358C116.562 116.92 112.893 114.902 112.893 109.7C112.893 104.576 116.484 98.3651 121.012 95.7255L168.09 68.708V71.1147L122.105 97.5111C118.28 99.685 115.079 105.275 115.079 109.622C115.079 110.709 115.313 113.271 117.499 113.271C118.28 113.271 119.138 112.961 120.075 112.417L168.168 84.7788L168.09 87.3408Z" fill="#327B44"/>
<path d="M139.438 41.0698C139.125 41.3027 138.891 41.5356 138.579 41.6909L138.501 41.7686C138.188 42.0015 137.954 42.1567 137.642 42.3896L137.564 42.4673C137.252 42.7002 136.861 42.8555 136.549 43.0884C136.237 43.2436 135.924 43.4766 135.534 43.6318C135.456 43.7095 135.378 43.7095 135.3 43.7871C134.987 43.9424 134.675 44.0976 134.363 44.2529C134.285 44.2529 134.285 44.3306 134.207 44.3306C133.894 44.4858 133.504 44.6411 133.114 44.7964C133.036 44.874 132.958 44.874 132.801 44.9516C132.489 45.1069 132.177 45.1846 131.865 45.3398C131.786 45.3398 131.708 45.4175 131.63 45.4175C131.24 45.5727 130.928 45.728 130.537 45.8056C130.459 45.8056 130.381 45.8833 130.225 45.8833C129.991 45.9609 129.679 46.0386 129.444 46.1162C129.21 46.1938 128.976 46.2715 128.742 46.3491C128.507 46.4267 128.351 46.5044 128.117 46.5044C127.883 46.582 127.649 46.6597 127.336 46.7373C127.102 46.8149 126.946 46.8149 126.712 46.8926C126.478 46.9702 126.165 47.0478 125.931 47.0478C125.697 47.1255 125.541 47.1255 125.306 47.2031C125.072 47.2807 124.76 47.2807 124.526 47.3584C124.292 47.436 124.057 47.436 123.823 47.5137C123.745 47.5137 123.589 47.5137 123.511 47.5913C123.12 47.6689 122.808 47.7466 122.418 47.7466C122.34 47.7466 122.262 47.7466 122.262 47.7466C121.871 47.8242 121.403 47.8242 121.013 47.9018C120.934 47.9018 120.778 47.9018 120.7 47.9018C120.466 47.9018 120.154 47.9795 119.92 47.9795C119.607 47.9795 119.295 48.0571 118.983 48.0571C118.748 48.0571 118.592 48.0571 118.358 48.1347C118.046 48.1347 117.655 48.1347 117.343 48.2124C117.187 48.2124 116.953 48.2124 116.797 48.2124C116.484 48.2124 116.172 48.2124 115.938 48.2124C115.704 48.2124 115.547 48.2124 115.313 48.2124C115.001 48.2124 114.689 48.2124 114.376 48.2124C114.22 48.2124 113.986 48.2124 113.83 48.2124C113.518 48.2124 113.283 48.2124 112.971 48.2124C112.737 48.2124 112.581 48.2124 112.347 48.2124C112.034 48.2124 111.722 48.1347 111.41 48.1347C111.254 48.1347 111.019 48.1347 110.863 48.1347C110.473 48.1347 110.082 48.0571 109.77 48.0571C109.692 48.0571 109.536 48.0571 109.458 48.0571C108.989 47.9795 108.521 47.9795 108.053 47.9018C107.974 47.9018 107.896 47.9018 107.818 47.9018C107.428 47.8242 107.038 47.7466 106.569 47.7466C106.413 47.7466 106.257 47.6689 106.023 47.6689C105.71 47.5913 105.398 47.5913 105.086 47.5137C104.93 47.5137 104.774 47.436 104.617 47.436C104.305 47.3584 103.915 47.2807 103.602 47.2031C103.446 47.1255 103.212 47.1255 103.056 47.0478C102.744 46.9702 102.431 46.8926 102.119 46.8149C101.885 46.7373 101.573 46.6596 101.338 46.582C101.26 46.582 101.182 46.5044 101.026 46.5044C100.636 46.3491 100.245 46.2715 99.855 46.1162C99.7769 46.1162 99.6988 46.0386 99.6208 46.0386C99.3085 45.9609 98.9962 45.8056 98.6839 45.728C98.6058 45.6504 98.4497 45.6504 98.3716 45.5727C98.1374 45.4951 97.9032 45.4175 97.669 45.2622C97.5128 45.1846 97.3567 45.1069 97.2005 45.0293C96.9663 44.9516 96.7321 44.7964 96.4979 44.7187C96.3417 44.6411 96.1856 44.5635 96.0294 44.4858C95.7952 44.3306 95.561 44.2529 95.2487 44.0976C95.0926 44.02 95.0145 43.9424 94.8584 43.9424C94.468 43.7871 94.1557 43.5542 93.7654 43.3213C92.6723 42.7002 91.6574 42.0015 90.7205 41.3027H84.7871L84.709 62.808C84.709 67.3109 87.6757 71.7362 93.6092 75.1522C93.9996 75.3851 94.3119 75.5404 94.7022 75.7733C94.8584 75.851 94.9364 75.9286 95.0926 75.9286C95.3268 76.0839 95.561 76.1615 95.8733 76.3168C96.0294 76.3944 96.1856 76.472 96.3417 76.5497C96.576 76.6273 96.8102 76.7826 97.0444 76.8602C97.2005 76.9379 97.3567 77.0155 97.5128 77.0931C97.669 77.1708 97.8251 77.2484 97.9812 77.326C98.0593 77.326 98.1374 77.4037 98.2155 77.4037C98.2935 77.4813 98.4497 77.4813 98.5278 77.559C98.84 77.6366 99.1523 77.7919 99.4646 77.8695C99.5427 77.8695 99.6208 77.9471 99.6988 77.9471C100.089 78.1024 100.48 78.1801 100.87 78.3353C100.948 78.3353 101.026 78.413 101.182 78.413C101.338 78.4906 101.494 78.4906 101.651 78.5682C101.729 78.5682 101.807 78.6459 101.963 78.6459C102.275 78.7235 102.588 78.8011 102.9 78.8788C103.056 78.9564 103.29 78.9564 103.446 79.0341C103.759 79.1117 104.149 79.1893 104.461 79.267C104.617 79.267 104.695 79.3446 104.852 79.3446H104.93C105.242 79.4222 105.554 79.4999 105.867 79.4999C106.023 79.4999 106.179 79.5775 106.413 79.5775C106.803 79.6551 107.272 79.7328 107.662 79.7328C107.74 79.7328 107.818 79.7328 107.896 79.7328C108.365 79.8104 108.833 79.8881 109.302 79.8881C109.38 79.8881 109.536 79.8881 109.614 79.8881C110.004 79.8881 110.395 79.9657 110.707 79.9657C110.863 79.9657 111.019 79.9657 111.175 79.9657C111.488 79.9657 111.8 80.0433 112.112 80.0433C112.347 80.0433 112.503 80.0433 112.737 80.0433C113.049 80.0433 113.283 80.0433 113.596 80.0433H113.674C113.83 80.0433 113.986 80.0433 114.142 80.0433C114.454 80.0433 114.767 80.0433 115.079 80.0433C115.313 80.0433 115.469 80.0433 115.704 80.0433C116.016 80.0433 116.328 80.0433 116.562 80.0433C116.64 80.0433 116.64 80.0433 116.719 80.0433C116.875 80.0433 117.031 80.0433 117.109 80.0433C117.421 80.0433 117.812 80.0433 118.124 79.9657C118.358 79.9657 118.514 79.9657 118.748 79.8881C119.061 79.8881 119.373 79.8104 119.685 79.8104C119.763 79.8104 119.92 79.8104 119.998 79.8104C120.154 79.8104 120.31 79.8104 120.466 79.7328C120.544 79.7328 120.7 79.7328 120.778 79.7328C121.169 79.6551 121.637 79.6551 122.027 79.5775C122.106 79.5775 122.184 79.5775 122.184 79.5775C122.574 79.4999 122.886 79.4999 123.277 79.4222C123.355 79.4222 123.511 79.4222 123.589 79.3446C123.667 79.3446 123.745 79.3446 123.823 79.267C123.979 79.267 124.135 79.1893 124.292 79.1893C124.526 79.1117 124.838 79.1117 125.072 79.0341C125.306 78.9564 125.463 78.9564 125.697 78.8788C125.931 78.8011 126.243 78.8011 126.478 78.7235C126.712 78.6459 126.868 78.6459 127.102 78.5682C127.336 78.4906 127.571 78.413 127.883 78.3353C128.117 78.2577 128.273 78.18 128.507 78.18C128.742 78.1024 128.976 78.0248 129.21 77.9471C129.288 77.9471 129.444 77.8695 129.522 77.8695C129.679 77.7919 129.835 77.7919 129.991 77.7142C130.069 77.7142 130.147 77.6366 130.303 77.6366C130.693 77.4813 131.084 77.4037 131.396 77.2484C131.474 77.2484 131.552 77.1708 131.63 77.1708C131.943 77.0155 132.255 76.9379 132.567 76.7826C132.645 76.7826 132.723 76.705 132.879 76.6273C133.27 76.472 133.582 76.3168 133.973 76.1615C134.051 76.1615 134.051 76.0839 134.129 76.0839C134.441 75.9286 134.753 75.7733 135.066 75.6181C135.144 75.5404 135.222 75.5404 135.3 75.4628C135.612 75.3075 136.002 75.0746 136.315 74.9193C136.471 74.8417 136.549 74.764 136.705 74.6864C136.939 74.5311 137.173 74.4535 137.33 74.2982L137.408 74.2206C137.72 73.9877 138.032 73.8324 138.266 73.5995L138.345 73.5219C138.657 73.289 138.891 73.1337 139.203 72.9008L139.281 72.8231C139.516 72.5902 139.828 72.3573 140.062 72.202C140.062 72.202 140.062 72.202 140.14 72.1244C140.218 72.0468 140.374 71.9691 140.452 71.8139C140.531 71.7362 140.687 71.581 140.765 71.5033C140.843 71.5033 140.843 71.4257 140.921 71.4257C141.155 71.1928 141.311 70.9599 141.546 70.8046C141.624 70.727 141.624 70.727 141.702 70.6493C141.858 70.494 142.014 70.2611 142.17 70.1059C142.17 70.0282 142.248 70.0282 142.248 69.9506C142.248 69.9506 142.248 69.9506 142.326 69.873C142.482 69.64 142.639 69.4848 142.795 69.2519C142.795 69.1742 142.873 69.1742 142.873 69.0966C143.029 68.8637 143.185 68.6308 143.341 68.3979L143.419 68.3202C143.497 68.2426 143.497 68.1649 143.575 68.0873C143.653 67.932 143.732 67.7768 143.81 67.6215C143.81 67.6215 143.81 67.6215 143.81 67.5439C143.966 67.3109 144.044 67.0004 144.2 66.7675C144.278 66.6122 144.356 66.4569 144.356 66.3017C144.434 66.224 144.434 66.0688 144.512 65.9911C144.512 65.9911 144.512 65.9911 144.512 65.9135C144.59 65.6806 144.668 65.37 144.746 65.1371V65.0595C144.825 64.9042 144.825 64.7489 144.825 64.5937C144.825 64.516 144.825 64.4384 144.903 64.2831V64.2055C144.981 63.9726 144.981 63.7397 144.981 63.5068V63.4291C144.981 63.2739 144.981 63.0409 144.981 62.8857C144.981 62.808 144.981 62.7304 144.981 62.6528L145.059 40.9922H139.438V41.0698Z" fill="#1B1B1D"/>
<path d="M90.7988 41.0703C91.7357 41.769 92.6726 42.4678 93.8436 43.0889C105.633 49.8432 124.76 49.8432 136.549 43.0889C137.642 42.4678 138.657 41.769 139.516 41.0703H90.7988Z" fill="#1B1B1D"/>
<path d="M173.476 33.6943V37.4985L115.234 71.1927V67.3109L173.476 33.6943Z" fill="#1C1C20"/>
<path d="M115.235 67.3109V71.1927L56.5244 37.4985L56.6025 33.6943L115.235 67.3109Z" fill="#1C1C20"/>
<path d="M173.476 33.6942L115.234 67.3108L56.6016 33.6942L114.843 0L173.476 33.6942Z" fill="#2C2C32"/>
<path d="M144.277 80.4318V53.3367C144.277 51.6287 143.341 49.9984 141.857 49.0667L118.201 34.7816C119.138 33.9276 118.982 32.8407 117.655 32.0643C116.171 31.2103 113.751 31.2103 112.346 32.0643C110.863 32.9183 110.863 34.3158 112.346 35.1698C113.595 35.8685 115.391 35.9462 116.874 35.558L141.155 50.2313C142.248 50.93 142.95 52.0945 142.95 53.3367V80.4318C141.311 81.2858 139.983 84.8571 139.671 89.5153C139.593 90.9128 140.686 92.0773 142.013 92.0773H145.292C146.698 92.0773 147.791 90.9128 147.635 89.5153C147.322 84.8571 145.917 81.1306 144.277 80.4318Z" fill="#F0B315"/>
</svg>
