<svg width="70" height="70" viewBox="0 0 70 70" fill="none" xmlns="http://www.w3.org/2000/svg">
<circle cx="35" cy="35" r="35" fill="#58B58B"/>
<path d="M51.324 19.8015H45.7947V17.676V17H45.1186H25.8814H25.2053V17.676V19.8101H19.6755H19V20.4861V27.2863C19 29.1597 19.79 30.8697 21.0518 32.1073C22.1921 33.216 23.7071 33.9485 25.3929 34.0871C25.8002 36.1228 26.8095 37.9558 28.2266 39.3805C29.5545 40.7079 31.2392 41.6693 33.1131 42.125V45.783H30.4584H29.7824V46.458V48.3394H27.6655C27.119 48.3394 26.6144 48.5684 26.2565 48.9257C25.898 49.2847 25.6696 49.7888 25.6696 50.3348V51.6541V52.3302H26.3457H44.6538H45.3298V51.6541V50.3348C45.3298 49.7888 45.1014 49.2847 44.743 48.9257C44.3851 48.5684 43.8805 48.3394 43.3339 48.3394H41.2171V46.458V45.783H40.5411H37.8863V42.1244C39.7586 41.6682 41.445 40.7068 42.7729 39.3799C44.1905 37.9558 45.1998 36.1222 45.5985 34.0866C47.2849 33.9479 48.8079 33.2154 49.9482 32.1068C51.2106 30.8692 52 29.1597 52 27.2858V20.4861V19.802H51.324V19.8015ZM21.9971 31.1384C20.9782 30.1534 20.351 28.7841 20.351 27.2863V21.1616H25.2048V32.1073C25.2048 32.311 25.2134 32.5061 25.2215 32.7012C23.9672 32.5389 22.844 31.9687 21.9971 31.1384ZM41.2171 49.691H43.3339C43.5048 49.691 43.6682 49.7646 43.7821 49.8861C43.9046 50 43.9777 50.1634 43.9777 50.3337V50.9765H27.0217V50.3337C27.0217 50.1634 27.0954 50 27.2093 49.8861C27.3318 49.7641 27.4866 49.691 27.6661 49.691H29.7829H41.2171ZM39.8656 47.1335V48.3389H31.1344V47.1335H33.7892H37.2022H39.8656ZM34.4658 45.7825V42.3534C34.8081 42.3856 35.1499 42.4017 35.4997 42.4017C35.8501 42.4017 36.1924 42.3856 36.5267 42.3534V45.7825H34.4658ZM44.442 20.3313C44.4334 20.3797 44.4259 20.4286 44.4259 20.4861C44.4259 20.535 44.434 20.5834 44.442 20.6317V32.1073C44.442 32.1407 44.442 32.1648 44.442 32.1971C44.4259 32.246 44.4259 32.2954 44.4259 32.3438C44.4259 32.5227 44.4179 32.6861 44.4098 32.8398C44.4012 32.9215 44.3937 32.9951 44.3856 33.0768C44.1653 35.1452 43.2205 37.0186 41.812 38.4191C40.5497 39.6814 38.9122 40.5767 37.0883 40.9024L37.0722 40.9121C36.567 41.0007 36.0377 41.0491 35.4997 41.0491C34.9629 41.0491 34.4335 41.0007 33.9284 40.9121L33.9123 40.9024C32.0878 40.5767 30.4514 39.6814 29.1885 38.4191C27.7795 37.0186 26.8353 35.1447 26.6069 33.0768C26.6069 32.9951 26.5983 32.9215 26.5907 32.8398C26.5821 32.6861 26.5746 32.5227 26.5746 32.3438C26.5746 32.2949 26.566 32.2454 26.5585 32.1971C26.5585 32.1648 26.5585 32.1407 26.5585 32.1073V20.6317C26.5666 20.5828 26.5746 20.5345 26.5746 20.4861C26.5746 20.4286 26.566 20.3797 26.5585 20.3313V18.3596H44.4426V20.3313H44.442ZM50.6484 27.2863C50.6484 28.7841 50.0127 30.1534 49.0024 31.1384C48.1474 31.9687 47.0232 32.5389 45.7775 32.7012C45.7855 32.5061 45.7941 32.3105 45.7941 32.1073V21.1616H50.6479V27.2863H50.6484Z" fill="white"/>
<path d="M32.0956 29.6724L31.7049 32.8398C31.6802 32.9548 31.6958 33.0848 31.7538 33.2074C31.8995 33.5244 32.2826 33.655 32.5927 33.5083L35.4995 32.1492L38.3509 33.4847C38.4729 33.5497 38.603 33.5819 38.7497 33.5647C39.0995 33.5244 39.344 33.2074 39.2951 32.857L38.9039 29.6729L41.046 27.3755C41.1518 27.2869 41.2255 27.1649 41.2497 27.0268C41.3147 26.6844 41.0949 26.3502 40.7531 26.2851L37.6007 25.6741L36.0697 22.9049C36.0132 22.791 35.9235 22.6857 35.801 22.6206C35.499 22.4573 35.1174 22.5626 34.946 22.8732L33.3983 25.6747L30.2873 26.2776C30.1572 26.2927 30.0352 26.3507 29.9369 26.4399C29.6768 26.685 29.6687 27.0837 29.9041 27.3363L32.0956 29.6724ZM33.9287 26.8623C34.1318 26.8225 34.2952 26.6839 34.3763 26.5125L35.5 24.4768L36.6404 26.5458C36.7382 26.7242 36.9177 26.8381 37.1133 26.8629L39.3929 27.3105L37.7807 29.0296C37.6421 29.1753 37.5857 29.3709 37.6179 29.559L37.9027 31.8795L35.7687 30.8858V30.8778C35.5731 30.7875 35.3539 30.8041 35.1824 30.9014L33.0979 31.8789L33.3821 29.5412C33.4149 29.3214 33.3257 29.1178 33.1699 28.9877L31.6066 27.3094L33.9287 26.8623Z" fill="white"/>
</svg>
