<svg width="70" height="70" viewBox="0 0 70 70" fill="none" xmlns="http://www.w3.org/2000/svg">
<circle cx="35" cy="35" r="35" fill="#58B58B"/>
<path d="M43.3208 40.839C43.8605 40.1624 44.1778 39.2855 44.1568 38.451L44.0753 33.9581L44.0574 30.05L44.0464 29.3774L44.0334 27.1992V27.1962C44.0334 27.1957 44.0334 27.1947 44.0334 27.1942V27.1752V27.1477C44.0334 27.1467 44.0329 27.1457 44.0329 27.1447L44.0299 26.8174C44.0299 26.8134 44.0299 26.8094 44.0299 26.8054L44.0049 25.804C43.9889 25.1534 43.7225 24.5502 43.2553 24.1055C42.8006 23.6728 42.205 23.4439 41.5853 23.4594C40.8453 23.4784 40.1927 23.8452 39.7734 24.4013C39.6785 24.2639 39.569 24.135 39.4451 24.0176C38.9724 23.5678 38.3557 23.3295 37.7011 23.3455C37.0485 23.3619 36.4419 23.6313 35.9921 24.1045C35.9147 24.186 35.8442 24.2714 35.7798 24.3608C35.6913 24.2389 35.5919 24.1235 35.48 24.0171C35.0072 23.5673 34.3881 23.3295 33.736 23.3449C32.9435 23.3649 32.2474 23.7627 31.8161 24.3614C31.7277 24.2389 31.6278 24.1235 31.5158 24.0171C31.0431 23.5673 30.423 23.3305 29.7719 23.3449C29.1197 23.3614 28.5126 23.6308 28.0634 24.104C27.6156 24.5752 27.3773 25.1919 27.3923 25.8415L27.3918 27.1467C27.3918 27.1472 27.3918 27.1472 27.3918 27.1477L27.3933 28.7008C26.9675 28.366 26.4333 28.1716 25.8587 28.1716C25.1066 28.1716 24.4765 28.5099 24.0842 29.1245C23.9433 29.3454 24.0083 29.6387 24.2292 29.7796C24.45 29.9205 24.7434 29.8556 24.8843 29.6347C25.1016 29.2934 25.4294 29.1205 25.8587 29.1205C26.5358 29.1205 27.1244 29.5543 27.3233 30.1999C27.3263 30.2094 27.3308 30.2184 27.3343 30.2279C27.3388 30.2398 27.3428 30.2513 27.3483 30.2628C27.3543 30.2753 27.3613 30.2873 27.3683 30.2993C27.3743 30.3098 27.3803 30.3203 27.3873 30.3303C27.3903 30.3343 27.3928 30.3383 27.3953 30.3423L27.4013 35.9624C27.4018 36.2243 27.6141 36.4367 27.876 36.4367H27.8765C28.1383 36.4362 28.3507 36.2238 28.3507 35.9614L28.3417 27.1467C28.3417 27.1462 28.3417 27.1462 28.3417 27.1457L28.3422 25.8365C28.3422 25.8325 28.3422 25.8285 28.3422 25.824C28.3322 25.4257 28.4776 25.0469 28.7525 24.7581C29.0273 24.4693 29.3981 24.3044 29.7973 24.2939C30.1951 24.2834 30.5739 24.4298 30.8632 24.7046C31.1525 24.9795 31.3169 25.3508 31.3274 25.7495L31.3534 26.7649C31.3534 26.7664 31.3534 26.7679 31.3534 26.7689L31.3574 27.1222V27.1467C31.3574 27.1477 31.3579 27.1487 31.3579 27.1497V27.1512C31.3579 27.1557 31.3594 27.1602 31.3594 27.1647C31.3604 27.1927 31.3629 27.2201 31.3684 27.2466C31.3684 27.2476 31.3694 27.2486 31.3694 27.2496C31.3899 27.3411 31.4359 27.4225 31.5008 27.4855C31.5028 27.4875 31.5048 27.4885 31.5068 27.4905C31.5268 27.5095 31.5478 27.527 31.5708 27.542C31.5788 27.5469 31.5873 27.551 31.5958 27.5554C31.6138 27.5659 31.6313 27.5764 31.6507 27.5844C31.6632 27.5894 31.6767 27.5924 31.6897 27.5964C31.7062 27.6019 31.7227 27.6079 31.7397 27.6114C31.7502 27.6134 31.7612 27.6134 31.7722 27.6144C31.7922 27.6169 31.8116 27.6204 31.8321 27.6204C31.8341 27.6204 31.8356 27.6199 31.8371 27.6199C31.8381 27.6199 31.8386 27.6194 31.8396 27.6194C31.8711 27.6189 31.9021 27.6154 31.9321 27.6089C31.9351 27.6084 31.9381 27.6069 31.9411 27.6059C31.9685 27.5994 31.995 27.5914 32.0205 27.5804C32.026 27.5779 32.031 27.5744 32.0365 27.5719C32.0585 27.5614 32.08 27.5504 32.1 27.5365C32.1075 27.5315 32.114 27.5245 32.1215 27.519C32.138 27.506 32.1544 27.4935 32.1694 27.4785C32.1784 27.4695 32.1854 27.459 32.1934 27.4495C32.2049 27.436 32.2169 27.423 32.2264 27.4085C32.2354 27.3955 32.2419 27.381 32.2489 27.3666C32.2559 27.3536 32.2634 27.3416 32.2694 27.3281C32.2769 27.3101 32.2814 27.2911 32.2869 27.2726C32.2899 27.2616 32.2944 27.2511 32.2969 27.2396C32.3014 27.2176 32.3023 27.1942 32.3038 27.1712C32.3043 27.1627 32.3063 27.1547 32.3063 27.1462V27.1432C32.3063 27.1422 32.3068 27.1417 32.3063 27.1407V27.1197L32.3069 25.835C32.3069 25.831 32.3069 25.827 32.3069 25.823C32.2864 25 32.939 24.3139 33.762 24.2929C34.1602 24.2819 34.539 24.4288 34.8278 24.7036C35.1172 24.9785 35.2821 25.3498 35.2921 25.7485L35.3181 26.7639C35.3181 26.7654 35.3181 26.7669 35.3181 26.7679L35.322 27.1422V27.1467V27.1472V27.1512C35.322 27.1632 35.3251 27.1742 35.3261 27.1862C35.3276 27.2062 35.3286 27.2261 35.3326 27.2456C35.3341 27.2521 35.3365 27.2581 35.3385 27.2646C35.3445 27.2886 35.3515 27.3126 35.361 27.3351C35.361 27.3356 35.3615 27.3361 35.3615 27.3366C35.4345 27.5045 35.6014 27.6224 35.7963 27.6224C35.7963 27.6224 35.7963 27.6224 35.7968 27.6224C35.8642 27.6224 35.9277 27.6079 35.9862 27.5824C35.9867 27.5819 35.9872 27.5819 35.9877 27.5814C36.0151 27.5694 36.0411 27.5549 36.0656 27.538C36.0681 27.536 36.0706 27.5335 36.0731 27.5315C36.0951 27.5155 36.1161 27.4985 36.1346 27.4795C36.1391 27.475 36.1426 27.4695 36.1466 27.465C36.1626 27.447 36.1785 27.429 36.1915 27.409C36.197 27.401 36.2005 27.392 36.2055 27.3835C36.216 27.3656 36.2265 27.3481 36.2345 27.3286C36.2395 27.3161 36.2425 27.3026 36.2465 27.2896C36.2515 27.2731 36.258 27.2571 36.2615 27.2401C36.265 27.2226 36.2655 27.2047 36.267 27.1867C36.268 27.1737 36.271 27.1612 36.271 27.1477V27.1432C36.271 27.1427 36.271 27.1427 36.271 27.1422V27.1337L36.2715 25.8365C36.2715 25.8325 36.2715 25.8285 36.2715 25.824C36.2615 25.4257 36.4074 25.0469 36.6817 24.7581C36.9566 24.4688 37.3279 24.3044 37.7266 24.2939C38.1234 24.2834 38.5032 24.4298 38.7925 24.7046C39.0813 24.9795 39.2462 25.3508 39.2567 25.7495L39.2827 26.7649C39.2827 26.7664 39.2827 26.7679 39.2827 26.7684L39.2862 27.1282V27.1982C39.2862 27.4605 39.4981 27.6729 39.7604 27.6729C39.7604 27.6729 39.7604 27.6729 39.7609 27.6729C40.0228 27.6729 40.2351 27.4605 40.2356 27.1987V27.1447C40.2356 27.1437 40.2361 27.1427 40.2361 27.1422V27.1192L40.2366 25.9124C40.2366 25.9084 40.2366 25.9044 40.2366 25.9004C40.2166 25.0979 40.8343 24.4283 41.6123 24.4078C41.9791 24.3978 42.3324 24.5347 42.6037 24.7926C42.8871 25.0619 43.049 25.4292 43.0585 25.8265L43.0834 26.8229C43.0834 26.8244 43.0834 26.8259 43.0834 26.8264L43.0869 27.2022C43.0869 27.2027 43.0869 27.2032 43.0869 27.2037L43.0999 29.3874L43.1109 30.059L43.1229 32.9347L43.1289 33.9686L43.2109 38.4704C43.2288 39.1855 42.893 39.9706 42.3624 40.4897C42.2779 40.4798 42.193 40.4737 42.107 40.4732L29.7279 40.4028H29.7139C29.589 40.4028 29.467 40.4133 29.3476 40.4333L27.9704 38.9642C27.9559 38.9492 26.5008 37.4391 25.5089 35.92C25.3655 35.7006 25.0717 35.6386 24.8523 35.782C24.6329 35.9255 24.571 36.2193 24.7144 36.4387C25.7568 38.0357 27.2264 39.5598 27.2833 39.6183L28.4107 40.821C27.841 41.2278 27.4667 41.8924 27.4622 42.6425C27.4557 43.7733 28.2877 44.7167 29.3746 44.8821V55.5238C29.3746 55.7861 29.587 55.9985 29.8493 55.9985C30.1117 55.9985 30.324 55.7861 30.324 55.5238V44.9131L41.6098 44.9776V55.5253C41.6098 55.7876 41.8222 56 42.0845 56C42.3469 56 42.5592 55.7876 42.5592 55.5253V44.9316C43.5736 44.7177 44.3417 43.8163 44.3477 42.7399C44.3512 42.1383 44.1203 41.5711 43.6971 41.1434C43.5791 41.0274 43.4542 40.926 43.3208 40.839ZM42.0925 44.0311L29.7054 43.9607C28.9863 43.9567 28.4052 43.3685 28.4092 42.6495C28.4132 41.9349 28.9978 41.3532 29.7199 41.3532L42.099 41.4237C42.4473 41.4257 42.7741 41.5631 43.019 41.811C43.2638 42.0583 43.3972 42.3866 43.3952 42.7349C43.3917 43.4495 42.8071 44.0311 42.0925 44.0311Z" fill="white"/>
<path d="M23.2332 36.3147C23.692 36.0019 24.1767 35.7061 24.6809 35.4332C25.3 35.0979 25.9581 34.7896 26.6367 34.5178C26.8801 34.4203 26.998 34.144 26.9005 33.9007C26.8031 33.6573 26.5268 33.5394 26.2834 33.6368C25.5708 33.9221 24.8797 34.246 24.2286 34.5987C23.7289 34.8691 23.2462 35.1604 22.787 35.4687L21.4863 32.9977C22.3817 32.4985 23.3347 32.0478 24.3256 31.6555C25.0586 31.3642 25.8217 31.1008 26.5942 30.8725C26.8456 30.798 26.989 30.5342 26.9145 30.2828C26.8401 30.0315 26.5762 29.888 26.3249 29.9625C25.5254 30.1989 24.7348 30.4722 23.9758 30.7735C22.9544 31.1783 21.9705 31.6435 21.0445 32.1582L18.6285 27.5679C18.3716 27.0797 17.8689 26.7764 17.3172 26.7764C17.0789 26.7764 16.8405 26.8354 16.6282 26.9468L14.9212 27.8453C14.1986 28.2255 13.9203 29.123 14.3005 29.8456L15.0156 31.2038C14.8357 31.2252 14.6598 31.2792 14.4989 31.3642L12.7919 32.2626C12.4421 32.447 12.1848 32.7563 12.0674 33.1341C11.9499 33.5119 11.9869 33.9126 12.1713 34.2629L16.071 41.6715C16.3278 42.1597 16.8305 42.4631 17.3822 42.4631C17.6206 42.4631 17.8589 42.4041 18.0708 42.2927L19.7778 41.3942C19.9437 41.3068 20.0851 41.1913 20.2015 41.0579L20.9626 42.504C21.2194 42.9923 21.7221 43.2956 22.2738 43.2956C22.5122 43.2956 22.7505 43.2366 22.9629 43.1252L24.6699 42.2267C25.3924 41.8464 25.6708 40.949 25.2905 40.2264L23.2332 36.3147ZM19.3365 40.5532L17.6296 41.4517C17.5521 41.4926 17.4692 41.5131 17.3827 41.5131C17.1843 41.5131 17.0034 41.4042 16.911 41.2288L13.0113 33.8202C12.9453 33.6948 12.9319 33.5504 12.9738 33.4149C13.0158 33.2795 13.1083 33.1681 13.2342 33.1021L14.9412 32.2037C15.0186 32.1632 15.1016 32.1422 15.188 32.1422C15.3864 32.1422 15.5668 32.2511 15.6592 32.4265L16.5882 34.191L19.5589 39.8351C19.6958 40.0945 19.5959 40.4168 19.3365 40.5532ZM24.2281 41.3852L22.5211 42.2837C22.4437 42.3241 22.3607 42.3451 22.2743 42.3451C22.0759 42.3451 21.895 42.2362 21.8026 42.0608L18.1223 35.069L16.4987 31.9848C16.4987 31.9843 16.4982 31.9843 16.4982 31.9838L15.14 29.4033C15.0036 29.144 15.1036 28.8217 15.3629 28.6848L17.0699 27.7863C17.1473 27.7458 17.2303 27.7248 17.3167 27.7248C17.5151 27.7248 17.696 27.8338 17.7885 28.0092L24.451 40.6666C24.5879 40.926 24.488 41.2483 24.2281 41.3852Z" fill="white"/>
<path d="M57.8178 33.1336C57.7003 32.7558 57.4435 32.4465 57.0932 32.2621L55.3867 31.3637C55.2258 31.2787 55.0499 31.2248 54.87 31.2033L55.5851 29.8451C55.9654 29.1225 55.687 28.2255 54.9645 27.8448L53.2575 26.9463C53.0456 26.8344 52.8072 26.7759 52.5684 26.7759C52.0167 26.7759 51.514 27.0792 51.2572 27.5669L48.993 31.8684C47.8152 31.2522 46.555 30.7171 45.2398 30.2748C44.9914 30.1914 44.7226 30.3248 44.6386 30.5731C44.5552 30.8215 44.6886 31.0908 44.9374 31.1743C46.2047 31.6005 47.418 32.1157 48.5513 32.7084L47.273 35.1369C46.6484 34.7492 45.9833 34.3909 45.2882 34.0686C45.0504 33.9586 44.7685 34.0616 44.6581 34.2994C44.5477 34.5373 44.6516 34.8191 44.889 34.9295C45.5706 35.2454 46.2212 35.5977 46.8298 35.9789L44.5951 40.2249C44.4107 40.5747 44.3738 40.976 44.4912 41.3537C44.6086 41.7315 44.8655 42.0408 45.2158 42.2252L46.9223 43.1237C47.1341 43.2356 47.3725 43.2946 47.6113 43.2946C48.163 43.2946 48.6652 42.9913 48.9226 42.503L49.6836 41.0569C49.8 41.1903 49.9415 41.3063 50.1074 41.3937L51.8138 42.2922C52.0257 42.4036 52.2641 42.4626 52.5029 42.4626C53.0546 42.4626 53.5573 42.1592 53.8142 41.671L57.7133 34.2624C57.8982 33.9122 57.9352 33.5114 57.8178 33.1336ZM49.4867 39.3929L48.0826 42.0603C47.9901 42.2357 47.8097 42.3446 47.6113 42.3446C47.5249 42.3446 47.4419 42.3241 47.3645 42.2832L45.658 41.3847C45.5321 41.3182 45.4396 41.2073 45.3977 41.0714C45.3557 40.9355 45.3687 40.7916 45.4351 40.6661L52.0977 28.0087C52.1901 27.8333 52.3705 27.7243 52.5689 27.7243C52.6553 27.7243 52.7383 27.7448 52.8158 27.7858L54.5227 28.6843C54.7821 28.8207 54.882 29.143 54.7456 29.4023L52.342 33.9691L49.4867 39.3929ZM56.8743 33.8202L52.9747 41.2288C52.8822 41.4042 52.7018 41.5131 52.5029 41.5131C52.4165 41.5131 52.3335 41.4926 52.2561 41.4517L50.5496 40.5532C50.2903 40.4168 50.1903 40.0945 50.3267 39.8351L53.1441 34.4823L54.2264 32.4265C54.3189 32.2511 54.4992 32.1427 54.6976 32.1427C54.7841 32.1427 54.867 32.1632 54.9445 32.2042L56.651 33.1026C56.7769 33.1691 56.8693 33.28 56.9113 33.4155C56.9538 33.5509 56.9403 33.6948 56.8743 33.8202Z" fill="white"/>
<path d="M35.8087 17.1206C36.071 17.1206 36.2834 16.9083 36.2834 16.6459V14.4747C36.2834 14.2129 36.071 14 35.8087 14C35.5463 14 35.334 14.2124 35.334 14.4747V16.6459C35.3345 16.9083 35.5468 17.1206 35.8087 17.1206Z" fill="white"/>
<path d="M29.7309 18.4019C29.8189 18.5543 29.9783 18.6392 30.1422 18.6392C30.2226 18.6392 30.3041 18.6188 30.379 18.5758C30.6059 18.4449 30.6838 18.1545 30.5529 17.9277L29.4676 16.0478C29.3367 15.8209 29.0463 15.743 28.8195 15.8739C28.5926 16.0048 28.5146 16.2951 28.6456 16.522L29.7309 18.4019Z" fill="white"/>
<path d="M23.8741 21.6389L25.7545 22.7243C25.8295 22.7673 25.9109 22.7878 25.9914 22.7878C26.1553 22.7878 26.3147 22.7028 26.4026 22.5504C26.5336 22.3235 26.4561 22.0332 26.2287 21.9023L24.3484 20.8169C24.1215 20.686 23.8312 20.7635 23.7002 20.9908C23.5693 21.2177 23.6473 21.5075 23.8741 21.6389Z" fill="white"/>
<path d="M45.6232 22.7878C45.7037 22.7878 45.7851 22.7673 45.8601 22.7243L47.7405 21.639C47.9673 21.508 48.0453 21.2177 47.9144 20.9908C47.7834 20.764 47.4936 20.686 47.2662 20.8169L45.3859 21.9023C45.159 22.0332 45.081 22.3235 45.212 22.5504C45.2999 22.7028 45.4593 22.7878 45.6232 22.7878Z" fill="white"/>
<path d="M41.2373 18.5753C41.3122 18.6183 41.3937 18.6387 41.4741 18.6387C41.638 18.6387 41.7974 18.5538 41.8854 18.4014L42.9712 16.521C43.1022 16.2941 43.0247 16.0038 42.7978 15.8729C42.571 15.742 42.2807 15.8194 42.1497 16.0463L41.0639 17.9267C40.9325 18.154 41.0104 18.4444 41.2373 18.5753Z" fill="white"/>
</svg>
