<svg width="70" height="70" viewBox="0 0 70 70" fill="none" xmlns="http://www.w3.org/2000/svg">
<circle cx="35" cy="35" r="35" fill="#58B58B"/>
<path d="M34.6836 40.52C33.8547 40.1794 33.1915 39.7026 32.6941 39.0896C31.9978 38.2041 31.5336 37.3868 31.3015 36.7397C31.3015 36.7057 31.3015 36.6716 31.3015 36.6375C31.3347 36.6035 31.401 36.5694 31.4341 36.5013H33.7552C34.0204 36.5013 34.2857 36.3651 34.4183 36.1267C34.551 35.8883 34.551 35.5818 34.4515 35.3434C34.352 35.1391 34.2526 34.9347 34.1531 34.7304C33.6889 33.7087 33.5231 32.4827 33.722 31.2566C33.7883 30.9161 33.7883 30.5755 33.7883 30.269C33.7883 28.0213 32.6941 25.9779 30.9368 24.9903C30.4726 24.6838 29.942 24.4794 29.4115 24.4113C29.1794 24.3773 28.9805 24.3432 28.7484 24.3773C28.7152 24.3773 28.6821 24.3773 28.6489 24.3773C25.7973 24.3773 23.4763 27.0337 23.4763 30.3031C23.4763 30.7458 23.5094 31.2226 23.6089 31.6653C23.8742 32.9254 23.6752 34.2536 23.0784 35.4115C22.9458 35.6499 22.9458 35.9564 23.0784 36.1948C23.211 36.4332 23.4763 36.5694 23.7416 36.5694H26.0294C26.0626 36.6035 26.1289 36.6375 26.1621 36.6716C26.1952 36.7057 26.1952 36.7397 26.1952 36.7738C25.9963 37.3187 25.5984 38.0339 25.0679 38.7831C24.5042 39.6004 23.7084 40.1794 22.8131 40.4859C20.5253 41.2011 19 43.3807 19 45.8328V48.2167C19 48.6594 19.3316 49 19.7626 49H37.4689C37.8999 49 38.2315 48.6594 38.2315 48.2167V45.8328C38.2646 43.4829 36.8057 41.3373 34.6836 40.52ZM36.7062 47.3993H20.5253V45.7987C20.5253 44.0278 21.6195 42.4612 23.2773 41.9163C24.471 41.5076 25.5321 40.7243 26.2947 39.6686C26.9247 38.7831 27.3889 37.9657 27.621 37.2506C27.8531 36.5694 27.6542 35.7861 27.0905 35.3434C26.991 35.2753 26.9247 35.2072 26.8252 35.1391C26.6926 35.0028 26.4936 34.9347 26.2947 34.9347H24.8689C25.2337 33.7768 25.3 32.4827 25.0679 31.2907C25.0015 30.9501 24.9684 30.6096 24.9684 30.269C24.9684 27.8851 26.5931 25.9439 28.5826 25.9439C28.6157 25.9439 28.6489 25.9439 28.6821 25.9439C28.8478 25.9439 29.0136 25.9439 29.1463 25.9779C29.4778 26.046 29.8094 26.1482 30.141 26.3525C31.401 27.0677 32.2299 28.6003 32.2299 30.269C32.2299 30.5074 32.1968 30.7799 32.1636 31.0183C31.9647 32.3805 32.0641 33.7428 32.5283 34.9347H31.1357C30.9368 34.9347 30.7378 35.0028 30.6052 35.1391C30.5389 35.2072 30.4394 35.2753 30.3399 35.3775C29.7763 35.8202 29.5773 36.5694 29.8094 37.2846C30.1078 38.102 30.6384 39.0215 31.4341 40.0772C32.0641 40.9286 32.9926 41.5757 34.0868 42.0184C35.6452 42.6315 36.6731 44.164 36.6731 45.8668V47.3993H36.7062Z" fill="white"/>
<path d="M46.486 39.8393C45.6902 39.5668 45.0602 39.1241 44.6292 38.5792C44.0987 37.8981 43.6344 37.251 43.336 36.6721C43.0708 36.1612 43.1371 35.5482 43.5018 35.1736C44.2644 34.3903 44.7287 33.3346 44.7618 32.2448C45.226 31.8361 45.5244 31.155 45.5244 30.4057C45.5244 29.6565 45.226 28.9754 44.7618 28.5667V26.7276C44.7618 25.1951 43.9992 23.7647 42.7392 22.9815C42.8718 21.9938 42.8718 21.3468 42.275 21.0743C42.1424 21.0062 41.6118 20.8359 41.1476 21.4489C40.9818 21.6873 40.385 22.0279 39.2908 22.3344C39.0587 22.3684 38.8266 22.4366 38.5945 22.5047C38.5613 22.5047 38.5282 22.5387 38.495 22.5387C36.7708 23.1858 35.6103 24.8545 35.6103 26.7276V28.6688C35.1461 29.0775 34.8477 29.7586 34.8477 30.5079C34.8477 31.2571 35.1461 31.9382 35.6103 32.3469C35.6766 33.4367 36.1076 34.4244 36.8703 35.2076C37.235 35.5823 37.3013 36.2293 37.0361 36.7061C36.7708 37.1829 36.4392 37.6938 36.0082 38.2387C35.7429 38.5792 35.8092 39.0901 36.1408 39.3625C36.4724 39.635 36.9697 39.5668 37.235 39.2263C37.6992 38.6133 38.064 38.0343 38.3624 37.4894C38.9924 36.3656 38.8266 34.9693 37.9645 34.0838C37.434 33.5389 37.1355 32.8237 37.1355 32.0404V31.9042C37.1355 31.5977 36.9697 31.2912 36.6713 31.189C36.5387 31.1209 36.3729 30.8825 36.3729 30.5079C36.3729 30.1333 36.5387 29.8608 36.6713 29.8268C36.9366 29.6905 37.1355 29.4181 37.1355 29.1116V26.7276C37.1355 25.5016 37.8982 24.4118 39.0255 24.0031C39.1913 23.935 39.3571 23.901 39.5229 23.901C39.5561 23.901 39.5892 23.901 39.6224 23.8669C40.2192 23.6966 40.7166 23.5264 41.1145 23.322C41.0813 23.6626 41.2471 23.9691 41.5455 24.1053C42.5402 24.5821 43.2034 25.6038 43.2034 26.7276V29.0094C43.2034 29.3159 43.3692 29.6224 43.6676 29.7246C43.8002 29.7927 43.966 30.0311 43.966 30.4057C43.966 30.7803 43.8002 31.0528 43.6676 31.0868C43.4023 31.2231 43.2034 31.4955 43.2034 31.802V32.0404C43.2034 32.7897 42.905 33.5389 42.3745 34.0497C41.5124 34.9352 41.3466 36.3315 41.9766 37.4554C42.3413 38.1024 42.8387 38.8176 43.4355 39.5668C44.0655 40.3501 44.8944 40.9291 45.9555 41.3037C47.746 41.9508 48.9397 43.6536 48.9397 45.5948V47.3998H41.7776C41.3466 47.3998 41.015 47.7403 41.015 48.1831C41.015 48.6258 41.3466 48.9664 41.7776 48.9664H49.7355C50.1665 48.9664 50.4981 48.6258 50.4981 48.1831V45.5948C50.4981 43.0065 48.8734 40.6907 46.486 39.8393Z" fill="white"/>
</svg>
