<svg width="70" height="70" viewBox="0 0 70 70" fill="none" xmlns="http://www.w3.org/2000/svg">
<circle cx="35" cy="35" r="35" fill="#58B58B"/>
<path d="M49.2458 43.5254C49.0659 43.3455 48.8111 43.2572 48.5587 43.2974L44.9609 43.8185L42.2155 41.0732C50.5158 31.797 43.9259 17 31.4552 17C23.4849 17 17 23.4848 17 31.4551C17 43.9084 31.787 50.5247 41.0732 42.2155L43.8104 44.9526C43.4208 48.3293 43.017 48.7593 43.5144 49.2568C49.2851 54.9048 49.0968 55.2065 49.8478 54.959C50.6556 54.6911 50.3248 53.874 50.8867 50.8977C53.8587 50.3365 54.6797 50.6677 54.9481 49.8587C55.2352 48.9921 54.4644 48.9641 49.2458 43.5254ZM38.1014 36.9591C42.722 31.3886 38.7852 22.8221 31.4552 22.8221C26.6941 22.8221 22.8214 26.6948 22.8214 31.4551C22.8214 38.7787 31.3846 42.7256 36.9591 38.1014L39.9314 41.0737C31.6684 48.3641 18.6157 42.4804 18.6157 31.4551C18.6157 24.3755 24.3755 18.6157 31.4552 18.6157C42.4747 18.6157 48.3667 31.6654 41.0737 39.9314L38.1014 36.9591ZM30.884 32.0263L35.8077 36.95C31.226 40.5872 24.4371 37.3085 24.4371 31.4551C24.4371 27.5855 27.5856 24.4378 31.4552 24.4378C37.3132 24.4378 40.5854 31.2281 36.95 35.8077L32.0263 30.8839C31.7108 30.5684 31.1996 30.5684 30.884 30.8839C30.5684 31.1995 30.5684 31.7107 30.884 32.0263ZM49.0241 52.4818L44.9431 48.4008L45.2361 46.3784L49.3176 50.4599L49.0241 52.4818ZM50.4681 49.3257L46.3867 45.2444L48.3898 44.9541L52.4709 49.0351L50.4681 49.3257Z" fill="white"/>
</svg>
