<svg width="70" height="70" viewBox="0 0 70 70" fill="none" xmlns="http://www.w3.org/2000/svg">
<circle cx="35" cy="35" r="35" fill="#58B58B"/>
<path d="M56.9753 28.556C56.9221 28.3946 56.7892 28.2715 56.6227 28.229L51.2302 26.8569L48.2388 22.2295C48.1463 22.0864 47.9856 22 47.8138 22C47.6415 22 47.4814 22.087 47.3888 22.2295L44.3974 26.8569L39.2613 28.1641L35.4253 22.2295C35.3327 22.0864 35.1726 22 35.0003 22C34.8279 22 34.6678 22.087 34.5753 22.2295L30.7392 28.1641L25.6031 26.8569L22.6117 22.2295C22.5191 22.0864 22.359 22 22.1867 22C22.0144 22 21.8543 22.087 21.7617 22.2295L18.7703 26.8569L13.3779 28.229C13.2114 28.2715 13.0784 28.3946 13.0247 28.556C12.9715 28.7173 13.0055 28.8944 13.1151 29.0249L16.6581 33.2578L16.3166 38.7334C16.306 38.9026 16.3842 39.0655 16.5235 39.1651C16.6629 39.2646 16.8443 39.2872 17.0044 39.2253L22.1867 37.214L27.0377 39.097L26.5781 46.4734C26.5675 46.6427 26.6456 46.8061 26.785 46.9052C26.9244 47.0047 27.1057 47.0278 27.2659 46.9654L35.0008 43.9633L42.7352 46.9654C42.7948 46.989 42.8575 47 42.9203 47C43.0251 47 43.1293 46.9675 43.2166 46.9046C43.3559 46.8056 43.4336 46.6421 43.4235 46.4729L42.9639 39.0965L47.8149 37.2134L52.9967 39.2248C53.1573 39.2867 53.3387 39.2641 53.4775 39.1646C53.6164 39.065 53.6945 38.9021 53.6844 38.7328L53.3429 33.2572L56.8854 29.0244C56.9945 28.8939 57.0285 28.7173 56.9753 28.556ZM22.0021 36.2185L17.3714 38.0161L17.6767 33.1231C17.6847 32.9979 17.6437 32.8737 17.5623 32.7768L14.3965 28.9945L19.215 27.768C19.3384 27.7365 19.4453 27.66 19.5139 27.5542L22.1867 23.4193L24.8601 27.5542C24.9287 27.6606 25.0356 27.7371 25.159 27.768L29.9775 28.9945L29.7903 29.2177L22.0601 31.1851C21.8936 31.2275 21.7601 31.3506 21.7069 31.5125C21.6537 31.6739 21.6878 31.851 21.7973 31.9814L26.776 37.9281L22.3707 36.218C22.2527 36.1724 22.1208 36.1724 22.0021 36.2185ZM35.1848 42.9683C35.1258 42.9447 35.063 42.9337 35.0003 42.9337C34.9375 42.9337 34.8747 42.9447 34.8157 42.9683L27.6323 45.7562L28.1052 38.1649C28.1132 38.0397 28.0722 37.9155 27.9914 37.8191L23.0787 31.9516L30.2126 30.1356C30.2153 30.1351 30.2179 30.1346 30.2206 30.1335L30.5546 30.0487C30.678 30.0172 30.7849 29.9407 30.8535 29.8349L35.0003 23.4193L39.1475 29.8349C39.2161 29.9407 39.3225 30.0172 39.4464 30.0487L39.7805 30.1335C39.7831 30.1341 39.7863 30.1346 39.789 30.1356L46.9223 31.9516L42.0102 37.8191C41.9294 37.916 41.8884 38.0397 41.8958 38.1649L42.3693 45.7562L35.1848 42.9683ZM52.4382 32.7768C52.3573 32.8737 52.3164 32.9974 52.3238 33.1231L52.6286 38.0161L47.9979 36.2185C47.8792 36.1724 47.7473 36.1724 47.6287 36.2185L43.224 37.9286L48.2026 31.982C48.3117 31.851 48.3462 31.6744 48.2931 31.5131C48.2393 31.3517 48.1064 31.2286 47.9399 31.1856L40.2097 29.2182L40.0225 28.995L44.8415 27.7685C44.9649 27.7371 45.0718 27.6606 45.1405 27.5547L47.8138 23.4199L50.4866 27.5547C50.5552 27.6611 50.6622 27.7376 50.7856 27.7685L55.6046 28.995L52.4382 32.7768Z" fill="white"/>
</svg>
