<svg width="70" height="70" viewBox="0 0 70 70" fill="none" xmlns="http://www.w3.org/2000/svg">
<circle cx="35" cy="35" r="35" fill="#58B58B"/>
<path d="M47.4503 38.093C46.8445 37.7449 46.1392 37.6108 45.448 37.7123C44.7568 37.8139 44.1199 38.1452 43.6399 38.6529L42.0846 37.7509C42.5457 36.7512 42.7844 35.6634 42.7844 34.5626C42.7844 33.4617 42.5457 32.374 42.0846 31.3743L43.6399 30.4723C43.9295 30.7803 44.2788 31.026 44.6665 31.1945C45.0543 31.3629 45.4723 31.4506 45.895 31.4521C46.5815 31.4481 47.2474 31.2172 47.789 30.7952C48.3305 30.3732 48.7172 29.784 48.8889 29.1192C48.9933 28.7291 49.0197 28.3221 48.9663 27.9217C48.9129 27.5214 48.7809 27.1355 48.5778 26.7863C48.196 26.1469 47.5974 25.6658 46.8909 25.4303C46.1844 25.1948 45.4168 25.2206 44.7277 25.503C44.0386 25.7854 43.4737 26.3057 43.1356 26.9693C42.7976 27.6329 42.7089 28.3958 42.8856 29.1192L41.3303 30.0368C40.6835 29.1455 39.8548 28.4018 38.8989 27.8548C37.9431 27.3079 36.882 26.9702 35.7859 26.8641V25.1222C36.5189 24.933 37.1578 24.4828 37.5827 23.8562C38.0076 23.2297 38.1894 22.4696 38.094 21.7186C37.9986 20.9675 37.6325 20.2771 37.0645 19.7766C36.4964 19.2761 35.7653 19 35.0083 19C34.2512 19 33.5201 19.2761 32.952 19.7766C32.384 20.2771 32.0179 20.9675 31.9225 21.7186C31.8272 22.4696 32.0089 23.2297 32.4338 23.8562C32.8588 24.4828 33.4976 24.933 34.2306 25.1222V26.8641C33.1405 26.9735 32.0859 27.312 31.1358 27.8574C30.1856 28.4029 29.3615 29.1429 28.7173 30.029L27.1231 29.1192C27.2999 28.3958 27.2111 27.6329 26.8731 26.9693C26.5351 26.3057 25.9702 25.7854 25.281 25.503C24.5919 25.2206 23.8244 25.1948 23.1179 25.4303C22.4113 25.6658 21.8128 26.1469 21.4309 26.7863C21.0192 27.5001 20.9075 28.3481 21.1203 29.1441C21.3332 29.9401 21.8532 30.6192 22.5663 31.0322C23.0373 31.3098 23.5747 31.4549 24.1215 31.4521C24.5442 31.4506 24.9623 31.3629 25.35 31.1945C25.7377 31.026 26.087 30.7803 26.3766 30.4723L27.9319 31.3743C27.4708 32.374 27.2321 33.4617 27.2321 34.5626C27.2321 35.6634 27.4708 36.7512 27.9319 37.7509L26.3766 38.6529C26.0231 38.2769 25.5816 37.9948 25.092 37.832C24.6023 37.6692 24.0798 37.6307 23.5716 37.7202C23.0633 37.8096 22.5853 38.024 22.1806 38.3442C21.7759 38.6644 21.4572 39.0802 21.2533 39.5542C21.0493 40.0283 20.9665 40.5456 21.0123 41.0596C21.0581 41.5736 21.231 42.0681 21.5155 42.4986C21.8001 42.9292 22.1872 43.2821 22.6422 43.5257C23.0971 43.7693 23.6055 43.8959 24.1215 43.8941C24.808 43.8902 25.4739 43.6592 26.0155 43.2372C26.557 42.8152 26.9437 42.226 27.1154 41.5612C27.2471 41.0512 27.2471 40.516 27.1154 40.006L28.7095 39.0884C29.3538 39.9769 30.1788 40.719 31.1304 41.2658C32.082 41.8126 33.1386 42.1518 34.2306 42.2611V44.003C33.4976 44.1922 32.8588 44.6423 32.4338 45.2689C32.0089 45.8955 31.8272 46.6556 31.9225 47.4066C32.0179 48.1577 32.384 48.8481 32.952 49.3486C33.5201 49.8491 34.2512 50.1252 35.0083 50.1252C35.7653 50.1252 36.4964 49.8491 37.0645 49.3486C37.6325 48.8481 37.9986 48.1577 38.094 47.4066C38.1894 46.6556 38.0076 45.8955 37.5827 45.2689C37.1578 44.6423 36.5189 44.1922 35.7859 44.003V42.2611C36.876 42.1517 37.9306 41.8132 38.8808 41.2678C39.8309 40.7223 40.6551 39.9823 41.2992 39.0962L42.8545 40.0137C42.7228 40.5238 42.7228 41.0589 42.8545 41.569C43.0296 42.24 43.4239 42.8333 43.9748 43.2546C44.5257 43.6759 45.2015 43.901 45.895 43.8941C46.5787 43.8929 47.243 43.6664 47.7851 43.2498C48.3272 42.8331 48.7169 42.2495 48.8939 41.5891C49.0709 40.9287 49.0255 40.2284 48.7645 39.5964C48.5036 38.9644 48.0417 38.4361 47.4503 38.093ZM45.1174 26.9963C45.3838 26.8429 45.6896 26.7719 45.9963 26.7923C46.303 26.8126 46.5968 26.9234 46.8406 27.1106C47.0844 27.2978 47.2673 27.5531 47.3661 27.8441C47.4649 28.1352 47.4752 28.449 47.3958 28.746C47.2886 29.1429 47.0286 29.4812 46.6726 29.6869C46.4956 29.7994 46.2977 29.875 46.0907 29.909C45.8837 29.9431 45.672 29.9349 45.4683 29.885C45.2645 29.8351 45.073 29.7445 44.9052 29.6186C44.7374 29.4928 44.5968 29.3343 44.4918 29.1527C44.3868 28.9711 44.3197 28.7701 44.2944 28.5619C44.2691 28.3537 44.2862 28.1425 44.3446 27.9411C44.4031 27.7396 44.5016 27.5521 44.6344 27.3897C44.7672 27.2274 44.9315 27.0935 45.1174 26.9963ZM23.3439 29.6869C22.9879 29.4812 22.7279 29.1429 22.6207 28.746C22.5676 28.5484 22.554 28.3423 22.5807 28.1395C22.6074 27.9366 22.6738 27.7411 22.7762 27.564C22.93 27.2974 23.1593 27.0825 23.4353 26.9463C23.7113 26.8102 24.0214 26.759 24.3265 26.7992C24.6316 26.8393 24.9179 26.9691 25.1492 27.1721C25.3805 27.3751 25.5464 27.6421 25.6259 27.9393C25.7053 28.2366 25.6949 28.5508 25.5957 28.8421C25.4966 29.1334 25.3133 29.3888 25.069 29.5759C24.8247 29.763 24.5304 29.8734 24.2233 29.8931C23.9162 29.9129 23.6102 29.8411 23.3439 29.6869ZM24.8991 42.1289C24.6329 42.2831 24.3268 42.3549 24.0197 42.3351C23.7126 42.3154 23.4183 42.205 23.174 42.0179C22.9297 41.8308 22.7464 41.5754 22.6473 41.2841C22.5481 40.9928 22.5377 40.6786 22.6172 40.3813C22.6966 40.0841 22.8625 39.8171 23.0938 39.6141C23.3251 39.4111 23.6114 39.2813 23.9165 39.2412C24.2216 39.201 24.5317 39.2522 24.8077 39.3883C25.0837 39.5245 25.313 39.7394 25.4668 40.006C25.6727 40.3629 25.7285 40.7868 25.6221 41.1849C25.5157 41.5829 25.2556 41.9224 24.8991 42.1289ZM33.453 22.1206C33.453 21.813 33.5442 21.5123 33.7151 21.2565C33.886 21.0008 34.1289 20.8014 34.4131 20.6837C34.6973 20.566 35.01 20.5352 35.3117 20.5952C35.6134 20.6552 35.8905 20.8034 36.108 21.0209C36.3255 21.2384 36.4736 21.5155 36.5336 21.8172C36.5936 22.1189 36.5628 22.4316 36.4451 22.7158C36.3274 22.9999 36.1281 23.2428 35.8723 23.4137C35.6165 23.5846 35.3159 23.6758 35.0083 23.6758C34.5958 23.6758 34.2002 23.512 33.9085 23.2203C33.6169 22.9287 33.453 22.5331 33.453 22.1206ZM33.453 34.5626C33.453 34.255 33.5442 33.9543 33.7151 33.6985C33.886 33.4428 34.1289 33.2434 34.4131 33.1257C34.6973 33.008 35.01 32.9772 35.3117 33.0372C35.6134 33.0972 35.8905 33.2454 36.108 33.4629C36.3255 33.6804 36.4736 33.9575 36.5336 34.2592C36.5936 34.5609 36.5628 34.8736 36.4451 35.1578C36.3274 35.4419 36.1281 35.6848 35.8723 35.8557C35.6165 36.0266 35.3159 36.1178 35.0083 36.1178C34.5958 36.1178 34.2002 35.954 33.9085 35.6623C33.6169 35.3707 33.453 34.9751 33.453 34.5626ZM33.453 37.6731H36.5635C36.7697 37.6731 36.9675 37.755 37.1134 37.9009C37.2592 38.0467 37.3411 38.2445 37.3411 38.4507V40.3248C35.8461 40.9367 34.1704 40.9367 32.6754 40.3248V38.4507C32.6754 38.2445 32.7573 38.0467 32.9031 37.9009C33.049 37.755 33.2468 37.6731 33.453 37.6731ZM36.5635 47.0046C36.5635 47.3122 36.4723 47.6129 36.3014 47.8686C36.1305 48.1244 35.8876 48.3237 35.6034 48.4415C35.3192 48.5592 35.0065 48.59 34.7048 48.53C34.4031 48.47 34.126 48.3218 33.9085 48.1043C33.691 47.8868 33.5429 47.6097 33.4829 47.308C33.4229 47.0063 33.4537 46.6936 33.5714 46.4094C33.6891 46.1252 33.8884 45.8823 34.1442 45.7115C34.4 45.5406 34.7007 45.4493 35.0083 45.4493C35.4207 45.4493 35.8163 45.6132 36.108 45.9049C36.3996 46.1965 36.5635 46.5921 36.5635 47.0046ZM38.8964 39.3761V38.4507C38.8952 38.008 38.7681 37.5748 38.5299 37.2016C38.2917 36.8284 37.9522 36.5308 37.5511 36.3434C37.9184 35.822 38.1166 35.2003 38.1188 34.5626C38.1188 33.7376 37.791 32.9465 37.2077 32.3631C36.6244 31.7798 35.8332 31.4521 35.0083 31.4521C34.1833 31.4521 33.3921 31.7798 32.8088 32.3631C32.2255 32.9465 31.8978 33.7376 31.8978 34.5626C31.8999 35.2003 32.0981 35.822 32.4654 36.3434C32.0643 36.5308 31.7249 36.8284 31.4866 37.2016C31.2484 37.5748 31.1213 38.008 31.1201 38.4507V39.3761C30.114 38.5705 29.3829 37.4724 29.0279 36.2334C28.6729 34.9943 28.7115 33.6756 29.1383 32.4595C29.5652 31.2433 30.3593 30.1898 31.4108 29.4445C32.4623 28.6992 33.7194 28.2988 35.0083 28.2988C36.2971 28.2988 37.5542 28.6992 38.6057 29.4445C39.6572 30.1898 40.4513 31.2433 40.8782 32.4595C41.305 33.6756 41.3436 34.9943 40.9886 36.2334C40.6336 37.4724 39.9025 38.5705 38.8964 39.3761ZM47.2403 41.5612C47.0865 41.8278 46.8572 42.0427 46.5812 42.1789C46.3052 42.315 45.9951 42.3662 45.69 42.326C45.3849 42.2858 45.0986 42.1561 44.8673 41.9531C44.636 41.7501 44.4701 41.4831 44.3907 41.1859C44.3112 40.8886 44.3216 40.5744 44.4208 40.2831C44.5199 39.9918 44.7032 39.7364 44.9475 39.5493C45.1918 39.3622 45.4861 39.2518 45.7932 39.2321C46.1003 39.2123 46.4064 39.2841 46.6726 39.4383C47.0291 39.6448 47.2892 39.9843 47.3956 40.3823C47.502 40.7804 47.4462 41.2043 47.2403 41.5612Z" fill="white"/>
</svg>
