<svg width="74" height="64" viewBox="0 0 74 64" fill="none" xmlns="http://www.w3.org/2000/svg">
<path d="M10.7777 63.4802C7.06061 63.4802 3.6326 61.4564 1.69143 58.2762C-0.497541 54.683 -0.497541 50.3877 1.31972 46.6292L25.3984 7.22774C28.1243 3.22151 31.6762 0 36.8389 0C42.0016 0 45.5535 3.22151 48.2794 7.22774L72.2342 46.4227C74.2166 50.0985 74.134 54.7243 71.9451 58.2762C70.0039 61.4564 66.6172 63.4802 62.8588 63.4802H10.7777V63.4802ZM36.8389 42.9121C39.0279 42.9121 40.7625 44.6881 40.7625 46.877C40.7625 49.066 39.0279 50.8007 36.8389 50.8007C34.6499 50.8007 32.874 49.066 32.874 46.877C32.874 44.6881 34.6499 42.9121 36.8389 42.9121ZM36.8389 38.9885C35.3933 38.9885 34.3608 37.7907 34.1956 36.3452L32.874 24.4917C32.6675 22.4679 34.8151 20.5681 36.8389 20.5681C38.8627 20.5681 41.0103 22.4679 40.7625 24.4917L39.4409 36.3452C39.317 37.7494 38.3257 38.9885 36.8389 38.9885V38.9885ZM10.7777 58.2349H62.8588C64.7999 58.2349 66.452 57.1611 67.4845 55.509C68.6822 53.5266 68.6409 51.1311 67.691 49.066L43.9014 10.1601C42.2081 7.68205 40.1017 5.24527 36.8389 5.24527C33.5761 5.24527 31.4284 7.68205 29.7351 10.1601L5.98677 49.066C4.99554 51.1724 4.95424 53.5266 6.19328 55.509C7.18451 57.1611 8.83657 58.2349 10.7777 58.2349V58.2349Z" fill="#CC8322"/>
</svg>
