<?xml version="1.0" standalone="no"?>
<!DOCTYPE svg PUBLIC "-//W3C//DTD SVG 1.1//EN" "http://www.w3.org/Graphics/SVG/1.1/DTD/svg11.dtd" >
<svg xmlns="http://www.w3.org/2000/svg">
<metadata>Generated by IcoMoon</metadata>
<defs>
<font id="icomoon" horiz-adv-x="1024">
<font-face units-per-em="1024" ascent="960" descent="-64" />
<missing-glyph horiz-adv-x="1024" />
<glyph unicode="&#x20;" horiz-adv-x="512" d="" />
<glyph unicode="&#xe900;" glyph-name="bell1" d="M641.592 71.927c-9.093-76.538-75.064-135.928-155.092-135.928s-145.999 59.39-155.092 135.928h-267.415c-25.428 0-45.977 20.221-45.977 45.257v54.423c0 54.999 45.283 99.686 101.084 99.686 5.004 0 9.147 4.090 9.147 9.093v217.468c0 155.021 101.952 289.897 248.021 336.362v17.025c0 60.038 49.417 108.759 110.231 108.759 60.913 0 110.229-48.619 110.229-108.759v-17.027c146.069-46.471 248.023-181.372 248.023-336.36v-217.468c0-5.102 4.049-9.093 9.151-9.093 55.71 0 101.082-44.671 101.082-99.686v-54.423c0-24.922-20.631-45.257-45.979-45.257h-267.413zM585.882 71.927h-198.761c8.64-46.399 49.848-81.557 99.38-81.557s90.741 35.158 99.382 81.557zM899.869 171.607c0 24.959-20.672 45.315-45.969 45.315-35.537 0-64.264 28.327-64.264 63.464v217.468c0 137.249-94.511 255.901-227.33 289.615l-20.692 5.252v58.521c0 30.102-24.635 54.387-55.116 54.387-30.382 0-55.116-24.385-55.116-54.387v-58.52l-20.691-5.251c-132.827-33.71-227.329-152.334-227.329-289.616v-217.468c0-35.023-28.813-63.464-64.264-63.464-25.357 0-45.968-20.34-45.968-45.315v-45.31h826.739v45.31z" />
<glyph unicode="&#xe901;" glyph-name="friends" horiz-adv-x="1152" d="M573.573 246.128c-30.316 12.454-54.568 29.888-72.758 52.307-25.465 32.385-42.442 62.277-50.931 85.941 0 1.245 0 2.491 0 3.736 1.213 1.246 3.638 2.492 4.851 4.982h84.884c9.701 0 19.402 4.982 24.253 13.7s4.851 19.928 1.212 28.646c-3.638 7.473-7.276 14.946-10.913 22.419-16.977 37.365-23.040 82.203-15.764 127.041 2.426 12.455 2.426 24.91 2.426 36.12 0 82.202-40.017 156.932-104.287 193.052-16.977 11.21-36.379 18.682-55.781 21.173-8.488 1.246-15.764 2.492-24.252 1.246-1.213 0-2.426 0-3.638 0-104.286 0-189.171-97.149-189.171-216.716 0-16.192 1.213-33.629 4.851-49.82 9.701-46.083 2.426-94.657-19.402-137.004-4.851-8.719-4.851-19.928 0-28.646s14.551-13.7 24.252-13.7h83.672c1.213-1.245 3.638-2.492 4.851-3.737s1.213-2.491 1.213-3.736c-7.276-19.928-21.827-46.083-41.229-73.483-20.615-29.894-49.718-51.066-82.459-62.278-83.672-26.15-139.453-105.862-139.453-195.539v-87.187c0-16.192 12.126-28.646 27.89-28.646h647.544c15.763 0 27.891 12.454 27.891 28.646v87.187c1.21 85.939-52.147 164.403-129.754 194.298zM647.545-5.461h-591.763v58.534c0 64.768 40.017 122.061 100.648 141.99 43.655 14.944 82.459 43.59 110.349 82.202 23.040 32.384 40.017 62.275 48.506 88.43 8.488 24.91 1.212 53.556-19.402 69.748-3.638 2.491-6.063 4.982-9.701 7.473-4.851 4.982-12.127 7.473-19.402 7.473h-52.143c13.34 42.347 15.764 89.676 7.276 133.268-2.426 12.455-3.638 24.91-3.638 37.365 0 87.185 59.419 158.178 132.177 158.178 1.213 0 2.425 0 3.638 0 6.063 0 12.126 0 16.977-1.246 12.127-2.491 24.253-6.227 36.38-13.7 46.080-26.155 76.396-82.202 76.396-143.231 0-8.719-1.213-18.683-2.425-27.401-7.276-49.82-3.638-99.64 13.339-143.232h-50.931c-7.276 0-14.552-2.491-19.402-7.473-2.426-2.491-6.063-4.982-9.701-8.718-20.615-16.191-27.891-43.592-19.402-69.748 10.914-29.892 30.316-63.517 59.419-102.129 23.040-31.142 56.994-54.803 97.011-70.995 56.994-22.419 94.582-78.464 94.582-140.742v-56.045h1.216zM1005.271 271.017c-29.101 9.965-52.141 26.157-67.904 46.086-19.405 24.909-36.384 48.573-47.296 69.747-9.702 18.682-7.277 41.101 6.061 54.801 27.891 28.646 44.87 67.257 46.080 107.112 16.979 14.946 27.891 39.856 27.891 67.257s-10.912 52.31-27.891 67.256v67.257c0 56.047-27.885 108.358-73.965 137.004 4.845 36.119 4.845 59.783-16.979 69.747-4.851 2.491-24.256 8.718-41.229-13.7-6.067-8.718-27.891-21.173-67.91-32.383-8.486-1.246-16.973-3.737-25.466-6.227-1.21 0-2.426-1.246-3.635-1.246-63.059-23.664-105.5-84.694-105.5-153.195v-70.993c-16.977-14.946-27.891-39.856-27.891-67.256s10.914-52.311 27.891-67.257c2.426-39.855 18.189-75.975 46.082-104.621 13.338-13.7 15.763-37.364 6.061-54.801s-21.827-36.12-37.591-56.047c-9.701-12.454-7.276-31.135 4.851-41.1s30.315-7.475 40.017 4.979c16.979 22.419 30.317 43.594 41.229 63.522 23.040 41.101 16.979 92.166-14.554 124.549-19.398 19.928-30.31 46.083-30.31 74.73v4.982c0 11.21-6.067 22.419-16.979 26.156-4.851 2.491-10.915 11.21-10.915 24.91s6.063 23.664 10.915 24.909c9.702 4.982 16.979 14.946 16.979 26.156v87.185c0 44.838 27.885 84.693 69.12 99.639 6.061 2.491 12.122 3.736 18.189 3.736 1.21 0 2.426 0 3.635 1.245 21.83 6.228 40.019 12.455 54.566 19.928-1.21-12.455 4.851-23.665 15.77-28.646 36.378-17.437 60.627-54.802 60.627-95.903v-83.448c0-11.21 6.067-22.419 16.979-26.156 4.851-2.491 10.912-11.209 10.912-24.909s-6.061-23.665-10.912-24.91c-9.702-4.982-16.979-14.946-16.979-26.156v-8.718c0-27.401-10.912-54.802-30.317-73.484-31.526-32.383-37.587-83.448-14.547-124.549 13.338-23.665 31.526-49.817 53.357-77.222 23.034-28.646 53.35-49.818 92.16-63.52 65.478-23.661 109.133-85.939 109.133-156.928v-66.016h-261.924c-15.763 0-27.891-12.454-27.891-28.646s12.128-28.646 27.891-28.646h291.025c15.77 0 27.891 12.454 27.891 28.646v94.662c0 94.656-59.418 179.347-146.726 210.483z" />
<glyph unicode="&#xe902;" glyph-name="help" d="M512 960c-282.495 0-512-229.506-512-512s229.505-512 512-512c282.493 0 512 229.507 512 512s-229.507 512-512 512zM512 913.455c90.613 0 175.087-25.888 246.545-70.546l-111.275-111.272c-41.011 19.663-86.836 30.545-135.27 30.545s-94.258-10.882-135.273-30.545l-111.273 111.272c71.458 44.657 155.931 70.546 246.546 70.546zM226.546 815.637l108.363-108.365c-32.301-22.115-60.066-49.879-82.181-82.181l-108.365 108.362c23.826 30.645 51.538 58.359 82.183 82.183zM797.451 815.637c30.646-23.824 58.362-51.538 82.187-82.183l-108.368-108.362c-22.113 32.302-49.88 60.066-82.182 82.181l108.362 108.365zM512 715.637c148.087 0 267.634-119.55 267.634-267.637s-119.546-267.634-267.634-267.634c-148.088 0-267.637 119.546-267.637 267.634s119.549 267.637 267.637 267.637zM117.091 694.91l111.272-111.274c-19.754-41.091-30.545-87.083-30.545-135.636s10.792-94.544 30.545-135.634l-111.272-111.275c-44.756 71.509-70.546 156.188-70.546 246.909 0 90.723 25.79 175.398 70.546 246.91zM906.911 694.91c44.754-71.512 70.542-156.187 70.542-246.91 0-90.721-25.788-175.4-70.542-246.909l-111.275 111.275c19.752 41.091 30.544 87.082 30.544 135.634s-10.792 94.544-30.544 135.636l111.275 111.274zM252.364 270.911c22.077-32.296 49.926-60.058 82.182-82.182l-108.364-108.368c-30.628 23.842-58.012 51.888-81.819 82.546l108.001 108.004zM771.635 270.911l108.004-108.004c-23.808-30.657-51.194-58.704-81.823-82.546l-108.362 108.368c32.256 22.124 60.103 49.886 82.182 82.182zM376.364 164.363c41.091-19.752 87.083-30.544 135.636-30.544s94.544 10.792 135.634 30.544l111.275-111.275c-71.509-44.754-156.188-70.542-246.909-70.542-90.723 0-175.397 25.788-246.91 70.542l111.274 111.275z" />
<glyph unicode="&#xe903;" glyph-name="human" d="M42.668-64h938.665c11.319 0 22.166 4.493 30.167 12.5 8.007 8.001 12.5 18.848 12.5 30.167v88.317c-0.006 35.389-11.019 69.904-31.505 98.762s-49.431 50.634-82.841 62.307l-226.986 79.575v36.481c54.537 57.672 85.054 133.958 85.333 213.332v190.933c-4.908 114.773-122.027 211.625-256 211.625s-251.092-96.853-256-213.332v-189.225c0.282-79.374 30.795-155.66 85.333-213.332v-36.481l-226.986-79.575c-33.407-11.673-62.356-33.451-82.843-62.307s-31.496-63.372-31.504-98.762v-88.317c0-11.319 4.496-22.166 12.497-30.167 8.001-8.007 18.854-12.5 30.17-12.5zM85.335 66.983c-0.018 17.715 5.477 34.994 15.721 49.445s24.731 25.354 41.452 31.197l256 89.388c8.28 2.99 15.434 8.472 20.473 15.695 5.045 7.216 7.728 15.818 7.687 24.624v85.333c0.006 5.834-1.181 11.609-3.488 16.966-2.314 5.357-5.701 10.183-9.953 14.18-22.471 20.959-40.435 46.276-52.796 74.409s-18.858 58.489-19.096 89.217v187.518c2.772 69.119 82.562 129.706 170.666 129.706s167.895-60.586 170.666-127.999v-189.225c-0.123-30.872-6.561-61.391-18.93-89.678-12.363-28.288-30.386-53.745-52.961-74.8-4.151-3.898-7.475-8.585-9.783-13.789s-3.55-10.815-3.659-16.505v-85.333c-0.006-8.853 2.737-17.497 7.857-24.719 5.127-7.23 12.369-12.678 20.732-15.599l255.992-89.388c16.643-5.919 31.041-16.848 41.205-31.294 10.158-14.445 15.592-31.683 15.545-49.35v-45.65h-853.332v45.65z" />
<glyph unicode="&#xe904;" glyph-name="hurt" horiz-adv-x="1170" d="M920.703 928.599c-121.958 24.579-230.796-27.166-334.392-159.118 0-1.294-2.626-1.294-2.626 0-103.595 133.246-213.748 184.991-334.391 159.118-141.625-28.46-245.222-148.77-249.156-287.19-1.311-42.69 6.557-82.793 22.293-121.603 27.538-67.269 178.344-214.746 372.423-402.323 52.455-50.453 102.285-98.318 137.694-134.542 14.421-14.229 32.783-21.99 52.453-21.99s38.031 7.761 52.453 21.99c35.409 36.224 85.239 84.089 137.692 134.542 194.079 186.284 344.884 335.054 372.424 402.323 15.734 38.809 23.604 80.206 22.291 121.603-3.93 138.42-107.531 258.729-249.153 287.19zM1099.047 539.212c-26.231-62.097-218.997-248.38-360.624-384.211-52.453-50.453-103.596-99.612-139-135.836-7.87-7.761-22.296-7.761-30.161 0-35.409 36.224-85.239 84.089-139.004 135.836-140.314 135.831-333.082 322.114-359.31 384.211-13.114 32.341-19.67 65.977-18.359 100.905 2.622 113.841 90.483 214.745 207.193 238.031 15.736 2.588 30.161 5.175 45.898 5.175 82.615 0 161.295-47.865 237.356-144.889 10.486-12.937 26.226-20.699 43.274-20.699 17.043 0 32.783 7.762 43.274 20.699 90.483 113.841 182.274 160.412 283.249 139.714 116.709-23.285 204.571-124.19 207.192-238.031-1.308-34.928-7.865-68.563-20.978-100.905z" />
<glyph unicode="&#xe905;" glyph-name="info" d="M512 960c-282.806 0-512-229.193-512-511.998 0-282.807 229.194-512.001 512-512.001s512 229.194 512 512.001c0 282.805-230.537 511.998-512 511.998zM512-14.404c-254.66 0-462.408 207.747-462.408 462.405s206.408 462.407 462.408 462.407c256 0 462.41-207.748 462.41-462.407s-207.753-462.405-462.41-462.405zM533.445 200.045c0-14.746-12.063-26.806-26.806-26.806s-26.806 12.060-26.806 26.806c0 14.746 12.063 26.806 26.806 26.806s26.806-12.060 26.806-26.806zM644.693 564.608c0-46.911-26.806-89.801-76.4-119.287-36.189-21.445-34.848-46.911-34.848-48.251 0 0 0-1.34 0-2.681v-61.657c0-13.403-10.722-24.121-24.125-24.121s-25.466 10.718-25.466 24.121v60.316c-1.34 21.445 9.382 62.995 57.633 92.481 24.126 14.743 52.274 40.21 52.274 77.738 0 45.57-37.53 83.099-83.101 83.099s-83.099-37.529-83.099-83.099c0-13.403-10.722-24.125-24.126-24.125s-24.125 10.722-24.125 24.125c0 73.717 58.974 132.69 132.691 132.69s132.693-57.633 132.693-131.35z" />
<glyph unicode="&#xe906;" glyph-name="kubok" horiz-adv-x="935" d="M915.854 869.141h-156.667v79.376h-583.371v-79.619h-175.82v-211.83c0-53.079 22.383-101.53 58.135-136.599 32.311-31.409 75.234-52.162 122.999-56.091 11.541-57.678 40.137-109.618 80.289-149.982 37.625-37.609 85.36-64.848 138.454-77.761v-103.649h-94.374v-72.43h-59.977c-15.486 0-29.783-6.486-39.924-16.611-10.156-10.171-16.627-24.456-16.627-39.925v-56.535h557.044v56.535c0 15.468-6.472 29.755-16.625 39.925-10.143 10.125-24.438 16.611-39.925 16.611h-59.976v72.43h-94.376v103.662c53.051 12.931 100.83 40.17 138.456 77.765 40.165 40.346 68.759 92.301 80.058 149.978 47.78 3.929 90.931 24.683 123.242 56.097 35.769 35.066 58.136 83.501 58.136 136.595v212.043l-19.154 0.015zM84.912 547.923c-28.869 27.91-46.638 66.707-46.638 109.143v173.536h137.526v-310.134c0-5.77 0.243-11.295 0.471-16.823-35.538 4.6-67.362 20.754-91.359 44.279zM629.489 22.26h59.976c4.841 0 9.472-2.085 12.699-5.53 3.471-3.227 5.543-7.855 5.543-12.681v-18.211h-480.428v18.211c0 4.827 2.086 9.454 5.314 12.681 3.471 3.458 7.857 5.53 12.943 5.53h383.953zM591.191 94.724v-34.156h-247.383v34.156h247.383zM438.199 133.003v97.158c9.699-0.911 19.38-1.369 29.292-1.369 9.931 0 19.629 0.458 29.097 1.369v-97.158h-58.389zM720.86 854.129c-0.24-1.37-0.453-2.756-0.453-4.386 0-1.385 0.227-2.756 0.453-4.126v-325.147c0-0.943 0-1.627 0-2.543-0.453-1.382-0.453-2.783-0.453-4.156 0-5.072-0.231-9.699-0.458-14.054-0.244-2.312-0.458-4.401-0.684-6.713-6.245-58.607-33.014-111.689-72.92-151.37-35.769-35.764-82.165-61.132-133.843-70.36l-0.458-0.277c-14.313-2.511-29.31-3.88-44.553-3.88-15.21 0-30.208 1.369-44.521 3.88l-0.457 0.277c-51.694 9.228-98.058 34.594-133.841 70.36-39.924 39.68-66.677 92.776-73.148 151.37 0 2.312-0.243 4.401-0.456 6.713-0.244 4.356-0.457 8.983-0.457 14.054 0 1.387-0.244 2.787-0.457 4.156 0 0.915 0 1.6 0 2.543v325.147c0.228 1.385 0.457 2.756 0.457 4.126 0 1.63-0.244 3.015-0.457 4.386v55.865h506.724v-55.865h-0.018zM896.714 657.067c0-42.436-18.015-81.233-46.641-109.143-24.225-23.525-56.078-39.678-91.371-44.279 0.227 5.53 0.471 11.068 0.471 16.823v310.134h137.523v-173.536h0.018zM371.035 589.462l-11.070-89.746c-0.7-3.259-0.259-6.944 1.385-10.415 4.126-8.983 14.983-12.681 23.769-8.526l82.359 38.507 80.792-37.836c3.458-1.845 7.143-2.756 11.299-2.271 9.912 1.142 16.838 10.125 15.455 20.056l-11.086 90.216 60.692 65.094c3 2.512 5.085 5.968 5.77 9.882 1.845 9.699-4.382 19.17-14.069 21.012l-89.318 17.312-43.379 78.462c-1.6 3.228-4.142 6.213-7.615 8.054-8.557 4.629-19.366 1.645-24.225-7.156l-43.853-79.375-88.146-17.084c-3.685-0.427-7.141-2.071-9.927-4.598-7.37-6.944-7.598-18.241-0.929-25.398l62.094-66.189zM422.972 669.081c5.756 1.127 10.385 5.055 12.683 9.912l31.841 57.678 32.311-58.622c2.769-5.055 7.855-8.283 13.398-8.984l64.59-12.683-45.68-48.709c-3.925-4.126-5.525-9.669-4.609-14.998l8.068-65.747-60.465 28.154v0.228c-5.543 2.558-11.752 2.086-16.611-0.67l-59.063-27.699 8.054 66.236c0.929 6.227-1.598 11.998-6.014 15.683l-44.294 47.553 65.793 12.669z" />
<glyph unicode="&#xe907;" glyph-name="mail" horiz-adv-x="1268" d="M1268-24.131v944.262c-0.021 6.31-2.574 12.355-7.098 16.817-4.52 4.462-10.648 6.979-17.043 7.003h-1219.715c-6.396-0.024-12.525-2.541-17.048-7.003s-7.075-10.507-7.098-16.817v-944.262c0.132-0.965 0.327-1.916 0.584-2.856 0.137-2.111 0.564-4.193 1.267-6.189 1.596-4.127 4.391-7.696 8.036-10.261s7.974-4.006 12.447-4.153c0.631-0.051 1.169-0.362 1.813-0.362h1219.716c0.638 0 1.182 0.311 1.809 0.362 5.6 0.070 10.96 2.242 14.997 6.063 4.037 3.826 6.455 9.024 6.752 14.539 0.262 0.94 0.453 1.89 0.584 2.856zM48.288 862.627l420.311-414.629-420.311-414.638v829.267zM755.257 471.819h-242.516l-430.309 424.491h1103.133l-430.308-424.491zM512.743 424.179h242.516l430.298-424.491h-1103.115l430.301 424.491zM799.398 447.999l420.314 414.629v-829.267l-420.314 414.638z" />
<glyph unicode="&#xe908;" glyph-name="news1" horiz-adv-x="1229" d="M1057.568 729.322c0-6.817-2.71-13.354-7.531-18.174s-11.355-7.528-18.176-7.528h-562.907c-6.817 0-13.355 2.707-18.175 7.528s-7.528 11.357-7.528 18.174c0 6.817 2.707 13.355 7.528 18.175s11.358 7.528 18.175 7.528h562.907c6.821 0 13.355-2.707 18.176-7.528s7.531-11.358 7.531-18.175zM468.954 563.664h169.387c6.817 0 13.354 2.707 18.175 7.527s7.528 11.358 7.528 18.175c0 6.817-2.707 13.354-7.528 18.175s-11.358 7.528-18.175 7.528h-169.387c-6.817 0-13.355-2.707-18.175-7.528s-7.528-11.358-7.528-18.175c0-6.817 2.707-13.354 7.528-18.175s11.358-7.527 18.175-7.527zM468.954 424.095h169.387c6.817 0 13.354 2.707 18.175 7.528s7.528 11.358 7.528 18.175c0 6.817-2.707 13.354-7.528 18.175s-11.358 7.527-18.175 7.527h-169.387c-6.817 0-13.355-2.707-18.175-7.527s-7.528-11.358-7.528-18.175c0-6.817 2.707-13.354 7.528-18.175s11.358-7.528 18.175-7.528zM468.954 284.526h169.387c6.817 0 13.354 2.707 18.175 7.527s7.528 11.358 7.528 18.175c0 6.817-2.707 13.354-7.528 18.175s-11.358 7.528-18.175 7.528h-169.387c-6.817 0-13.355-2.707-18.175-7.528s-7.528-11.358-7.528-18.175c0-6.817 2.707-13.354 7.528-18.175s11.358-7.527 18.175-7.527zM1031.862 196.364h-562.907c-6.817 0-13.355-2.71-18.175-7.531s-7.528-11.355-7.528-18.176c0-6.814 2.707-13.348 7.528-18.169s11.358-7.531 18.175-7.531h562.907c6.821 0 13.355 2.71 18.176 7.531s7.531 11.355 7.531 18.169c0 6.821-2.71 13.355-7.531 18.176s-11.355 7.531-18.176 7.531zM1057.568 589.496v-279.008c0-6.817-2.71-13.354-7.531-18.175s-11.355-7.528-18.176-7.528h-250.221c-6.821 0-13.355 2.707-18.176 7.528s-7.531 11.358-7.531 18.175v278.88c0 6.817 2.71 13.354 7.531 18.175s11.355 7.528 18.176 7.528h250.221c6.821 0 13.355-2.707 18.176-7.528s7.531-11.358 7.531-18.175v0.128zM1006.161 563.793h-198.821v-227.603h198.821v227.603zM-0.008 129.923v501.213c0 6.817 2.708 13.354 7.528 18.175s11.358 7.527 18.175 7.527c6.817 0 13.354-2.707 18.175-7.527s7.528-11.358 7.528-18.175v-501.213c0.975-28.547 13-55.593 33.536-75.441 20.537-19.842 47.979-30.937 76.54-30.937s56.003 11.095 76.54 30.937c20.537 19.849 32.562 46.894 33.537 75.441v771.998c0 6.817 2.708 13.354 7.528 18.175s11.358 7.528 18.175 7.528h906.048c6.821 0 13.355-2.708 18.176-7.528s7.531-11.358 7.531-18.175v-794.878c0.014-18.237-3.565-36.297-10.549-53.141-6.978-16.851-17.213-32.153-30.117-45.037-12.911-12.884-28.233-23.092-45.098-30.042-16.858-6.944-34.924-10.495-53.161-10.447h-928.544c-42.834 0.034-83.904 17.063-114.193 47.351s-47.319 71.358-47.353 114.196zM279.519 19.782h810.565c11.443 0 22.771 2.253 33.347 6.63 10.57 4.384 20.177 10.802 28.267 18.892s14.51 17.698 18.886 28.267c4.377 10.57 6.637 21.904 6.637 33.347v769.297h-854.134v-746.294c0.044-40.899-15.488-80.282-43.439-110.14h-0.129zM135.835 625.737v-495.433c0-6.814 2.707-13.355 7.528-18.176s11.358-7.524 18.175-7.524c6.817 0 13.355 2.703 18.175 7.524s7.528 11.362 7.528 18.176v495.433c0 6.817-2.707 13.354-7.528 18.175s-11.358 7.528-18.175 7.528c-6.817 0-13.354-2.707-18.175-7.528s-7.528-11.358-7.528-18.175z" />
<glyph unicode="&#xe909;" glyph-name="obuchenie" d="M1002.214 348.437c-6.969 13.699-10.667 28.743-10.667 44.33 0 21.447 6.878 41.916 19.894 59.188l-1.092 0.819 6.861 4.983c7.361 5.37 9 15.701 3.618 23.063-4.358 5.985-11.969 8.124-18.631 5.871-6.952 13.699-10.65 28.729-10.65 44.316 0 21.458 6.878 41.927 19.894 59.199l-1.092 0.819 6.838 4.972c7.373 5.37 9 15.69 3.641 23.063-4.369 6.008-11.998 8.124-18.631 5.872-6.975 13.71-10.667 28.752-10.667 44.328 0 21.458 6.866 41.927 19.888 59.21l-1.098 0.808 6.832 4.972c4.892 3.55 7.418 9.432 6.69 15.406-0.728 5.962-4.665 11.059-10.251 13.289l-443.726 177.516c-14.425 5.723-35.417 3.049-47.842-5.996l-492.009-357.82c-1.343-0.978-2.469-2.15-3.447-3.459l-0.034 0.034c-17.351-23.040-26.533-50.381-26.533-79.064 0-24.69 6.827-48.333 19.763-69.132-12.925-20.799-19.763-44.464-19.763-69.156 0-24.667 6.838-48.31 19.763-69.097-12.925-20.799-19.763-44.453-19.763-69.12 0-28.683 9.182-56.047 26.533-79.064l2.765-3.686 447.988-179.199c5.393-2.15 11.492-3.174 17.681-3.174 10.832 0 21.982 3.174 30.197 9.17l245.985 178.858c0 0.023 0.023 0.023 0.023 0.023l246.026 178.96c7.361 5.382 9 15.701 3.618 23.063-4.335 5.962-11.947 8.090-18.603 5.837zM541.446 907.759c1.866 1.354 6.064 2.799 10.911 2.799 2.981 0 4.699-0.558 5.268-0.774l415.969-166.4-467.839-340.241c-1.877-1.354-6.087-2.822-10.923-2.822-2.959 0-4.654 0.558-5.257 0.796l-415.96 166.388 467.831 340.253zM751.751 167.258c-0.023-0.011-0.046-0.034-0.046-0.046l-245.951-178.835c-3.664-2.64-11.958-3.709-16.191-2.037l-439.249 175.717c-11.321 16.475-17.283 35.601-17.283 55.592 0 17.294 4.528 33.906 13.084 48.765l431.172-172.463c5.404-2.139 11.515-3.186 17.704-3.186 10.843 0 21.97 3.163 30.174 9.159l245.985 178.892c0 0.011 0.023 0.011 0.023 0.023l189.621 137.924c-1.445-7.851-2.264-15.861-2.264-23.962 0-22.36 5.643-43.875 16.338-63.229l-223.117-162.314zM751.751 305.52c-0.023 0-0.046-0.023-0.046-0.023l-245.951-178.88c-3.652-2.651-11.936-3.675-16.191-2.002l-439.249 175.695c-11.321 16.486-17.283 35.578-17.283 55.558 0 17.306 4.528 33.954 13.084 48.802l431.172-172.488c5.393-2.15 11.492-3.186 17.681-3.186 10.832 0 21.982 3.174 30.197 9.17l435.63 316.839c-1.445-7.839-2.264-15.849-2.264-23.973 0-22.357 5.643-43.85 16.338-63.192l-223.117-162.317zM751.762 443.786l-246.008-178.917c-3.664-2.64-11.981-3.709-16.18-2.025l-439.261 175.732c-11.321 16.464-17.283 35.578-17.283 55.58 0 17.306 4.528 33.929 13.084 48.788l431.172-172.5c5.177-2.071 11.23-3.152 17.545-3.152 11.298 0 22.346 3.334 30.333 9.15l435.63 316.814c-1.445-7.839-2.264-15.849-2.264-23.973 0-22.357 5.655-43.861 16.361-63.216l-223.129-162.28zM710.404 622.746c3.447 0 6.861 1.070 9.717 3.152l98.896 71.93c4.881 3.55 7.418 9.433 6.69 15.406-0.74 5.973-4.665 11.071-10.251 13.289l-269.755 107.895c-5.257 2.116-11.253 1.365-15.861-1.98l-98.896-71.942c-4.87-3.538-7.418-9.421-6.679-15.394s4.665-11.071 10.251-13.301l269.744-107.885c1.98-0.774 4.062-1.172 6.144-1.172zM541.888 800.377l233.528-93.4-67.356-48.993-233.528 93.401 67.356 48.993z" />
<glyph unicode="&#xe90a;" glyph-name="palec" horiz-adv-x="1126" d="M566.176 959.925c-5.543-0.2-11.205-0.787-16.603-1.95-43.18-9.296-76.647-47.962-79.048-96.308-5.5-143.071-24.272-227.85-114.226-355.6-11.24 17.666-30.92 29.633-53.359 29.633h-227.663c-34.597 0-63.24-28.255-63.24-62.385v-449.182c0-34.13 28.643-62.384 63.24-62.384h227.663c21.814 0 41.176 11.22 52.568 28.073 13.155-10.453 25.328-19.847 37.943-27.295 20.857-12.306 44.43-19.707 76.679-23.003 64.496-6.591 170.332-1.718 414.613-2.73 5.741 0.125 11.418 2.206 15.809 5.849 49.161 39.559 70.512 77.447 80.238 120.093 4.786 1.454 9.109 4.344 12.253 8.19 36.761 45.325 50.064 97.62 41.5 142.707 3.524 1.609 6.659 4.032 9.088 7.017 42.943 49.695 51.621 113.335 36.367 161.426 26.236 30.606 37.078 66.514 33.201 99.815-6.176 42.154-37.219 84.518-76.678 91.24h-325.687c19.473 126.374 6.566 242.518-36.756 317.778-23.392 40.63-57.495 63.366-91.304 68.235-5.631 0.811-11.055 0.986-16.598 0.773v0.006zM630.207 866.347c36.994-64.266 52.342-184.466 27.268-313.49-2.782-14.392 10.048-29.664 24.902-29.633h347.029c18.99-9.612 31.192-26.156 33.596-46.789 2.325-19.986-5.917-43.484-26.48-65.505h-114.135c-13.364 0-25.654-11.771-25.654-24.954 0-13.188 12.29-25.14 25.654-24.954h110.969c7.599-27.564 1.76-64.247-23.319-99.821h-112.946c-13.364 0-25.654-11.766-25.654-24.954 0-13.183 12.29-25.14 25.654-24.954h85.678c7.594-27.559 1.755-64.242-23.324-99.816h-87.65c-13.364 0-25.654-11.771-25.654-24.954 0-13.188 12.295-25.146 25.654-24.954h57.221c-7.8-26.697-22.068-47.173-54.942-74.867-235.095 0.799-344.108-2.86-398.804 2.73-27.889 2.849-40.984 6.892-55.729 15.597-13.289 7.842-29.558 21.674-53.359 40.55v389.136c117.536 147.468 149.121 271.456 154.937 425.002 16.925 76.458 85.231 55.372 109.090 6.63zM75.277 485.792h227.663c7.445 0 12.648-5.132 12.648-12.476v-449.182c0-7.344-5.203-12.476-12.648-12.476h-227.663c-7.445 0-12.648 5.133-12.648 12.476v449.182c0 7.344 5.203 12.476 12.648 12.476z" />
<glyph unicode="&#xe90b;" glyph-name="profile" d="M512-64c-282.778 0-512 229.222-512 511.999 0 282.779 229.222 512.001 512 512.001s512-229.222 512-512.001c0-282.777-229.222-511.999-512-511.999zM512 904.301c-250.644 0-456.301-205.657-456.301-456.302s205.657-456.3 456.301-456.3c250.647 0 456.3 205.653 456.3 456.3 0 250.644-205.653 456.302-456.3 456.302zM212.081 77.386l-51.414 23.563c14.996 36.42 62.126 55.7 115.682 79.263 51.414 23.569 115.682 51.416 115.682 85.692v47.132c-19.28 14.996-49.272 49.271-53.556 98.544-14.996 14.996-38.56 42.845-38.56 77.121 0 21.423 8.569 38.561 14.996 49.273-4.285 23.565-12.854 70.695-12.854 107.113 0 117.825 81.406 194.947 209.942 194.947 36.419 0 81.405-10.711 104.969-36.419 57.845-10.711 104.971-79.264 104.971-158.528 0-51.414-8.567-94.26-14.996-113.541 6.428-10.711 12.857-25.707 12.857-42.845 0-40.703-19.28-66.41-38.565-79.264-4.284-49.275-32.131-81.406-49.271-96.402v-47.132c0-29.992 53.561-49.271 102.832-68.551 57.839-21.424 117.823-42.843 137.102-92.12l-53.555-19.28c-8.567 25.708-59.984 42.849-102.827 59.984-66.412 23.569-141.392 51.416-141.392 119.967v77.124l12.851 8.567c2.145 0 38.565 25.708 38.565 74.981v19.28l17.135 6.427c2.145 2.142 19.28 10.712 19.28 36.419 0 8.569-6.423 17.138-8.567 19.281l-10.712 12.853 4.284 14.996c0 0 14.996 47.13 14.996 111.398 0 53.557-29.992 102.829-62.123 102.829h-17.141l-8.567 14.996c-6.427 10.711-32.134 21.423-66.41 21.423-96.402 0-154.243-51.414-154.243-139.248 0-40.703 14.996-107.113 14.996-107.113l4.284-14.996-10.711-10.712c0 0-8.569-10.711-8.569-21.423 0-14.996 19.28-34.276 27.849-42.845l10.711-8.569v-14.996c0-47.128 40.703-72.836 40.703-72.836l12.853-8.573v-77.119c0-70.696-79.263-107.116-149.958-137.108-29.992-17.135-74.979-38.559-83.548-53.555z" />
<glyph unicode="&#xe90c;" glyph-name="star" d="M374.303 527.739l-26.658-155.431c-1.093-6.407 1.536-12.871 6.792-16.691 5.268-3.824 12.22-4.323 17.977-1.3l139.581 73.39 139.585-73.39c2.502-1.304 5.222-1.955 7.943-1.955 3.535 0 7.066 1.104 10.035 3.263 5.254 3.811 7.885 10.289 6.79 16.691l-26.655 155.433 112.925 110.080c4.653 4.528 6.322 11.321 4.323 17.499-2.017 6.178-7.351 10.684-13.779 11.617l-156.058 22.676-69.792 141.414c-2.889 5.814-8.815 9.5-15.315 9.5-6.496 0-12.422-3.686-15.302-9.512l-69.79-141.414-156.058-22.676c-6.428-0.933-11.765-5.439-13.779-11.617-2.003-6.178-0.33-12.959 4.324-17.499l112.913-110.080zM440.681 657.116c5.551 0.808 10.364 4.301 12.844 9.33l58.47 118.466 58.461-118.454c2.489-5.029 7.293-8.533 12.845-9.33l130.72-18.989-94.586-92.205c-4.025-3.925-5.859-9.569-4.915-15.11l22.323-130.185-116.914 61.462c-2.493 1.309-5.213 1.959-7.943 1.959-2.734 0-5.449-0.659-7.943-1.959l-116.918-61.462 22.323 130.185c0.944 5.53-0.887 11.184-4.915 15.11l-94.583 92.205 130.731 18.978zM718.946 401.978c-1.331-9.327 5.165-17.973 14.492-19.296 97.329-13.833 128.503-32.198 133.498-39.299-12.243-19.616-137.639-53.155-354.932-53.155s-342.687 33.538-354.93 53.146c4.972 7.066 35.909 25.324 132.346 39.139 9.33 1.34 15.815 9.977 14.473 19.318-1.331 9.332-10.012 15.85-19.319 14.474-162.031-23.214-162.031-60.599-162.031-72.887v-109.604c0-86.332 373.553-87.325 389.452-87.325 15.565 0 373.631 1.015 388.719 82.036h0.73v114.902c0 12.337 0 49.86-163.226 73.047-9.252 1.345-17.956-5.165-19.273-14.496zM512.004 180.625c-221.127 0-347.079 34.736-355.316 53.19v69.734c92.558-46.783 342.378-47.456 355.316-47.456s262.758 0.672 355.319 47.456v-69.004c-9.367-19.492-135.146-53.92-355.319-53.92zM512 960c-282.317 0-512-229.683-512-512s229.683-512 512-512c282.317 0 512 229.683 512 512s-229.683 512-512 512zM512-29.865c-263.498 0-477.867 214.368-477.867 477.865s214.369 477.867 477.867 477.867c263.497 0 477.865-214.369 477.865-477.867s-214.368-477.865-477.865-477.865z" />
<glyph unicode="&#xe90d;" glyph-name="arrow_right" d="M1009.723 413.519c19.036 19.043 19.036 49.917 0 68.96l-310.324 310.32c-19.043 19.043-49.917 19.043-68.96 0s-19.044-49.917 0-68.96l275.838-275.839-275.838-275.839c-19.044-19.043-19.044-49.917 0-68.96s49.917-19.044 68.96 0l310.324 310.318zM0 399.237h975.238v97.524h-975.238v-97.524z" />
<glyph unicode="&#xe90e;" glyph-name="arrow_up" d="M533.941 950.912c-12.118 12.118-31.765 12.118-43.883 0l-197.476-197.476c-12.118-12.118-12.118-31.765 0-43.883s31.765-12.118 43.884 0l175.534 175.534 175.534-175.534c12.118-12.118 31.765-12.118 43.883 0s12.118 31.765 0 43.883l-197.476 197.476zM543.031-64v992.97h-62.060v-992.97h62.060z" />
<glyph unicode="&#xe90f;" glyph-name="badge" d="M958.966 682.536h-338.307v219.131c0 10.649-8.63 19.281-19.28 19.281h-178.757c-10.65 0-19.281-8.631-19.281-19.281v-219.131h-338.309c-17.325 0-33.64-6.761-45.939-19.038-12.314-12.289-19.092-28.6-19.092-45.922v-577.57c0-35.817 29.174-64.956 65.031-64.956h893.934c35.863 0 65.035 29.138 65.035 64.956v577.57c0 35.819-29.173 64.961-65.035 64.961zM441.903 882.386h140.196v-248.095h-140.196v248.095zM985.442 40.006c0-14.552-11.878-26.391-26.476-26.391h-893.934c-14.595 0-26.47 11.839-26.47 26.391v577.572c0 7.009 2.759 13.625 7.77 18.627 5.019 5.011 11.661 7.77 18.7 7.77h338.309v-28.966c0-10.65 8.631-19.281 19.281-19.281h178.757c10.65 0 19.28 8.631 19.28 19.281v28.966h338.307c14.598 0 26.476-11.843 26.476-26.399v-577.57zM477.431 538.123h-359.636c-10.65 0-19.281-8.631-19.281-19.281v-380.185c0-10.644 8.631-19.28 19.281-19.28h359.636c10.649 0 19.281 8.636 19.281 19.28v380.185c0 10.65-8.633 19.281-19.281 19.281zM137.076 499.561h321.075v-332.83c-8.282 23.808-24.268 45.318-46.627 62.197-29.45 22.232-67.546 34.475-107.273 34.475-39.744 0-77.853-12.242-107.308-34.475-25.084-18.933-42.147-43.696-49.304-70.986h-10.562v341.619zM188.191 157.942c15.885 38.838 62.502 66.901 116.061 66.901 53.538 0 100.139-28.063 116.018-66.901h-232.079zM304.254 277.261c49.987 0 90.654 40.676 90.654 90.681 0 49.958-40.667 90.604-90.654 90.604s-90.655-40.646-90.655-90.604c0-50.006 40.667-90.681 90.655-90.681zM304.254 419.985c28.724 0 52.092-23.344 52.092-52.043 0-28.741-23.368-52.122-52.092-52.122s-52.094 23.381-52.094 52.122c0 28.696 23.371 52.043 52.094 52.043zM906.207 516.326h-324.312c-10.65 0-19.282-8.631-19.282-19.281s8.633-19.28 19.282-19.28h324.312c10.65 0 19.28 8.631 19.28 19.28s-8.63 19.281-19.28 19.281zM906.207 404.13h-93.872c-10.644 0-19.28-8.631-19.28-19.28s8.636-19.281 19.28-19.281h93.872c10.65 0 19.28 8.631 19.28 19.281s-8.63 19.28-19.28 19.28zM581.895 253.374h52.048c10.65 0 19.28 8.63 19.28 19.28s-8.63 19.28-19.28 19.28h-52.048c-10.65 0-19.282-8.63-19.282-19.28s8.633-19.28 19.282-19.28zM771.079 179.822h-189.184c-10.65 0-19.282-8.63-19.282-19.28s8.633-19.285 19.282-19.285h189.184c10.65 0 19.28 8.636 19.28 19.285s-8.636 19.28-19.28 19.28zM512.003 753.601c33.559 0 60.864 27.274 60.864 60.797 0 33.563-27.305 60.869-60.864 60.869-33.562 0-60.863-27.306-60.863-60.869 0-33.523 27.303-60.797 60.863-60.797zM512.003 836.706c12.297 0 22.301-10.007 22.301-22.308 0-12.261-10.004-22.235-22.301-22.235s-22.302 9.974-22.302 22.235c0 12.301 10.004 22.308 22.302 22.308zM581.895 365.569h145.755c10.65 0 19.28 8.631 19.28 19.281s-8.63 19.28-19.28 19.28h-145.755c-10.65 0-19.282-8.631-19.282-19.28s8.633-19.281 19.282-19.281zM906.201 292.018h-195.197c-10.65 0-19.28-8.63-19.28-19.28s8.63-19.285 19.28-19.285h195.197c10.65 0 19.28 8.636 19.28 19.285s-8.63 19.28-19.28 19.28z" />
<glyph unicode="&#xe910;" glyph-name="burger" d="M71.442 869.066c-39.456 0-71.442-33.267-71.442-74.306 0-41.036 31.986-74.306 71.442-74.306h881.117c39.454 0 71.441 33.269 71.441 74.306 0 41.039-31.987 74.306-71.441 74.306h-881.117zM71.442 522.306c-39.456 0-71.442-33.266-71.442-74.307 0-41.037 31.986-74.304 71.442-74.304h881.117c39.454 0 71.441 33.267 71.441 74.304 0 41.041-31.987 74.307-71.441 74.307h-881.117zM71.442 175.546c-39.456 0-71.442-33.267-71.442-74.308 0-41.037 31.986-74.304 71.442-74.304h881.117c39.454 0 71.441 33.267 71.441 74.304 0 41.041-31.987 74.308-71.441 74.308h-881.117z" />
<glyph unicode="&#xe911;" glyph-name="close" d="M16.64-42.72c10.667-10.569 25.128-16.506 40.205-16.506s29.537 5.938 40.206 16.506l414.948 411.631 414.951-411.631c10.666-10.569 25.129-16.506 40.204-16.506 15.080 0 29.537 5.938 40.209 16.506 10.652 10.584 16.638 24.925 16.638 39.884s-5.986 29.3-16.638 39.884l-414.951 411.631 414.951 411.631c10.050 10.699 15.522 24.85 15.259 39.472s-6.229 28.573-16.653 38.913c-10.429 10.341-24.489 16.263-39.229 16.522s-29.003-5.169-39.792-15.139l-414.951-411.631-414.948 411.631c-10.785 9.97-25.050 15.397-39.79 15.139s-28.802-6.181-39.227-16.522c-10.424-10.341-16.395-24.291-16.656-38.913s5.211-28.773 15.261-39.472l414.95-411.631-414.95-411.631c-10.655-10.584-16.639-24.925-16.639-39.884s5.984-29.3 16.639-39.884z" />
<glyph unicode="&#xe912;" glyph-name="common_rating" d="M471.185 958.76c-118.029-9.678-228.063-59.12-313.061-140.33-86.050-82.683-139.699-189.772-155.478-310.747-3.156-24.616-3.156-95.728 0-119.923 23.143-176.518 126.865-322.528 283.185-399.742 50.283-24.826 107.93-42.078 166.208-49.652 24.616-3.156 95.728-3.156 119.923 0 59.12 7.784 115.925 24.616 166.208 49.652 156.32 77.003 260.253 223.855 283.185 399.742 3.156 24.616 3.156 95.728 0 119.923-15.99 121.816-69.008 227.853-155.268 310.326-79.528 76.372-184.302 125.813-293.074 138.647-27.351 3.366-76.372 4.418-101.829 2.104zM583.534 899.009c101.619-17.252 184.723-61.013 255.624-133.808 36.398-37.239 58.489-68.587 81.631-114.663 20.618-41.237 34.925-85.629 42.92-133.177 5.26-30.927 5.26-109.824 0-140.12-18.304-104.143-61.644-186.827-136.333-258.78-67.325-65.011-150.219-106.458-245.736-122.447-30.927-5.26-109.824-5.26-140.12 0-103.302 18.094-185.564 61.013-256.676 134.229-45.655 46.917-78.476 98.463-100.987 158.424-20.197 54.281-27.351 95.728-27.351 159.055 0 51.756 2.525 72.795 13.675 115.084 21.46 82.263 62.276 151.902 124.341 212.073 75.951 73.847 163.684 114.663 275.401 128.128 17.042 2.104 94.465-0.631 113.611-3.997zM504.217 843.256c-3.366-7.574-28.192-64.379-55.122-126.234l-48.811-112.769-141.382-16.41c-77.844-9.047-142.013-17.042-142.855-17.883-0.842-0.631 46.075-41.447 104.354-90.468l105.826-88.995-1.683-7.784c-11.361-51.756-56.595-274.349-56.174-275.822 0.421-1.052 55.333 30.296 122.237 69.85l121.395 71.533 121.606-71.533c67.535-39.764 121.606-70.481 122.026-69.008 0.421 1.894-45.865 228.694-56.174 274.98l-1.683 7.784 105.826 88.995c81.421 68.587 105.195 89.626 102.25 90.678-1.894 0.842-63.327 8.836-136.333 17.883l-132.756 16.2-63.327 126.445-63.117 126.234-6.101-13.675zM557.656 638.338c34.925-69.85 43.34-84.998 47.338-86.050 2.735-0.631 42.078-5.681 87.522-11.151 45.234-5.681 82.263-10.94 82.052-11.782-0.421-0.842-31.769-27.561-69.639-59.54-50.704-42.709-68.798-59.12-67.956-61.644 1.473-5.26 39.133-187.458 39.133-189.772 0-0.842-37.029 19.987-82.052 46.496l-82.263 48.39-81.842-48.39c-45.234-26.509-82.052-47.548-82.052-46.496 0 2.314 37.66 184.512 39.133 189.772 0.842 2.525-17.462 18.935-68.377 61.855-38.291 32.19-69.008 58.909-68.377 59.54 0.421 0.421 42.288 5.891 93.203 11.782 50.704 6.101 93.203 11.571 94.255 12.203s18.304 39.133 38.501 85.418c20.197 46.496 37.239 84.367 37.87 84.367s20.197-38.291 43.551-84.998z" />
<glyph unicode="&#xe913;" glyph-name="delete" d="M171.974 609.512h10.462v-542.73c0-71.93 58.851-130.782 130.779-130.782h397.569c71.93 0 130.776 58.852 130.776 130.782v542.73h10.462c36.619 0 65.394 28.772 65.394 65.39v107.238c0 36.618-28.774 65.39-65.394 65.39h-162.162v40.541c0 39.234-32.696 71.929-71.93 71.929h-211.862c-39.234 0-71.929-32.695-71.929-71.929v-40.541h-162.166c-36.618 0-65.39-28.772-65.39-65.39v-107.238c0-35.31 30.079-65.39 65.39-65.39zM789.251 66.782c0-43.162-35.311-78.473-78.467-78.473h-397.569c-43.157 0-78.467 35.311-78.467 78.473v542.73h554.503v-542.73zM386.451 888.071c0 10.462 9.155 19.617 19.617 19.617h210.554c10.462 0 19.617-9.155 19.617-19.617v-40.541h-249.788v40.541zM158.896 782.14c0 7.847 5.231 13.078 13.078 13.078h680.048c7.851 0 13.079-5.232 13.079-13.078v-107.238c0-7.847-5.228-13.078-13.079-13.078h-680.048c-7.847 0-13.078 5.231-13.078 13.078v107.238zM672.854 497.042h-52.312v-381.876h52.312v381.876zM538.16 497.042h-52.312v-381.876h52.312v381.876zM403.452 497.042h-52.312v-381.876h52.312v381.876z" />
<glyph unicode="&#xe914;" glyph-name="edit" d="M787.283 792.648l-374.060-374.057c-3.487-3.578-5.729-8.183-6.393-13.135l-26.503-185.98c-0.469-3.317-0.216-6.696 0.74-9.899 0.957-3.209 2.595-6.172 4.802-8.693 2.207-2.514 4.932-4.523 7.988-5.888 3.056-1.371 6.371-2.059 9.718-2.025h2.906l188.886 23.245c5.148 0.631 9.933 2.964 13.602 6.628l373.591 374.523c13.039 12.775 23.41 28.008 30.521 44.816 7.117 16.809 10.826 34.862 10.917 53.113s-3.436 36.341-10.377 53.221c-6.94 16.88-17.163 32.216-30.071 45.122-12.902 12.906-28.24 23.126-45.119 30.067s-34.97 10.469-53.22 10.377c-18.256-0.092-36.306-3.802-53.117-10.914-16.805-7.112-32.040-17.486-44.811-30.521zM581.19 262.018l-151.113-18.83 21.155 148.087 323.26 322.911 129.605-129.607-322.908-322.562zM949.667 630.262l-12.789-12.786-129.491 129.49 12.789 12.786c17.323 16.419 40.368 25.427 64.239 25.107 23.865-0.32 46.66-9.942 63.539-26.82 16.873-16.877 26.499-39.675 26.817-63.54s-8.687-46.913-25.105-64.237zM0 907.144c0-6.166 2.449-12.079 6.809-16.439s10.273-6.809 16.439-6.809h743.93c6.167 0 12.078 2.449 16.435 6.809 4.363 4.36 6.81 10.273 6.81 16.439s-2.446 12.079-6.81 16.439c-4.358 4.36-10.268 6.809-16.435 6.809h-743.93c-6.166 0-12.079-2.449-16.439-6.809s-6.809-10.273-6.809-16.439zM23.248 654.324h511.451c6.166 0 12.079 2.449 16.439 6.809s6.809 10.273 6.809 16.439c0 6.166-2.449 12.079-6.809 16.439s-10.273 6.809-16.439 6.809h-511.451c-6.166 0-12.079-2.45-16.439-6.809s-6.809-10.273-6.809-16.439c0-6.166 2.449-12.079 6.809-16.439s10.273-6.809 16.439-6.809zM23.248 424.752h278.973c6.166 0 12.079 2.449 16.439 6.809s6.809 10.273 6.809 16.439c0 6.166-2.449 12.079-6.809 16.439s-10.273 6.809-16.439 6.809h-278.973c-6.166 0-12.079-2.45-16.439-6.809s-6.809-10.273-6.809-16.439c0-6.166 2.449-12.079 6.809-16.439s10.273-6.809 16.439-6.809zM23.248 195.179h278.973c6.166 0 12.079 2.452 16.439 6.81s6.809 10.274 6.809 16.441c0 6.161-2.449 12.078-6.809 16.435-4.36 4.363-10.273 6.81-16.439 6.81h-278.973c-6.166 0-12.079-2.446-16.439-6.81-4.36-4.358-6.809-10.274-6.809-16.435 0-6.167 2.449-12.083 6.809-16.441s10.273-6.81 16.439-6.81zM23.248-34.391h743.93c6.167 0 12.078 2.446 16.435 6.81 4.363 4.358 6.81 10.268 6.81 16.435s-2.446 12.078-6.81 16.441c-4.358 4.358-10.268 6.81-16.435 6.81h-743.93c-6.166 0-12.079-2.452-16.439-6.81-4.36-4.363-6.809-10.274-6.809-16.441s2.449-12.078 6.809-16.435c4.36-4.363 10.273-6.81 16.439-6.81z" />
<glyph unicode="&#xe915;" glyph-name="empty_msg" d="M954.419 520.833c-93.258 295.508-239.024 439.167-445.588 439.167-207.899 0-357.842-147.861-445.704-439.483-48-159.341-91.192-339.281 4.53-457.718 64.164-79.406 222.082-126.8 422.448-126.8 0.013 0 0 0 0.013 0 153.739 0 365.958 32.683 458.084 124.831 115.063 115.069 52.15 314.414 6.218 460.001zM912.503 96.519c-65.82-65.832-235.583-110.046-422.411-110.046-182.498 0-329.338 41.404-383.18 108.049-80.252 99.322-39.735 264.442 4.53 411.435 80.682 267.798 214.372 403.571 397.376 403.571 181.676 0 311.696-132.113 397.462-403.899 52.508-166.36 92.484-322.867 6.224-409.11zM376.244 275.019c-41.742 0-75.684-33.957-75.684-75.685s33.943-75.685 75.684-75.685c41.741 0 75.684 33.957 75.684 75.685s-33.956 75.685-75.684 75.685zM376.244 174.121c-13.905 0-25.211 11.304-25.211 25.213 0 13.904 11.306 25.207 25.211 25.207s25.211-11.304 25.211-25.207c0-13.909-11.319-25.213-25.211-25.213zM450.677 481.893l-112.29 39.924c-13.136 4.707-27.558-2.195-32.24-15.331-4.669-13.123 2.195-27.559 15.331-32.227l112.29-39.925c2.802-1.009 5.641-1.476 8.454-1.476 10.373 0 20.101 6.46 23.786 16.795 4.669 13.136-2.196 27.584-15.332 32.24zM317.582 685.123c-0.063 0-0.139 0-0.214 0-13.93-0.025-25.224-11.331-25.211-25.262s11.306-25.211 25.236-25.211c0.051-0.013 0.126 0 0.189 0 92.328 0 110.675-69.477 112.48-77.54 2.536-11.836 12.984-19.949 24.644-19.949 1.703 0 3.42 0.176 5.161 0.53 13.64 2.839 22.397 16.202 19.571 29.842-8.454 40.694-53.161 117.59-161.855 117.59zM685.63 521.817l-112.29-39.924c-13.136-4.656-20-19.104-15.332-32.24 3.685-10.321 13.413-16.795 23.788-16.795 2.81 0 5.649 0.467 8.454 1.476l112.287 39.925c13.136 4.668 20.002 19.104 15.332 32.227-4.693 13.136-19.103 20.038-32.239 15.331zM706.622 685.123c-0.080 0-0.142 0-0.216 0-108.669 0-153.389-76.896-161.856-117.577-2.827-13.565 5.855-26.776 19.394-29.703 1.792-0.391 3.558-0.568 5.312-0.568 11.584 0 22.029 8.063 24.669 19.811 1.781 7.937 20.036 77.552 112.481 77.552 0.063 0 0.125-0.013 0.188 0 13.932 0 25.225 11.293 25.236 25.211s-11.281 25.249-25.207 25.274z" />
<glyph unicode="&#xe916;" glyph-name="logout" d="M1015.256 469.408l-221.702 221.706c-5.888 4.417-13.175 6.561-20.52 6.039-7.339-0.522-14.251-3.675-19.456-8.88-5.2-5.205-8.357-12.113-8.875-19.456-0.523-7.342 1.621-14.627 6.036-20.516l169.722-169.719h-629.951c-8.11 0-15.888-3.222-21.623-8.957s-8.957-13.513-8.957-21.623c0-8.111 3.222-15.889 8.957-21.623s13.513-8.957 21.623-8.957h629.951l-169.722-169.717c-3.504-2.634-6.406-5.985-8.499-9.83-2.099-3.846-3.345-8.095-3.652-12.47-0.313-4.369 0.319-8.755 1.849-12.857 1.536-4.107 3.931-7.834 7.026-10.934 3.1-3.095 6.827-5.495 10.934-7.026 4.102-1.53 8.488-2.162 12.857-1.855 4.375 0.313 8.624 1.559 12.47 3.658 3.851 2.094 7.202 4.995 9.83 8.499l221.702 221.706c5.604 5.716 8.744 13.401 8.744 21.406s-3.14 15.689-8.744 21.406zM152.901 59.636h301.214c20.080 0 39.962 3.954 58.512 11.639 18.551 7.68 35.407 18.944 49.605 33.143 14.195 14.199 25.459 31.056 33.145 49.601 7.686 18.551 11.639 38.434 11.639 58.516v82.565c0 8.11-3.226 15.888-8.96 21.623s-13.511 8.957-21.623 8.957c-8.108 0-15.887-3.222-21.621-8.957s-8.957-13.513-8.957-21.623v-82.565c0-24.331-9.665-47.667-26.87-64.87s-40.539-26.869-64.87-26.869h-301.214c-24.331 0-47.665 9.665-64.87 26.869s-26.87 40.539-26.87 64.87v470.931c0 24.331 9.665 47.665 26.87 64.87s40.539 26.87 64.87 26.87h301.214c24.331 0 47.665-9.665 64.87-26.87s26.87-40.539 26.87-64.87v-82.566c0-8.11 3.222-15.888 8.957-21.623s13.513-8.957 21.621-8.957c8.112 0 15.889 3.222 21.623 8.957s8.96 13.513 8.96 21.623v82.566c0 20.079-3.954 39.962-11.639 58.512s-18.95 35.406-33.145 49.604c-14.198 14.198-31.054 25.461-49.605 33.145s-38.433 11.639-58.512 11.639h-301.214c-40.552 0-79.442-16.109-108.117-44.784s-44.784-67.565-44.784-108.117v-470.931c0-40.55 16.109-79.445 44.784-108.117 28.674-28.678 67.565-44.783 108.117-44.783z" />
<glyph unicode="&#xe917;" glyph-name="my_rating" d="M513.089 342.129c-93.352 0-169.297 75.943-169.297 169.295 0 93.35 75.946 169.297 169.297 169.297s169.301-75.946 169.301-169.297-75.943-169.295-169.301-169.295zM513.089 635.68c-68.513 0-124.252-55.741-124.252-124.253s55.739-124.253 124.252-124.253c68.513 0 124.257 55.741 124.257 124.253s-55.744 124.253-124.257 124.253zM507.498-30.978c-132.35 0-256.778 51.538-350.363 145.127-93.588 93.582-145.127 218.014-145.127 350.363s51.54 256.778 145.127 350.362c93.582 93.586 218.011 145.127 350.363 145.127 132.354 0 256.781-51.539 350.363-145.127 93.588-93.584 145.127-218.013 145.127-350.362 0-101.071-30.267-198.32-87.538-281.236-4.2-6.089-11.127-9.722-18.533-9.722h-61.816c-9.756 0-18.406 6.284-21.422 15.561l-26.283 80.893-26.283-80.893c-3.016-9.277-11.661-15.561-21.417-15.561h-85.060l68.815-49.994c7.895-5.733 11.195-15.899 8.184-25.178l-25.861-79.588c-2.055-6.333-6.816-11.433-12.995-13.928-58.949-23.783-121.288-35.844-185.281-35.844zM507.498 914.956c-248.375 0-450.445-202.069-450.445-450.445s202.069-450.446 450.445-450.446c54.697 0 108.044 9.683 158.732 28.789l17.505 53.883-111.649 81.116c-7.896 5.733-11.199 15.899-8.184 25.183 3.015 9.277 11.661 15.561 21.422 15.561h138.004l42.649 131.254c3.016 9.277 11.667 15.561 21.422 15.561s18.406-6.284 21.422-15.561l42.644-131.254h33.456c47.806 73.188 73.021 157.96 73.021 245.914 0 248.375-202.070 450.445-450.446 450.445zM507.5-30.978c-109.593 0-213.47 35.083-300.406 101.461-7.293 5.572-10.477 15.005-8.057 23.855 23.059 84.194 64.074 156.432 118.616 208.915 57.056 54.905 124.64 83.922 195.441 83.922 97.519 0 189.856-56.433 253.345-154.82 3.672-5.689 4.589-12.728 2.495-19.172l-7.822-24.067c-3.011-9.277-11.661-15.561-21.417-15.561h-85.054l68.81-49.994c7.895-5.733 11.2-15.899 8.184-25.178l-25.861-79.588c-2.055-6.333-6.811-11.433-12.989-13.928-58.927-23.783-121.265-35.844-185.285-35.844zM246.767 97.187c76.427-54.438 166.236-83.121 260.733-83.121 54.713 0 108.058 9.683 158.734 28.789l17.505 53.883-111.655 81.116c-7.892 5.733-11.197 15.899-8.18 25.183 3.015 9.277 11.663 15.561 21.419 15.561h136.131c-54.572 78.683-129.921 123.532-208.362 123.532-115.504 0-221.102-97.793-266.328-244.942zM912.288-64c-4.649 0-9.295 1.433-13.239 4.3l-111.655 81.121-111.649-81.121c-7.895-5.733-18.577-5.733-26.478 0-7.895 5.739-11.195 15.906-8.184 25.183l42.649 131.254-111.649 81.116c-7.896 5.739-11.2 15.906-8.185 25.183s11.662 15.561 21.423 15.561h138.004l42.649 131.254c3.016 9.277 11.661 15.561 21.422 15.561 9.756 0 18.406-6.284 21.417-15.561l42.649-131.254h138.004c9.761 0 18.406-6.284 21.422-15.561s-0.289-19.444-8.184-25.183l-111.649-81.116 42.649-131.254c3.016-9.277-0.289-19.444-8.184-25.183-3.95-2.867-8.595-4.3-13.239-4.3zM787.395 71.781c4.649 0 9.295-1.433 13.239-4.3l68.815-49.994-26.289 80.893c-3.011 9.277 0.289 19.444 8.184 25.178l68.81 49.994h-85.054c-9.756 0-18.406 6.284-21.422 15.561l-26.283 80.893-26.283-80.893c-3.016-9.277-11.661-15.561-21.422-15.561h-85.054l68.815-49.994c7.895-5.733 11.195-15.899 8.178-25.178l-26.283-80.893 68.81 49.994c3.95 2.867 8.595 4.3 13.239 4.3z" />
<glyph unicode="&#xe918;" glyph-name="networking" d="M921.606 331.848c-19.928 11.457-43.127 15.866-65.872 12.527-22.738-3.345-43.696-14.245-59.483-30.948l-51.172 29.679c15.172 32.887 23.023 68.675 23.023 104.892s-7.851 72.004-23.023 104.892l51.172 29.677c9.523-10.133 21.015-18.218 33.775-23.76 12.754-5.543 26.505-8.426 40.414-8.476 22.585 0.13 44.498 7.728 62.31 21.612 17.818 13.883 30.538 33.27 36.187 55.139 3.436 12.836 4.301 26.225 2.549 39.397-1.758 13.172-6.104 25.866-12.783 37.353-12.561 21.036-32.256 36.867-55.501 44.615-23.239 7.748-48.492 6.899-71.168-2.392-22.67-9.292-41.256-26.409-52.378-48.241-11.116-21.832-14.034-46.929-8.226-70.731l-51.166-30.189c-21.276 29.323-48.543 53.791-79.991 71.786-31.445 17.994-66.354 29.104-102.416 32.594v57.307c24.117 6.226 45.135 21.035 59.113 41.649s19.96 45.62 16.821 70.329c-3.139 24.709-15.181 47.425-33.869 63.89s-42.741 25.549-67.648 25.549c-24.908 0-48.96-9.084-67.648-25.549s-30.731-39.181-33.87-63.89c-3.138-24.709 2.843-49.714 16.821-70.329s34.997-35.423 59.113-41.649v-57.307c-35.863-3.599-70.56-14.736-101.82-32.68s-58.373-42.291-79.567-71.444l-52.446 29.933c5.814 23.802 2.895 48.899-8.226 70.731s-29.706 38.95-52.378 48.241c-22.671 9.291-47.924 10.14-71.168 2.392s-42.937-23.579-55.499-44.615c-13.546-23.482-17.22-51.38-10.218-77.569s24.111-48.529 47.569-62.116c15.498-9.134 33.178-13.907 51.167-13.815 13.908 0.049 27.66 2.933 40.416 8.476s24.248 13.627 33.776 23.76l51.166-29.677c-15.167-32.888-23.022-68.675-23.022-104.892s7.855-72.004 23.022-104.892l-51.166-29.679c-11.63 12.373-26.154 21.652-42.264 27.011-16.11 5.353-33.3 6.622-50.021 3.681-16.721-2.947-32.447-10.001-45.762-20.531-13.315-10.536-23.799-24.218-30.509-39.811s-9.435-32.614-7.928-49.527c1.506-16.907 7.196-33.178 16.557-47.343s22.098-25.776 37.065-33.792c14.967-8.010 31.693-12.18 48.67-12.117 22.586 0.131 44.495 7.731 62.31 21.612s30.539 33.269 36.185 55.137c4.333 16.782 4.333 34.389 0 51.166l52.446 30.191c21.196-29.23 48.34-53.646 79.647-71.634s66.067-29.15 101.995-32.745v-57.31c-24.116-6.224-45.134-21.032-59.113-41.648-13.979-20.611-19.959-45.619-16.821-70.326 3.139-24.713 15.181-47.428 33.87-63.892s42.741-25.549 67.648-25.549c24.907 0 48.96 9.085 67.648 25.549s30.731 39.179 33.869 63.892c3.139 24.707-2.842 49.715-16.821 70.326-13.979 20.617-34.996 35.425-59.113 41.648v57.31c35.863 3.601 70.561 14.734 101.819 32.677 31.26 17.948 58.374 42.291 79.565 71.447l51.172-30.191c-4.335-16.777-4.335-34.384 0-51.166 5.757-22.073 18.728-41.591 36.853-55.455 18.125-13.858 40.363-21.265 63.175-21.038 22.494 0.040 44.351 7.492 62.185 21.197 17.835 13.71 30.652 32.91 36.477 54.636s4.329 44.766-4.255 65.559c-8.585 20.793-23.78 38.172-43.241 49.459zM844.857 696.925c8.767 5.045 18.825 7.381 28.917 6.712s19.758-4.313 27.779-10.473c8.021-6.159 14.034-14.557 17.283-24.132 3.254-9.576 3.595-19.9 0.984-29.669-3.533-13.058-12.083-24.188-23.797-30.956-5.82-3.702-12.334-6.188-19.143-7.308s-13.773-0.851-20.48 0.791c-6.702 1.642-13.005 4.622-18.523 8.763s-10.149 9.354-13.602 15.329c-3.453 5.974-5.66 12.586-6.491 19.437-0.836 6.851-0.273 13.798 1.65 20.426s5.166 12.798 9.535 18.139c4.369 5.341 9.774 9.744 15.889 12.943zM128.521 608.406c-11.711 6.768-20.265 17.898-23.793 30.956-1.747 6.5-2.194 13.28-1.316 19.953s3.064 13.107 6.432 18.933c5.059 8.769 12.605 15.841 21.684 20.32s19.282 6.164 29.319 4.842c10.037-1.322 19.457-5.592 27.066-12.269s13.067-15.462 15.682-25.242c2.615-9.78 2.27-20.116-0.99-29.701s-9.292-17.985-17.33-24.14c-8.037-6.155-17.72-9.788-27.823-10.438s-20.171 1.711-28.931 6.785zM179.687 199.068c-8.76-5.074-18.829-7.435-28.931-6.781-10.103 0.649-19.786 4.284-27.823 10.433-8.038 6.155-14.069 14.558-17.33 24.144s-3.606 19.922-0.991 29.702c2.615 9.779 8.073 18.563 15.682 25.242 7.609 6.673 17.029 10.945 27.066 12.265 10.037 1.326 20.24-0.358 29.319-4.841 9.079-4.477 16.625-11.548 21.684-20.321 6.773-11.736 8.61-25.685 5.109-38.781s-12.055-24.263-23.785-31.061zM461.106 857.333c0 10.12 3.001 20.012 8.623 28.427s13.614 14.973 22.963 18.845c9.349 3.873 19.637 4.886 29.562 2.912s19.042-6.847 26.198-14.003c7.156-7.155 12.029-16.272 14.003-26.198s0.961-20.214-2.912-29.563c-3.873-9.35-10.431-17.341-18.845-22.963s-18.307-8.623-28.427-8.623c-13.57 0-26.585 5.391-36.181 14.987s-14.986 22.61-14.986 36.18zM461.106 447.998c0 10.12 3.001 20.012 8.623 28.427s13.614 14.973 22.963 18.845c9.349 3.873 19.637 4.886 29.562 2.912s19.042-6.848 26.198-14.004c7.156-7.155 12.029-16.272 14.003-26.198s0.961-20.213-2.912-29.563c-3.873-9.35-10.431-17.341-18.845-22.963s-18.307-8.623-28.427-8.623c-13.57 0-26.585 5.391-36.181 14.987s-14.986 22.61-14.986 36.18zM461.106 345.666h102.333c6.785 0 13.293-2.697 18.090-7.492 4.798-4.801 7.493-11.31 7.493-18.091v-61.656c-49.187-20.133-104.314-20.133-153.5 0v61.656c0 6.781 2.695 13.289 7.493 18.091 4.798 4.796 11.305 7.492 18.090 7.492zM563.439 38.664c0-10.121-3.001-20.014-8.623-28.427s-13.613-14.973-22.963-18.847c-9.35-3.874-19.637-4.887-29.563-2.913s-19.042 6.849-26.198 14.006c-7.155 7.157-12.029 16.27-14.003 26.197s-0.961 20.213 2.912 29.565c3.873 9.347 10.431 17.34 18.846 22.96s18.307 8.624 28.427 8.624c13.57 0 26.585-5.393 36.18-14.985 9.595-9.597 14.986-22.613 14.986-36.181zM640.187 289.636v30.447c-0.034 14.564-4.215 28.814-12.055 41.091-7.838 12.277-19.006 22.073-32.202 28.24 12.084 17.15 18.604 37.603 18.676 58.584 0 27.141-10.782 53.169-29.973 72.361s-45.22 29.972-72.36 29.972c-27.141 0-53.169-10.782-72.361-29.972s-29.972-45.22-29.972-72.361c0.072-20.981 6.592-41.434 18.675-58.584-13.195-6.167-24.364-15.963-32.201-28.24s-12.019-26.527-12.058-41.091v-30.447c-33.101 26.505-57.153 62.629-68.833 103.395-11.68 40.763-10.41 84.147 3.633 124.158s40.168 74.671 74.762 99.191c34.595 24.521 75.951 37.692 118.354 37.692s83.76-13.17 118.357-37.692c34.594-24.521 60.718-59.182 74.758-99.191 14.046-40.011 15.314-83.395 3.635-124.158-11.679-40.766-35.732-76.89-68.836-103.395zM914.699 217.745c-5.057-8.767-12.607-15.838-21.68-20.321-9.079-4.477-19.285-6.161-29.321-4.841-10.041 1.326-19.456 5.592-27.068 12.271s-13.067 15.462-15.684 25.242c-2.611 9.779-2.27 20.116 0.996 29.702 3.26 9.58 9.29 17.983 17.328 24.138s17.721 9.791 27.824 10.439c10.103 0.649 20.167-1.712 28.928-6.787 11.73-6.793 20.287-17.96 23.785-31.056 3.504-13.096 1.667-27.045-5.109-38.787z" />
<glyph unicode="&#xe919;" glyph-name="ok" d="M512 960c-282.196 0-512-229.804-512-512s229.804-512 512-512c282.196 0 512 229.804 512 512s-229.804 512-512 512zM750.14 540.875l-285.768-285.768c-9.525-9.527-21.432-14.288-33.34-14.288s-23.813 4.762-33.34 14.288l-147.645 145.265c-19.052 19.052-19.052 48.819 0 67.869 19.050 19.052 48.817 19.052 67.869 0l111.925-111.925 252.428 252.428c19.052 19.052 48.819 19.052 67.871 0 17.86-19.052 17.86-48.819 0-67.869z" />
<glyph unicode="&#xe91a;" glyph-name="privacy" d="M287.47 62.612l211.367-123.085c3.983-2.31 8.507-3.527 13.112-3.527s9.129 1.217 13.112 3.527l211.474 123.085c76.106 44.015 137.279 109.818 175.644 188.928 38.36 79.104 52.15 167.891 39.583 254.908l-41.057 289.623c-0.887 6.24-3.994 11.951-8.755 16.080s-10.854 6.395-17.158 6.384c-147.945 0-260.578 42.629-354.612 134.050-4.878 4.755-11.42 7.416-18.232 7.416s-13.354-2.661-18.232-7.416c-94.033-91.421-206.665-134.050-354.611-134.050-6.303 0.011-12.397-2.256-17.158-6.384s-7.871-9.84-8.753-16.080l-40.957-289.623c-12.564-87.017 1.224-175.804 39.586-254.908 38.362-79.11 99.54-144.913 175.646-188.928zM123.956 499.134l37.927 267.473c142.199 3.97 254.517 46.181 350.118 131.438 95.601-85.362 207.916-127.468 350.116-131.542l37.928-267.473c11.099-76.691-1.018-154.948-34.799-224.688s-87.671-127.761-154.732-166.593l-198.513-114.933-198.515 114.933c-67.075 38.838-120.979 96.882-154.761 166.639-33.781 69.763-45.892 148.040-34.769 224.748zM691.399 455.879h97.269c6.929 0 13.574 2.752 18.472 7.65s7.652 11.542 7.652 18.47c0 6.927-2.753 13.571-7.652 18.47s-11.543 7.65-18.472 7.65h-78.148l-50.256 168.32c-2.554 8.521-6.793 16.443-12.464 23.295-5.666 6.853-12.656 12.498-20.549 16.6s-16.528 6.577-25.395 7.281c-8.867 0.703-17.785-0.382-26.225-3.189l-63.63-20.896-63.629 20.896c-8.44 2.807-17.358 3.892-26.225 3.189s-17.502-3.179-25.395-7.281c-7.892-4.102-14.88-9.747-20.551-16.6s-9.907-14.775-12.459-23.295l-50.256-168.32h-78.257c-6.927 0-13.571-2.752-18.47-7.65s-7.65-11.542-7.65-18.47c0-6.928 2.752-13.571 7.65-18.47s11.543-7.65 18.47-7.65h456.169zM413.685 661.498c0.546 1.819 1.452 3.511 2.663 4.974s2.703 2.669 4.388 3.546c1.685 0.877 3.529 1.406 5.423 1.558s3.798-0.077 5.601-0.675l71.988-24.449c5.358-1.785 11.15-1.785 16.508 0l71.884 23.926c1.81 0.613 3.725 0.856 5.63 0.712s3.762-0.67 5.46-1.548c1.697-0.878 3.199-2.089 4.418-3.561s2.127-3.174 2.673-5.006l46.076-153.379h-288.683l45.972 153.902zM628.077 412.517c-19.174-0.031-37.893-5.84-53.716-16.668-15.824-10.831-28.017-26.173-34.989-44.037-17.848 5.171-36.796 5.171-54.643 0-8.346 21.299-24.075 38.889-44.316 49.547-20.24 10.66-43.64 13.683-65.925 8.516s-41.967-18.178-55.452-36.656c-13.484-18.478-19.871-41.193-17.993-63.994 1.878-22.795 11.895-44.157 28.222-60.183 16.327-16.020 37.873-25.64 60.703-27.090 22.83-1.445 45.42 5.365 63.643 19.194s30.863 33.752 35.611 56.127c6.932 4.090 14.833 6.246 22.881 6.246s15.95-2.156 22.882-6.246c3.694-17.653 12.318-33.9 24.871-46.848 12.553-12.954 28.521-22.084 46.051-26.328s35.903-3.43 52.993 2.344c17.089 5.78 32.188 16.282 43.548 30.288 11.361 14.012 18.517 30.953 20.634 48.868 2.122 17.909-0.876 36.056-8.653 52.332-7.771 16.276-20.002 30.015-35.265 39.62-15.269 9.606-32.944 14.688-50.981 14.656l-0.105 0.313zM395.919 274.079c-8.548-0.040-16.915 2.458-24.041 7.179s-12.689 11.452-15.984 19.337c-3.295 7.89-4.173 16.577-2.524 24.963s5.753 16.094 11.79 22.147c6.037 6.053 13.735 10.172 22.118 11.844s17.073 0.814 24.969-2.463c7.895-3.277 14.64-8.823 19.377-15.935 4.738-7.117 7.257-15.479 7.236-24.024-0.027-11.389-4.557-22.306-12.601-30.373-8.044-8.061-18.95-12.618-30.341-12.675zM628.077 274.079c-8.534 0-16.877 2.532-23.974 7.27-7.096 4.745-12.626 11.48-15.892 19.365s-4.121 16.566-2.456 24.934c1.665 8.368 5.775 16.060 11.81 22.096 6.035 6.030 13.723 10.143 22.094 11.804 8.371 1.667 17.048 0.814 24.933-2.452s14.62-8.795 19.365-15.895c4.739-7.094 7.27-15.44 7.27-23.973 0-11.446-4.545-22.42-12.635-30.51-8.095-8.095-19.069-12.641-30.515-12.641z" />
<glyph unicode="&#xe91b;" glyph-name="setting_ic" d="M510.864 264.043c101.262 0 183.182 82.011 183.182 183.386s-81.92 183.386-183.182 183.386c-101.262 0-183.182-82.011-183.182-183.386 0-100.237 81.92-183.386 183.182-183.386zM510.864 585.253c76.231 0 137.671-61.508 137.671-137.824 0-75.178-61.44-136.686-137.671-136.686s-137.671 61.508-137.671 137.825c1.138 75.177 62.578 136.685 137.671 136.685zM131.983 316.438h6.827l15.929-38.724-4.551-4.557c-51.2-51.257-51.2-134.406 0-186.806 25.031-25.060 58.027-38.724 93.298-38.724s68.267 13.665 93.298 38.724l4.551 4.557 38.684-15.946v-6.832c0-72.897 59.164-132.13 131.982-132.13s131.982 59.233 131.982 132.13v6.832l38.684 15.946 4.551-4.557c51.2-51.257 134.258-51.257 186.596 0 51.2 51.257 51.2 134.411 0 186.806l-4.551 4.557 15.929 38.724h6.827c72.818 0 131.982 59.233 131.982 132.131s-59.164 132.129-131.982 132.129h-6.827l-17.067 37.589 4.551 4.556c51.2 51.257 51.2 134.407 0 186.803-51.2 51.257-134.258 51.257-186.596 0l-4.551-4.556-38.684 15.947v6.834c0 72.899-59.164 132.129-131.982 132.129s-131.982-59.23-131.982-132.129v-6.834l-37.547-15.947-4.551 4.556c-51.2 51.257-134.258 51.257-186.596 0-51.2-51.257-51.2-134.407 0-186.803l4.551-4.556-15.929-38.728h-6.827c-72.818 0-131.982-59.23-131.982-130.99 0-72.898 59.164-132.131 131.982-132.131zM131.983 533.997h37.547l39.822 95.68-27.307 26.198c-32.996 33.033-32.996 87.706 0 120.739s87.609 33.032 120.604 0l27.307-27.337 95.573 39.867v37.589c0 46.701 38.684 85.428 85.333 85.428s85.333-38.727 85.333-85.428v-37.589l95.573-39.867 27.307 27.337c32.996 33.032 87.609 33.032 120.604 0s32.996-87.706 0-120.739l-26.169-26.198 39.822-95.68h37.547c46.649 0 85.333-38.728 85.333-85.428s-38.684-85.431-85.333-85.431h-37.547l-39.822-95.676 27.307-27.341c32.996-33.030 32.996-87.706 0-120.735-32.996-33.035-87.609-33.035-120.604 0l-27.307 27.335-95.573-41.006v-37.586c0-46.7-38.684-85.43-85.333-85.43s-85.333 38.73-85.333 85.43v37.586l-96.711 39.868-27.307-27.335c-15.929-15.952-37.547-25.060-60.302-25.060s-44.373 9.108-60.302 25.060c-32.996 33.030-32.996 87.706 0 120.735l27.307 27.341-39.822 95.676h-37.547c-46.649 0-85.333 38.729-85.333 85.429 0 47.84 37.547 86.567 85.333 86.567z" />
<glyph unicode="&#xe91c;" glyph-name="screpka" d="M55.891 29.165c-74.511 74.511-74.546 195.846 0.037 270.431l551.866 551.863c95.085 95.089 249.851 95.052 344.902 0s95.091-249.815 0-344.903l-450.422-450.422c-12.962-12.963-33.973-12.963-46.932 0-12.959 12.957-12.959 33.966 0 46.93l450.426 450.423c69.204 69.204 69.238 181.873 0.034 251.077s-181.839 69.204-251.077-0.036l-551.901-551.902c-48.7-48.698-48.7-127.904-0.072-176.527 48.7-48.703 127.867-48.664 176.567 0.034l499.414 499.41c28.118 28.123 28.157 73.934 0.034 102.056s-73.9 28.122-102.057-0.037l-397.897-397.898c-12.961-12.957-33.971-12.957-46.931 0-12.959 12.963-12.959 33.971 0 46.93l397.898 397.9c54.004 54.006 141.911 53.969 195.915-0.036 54.010-54.006 54.044-141.91 0.040-195.918l-499.414-499.411c-74.547-74.545-195.881-74.511-270.428 0.034z" />
<glyph unicode="&#xe91d;" glyph-name="small_arrow_bottom" d="M466.012 156.186l-447.617 485.525c-24.527 28.267-24.527 71.499 0 98.103s64.383 26.604 90.443 0l403.162-437.305 403.16 437.305c24.528 26.604 65.917 26.604 90.443 0 24.529-26.604 24.529-69.836 0-98.103l-449.15-485.525c-24.527-26.603-64.383-26.603-90.443 0z" />
<glyph unicode="&#xe91e;" glyph-name="small_arrow_right" d="M811.983 402.011l-499.117-447.616c-29.058-24.526-73.5-24.526-100.849 0s-27.349 64.384 0 90.444l449.547 403.161-449.547 403.162c-27.349 24.527-27.349 65.916 0 90.443s71.791 24.527 100.849 0l499.117-449.15c27.348-24.526 27.348-64.383 0-90.443z" />
<glyph unicode="&#xe91f;" glyph-name="clock" d="M512 959.999c-282.217 0-512-229.782-512-511.999 0-282.219 229.781-511.999 512-511.999s512 229.779 512 511.999c0 282.217-229.779 511.999-512 511.999zM512 866.909c231.907 0 418.906-187.003 418.906-418.909s-186.999-418.912-418.906-418.912c-231.907 0-418.909 187.005-418.909 418.912s187.001 418.909 418.909 418.909zM512 773.818c-25.705 0-46.546-20.84-46.546-46.546v-279.273c0-12.852 5.152-24.547 13.575-32.969l175.517-175.517c18.176-18.176 47.759-18.176 65.939 0 18.176 18.176 18.176 47.764 0 65.939l-161.941 161.94v259.879c0 25.705-20.839 46.546-46.546 46.546z" />
<glyph unicode="&#xe920;" glyph-name="kubok_2" d="M670.054 395.129c9.096 7.959 18.192 14.781 27.288 23.877h1.137c87.552 0 181.925 19.33 246.735 83.004 59.126 57.989 81.866 139.854 78.455 220.584v2.273c0 26.153-5.685 52.303-21.603 72.77-21.605 28.425-56.852 37.522-90.962 37.522h-37.521c-13.644 0-27.288-5.685-39.796-11.371 10.233 31.837-6.823 68.221-44.344 68.221h-556.007c-37.521 0-54.577-36.385-44.343-68.221-12.508 5.685-26.153 11.371-38.659 11.371h-37.522c-32.974 0-67.084-9.096-88.688-35.248-17.055-20.467-23.878-47.755-23.878-73.907v-3.41c-3.411-79.593 18.192-161.459 76.18-218.309 64.81-64.811 160.322-84.141 249.009-84.141h1.138c34.111-31.837 75.043-57.989 100.057-98.923-25.015-5.685-42.069-29.562-38.659-54.577 3.412-25.015 25.015-44.344 50.030-44.344h5.685c-12.506-42.069-43.207-118.251-105.743-118.251h-125.073c-25.015 0-45.482-18.192-48.892-44.344-4.548-29.562 21.603-55.715 50.028-55.715h598.078c27.288 0 52.302 25.015 50.030 52.303-2.275 28.425-23.878 47.755-50.030 47.755h-125.073c-60.262 0-90.961 68.221-105.743 118.251h5.685c25.015 0 46.619 19.33 50.030 44.344s-13.644 50.030-38.658 54.577c11.371 20.467 35.247 44.344 71.632 73.908 9.096 7.959-36.385-29.563 0 0zM873.583 813.555h37.521c26.151 0 55.715-6.822 72.77-28.425 13.644-17.055 17.054-38.659 17.054-60.264v-3.41c3.41-71.632-14.781-144.402-64.811-197.842-55.715-59.127-137.581-79.593-216.035-81.866 10.234 11.371 20.467 22.74 28.425 34.112 64.811 6.822 131.895 28.425 173.965 80.728 36.385 45.482 48.893 105.743 46.619 163.732v5.685c0 15.917-2.275 32.974-14.782 44.344-11.369 10.233-28.425 12.507-43.207 12.507h-37.521c-17.054 0-18.192-10.233-18.192-12.507v-15.918h-52.302c5.685 12.507 12.506 23.877 17.054 36.385 10.233 5.685 35.247 22.74 53.44 22.74zM790.579 608.89c0 40.934-7.959 81.866 3.41 121.662h71.633c5.685 0 11.371 4.548 11.371 11.371v18.192h34.111c9.096 0 25.015 0 30.7-9.096 4.548-6.823 4.548-17.054 4.548-25.015v-5.685c2.275-50.030-7.959-102.333-37.523-143.265-34.111-45.482-89.824-67.084-144.402-75.045 18.192 31.836 26.151 69.359 26.151 106.881zM90.169 521.34c-32.974 34.111-71.633 96.647-67.084 200.117v3.41c0 21.605 3.41 43.207 17.055 60.264 17.054 21.604 45.482 28.425 72.77 28.425h37.522c18.192 0 43.207-15.918 53.44-25.015 5.685-12.507 11.371-23.877 17.054-36.386h-52.303v15.919c0 3.41-1.137 13.644-18.192 13.644h-37.522c-14.781 0-31.837-2.274-43.207-12.507-12.507-10.233-14.781-28.425-14.781-43.207v-5.685c-2.274-57.989 10.234-117.114 46.618-163.732 42.069-52.302 109.155-73.907 173.965-80.728 9.097-12.508 18.192-23.878 28.425-34.112-93.236 3.412-164.868 29.563-213.76 79.593-32.974 34.111 48.893-50.030 0 0zM233.435 599.794c1.138-35.249 9.097-68.222 26.153-98.923-51.167 7.959-103.47 26.153-137.581 67.084-35.248 42.069-46.618 98.923-44.344 152.363v5.685c0 7.959 0 20.467 5.685 26.151 6.822 6.823 20.467 6.823 29.562 6.823h34.11v-18.192c0-5.685 4.548-11.371 11.372-11.371h71.632c12.508-42.069 2.275-86.414 3.41-129.62zM811.044 24.458h-598.076c-11.371 0-21.605 6.822-25.015 17.054h649.243c-4.548-10.234-14.781-17.054-26.153-17.054zM812.182 80.172c12.506 0 22.74-5.685 22.74-17.054h-644.694c-1.137 9.096 11.371 17.054 22.74 17.054h599.214zM624.573 102.912h-225.131c37.521 30.7 56.851 84.141 67.084 118.252h90.961c14.781-55.715 37.521-95.51 67.084-118.252zM587.050 242.766h-150.087c-11.371 0-21.605 6.823-26.151 17.054h200.117c-3.41-9.096-12.506-17.054-23.878-17.054zM612.064 282.564h-200.117c4.548 10.233 13.644 17.054 26.151 17.054h148.95c11.372 0 20.467-6.823 25.015-17.054zM572.27 321.222h-120.525c-21.603 45.482-64.811 73.908-101.195 105.743-42.069 37.521-83.003 84.141-92.099 140.991-9.096 52.303 7.959 104.607-4.547 155.773-6.823 30.7-25.015 56.851-36.385 86.414-4.548 10.233-11.371 23.878-10.234 35.248 1.137 12.507 12.506 22.74 26.151 22.74h556.007c11.371 0 22.74-7.959 25.015-19.33 3.41-11.371-3.412-25.015-7.959-35.248-11.371-28.425-29.563-55.715-36.385-85.276-13.644-52.303 3.41-104.607-4.548-156.91-7.959-57.989-47.755-104.607-89.824-142.129-36.385-31.836-80.729-61.399-103.47-108.019zM736.005 538.394c5.685 0 11.371 4.547 11.371 11.371v175.102c0 14.781-22.74 14.781-22.74 0v-175.102c0-6.823 5.685-11.371 11.371-11.371zM697.345 492.914c5.685 0 11.371 4.547 11.371 11.371v266.064c0 14.781-22.74 14.781-22.74 0v-267.202c0-5.685 5.685-10.233 11.371-10.233z" />
<glyph unicode="&#xe921;" glyph-name="lock" d="M811.799 520.881h-37.507v176.832c0 144.63-117.67 262.286-262.287 262.286-144.642 0-262.299-117.656-262.299-262.286v-176.832h-37.484c-45.715 0-82.8-37.046-82.8-82.761v-419.358c0-45.716 37.085-82.762 82.8-82.762h599.578c45.716 0 82.779 37.046 82.779 82.762v419.346c0 45.715-37.063 82.774-82.779 82.774zM537.316 202.433v-98.35c0-14-11.348-25.333-25.312-25.333-13.989 0-25.337 11.332-25.337 25.333v98.35c-28.634 10.371-49.129 37.717-49.129 69.945 0 41.102 33.336 74.468 74.466 74.468 41.091 0 74.479-33.365 74.479-74.468 0-32.267-20.532-59.614-49.167-69.945zM674.964 520.881h-325.931v176.832c0 89.859 73.113 162.972 162.972 162.972 89.846 0 162.959-73.113 162.959-162.972v-176.832z" />
<glyph unicode="&#xe922;" glyph-name="timer" d="M807.902 655.667l33.61 33.612 10.593-10.595c6.992-5.985 15.98-9.113 25.173-8.758 9.199 0.356 17.92 4.167 24.428 10.673 6.502 6.507 10.314 15.229 10.672 24.424 0.353 9.195-2.77 18.185-8.761 25.174l-73.068 73.069c-6.986 5.985-15.98 9.113-25.173 8.758s-17.914-4.167-24.422-10.673c-6.508-6.507-10.32-15.229-10.672-24.424-0.358-9.195 2.77-18.185 8.755-25.174l10.593-10.595-36.534-36.535c-60.023 41.695-129.943 66.892-202.766 73.069 0 0-1.096-0.365-1.096-0.365v73.069h18.268c14.534 0 28.473 5.774 38.75 16.051s16.051 24.216 16.051 38.751c0 14.534-5.774 28.474-16.051 38.751s-24.216 16.051-38.75 16.051h-109.604c-14.535 0-28.473-5.774-38.751-16.051s-16.051-24.217-16.051-38.751c0-14.535 5.774-28.474 16.051-38.751s24.216-16.051 38.751-16.051h18.268v-73.069c0 0 0 0 0-1.827-95.51-8.169-185.363-48.724-254.67-114.946s-113.91-154.136-126.416-249.176c-12.506-95.041 7.833-191.497 57.649-273.399 49.816-81.897 126.118-144.316 216.264-176.913 90.145-32.603 188.723-33.422 279.399-2.332s168.011 92.228 219.183 173.284c51.177 81.055 73.125 177.163 62.202 272.4-10.917 95.235-54.050 183.881-122.243 251.25h0.37zM684.776 203.367c-6.844-6.804-16.105-10.627-25.757-10.627s-18.912 3.823-25.757 10.627l-93.895 93.895c-7.034-2.543-14.442-3.903-21.92-4.022-13.616-0.068-26.945 3.908-38.296 11.423-11.351 7.521-20.211 18.244-25.455 30.811s-6.635 26.402-3.996 39.76c2.639 13.358 9.188 25.632 18.815 35.26s21.9 16.176 35.257 18.815c13.358 2.639 27.198 1.248 39.763-3.996s23.289-14.104 30.808-25.455c7.52-11.352 11.496-24.681 11.423-38.295 0.119-2.315 0.119-4.631 0-6.946l99.738-99.738c6.713-6.94 10.399-16.253 10.263-25.907s-4.090-18.859-10.991-25.606z" />
<glyph unicode="&#xe923;" glyph-name="search" d="M431.111 97.855c98.6-0.074 194.219 33.832 270.757 96.011l244.491-244.582c8.539-8.516 20.11-13.295 32.165-13.284 12.060 0.011 23.626 4.807 32.148 13.34 8.528 8.528 13.323 20.099 13.329 32.165 0.006 12.060-4.773 23.637-13.284 32.176l-244.48 244.577c61.366 76.095 95.050 170.795 95.528 268.564 0.472 97.769-32.284 192.796-92.9 269.486-60.621 76.69-145.493 130.486-240.698 152.561s-195.081 11.115-283.239-31.080c-88.158-42.194-159.36-113.118-201.92-201.129s-53.951-187.883-32.301-283.224c21.649-95.339 75.051-180.485 151.443-241.464s171.233-94.168 268.961-94.117zM431.111 869.378c67.261-0.001 133.011-19.955 188.939-57.34 55.922-37.385 99.51-90.521 125.252-152.69 25.737-62.168 32.472-130.576 19.348-196.574-13.119-65.998-45.511-126.619-93.070-174.201s-108.157-79.986-174.125-93.116c-65.969-13.124-134.348-6.389-196.489 19.365-62.141 25.748-115.255 69.353-152.623 125.303-37.369 55.952-57.314 121.731-57.315 189.021 0.103 90.203 35.966 176.683 99.721 240.466s150.197 99.662 240.361 99.765z" />
<glyph unicode="&#xe924;" glyph-name="lock_2" d="M481.577 958.464c-46.765-4.507-95.034-20.66-134.475-44.888-72.685-44.699-126.962-121.891-144.804-205.844l-3.192-15.025-13.147-3.381c-28.735-7.512-61.228-28.548-80.197-52.212-13.147-16.34-20.66-30.050-27.984-50.898l-6.761-19.157-0.564-245.097c-0.564-271.391-0.939-260.122 11.457-289.234 19.721-45.827 58.973-79.258 108.557-92.592l15.776-4.132h304.259c330.364 0 314.213-0.564 342.948 10.518 37 14.274 67.613 42.822 85.080 79.258 16.34 34.182 15.213 11.644 15.213 290.549 0 277.589 1.127 254.112-14.274 287.355-18.218 38.69-51.461 68.552-92.404 82.826-8.452 3.005-16.715 5.447-18.218 5.447-2.066 0-3.756 4.507-6.010 16.528-17.842 92.029-81.324 174.291-167.718 217.3-55.781 27.797-112.877 38.502-173.54 32.68zM558.393 889.911c75.126-13.147 143.302-64.42 178.423-134.099 8.264-16.528 20.66-50.898 20.66-57.283 0-2.441-29.299-2.817-245.097-2.817-180.114 0-245.097 0.564-245.097 2.066 0 1.127 2.817 10.893 6.386 21.411 32.304 96.16 113.252 162.459 212.418 173.728 18.406 2.066 51.085 0.751 72.308-3.005zM810.064 628.099c36.624-5.822 69.304-36.811 76.816-72.872 2.817-13.898 2.817-465.778 0-479.677-7.512-36.436-40.192-67.050-77.755-72.872-9.015-1.315-103.486-1.879-305.198-1.502l-292.051 0.564-12.020 4.32c-30.614 11.082-52.025 33.431-61.039 64.044-2.63 9.203-3.005 34.558-3.005 245.286s0.376 236.083 3.005 245.286c9.954 33.619 37.187 59.162 70.806 66.486 9.391 2.066 64.984 2.63 299.939 2.63 186.124 0.188 292.615-0.564 300.503-1.69zM515.759 368.916c-16.152-3.381-31.365-13.898-36.436-25.167-3.192-6.949-3.568-12.772-3.568-55.593 0-46.203 0.188-48.080 4.32-55.405 4.883-8.639 18.594-18.594 30.050-21.786s30.989-2.817 42.446 1.127c12.959 4.32 27.233 17.655 30.050 28.172 2.63 9.954 2.63 87.71 0 97.663-2.817 10.142-17.091 24.041-29.112 27.984-11.833 3.756-27.797 5.071-37.751 3.005z" />
<glyph unicode="&#xe925;" glyph-name="dubble_arrow_left" d="M17.994 489.472l437.834 403.649c25.49 22.118 64.476 22.118 88.466 0 23.992-22.118 23.992-58.059 0-81.559l-394.35-363.561 394.35-363.561c23.992-22.118 23.992-59.441 0-81.559-23.991-22.12-62.976-22.12-88.466 0l-437.834 405.032c-23.991 22.118-23.991 58.059 0 81.559zM479.702 489.472l437.835 403.649c25.494 22.118 64.471 22.118 88.47 0 23.991-22.118 23.991-58.059 0-81.559l-394.355-363.561 394.355-363.561c23.991-22.118 23.991-59.441 0-81.559-24-22.12-62.977-22.12-88.47 0l-437.835 405.032c-23.991 22.118-23.991 58.059 0 81.559z" />
<glyph unicode="&#xe926;" glyph-name="dubble_arrow_right" d="M1006.006 406.53l-437.836-403.651c-25.491-22.12-64.476-22.12-88.467 0-23.991 22.118-23.991 58.059 0 81.559l394.353 363.562-394.353 363.562c-23.991 22.117-23.991 59.442 0 81.559s62.977 22.118 88.467 0l437.836-405.033c23.991-22.118 23.991-58.059 0-81.559zM544.296 406.53l-437.836-403.651c-25.491-22.12-64.476-22.12-88.467 0-23.991 22.118-23.991 58.059 0 81.559l394.353 363.562-394.353 363.562c-23.991 22.117-23.991 59.442 0 81.559s62.977 22.118 88.467 0l437.836-405.033c23.992-22.118 23.992-58.059 0-81.559z" />
<glyph unicode="&#xe927;" glyph-name="comment" d="M819.655 960h-617.58c-111.255 0-202.076-90.82-202.076-202.076v-392.8c0-111.252 90.82-202.075 202.076-202.075h20.434v-190.72c0-13.625 6.811-24.974 20.434-31.79 4.541-2.27 9.082-2.27 13.623-2.27 9.082 0 15.894 2.27 22.705 9.085l245.215 217.964h297.437c111.252 0 202.075 90.823 202.075 202.075v390.53c-2.27 111.255-93.093 202.076-204.345 202.076zM953.617 367.394c0-72.653-59.034-133.956-133.962-133.956h-308.791c-9.082 0-15.893-2.27-22.705-9.085l-199.805-177.095v152.121c0 18.165-15.894 34.059-34.058 34.059h-54.493c-72.656 0-133.96 59.034-133.96 133.956v390.53c0 72.656 59.033 133.96 133.96 133.96h619.851c72.653 0 133.962-59.033 133.962-133.96v-390.53z" />
<glyph unicode="&#xe928;" glyph-name="bag" horiz-adv-x="1317" d="M463.792 960c-49.213 0-89.766-40.553-89.766-89.766v-59.844h-284.26c-49.213 0-89.766-40.554-89.766-89.767v-688.206c0-49.211 40.553-89.768 89.766-89.768h1137.037c49.218 0 89.768 40.558 89.768 89.768v688.206c0 49.213-40.55 89.767-89.768 89.767h-284.255v59.844c0 49.213-40.558 89.766-89.768 89.766h-388.988zM463.792 900.156h388.988c17.093 0 29.923-12.828 29.923-29.922v-59.844h-448.832v59.844c0 17.094 12.828 29.922 29.922 29.922zM89.766 750.545h1137.037c17.093 0 29.923-12.828 29.923-29.922v-97.714c-136.894-102.76-353.733-171.585-598.44-171.585-244.705 0-461.545 68.825-598.442 171.585v97.714c0 17.094 12.828 29.922 29.922 29.922zM59.844 549.039c120.792-79.093 282.186-132.993 463.792-151.013v-51.428c0-32.636 27.208-59.845 59.844-59.845h149.609c32.636 0 59.845 27.208 59.845 59.845v51.428c181.606 18.020 343.003 71.92 463.792 151.013v-516.622c0-17.093-12.829-29.923-29.923-29.923h-1137.037c-17.094 0-29.922 12.829-29.922 29.923v516.622zM583.48 393.351c24.604-1.333 49.625-1.87 74.805-1.87s50.202 0.538 74.803 1.87v-46.753h-149.609v46.753z" />
<glyph unicode="&#xe929;" glyph-name="calendar" horiz-adv-x="1084" d="M289.523 960c-7.123 0-13.954-2.83-18.991-7.866s-7.867-11.868-7.867-18.991v-81.915h-128.378c-35.615 0-69.772-14.148-94.956-39.332s-39.332-59.34-39.332-94.955v-643.236c0-35.617 14.148-69.771 39.332-94.955s59.34-39.334 94.956-39.334h815.659c35.617 0 69.771 14.149 94.955 39.334s39.334 59.338 39.334 94.955v643.236c0 35.615-14.149 69.771-39.334 94.955s-59.338 39.332-94.955 39.332h-118.308v81.915c0 7.123-2.825 13.954-7.867 18.991-5.036 5.037-11.866 7.866-18.986 7.866-7.126 0-13.957-2.83-18.992-7.866s-7.867-11.868-7.867-18.991v-81.915h-461.546v81.915c0 7.123-2.829 13.954-7.866 18.991s-11.868 7.866-18.991 7.866zM949.947-6.867h-815.659c-21.369 0-41.863 8.487-56.974 23.6-15.11 15.107-23.599 35.599-23.599 56.971v470.006h976.803v-470.006c0-21.371-8.487-41.864-23.594-56.971-15.113-15.113-35.605-23.6-56.977-23.6zM777.927 797.512v-65.8c0-7.123 2.831-13.955 7.867-18.991s11.866-7.867 18.992-7.867c7.12 0 13.95 2.83 18.986 7.867 5.042 5.036 7.867 11.868 7.867 18.991v65.8h118.308c21.371 0 41.864-8.489 56.977-23.599 15.107-15.11 23.594-35.604 23.594-56.973v-119.516h-976.803v119.516c0 21.369 8.489 41.863 23.599 56.973s35.604 23.599 56.974 23.599h128.378v-65.8c0-7.123 2.83-13.955 7.867-18.991s11.868-7.867 18.991-7.867c7.123 0 13.954 2.83 18.991 7.867s7.866 11.868 7.866 18.991v65.8h461.546zM271.268 387.265c-18.831 0-37.239-5.584-52.896-16.045s-27.861-25.33-35.067-42.726c-7.206-17.402-9.092-36.545-5.418-55.013s12.742-35.43 26.057-48.748c13.315-13.318 30.28-22.383 48.749-26.058s37.612-1.789 55.009 5.421c17.397 7.204 32.267 19.408 42.729 35.063 10.462 15.661 16.045 34.069 16.045 52.899 0 25.251-10.031 49.465-27.886 67.321s-42.073 27.887-67.324 27.887zM271.268 250.693c-8.207 0-16.229 2.434-23.053 6.993s-12.142 11.041-15.283 18.625c-3.141 7.584-3.962 15.926-2.361 23.974s5.553 15.444 11.356 21.245c5.803 5.807 13.197 9.758 21.246 11.354 8.049 1.602 16.392 0.783 23.974-2.361 7.582-3.138 14.063-8.457 18.622-15.282s6.993-14.848 6.993-23.052c0-5.451-1.073-10.842-3.159-15.878s-5.142-9.608-8.995-13.463c-3.853-3.855-8.428-6.909-13.462-8.993-5.034-2.090-10.43-3.162-15.879-3.162zM544.563 387.265c-18.831 0-37.239-5.584-52.896-16.045s-27.861-25.33-35.067-42.726c-7.206-17.402-9.092-36.545-5.418-55.013s12.742-35.43 26.057-48.748c13.315-13.318 30.28-22.383 48.749-26.058s37.612-1.789 55.009 5.421c17.397 7.204 32.27 19.408 42.727 35.063 10.463 15.661 16.047 34.069 16.047 52.899 0 25.251-10.029 49.465-27.883 67.321-17.857 17.856-42.074 27.887-67.326 27.887zM544.563 250.693c-8.207 0-16.229 2.434-23.053 6.993s-12.142 11.041-15.283 18.625c-3.141 7.584-3.962 15.926-2.361 23.974s5.553 15.444 11.356 21.245c5.803 5.807 13.197 9.758 21.246 11.354 8.049 1.602 16.392 0.783 23.974-2.361 7.582-3.138 14.063-8.457 18.622-15.282s6.993-14.848 6.993-23.052c0-11.005-4.372-21.558-12.154-29.341s-18.336-12.155-29.341-12.155zM817.682 387.265c-18.83 0-37.237-5.584-52.899-16.045-15.655-10.462-27.859-25.33-35.063-42.726-7.21-17.402-9.096-36.545-5.421-55.013s12.74-35.43 26.058-48.748c13.318-13.318 30.28-22.383 48.748-26.058s37.611-1.789 55.013 5.421c17.396 7.204 32.262 19.408 42.725 35.063 10.463 15.661 16.047 34.069 16.047 52.899 0 25.251-10.029 49.465-27.889 67.321-17.854 17.856-42.068 27.887-67.319 27.887zM817.682 250.693c-8.21 0-16.233 2.434-23.052 6.993-6.825 4.56-12.143 11.041-15.288 18.625-3.138 7.584-3.963 15.926-2.361 23.974s5.554 15.444 11.36 21.245c5.801 5.807 13.192 9.758 21.245 11.354 8.047 1.602 16.39 0.783 23.974-2.361 7.584-3.138 14.065-8.457 18.625-15.282 4.554-6.825 6.987-14.848 6.987-23.052 0-11.005-4.367-21.558-12.149-29.341s-18.336-12.155-29.341-12.155z" />
<glyph unicode="&#xe92a;" glyph-name="star_inner" horiz-adv-x="970" d="M141.849-11.851h685.203c79.338 0 143.053 63.828 143.053 143.306v686.441c0 78.278-63.714 142.105-143.053 142.105h-685.203c-78.137 0-141.849-63.827-141.849-142.105v-686.441c0-79.479 63.712-143.306 141.849-143.306zM609.469 614.372l194.743-24.086c37.268-4.817 52.892-51.784 25.244-78.278l-143.047-134.88 36.061-193.886c7.211-37.333-32.455-66.237-64.916-46.969l-173.102 95.14-171.902-95.14c-33.659-19.267-73.329 9.636-66.116 46.969l37.266 193.886-143.051 134.88c-27.649 26.494-13.224 73.461 25.244 78.278l194.742 24.086 82.946 178.233c16.83 34.924 66.116 34.924 81.744 0l84.145-178.233z" />
<glyph unicode="&#xe92b;" glyph-name="crown_inner" d="M502.154 960c-277.815 0-502.154-224.339-502.154-502.154s224.339-502.154 502.154-502.154c277.815 0 502.154 224.339 502.154 502.154s-224.339 502.154-502.154 502.154zM826.923 619.579c-3.911 0-6.522 0-10.433 1.304l-109.56-426.504h-410.855l-109.561 426.504c-2.608 0-6.521-1.304-10.434-1.304-28.694 0-50.868 23.478-50.868 50.868 0 28.694 23.477 50.868 50.868 50.868 28.694 0 50.868-23.477 50.868-50.868 0-18.26-9.13-33.912-23.478-43.042l208.686-169.558 78.257 163.037c-23.477 5.217-40.432 26.086-40.432 49.563 0 28.694 23.477 50.868 50.869 50.868 28.696 0 50.865-23.477 50.865-50.868 0-24.782-16.955-45.65-40.432-49.563l78.257-163.037 208.687 169.558c-14.348 9.13-23.477 24.782-23.477 43.042 0 28.694 23.477 50.868 50.869 50.868 28.696 0 50.865-23.477 50.865-50.868 2.611-28.694-20.866-50.868-49.562-50.868z" />
<glyph unicode="&#xe92c;" glyph-name="share" horiz-adv-x="910" d="M172.954 620.969c43.105 0 82.541-15.774 112.812-41.872 77.357 55.627 154.699 111.505 232.814 166.032-3.342 13.413-5.11 27.464-5.11 41.902 0 95.523 77.446 172.969 172.968 172.969 95.511 0 172.954-77.446 172.954-172.969 0-95.508-77.443-172.954-172.954-172.954-50.011 0-97.035 21.374-129.997 58.879-74.817-52.596-149.114-106.054-223.367-159.423 18.181-44.353 16.903-95.627-3.505-139.028l225.447-153.094c33.005 38.468 80.609 60.513 131.422 60.513 95.511 0 172.954-77.449 172.954-172.971 0-95.505-77.443-172.954-172.954-172.954-95.505 0-172.968 77.449-172.968 172.954 0 13.727 1.604 27.062 4.619 39.868l-239.201 162.452c-29.261-22.71-66.024-36.244-105.935-36.244-95.508 0-172.954 77.46-172.954 172.971 0 95.508 77.446 172.969 172.954 172.969zM686.438 200.778c-50.722 0-91.824-41.097-91.824-91.824 0-50.711 41.102-91.807 91.824-91.807 50.711 0 91.813 41.097 91.813 91.807 0 50.728-41.102 91.824-91.813 91.824zM686.438 878.855c-50.722 0-91.824-41.099-91.824-91.824 0-50.71 41.102-91.81 91.824-91.81 50.711 0 91.813 41.1 91.813 91.81 0 50.725-41.102 91.824-91.813 91.824zM172.954 539.824c-50.71 0-91.81-41.1-91.81-91.824s41.1-91.824 91.81-91.824c50.724 0 91.824 41.099 91.824 91.824 0 50.71-41.1 91.824-91.824 91.824z" />
<glyph unicode="&#xe92d;" glyph-name="plane" horiz-adv-x="1317" d="M1310.881 941.804c-3.781 4.871-8.953 8.141-14.577 9.606-0.863 0.225-1.741 0.406-2.626 0.547-0.015 0.003-0.022 0.003-0.037 0.005-3.84 0.596-7.819 0.377-11.644-0.726l-1261.897-337.031c-11.202-2.991-19.255-12.778-20.038-24.346-0.78-11.568 5.887-22.35 16.582-26.819l381.187-159.323 67.042-414.169c1.615-9.977 8.648-18.22 18.243-21.387 2.785-0.922 5.651-1.375 8.496-1.375 6.951 0 13.767 2.684 18.906 7.687l222.104 216.342 296.28-200.836c4.549-3.087 9.86-4.667 15.206-4.667 3.182 0 6.378 0.556 9.443 1.697 8.214 3.057 14.438 9.896 16.713 18.359l245.307 912.536c0.219 0.788 0.402 1.585 0.556 2.389 0.256 1.411 0.402 2.825 0.439 4.237 0.132 5.177-1.221 10.421-4.133 15.059-0.475 0.756-0.995 1.498-1.551 2.213zM1099.308 846.363l-679.093-393.283-309.334 129.292 988.427 263.991zM451.889 408.81l592.635 343.218-477.888-407.275c-4.148-3.533-7.055-8.192-8.49-13.312l-0.024 0.006-59.411-211.902-46.822 289.265zM544.902 83.595l55.236 197.012 86.693-58.764-141.929-138.247zM1027.811 56.159l-398.952 270.435 611.82 521.419-212.868-791.854z" />
<glyph unicode="&#xe92e;" glyph-name="add_friend" d="M610.879 392.854c-4.267-3.99-7.674-8.808-10.007-14.167-2.327-5.359-3.533-11.139-3.538-16.981v-84.372c0-11.315 4.494-22.17 12.498-30.168 7.999-8.004 18.853-12.498 30.168-12.498s22.17 4.494 30.168 12.498c8.004 7.999 12.498 18.853 12.498 30.168v66.77c54.539 57.676 85.049 133.961 85.333 213.336v191.040c-4.91 114.666-122.027 211.52-256 211.52s-251.093-96.853-256-213.333v-189.227c0.282-79.375 30.796-155.661 85.333-213.336v-36.477l-227.093-79.576c-33.387-11.691-62.314-33.473-82.78-62.333-20.466-28.854-31.46-63.357-31.46-98.731v-88.32c0-11.315 4.495-22.17 12.497-30.168 8.002-8.004 18.854-12.498 30.17-12.498h597.333c11.315 0 22.17 4.494 30.168 12.498 8.004 7.999 12.498 18.853 12.498 30.168s-4.494 22.17-12.498 30.168c-7.999 8.004-18.853 12.498-30.168 12.498h-554.667v45.653c0.004 17.692 5.509 34.953 15.752 49.38s24.718 25.316 41.421 31.152l256 89.498c8.281 2.992 15.432 8.471 20.474 15.69s7.727 15.821 7.686 24.627v84.372c0.009 5.837-1.18 11.611-3.491 16.97-2.312 5.353-5.698 10.183-9.949 14.178-22.55 21.1-40.556 46.58-52.917 74.88s-18.819 58.825-18.976 89.706v187.413c2.88 69.121 82.666 129.814 170.667 129.814s167.788-60.693 170.667-128v-189.227c-0.148-30.873-6.593-61.391-18.933-89.69-12.345-28.298-30.327-53.783-52.855-74.896zM981.333 149.333h-85.333v85.333c0 11.315-4.494 22.17-12.498 30.168-7.999 8.004-18.853 12.498-30.168 12.498s-22.17-4.494-30.168-12.498c-8.004-7.999-12.498-18.853-12.498-30.168v-85.333h-85.333c-11.315 0-22.17-4.494-30.168-12.498-8.004-7.999-12.498-18.853-12.498-30.168s4.494-22.17 12.498-30.168c7.999-8.004 18.853-12.498 30.168-12.498h85.333v-85.333c0-11.315 4.494-22.17 12.498-30.168 7.999-8.004 18.853-12.498 30.168-12.498s22.17 4.494 30.168 12.498c8.004 7.999 12.498 18.853 12.498 30.168v85.333h85.333c11.315 0 22.17 4.494 30.168 12.498 8.004 7.999 12.498 18.853 12.498 30.168s-4.494 22.17-12.498 30.168c-7.999 8.004-18.853 12.498-30.168 12.498z" />
<glyph unicode="&#xe92f;" glyph-name="dots" horiz-adv-x="3891" d="M1024 448c0-282.77-229.23-512-512-512s-512 229.23-512 512c0 282.77 229.23 512 512 512s512-229.23 512-512zM2457.6 448c0-282.77-229.23-512-512-512s-512 229.23-512 512c0 282.77 229.23 512 512 512s512-229.23 512-512zM3891.2 448c0-282.77-229.23-512-512-512s-512 229.23-512 512c0 282.77 229.23 512 512 512s512-229.23 512-512z" />
<glyph unicode="&#xe930;" glyph-name="location" horiz-adv-x="683" d="M341.333 960c-188.184 0-341.333-153.281-341.333-341.778 0-108.357 57.987-202.238 124.889-291.111 43.538-57.833 91.219-114.113 132.445-170.667-35.451-5.655-66.988-14.609-92.889-27.113-17.492-8.442-32.652-18.261-44.444-31.107-11.792-12.851-20.445-29.736-20.445-48.447 0-21.39 11.224-40.016 25.777-53.777 14.554-13.767 33.048-24.24 54.667-32.887 43.238-17.3 99.348-27.113 161.333-27.113s118.096 9.813 161.333 27.113c21.619 8.647 40.113 19.12 54.667 32.887 14.553 13.761 25.777 32.387 25.777 53.777 0 18.711-8.653 35.595-20.445 48.447-11.792 12.846-26.952 22.665-44.444 31.107-25.902 12.504-57.438 21.458-92.889 27.113 41.226 56.553 88.907 112.833 132.445 170.667 66.902 88.874 124.889 182.754 124.889 291.111 0 188.496-153.149 341.778-341.333 341.778zM341.333 903.111c157.418 0 284.444-127.076 284.444-284.889 0-87.726-48.68-171.005-113.333-256.887-55.448-73.66-120.468-148.565-171.111-229.336-50.642 80.771-115.663 155.676-171.111 229.336-64.654 85.882-113.333 169.161-113.333 256.887 0 157.813 127.027 284.889 284.444 284.889zM341.333 803.556c-101.774 0-184.889-83.115-184.889-184.889s83.115-184.889 184.889-184.889c101.774 0 184.889 83.114 184.889 184.889s-83.115 184.889-184.889 184.889zM341.333 746.667c71.029 0 128-56.971 128-128s-56.971-128-128-128c-71.029 0-128 56.971-128 128s56.971 128 128 128zM293.333 103.999c8.227-12.976 16.072-26.038 23.111-39.111 2.46-4.443 6.067-8.146 10.444-10.729 4.376-2.577 9.364-3.942 14.445-3.942s10.069 1.365 14.445 3.942c4.377 2.583 7.983 6.286 10.444 10.729 7.039 13.073 14.884 26.135 23.111 39.111 42.782-4.215 79.964-13.961 104.445-25.776 12.93-6.241 22.159-12.828 27.111-18.222 4.952-5.399 5.333-8.329 5.333-10.223 0-2.173-0.964-5.791-8-12.447-7.037-6.65-19.458-14.535-36.445-21.333-33.973-13.585-84.609-23.108-140.444-23.108s-106.471 9.523-140.444 23.108c-16.987 6.798-29.408 14.683-36.445 21.333-7.037 6.656-8 10.274-8 12.447 0 1.894 0.382 4.824 5.333 10.223 4.952 5.393 14.181 11.981 27.111 18.222 24.48 11.816 61.663 21.561 104.445 25.776z" />
<glyph unicode="&#xe931;" glyph-name="screpka_2" d="M467.617-64c-88.767 0-161.062 72.255-161.062 161.104v657.451c0 113.281 92.207 205.445 205.445 205.445s205.445-92.165 205.445-205.445v-536.602c0-15.44-12.515-27.955-27.955-27.955s-27.955 12.516-27.955 27.955v536.602c0 82.445-67.091 149.579-149.536 149.579s-149.536-67.091-149.536-149.579v-657.491c0-58.021 47.179-105.199 105.11-105.199 58.016 0 105.152 47.178 105.152 105.199v594.959c0 33.502-27.266 60.812-60.769 60.812s-60.769-27.266-60.769-60.812v-474.024c0-15.44-12.515-27.955-27.955-27.955s-27.955 12.516-27.955 27.955v474.024c0 64.338 52.383 116.679 116.721 116.679s116.721-52.34 116.721-116.679v-594.959c0-88.809-72.295-161.064-161.105-161.064z" />
<glyph unicode="&#xe932;" glyph-name="smile" d="M512 960c-282.374 0-512-229.627-512-512s229.626-512 512-512 512 229.626 512 512c0 282.373-229.626 512-512 512zM512 893.218c246.283 0 445.218-198.936 445.218-445.218 0-246.283-198.935-445.218-445.218-445.218-246.282 0-445.218 198.935-445.218 445.218 0 246.281 198.935 445.218 445.218 445.218zM322.782 659.478c-43.031 0-77.913-34.883-77.913-77.913s34.881-77.913 77.913-77.913c43.030 0 77.913 34.883 77.913 77.913s-34.883 77.913-77.913 77.913zM701.218 659.478c-43.031 0-77.915-34.883-77.915-77.913s34.884-77.913 77.915-77.913c43.031 0 77.915 34.883 77.915 77.913s-34.884 77.913-77.915 77.913zM263.652 347.824c-10.729-0.62-20.523-6.679-26.435-17.391-5.635-10.769-4.875-24.468 2.087-34.435 59.688-89.281 159.683-148.52 272.696-148.52 113.015 0 213.009 59.238 272.697 148.52 9.745 14.569 5.524 36.517-9.045 46.262s-36.864 5.524-46.609-9.045c-48.208-72.112-127.238-118.955-217.042-118.955s-168.835 46.842-217.044 118.955c-9.040 10.61-20.576 15.235-31.304 14.609z" />
<glyph unicode="&#xe933;" glyph-name="yuotube_btn" d="M195.048 825.905c-107.633 0-195.048-87.414-195.048-195.048v-365.713c0-107.636 87.414-195.049 195.048-195.049h633.903c107.636 0 195.049 87.413 195.049 195.049v365.713c0 107.633-87.413 195.048-195.049 195.048h-633.903zM195.048 777.143h633.903c81.464 0 146.287-64.822 146.287-146.285v-365.713c0-81.464-64.823-146.287-146.287-146.287h-633.903c-81.463 0-146.285 64.823-146.285 146.287v365.713c0 81.463 64.822 146.285 146.285 146.285zM412.571 630.857c-6.13-0.481-11.852-3.26-16.020-7.782s-6.474-10.451-6.455-16.6v-316.953c-0.086-5.803 1.901-11.442 5.601-15.914 3.701-4.468 8.873-7.47 14.59-8.465 5.772-1.033 11.725 0.046 16.764 3.044l268.191 158.478c3.716 2.137 6.807 5.216 8.956 8.928s3.279 7.925 3.279 12.214c0 4.289-1.129 8.503-3.279 12.215s-5.24 6.792-8.956 8.929l-268.191 158.476c-4.35 2.622-9.413 3.821-14.478 3.428zM438.857 563.429l195.427-115.429-195.427-115.811v231.24z" />
<glyph unicode="&#xe934;" glyph-name="microphone" horiz-adv-x="634" d="M316.96 219.921c119.543 0 217.148 97.046 217.148 216.166v307.747c0 119.12-97.606 216.165-217.148 216.165s-217.15-97.045-217.15-216.165v-307.747c0-119.34 97.608-216.166 217.15-216.166zM152.452 743.835c0 90.269 73.919 163.709 164.508 163.709s164.508-73.44 164.508-163.709v-307.747c0-90.268-73.919-163.708-164.508-163.708s-164.508 73.44-164.508 163.708v307.747zM633.905 368.552c0 14.424-11.844 26.229-26.322 26.229s-26.322-11.805-26.322-26.229c0-124.367-118.445-225.563-264.309-225.563s-264.31 101.196-264.31 225.563c0 14.424-11.844 26.229-26.321 26.229s-26.321-11.805-26.321-26.229c0-145.569 128.097-265.343 290.631-277.148v-102.946h-73.042c-14.476 0-26.321-11.8-26.321-26.229 0-14.424 11.845-26.229 26.321-26.229h198.726c14.476 0 26.321 11.805 26.321 26.229 0 14.429-11.845 26.229-26.321 26.229h-73.042v103.166c162.534 11.8 290.631 131.36 290.631 276.929z" />
<glyph unicode="&#xe935;" glyph-name="challenge" d="M932.657 878.056c12.454 2.492 20.535 14.609 18.042 27.066s-14.608 20.535-27.068 18.044l-162.638-32.529c-12.46-2.492-20.541-14.609-18.047-27.066s14.608-20.535 27.068-18.044l162.644 32.529zM628.701 503.58c-8.985-8.982-8.985-23.546 0-32.529 8.979-8.985 23.545-8.985 32.524 0l250.655 250.652c8.985 8.982 8.985 23.546 0 32.529s-23.545 8.982-32.53 0l-250.649-250.651zM398.316 468.372c8.982 8.982 8.982 23.546 0 32.529s-23.546 8.982-32.529 0l-104.482-104.483c-8.982-8.979-8.982-23.545 0-32.524 8.982-8.985 23.546-8.985 32.529 0l104.482 104.479zM781.765 851.819c8.979 8.982 8.979 23.546 0 32.529-8.985 8.982-23.545 8.982-32.53 0l-246.168-246.17c-8.985-8.982-8.985-23.546 0-32.529 8.979-8.982 23.545-8.982 32.524 0l246.174 246.17zM873.060 742.48c-2.493-12.456 5.588-24.575 18.042-27.066 12.46-2.491 24.575 5.588 27.068 18.044l32.53 162.642c2.487 12.456-5.588 24.575-18.047 27.066-12.454 2.492-24.575-5.588-27.062-18.044l-32.53-162.643zM391.421 266.303c-8.982-8.979-8.982-23.545 0-32.53 8.982-8.979 23.546-8.979 32.529 0l101.979 101.981c8.979 8.979 8.979 23.545 0 32.524-8.985 8.985-23.551 8.985-32.53 0l-101.978-101.975zM228.563 396.518l195.365-195.365c8.971-8.973 8.969-23.367-0.096-32.435-8.902-8.902-23.639-8.89-32.432-0.095l-195.365 195.365c-8.971 8.973-8.969 23.367 0.096 32.429 8.902 8.908 23.639 8.896 32.432 0.101zM163.505 331.458l195.365-195.365c26.746-26.746 70.611-26.782 97.489 0.095 27.031 27.033 27.037 70.552 0.096 97.489l-195.365 195.365c-26.746 26.752-70.609 26.782-97.489-0.095-27.029-27.026-27.035-70.552-0.096-97.489zM131.078 201.242l32.529-32.53 97.586 97.585-32.529 32.53-97.586-97.585zM326.274 201.261l-32.529 32.53-97.586-97.585 32.529-32.53 97.586 97.585zM196.327 6.068c44.913 44.912 44.913 117.725 0 162.638s-117.73 44.912-162.642 0c-44.913-44.912-44.913-117.725 0-162.638s117.73-44.912 162.642 0zM66.212 136.183c26.947 26.942 70.639 26.942 97.586 0 26.947-26.948 26.947-70.641 0-97.59-26.947-26.942-70.639-26.942-97.586 0-26.947 26.948-26.947 70.641 0 97.59zM561.1 566.14c-8.979-8.982-8.979-23.546 0-32.529 8.985-8.982 23.545-8.982 32.53 0l188.099 188.099c8.985 8.982 8.985 23.546 0 32.529s-23.545 8.982-32.53 0l-188.099-188.099zM326.329 331.369c-8.982-8.985-8.982-23.545 0-32.53s23.546-8.985 32.529 0l103.094 103.094c8.982 8.985 8.982 23.545 0 32.53-8.982 8.979-23.546 8.979-32.529 0l-103.094-103.094zM91.343 878.056c-12.456 2.492-20.535 14.609-18.044 27.066s14.609 20.535 27.066 18.044l162.643-32.529c12.456-2.492 20.535-14.609 18.044-27.066s-14.609-20.535-27.066-18.044l-162.643 32.529zM632.574 266.303c8.985-8.985 8.985-23.545 0-32.53-8.985-8.979-23.545-8.979-32.53 0l-487.926 487.929c-8.982 8.982-8.982 23.546 0 32.529s23.546 8.982 32.529 0l487.928-487.928zM242.235 851.819c-8.982 8.982-8.982 23.546 0 32.529s23.546 8.982 32.529 0l487.926-487.931c8.985-8.979 8.985-23.545 0-32.524-8.979-8.985-23.545-8.985-32.524 0l-487.931 487.926zM150.938 742.48c2.492-12.456-5.586-24.575-18.044-27.066s-24.574 5.588-27.066 18.044l-32.529 162.642c-2.492 12.456 5.586 24.575 18.044 27.066s24.574-5.588 27.066-18.044l32.529-162.643zM795.432 396.518l-195.365-195.365c-8.967-8.973-8.967-23.367 0.101-32.435 8.902-8.902 23.634-8.89 32.429-0.095l195.365 195.365c8.973 8.973 8.973 23.367-0.095 32.429-8.902 8.908-23.64 8.896-32.435 0.101zM860.493 331.458l-195.365-195.365c-26.746-26.746-70.612-26.782-97.489 0.095-27.033 27.033-27.037 70.552-0.095 97.489l195.365 195.365c26.746 26.752 70.606 26.782 97.489-0.095 27.026-27.026 27.033-70.552 0.095-97.489zM892.916 201.242l-32.524-32.53-97.59 97.585 32.53 32.53 97.585-97.585zM697.724 201.261l32.53 32.53 97.585-97.585-32.53-32.53-97.585 97.585zM827.672 6.068c-44.912 44.912-44.912 117.725 0 162.638s117.731 44.912 162.644 0c44.912-44.912 44.912-117.725 0-162.638s-117.731-44.912-162.644 0zM957.785 136.183c-26.948 26.942-70.641 26.942-97.585 0-26.948-26.948-26.948-70.641 0-97.59 26.942-26.942 70.635-26.942 97.585 0 26.948 26.948 26.948 70.641 0 97.59zM697.671 331.369c8.979-8.985 8.979-23.545 0-32.53-8.985-8.985-23.551-8.985-32.53 0l-422.872 422.872c-8.982 8.982-8.982 23.546 0 32.529s23.546 8.982 32.529 0l422.875-422.87z" />
<glyph unicode="&#xe936;" glyph-name="notice" d="M58.181 855.272c-31.83 0-58.181-26.352-58.181-58.181v-535.273c0-31.829 26.352-58.18 58.181-58.18h139.636v-139.639c0.102-8.59 5.382-16.914 13.109-20.661 3.129-1.519 6.689-2.617 10.163-2.611 5.106 0.006 10.129 1.98 14.182 5.092l202.91 157.821h527.639c31.829 0 58.18 26.351 58.18 58.18v535.273c0 31.83-26.351 58.181-58.18 58.181h-907.639zM58.181 808.726h907.639c6.849 0 11.634-4.787 11.634-11.636v-535.273c0-6.849-4.784-11.639-11.634-11.639h-535.275c-5.072 0.028-10.139-1.661-14.182-4.727l-172-133.815v115.269c-0.001 12.186-11.086 23.273-23.273 23.273h-162.909c-6.849 0-11.636 4.79-11.636 11.639v535.273c0 6.849 4.787 11.636 11.636 11.636zM186.181 622.544c0-10.971 11.072-23.273 23.273-23.273h605.093c12.294-0.174 23.603 10.976 23.603 23.273s-11.309 23.447-23.603 23.273h-605.093c-13.489 0-23.273-12.302-23.273-23.273zM186.181 436.363c0-10.971 11.072-23.273 23.273-23.273h605.093c12.294-0.173 23.603 10.976 23.603 23.273s-11.309 23.447-23.603 23.273h-605.093c-13.489 0-23.273-12.302-23.273-23.273z" />
<glyph unicode="&#xe937;" glyph-name="panel" d="M446.474 956.854c-108.954-13.963-211.35-63.257-290.474-140.054-85.894-83.355-138.361-188.501-153.17-307.187-3.808-31.734-3.808-91.818 0.212-124.821 18.617-149.151 102.396-283.069 229.544-366.636 47.178-30.888 116.993-60.083 170.307-71.085 54.583-11.213 119.955-13.963 172.422-7.616 172.634 21.368 323.054 129.899 399.005 287.723 15.232 31.523 32.369 81.24 38.716 112.127 11.213 54.794 13.963 120.167 7.616 172.422-13.751 110.647-62.622 212.196-140.688 292.801-82.72 85.259-185.962 136.88-305.283 152.536-30.465 3.808-96.895 3.808-128.206-0.212zM564.737 907.348c136.034-16.502 257.259-91.183 332.786-205.214 38.293-57.756 64.738-130.322 73.412-200.983 2.75-23.060 2.75-82.72 0-105.781-8.674-70.661-35.119-143.227-73.412-200.983-75.527-114.032-196.752-188.713-332.786-205.214-23.060-2.75-82.72-2.75-105.781 0-70.661 8.674-143.227 35.119-200.983 73.412-114.032 75.527-188.713 196.752-205.214 332.786-2.75 23.060-2.75 82.72 0 105.781 16.502 136.034 91.183 257.259 205.214 332.786 56.487 37.446 129.899 64.526 197.81 73.2 21.156 2.539 87.798 2.75 108.954 0.212zM497.884 880.057c-11.001-6.77-11.636-11.001-11.001-71.508l0.635-55.217 5.077-5.501c2.962-3.173 8.674-6.558 12.905-7.828 10.155-3.173 21.579 1.692 27.503 11.213 4.020 6.558 4.231 10.578 4.231 60.507 0 43.793-0.635 54.583-3.173 59.66-6.347 12.059-23.695 16.29-36.177 8.674zM344.29 851.284c-7.193-4.020-12.271-13.328-12.271-22.214 0-6.135 32.58-89.702 39.774-101.973 1.904-3.385 7.193-7.405 12.059-9.097 16.502-6.347 33.215 4.443 33.427 21.579 0.423 10.79-34.908 98.588-42.947 107.262-7.193 7.405-21.156 9.52-30.042 4.443zM658.459 851.284c-3.597-1.481-8.039-5.077-9.943-7.828s-11.847-26.022-22.425-51.409c-21.791-52.679-22.637-57.756-10.79-69.604 5.712-5.501 8.251-6.558 17.136-6.558 16.29 0 19.464 4.866 42.312 60.718 16.502 40.408 19.464 49.505 18.406 55.852-1.481 9.309-6.558 15.232-15.656 19.041-8.462 3.597-10.367 3.597-19.041-0.212zM206.987 760.313c-7.616-4.231-13.328-16.502-11.636-26.022 0.846-6.347 7.405-13.963 39.774-46.332 43.582-43.582 48.024-46.543 62.411-39.562 10.367 5.289 16.502 16.713 14.386 27.926-1.269 6.347-7.828 14.175-37.658 44.428-20.098 20.31-38.927 38.081-42.101 39.774-7.193 3.808-17.983 3.597-25.176-0.212zM790.050 759.467c-3.385-2.116-22.214-20.098-41.678-39.774-37.658-38.081-40.62-43.159-35.542-56.698 3.597-9.309 8.039-13.54 17.136-15.867 6.135-1.692 9.732-1.481 15.021 0.846 3.808 1.692 23.906 19.887 44.639 40.831 31.311 31.523 37.869 39.139 38.716 45.486 3.597 21.156-19.887 36.6-38.293 25.176zM496.191 670.188c-2.962-2.327-6.347-5.924-7.405-8.039-1.269-2.116-13.54-79.124-27.715-171.576l-25.599-167.768-9.52-10.79c-39.139-44.428-37.446-111.916 3.808-154.863 44.639-46.543 120.802-46.332 164.595 0.635 41.043 44.005 42.524 109.377 3.173 154.44l-9.309 10.578-25.599 167.768c-14.175 92.452-26.445 169.461-27.715 171.576-4.020 7.828-12.694 12.482-23.060 12.482-6.982 0-11.636-1.269-15.656-4.443zM522.213 418.218c5.077-34.061 9.732-63.468 10.155-65.161 0.635-2.75-2.539-3.173-20.521-3.173-20.31 0-21.368 0.212-20.31 4.231 0.423 2.327 5.077 31.523 10.155 65.161 4.866 33.427 9.52 60.718 10.155 60.718s5.289-27.926 10.367-61.776zM533.637 295.936c14.809-5.501 26.445-15.867 34.273-29.83 5.712-10.155 6.347-13.328 6.347-29.407 0-15.444-0.846-19.464-5.712-28.772-11.424-21.791-32.58-34.696-56.698-34.696-33.215 0-60.295 24.964-62.834 58.179-1.269 15.232 1.481 26.445 9.732 39.35 15.656 24.753 47.39 35.542 74.893 25.176zM117.919 626.818c-11.847-6.347-15.656-23.695-8.251-35.754 3.173-5.501 11.001-9.52 53.948-27.291 43.793-18.194 51.198-20.733 58.814-19.675 5.289 0.635 10.79 3.173 13.751 6.347 9.732 9.732 8.462 31.1-2.327 38.081-9.52 6.135-98.376 41.678-104.088 41.678-3.385-0.212-8.674-1.481-11.847-3.385zM843.998 612.22c-53.313-22.002-56.698-23.695-60.507-30.888-4.020-7.828-3.808-20.945 0.423-26.868 4.231-6.135 13.751-11.001 21.579-11.001 3.597 0 28.349 9.309 55.429 20.521 42.312 17.56 49.717 21.368 53.102 26.868 10.578 17.136-1.269 39.562-20.733 39.35-3.173 0-25.387-8.251-49.294-17.983zM86.185 468.147c-11.424-6.135-15.656-23.060-8.674-34.908 6.982-11.636 11.847-12.482 69.815-12.482 48.871 0 52.89 0.212 59.449 4.231 8.462 5.289 13.963 17.136 12.059 26.657-0.635 4.231-4.231 9.52-8.674 13.328l-7.405 6.558h-55.429c-44.851-0.212-56.487-0.846-61.141-3.385zM813.533 464.974c-13.54-11.847-11.847-30.676 3.385-39.985 6.558-4.020 9.943-4.231 62.622-3.808l55.852 0.635 7.193 7.828c8.039 9.097 9.52 18.617 4.020 29.195-6.135 12.059-10.155 12.694-70.661 12.694h-55.006l-7.405-6.558z" />
</font>
</defs>
</svg>
