<svg width="564" height="342" viewBox="0 0 564 342" fill="none" xmlns="http://www.w3.org/2000/svg">
<path d="M563.336 2.50584C563.336 1.12763 562.208 0 560.828 0H2.50818C1.12868 0 0 1.12763 0 2.50584V18.5432H563.336V2.50584Z" fill="url(#paint0_linear)"/>
<path d="M29.5959 12.029C31.1197 12.029 32.3549 10.7949 32.3549 9.27253C32.3549 7.7502 31.1197 6.51611 29.5959 6.51611C28.0722 6.51611 26.8369 7.7502 26.8369 9.27253C26.8369 10.7949 28.0722 12.029 29.5959 12.029Z" fill="#15CC35" stroke="#17B230"/>
<path d="M19.5647 12.029C21.0884 12.029 22.3237 10.7949 22.3237 9.27253C22.3237 7.7502 21.0884 6.51611 19.5647 6.51611C18.0409 6.51611 16.8057 7.7502 16.8057 9.27253C16.8057 10.7949 18.0409 12.029 19.5647 12.029Z" fill="#FFBE05" stroke="#E2A100"/>
<path d="M9.5295 12.0299C11.0533 12.0299 12.2885 10.7958 12.2885 9.27351C12.2885 7.75118 11.0533 6.51709 9.5295 6.51709C8.00575 6.51709 6.77051 7.75118 6.77051 9.27351C6.77051 10.7958 8.00575 12.0299 9.5295 12.0299Z" fill="#FF5F52" stroke="#E33E32"/>
<path opacity="0.7" d="M563.336 18.5435H0V19.0451H563.336V18.5435Z" fill="#B6B5B6"/>
<rect x="0.5" y="18.9922" width="562.336" height="321.806" fill="#F0F0F0" stroke="#BFBCBF"/>
<defs>
<linearGradient id="paint0_linear" x1="281.669" y1="18.5477" x2="281.669" y2="0.00450946" gradientUnits="userSpaceOnUse">
<stop stop-color="#D6D3D6"/>
<stop offset="0.9576" stop-color="#F5F4F5"/>
<stop offset="1" stop-color="white"/>
</linearGradient>
</defs>
</svg>
