<svg width="56" height="56" viewBox="0 0 56 56" fill="none" xmlns="http://www.w3.org/2000/svg">
<path d="M28 0C12.5674 0 0 12.5674 0 28C0 43.4326 12.5674 56 28 56C43.4326 56 56 43.4326 56 28C56 12.5674 43.4326 0 28 0ZM41.0233 22.9209L25.3953 38.5488C24.8744 39.0698 24.2233 39.3302 23.5721 39.3302C22.9209 39.3302 22.2698 39.0698 21.7488 38.5488L13.6744 30.6047C12.6326 29.5628 12.6326 27.9349 13.6744 26.893C14.7163 25.8512 16.3442 25.8512 17.386 26.893L23.507 33.014L37.3116 19.2093C38.3535 18.1674 39.9814 18.1674 41.0233 19.2093C42 20.2512 42 21.8791 41.0233 22.9209Z" fill="#58B58B"/>
</svg>
