<svg width="13" height="20" viewBox="0 0 13 20" fill="none" xmlns="http://www.w3.org/2000/svg">
<path fill-rule="evenodd" clip-rule="evenodd" d="M6.54976 3.02472C7.7933 3.02472 8.80482 3.98293 8.80482 5.16132C8.80482 6.33878 7.7933 7.29761 6.54976 7.29761C5.3072 7.29761 4.29471 6.33878 4.29471 5.16132C4.29471 3.98293 5.3072 3.02472 6.54976 3.02472ZM6.54976 10.3211C3.54617 10.3211 1.10341 8.00662 1.10341 5.16132C1.10341 2.31509 3.54617 0 6.54976 0C9.55401 0 11.9961 2.31509 11.9961 5.16132C11.9961 8.00662 9.55401 10.3211 6.54976 10.3211ZM8.76726 14.5336L11.8119 17.419C12.4356 18.0088 12.4356 18.9667 11.8119 19.5572C11.1888 20.1476 10.179 20.1476 9.55653 19.5572L6.56304 16.7218L3.57216 19.5572C3.2603 19.8521 2.85165 19.9997 2.443 19.9997C2.035 19.9997 1.62701 19.8521 1.31515 19.5572C0.692074 18.9667 0.692074 18.0095 1.3145 17.419L4.35947 14.5336C3.25085 14.2943 2.18165 13.878 1.19685 13.2925C0.451577 12.8472 0.227702 11.9143 0.697288 11.2075C1.16557 10.4997 2.15036 10.2866 2.89694 10.7319C5.12658 12.061 7.99885 12.0613 10.2298 10.7319C10.9764 10.2866 11.9608 10.4997 12.4301 11.2075C12.8997 11.9137 12.6752 12.8472 11.9299 13.2925C10.9451 13.8786 9.87589 14.2943 8.76726 14.5336Z" fill="#F68634"/>
</svg>
