<svg width="24" height="19" viewBox="0 0 24 19" fill="none" xmlns="http://www.w3.org/2000/svg">
<path fill-rule="evenodd" clip-rule="evenodd" d="M7.69615 15.0858C5.2848 14.9999 3.78069 13.3046 3.38278 11.9296C4.05127 12.0546 4.71181 12.0311 5.37234 11.867C5.38826 11.867 5.40417 11.8514 5.43601 11.8358C4.13085 11.5389 3.12811 10.8514 2.42779 9.74986C1.96621 9.01549 1.74338 8.2108 1.75133 7.32799C2.40391 7.67174 3.08036 7.85924 3.81252 7.88267C2.83366 7.18736 2.17312 6.28111 1.90254 5.12486C1.63196 3.96861 1.80704 2.86705 2.39595 1.82799C4.9028 4.72642 8.07815 6.32017 11.9538 6.57799C11.9299 6.3983 11.8981 6.24205 11.8822 6.07799C11.7549 5.00768 11.9697 4.00767 12.5586 3.10142C13.2988 1.96861 14.3493 1.25768 15.7022 1.04674C17.262 0.796738 18.6228 1.23424 19.7609 2.31236C19.8405 2.38268 19.8962 2.40611 20.0076 2.38268C20.9626 2.17955 21.8539 1.84361 22.7054 1.36705C22.7293 1.35924 22.7452 1.34361 22.7691 1.3358C22.7771 1.3358 22.777 1.3358 22.8009 1.3358C22.4348 2.39049 21.7663 3.2108 20.8193 3.81236C21.7186 3.71861 22.5701 3.48424 23.3978 3.13268C23.4057 3.14049 23.4137 3.1483 23.4137 3.15611C23.2386 3.38267 23.0635 3.61705 22.8805 3.8358C22.3871 4.42955 21.8221 4.95299 21.1934 5.40611C21.1376 5.44517 21.1138 5.48424 21.1138 5.54674C21.1376 6.21861 21.1138 6.8983 21.0262 7.57017C20.8432 8.98424 20.4453 10.328 19.8325 11.6171C19.1958 12.9452 18.3682 14.1483 17.3256 15.203C15.5589 16.992 13.4341 18.1483 10.959 18.6874C10.1075 18.867 9.24801 18.9608 8.38056 18.992C5.70659 19.0702 3.23953 18.4139 0.963466 17.0389C0.931633 17.0233 0.907759 16.9999 0.852051 16.9686C2.46758 17.1405 4.00352 16.9374 5.48376 16.3436C6.27958 16.0311 7.01174 15.617 7.69615 15.0858Z" fill="#34C4F3"/>
</svg>
