<svg width="27" height="16" viewBox="0 0 27 16" fill="none" xmlns="http://www.w3.org/2000/svg">
<path d="M13.1582 15.2968H14.7259C14.7259 15.2968 15.2034 15.2421 15.4422 14.9921C15.665 14.7577 15.657 14.3124 15.657 14.3124C15.657 14.3124 15.6252 12.2421 16.6041 11.9374C17.567 11.6327 18.8085 13.9374 20.1216 14.8202C21.1164 15.4921 21.8724 15.3436 21.8724 15.3436L25.382 15.2968C25.382 15.2968 27.2204 15.1874 26.345 13.7655C26.2734 13.6483 25.8357 12.7186 23.7347 10.8046C21.5382 8.80459 21.8326 9.1249 24.4827 5.65615C26.0983 3.54677 26.7429 2.25771 26.5439 1.70302C26.3529 1.17958 25.1672 1.32021 25.1672 1.32021L21.2119 1.34365C21.2119 1.34365 20.9174 1.30458 20.7026 1.42958C20.4877 1.55458 20.3524 1.84365 20.3524 1.84365C20.3524 1.84365 19.7237 3.47646 18.8881 4.86708C17.1293 7.80458 16.429 7.95302 16.1345 7.77334C15.466 7.34365 15.6332 6.07021 15.6332 5.15615C15.6332 2.3124 16.0709 1.13271 14.7737 0.82021C14.3439 0.718648 14.0256 0.648335 12.9274 0.640522C11.5188 0.624897 10.325 0.648335 9.64856 0.968647C9.2029 1.1874 8.85274 1.66396 9.05965 1.69521C9.32227 1.72646 9.91119 1.85146 10.2295 2.27333C10.6354 2.8124 10.6195 4.03115 10.6195 4.03115C10.6195 4.03115 10.8503 7.3749 10.0783 7.79677C9.54511 8.08583 8.81295 7.4999 7.24517 4.83583C6.44139 3.47646 5.83656 1.96865 5.83656 1.96865C5.83656 1.96865 5.71719 1.6874 5.51027 1.53896C5.25561 1.35927 4.90544 1.29677 4.90544 1.29677L1.14915 1.32021C1.14915 1.32021 0.584112 1.33583 0.377197 1.57802C0.194157 1.78896 0.36128 2.23427 0.36128 2.23427C0.36128 2.23427 3.29788 8.98427 6.63238 12.3905C9.68835 15.4999 13.1582 15.2968 13.1582 15.2968Z" fill="#678AAF"/>
</svg>
