<svg width="24" height="21" viewBox="0 0 24 21" fill="none" xmlns="http://www.w3.org/2000/svg">
<path d="M1.67442 0.419922C0.749665 0.419922 0 1.19961 0 2.16147C0 3.12326 0.749665 3.90301 1.67442 3.90301H22.3256C23.2503 3.90301 24 3.12326 24 2.16147C24 1.19961 23.2503 0.419922 22.3256 0.419922H1.67442ZM1.67442 8.54712C0.749665 8.54712 0 9.3268 0 10.2887C0 11.2505 0.749665 12.0302 1.67442 12.0302H22.3256C23.2503 12.0302 24 11.2505 24 10.2887C24 9.3268 23.2503 8.54712 22.3256 8.54712H1.67442ZM1.67442 16.6743C0.749665 16.6743 0 17.454 0 18.4159C0 19.3777 0.749665 20.1574 1.67442 20.1574H22.3256C23.2503 20.1574 24 19.3777 24 18.4159C24 17.454 23.2503 16.6743 22.3256 16.6743H1.67442Z" fill="white"/>
</svg>
