<svg width="13" height="22" viewBox="0 0 13 22" fill="none" xmlns="http://www.w3.org/2000/svg">
<path fill-rule="evenodd" clip-rule="evenodd" d="M9.79515 3.86719C10.4796 3.84376 11.164 3.85938 11.8484 3.85938C11.928 3.85938 12.0155 3.85938 12.1269 3.85938V0.367193C11.7608 0.328131 11.3788 0.281256 10.9969 0.265631C10.2965 0.234381 9.5962 0.203131 8.88791 0.218756C7.81355 0.242193 6.80285 0.500006 5.91948 1.11719C4.90083 1.83594 4.34375 2.84376 4.13683 4.03126C4.04929 4.52344 4.02542 5.03126 4.0095 5.53126C3.99359 6.31251 4.0095 7.09376 4.0095 7.88282V8.17969H0.611328V12.0781H3.99359V21.875H8.12392V12.0859H11.4982C11.6733 10.7891 11.8404 9.50782 12.0155 8.17188C11.7449 8.17188 11.4982 8.17188 11.2595 8.17188C10.2965 8.17969 8.10005 8.17188 8.10005 8.17188C8.10005 8.17188 8.10801 6.24219 8.13188 5.39844C8.16371 4.25001 8.86404 3.89844 9.79515 3.86719Z" fill="#4F76BB"/>
</svg>
