<svg width="21" height="22" viewBox="0 0 21 22" fill="none" xmlns="http://www.w3.org/2000/svg">
<path d="M0.578533 7.63281H4.82824V21.0391H0.578533V7.63281ZM2.70339 0.960938C4.06425 0.960938 5.16249 2.04687 5.16249 3.375C5.16249 4.71094 4.05629 5.79687 2.70339 5.79687C1.34253 5.79687 0.236328 4.71094 0.236328 3.375C0.244286 2.04687 1.34253 0.960938 2.70339 0.960938Z" fill="#1387C8"/>
<path d="M7.49414 7.63281H11.5688V9.46875H11.6245C12.1895 8.41406 13.5742 7.30469 15.6434 7.30469C19.9408 7.30469 20.7367 10.0781 20.7367 13.6875V21.0391H16.4949V14.5156C16.4949 12.9609 16.4631 10.9609 14.2905 10.9609C12.0781 10.9609 11.7438 12.6563 11.7438 14.3984V21.0313H7.5021V7.63281H7.49414Z" fill="#1387C8"/>
</svg>
