<svg width="25" height="21" viewBox="0 0 25 21" fill="none" xmlns="http://www.w3.org/2000/svg">
<path fill-rule="evenodd" clip-rule="evenodd" d="M13.1758 16.457C12.2557 17.3919 11.3436 18.3113 10.4399 19.238C10.124 19.5625 9.76879 19.742 9.31537 19.7171C9.00583 19.6999 8.83274 19.5581 8.73771 19.2518C8.04536 17.0103 7.34293 14.7743 6.6543 12.5306C6.5874 12.3129 6.48864 12.2072 6.27733 12.139C4.64628 11.6195 3.01842 11.0878 1.39321 10.5489C1.14314 10.4658 0.890945 10.3572 0.674853 10.2038C0.340892 9.96787 0.292044 9.58293 0.591494 9.30599C0.868114 9.05066 1.19836 8.828 1.54135 8.68621C3.53503 7.86206 5.53932 7.06449 7.54044 6.25971C12.6189 4.21428 17.6973 2.1705 22.7763 0.125067C23.7421 -0.264303 24.4843 0.284027 24.384 1.37349C24.3197 2.07025 24.1466 2.75594 24.007 3.44385C22.9042 8.87564 21.8004 14.308 20.6918 19.7387C20.4285 21.0281 19.5604 21.3648 18.5431 20.5822C16.8393 19.2723 15.1371 17.958 13.4344 16.6459C13.3532 16.5844 13.2687 16.5251 13.1758 16.457ZM9.35147 18.1064C9.37058 18.1009 9.3897 18.0953 9.40881 18.0903C9.41943 18.0394 9.43483 17.9895 9.43908 17.9391C9.54845 16.7079 9.6642 15.4772 9.75923 14.2437C9.78047 13.969 9.87073 13.774 10.0688 13.5891C11.6393 12.1241 13.2003 10.6497 14.7644 9.1786C16.4958 7.54967 18.2277 5.92241 19.9527 4.28683C20.0595 4.18603 20.1041 4.01433 20.1773 3.87476C20.0149 3.85648 19.8407 3.78835 19.6931 3.82823C19.4919 3.88251 19.3013 4.00436 19.1218 4.12234C15.3007 6.63302 11.4827 9.14814 7.65883 11.6538C7.44274 11.7956 7.40239 11.9158 7.48469 12.1634C7.76662 13.008 8.02306 13.8605 8.28906 14.7112C8.6432 15.8433 8.99733 16.9749 9.35147 18.1064Z" fill="#13A2D1"/>
</svg>
