<svg width="24" height="19" viewBox="0 0 24 19" fill="none" xmlns="http://www.w3.org/2000/svg">
<path fill-rule="evenodd" clip-rule="evenodd" d="M7.69615 15.0859C5.2848 15 3.78069 13.3047 3.38278 11.9297C4.05127 12.0547 4.71181 12.0312 5.37234 11.8672C5.38826 11.8672 5.40417 11.8515 5.43601 11.8359C4.13085 11.539 3.12811 10.8515 2.42779 9.74998C1.96621 9.01561 1.74338 8.21092 1.75133 7.32811C2.40391 7.67186 3.08036 7.85936 3.81252 7.8828C2.83366 7.18748 2.17312 6.28123 1.90254 5.12498C1.63196 3.96873 1.80704 2.86717 2.39595 1.82811C4.9028 4.72655 8.07815 6.3203 11.9538 6.57811C11.9299 6.39842 11.8981 6.24217 11.8822 6.07811C11.7549 5.0078 11.9697 4.0078 12.5586 3.10155C13.2988 1.96873 14.3493 1.2578 15.7022 1.04686C17.262 0.79686 18.6228 1.23436 19.7609 2.31249C19.8405 2.3828 19.8962 2.40623 20.0076 2.3828C20.9626 2.17967 21.8539 1.84373 22.7054 1.36717C22.7293 1.35936 22.7452 1.34374 22.7691 1.33592C22.7771 1.33592 22.777 1.33592 22.8009 1.33592C22.4348 2.39061 21.7663 3.21092 20.8193 3.81248C21.7186 3.71873 22.5701 3.48436 23.3978 3.1328C23.4057 3.14061 23.4137 3.14842 23.4137 3.15623C23.2386 3.3828 23.0635 3.61717 22.8805 3.83592C22.3871 4.42967 21.8221 4.95311 21.1934 5.40623C21.1376 5.4453 21.1138 5.48436 21.1138 5.54686C21.1376 6.21873 21.1138 6.89842 21.0262 7.5703C20.8432 8.98436 20.4453 10.3281 19.8325 11.6172C19.1958 12.9453 18.3682 14.1484 17.3256 15.2031C15.5589 16.9922 13.4341 18.1484 10.959 18.6875C10.1075 18.8672 9.24801 18.9609 8.38056 18.9922C5.70659 19.0703 3.23953 18.414 0.963466 17.039C0.931633 17.0234 0.907759 17 0.852051 16.9687C2.46758 17.1406 4.00352 16.9375 5.48376 16.3437C6.27958 16.0312 7.01174 15.6172 7.69615 15.0859Z" fill="#34C4F3"/>
</svg>
