<svg width="27" height="16" viewBox="0 0 27 16" fill="none" xmlns="http://www.w3.org/2000/svg">
<path d="M13.1582 15.2969H14.7259C14.7259 15.2969 15.2034 15.2422 15.4422 14.9922C15.665 14.7578 15.657 14.3125 15.657 14.3125C15.657 14.3125 15.6252 12.2422 16.6041 11.9375C17.567 11.6328 18.8085 13.9375 20.1216 14.8203C21.1164 15.4922 21.8724 15.3438 21.8724 15.3438L25.382 15.2969C25.382 15.2969 27.2204 15.1875 26.345 13.7656C26.2734 13.6485 25.8357 12.7188 23.7347 10.8047C21.5382 8.80471 21.8326 9.12502 24.4827 5.65627C26.0983 3.54689 26.7429 2.25783 26.5439 1.70314C26.3529 1.17971 25.1672 1.32033 25.1672 1.32033L21.2119 1.34377C21.2119 1.34377 20.9174 1.30471 20.7026 1.42971C20.4877 1.55471 20.3524 1.84377 20.3524 1.84377C20.3524 1.84377 19.7237 3.47658 18.8881 4.86721C17.1293 7.80471 16.429 7.95315 16.1345 7.77346C15.466 7.34377 15.6332 6.07033 15.6332 5.15627C15.6332 2.31252 16.0709 1.13283 14.7737 0.820332C14.3439 0.71877 14.0256 0.648457 12.9274 0.640644C11.5188 0.625019 10.325 0.648457 9.64856 0.968769C9.2029 1.18752 8.85274 1.66408 9.05965 1.69533C9.32227 1.72658 9.91119 1.85158 10.2295 2.27346C10.6354 2.81252 10.6195 4.03127 10.6195 4.03127C10.6195 4.03127 10.8503 7.37502 10.0783 7.79689C9.54511 8.08596 8.81295 7.50002 7.24517 4.83596C6.44139 3.47658 5.83656 1.96877 5.83656 1.96877C5.83656 1.96877 5.71719 1.68752 5.51027 1.53908C5.25561 1.35939 4.90544 1.29689 4.90544 1.29689L1.14915 1.32033C1.14915 1.32033 0.584112 1.33596 0.377197 1.57814C0.194157 1.78908 0.36128 2.23439 0.36128 2.23439C0.36128 2.23439 3.29788 8.9844 6.63238 12.3906C9.68835 15.5 13.1582 15.2969 13.1582 15.2969Z" fill="#678AAF"/>
</svg>
