<svg width="128" height="150" viewBox="0 0 128 150" fill="none" xmlns="http://www.w3.org/2000/svg">
<g clip-path="url(#clip0)">
<path d="M4.60006 147.9C4.70006 148 3.70006 148.6 2.40006 149.1C1.10006 149.6 5.93024e-05 149.9 5.93024e-05 149.8C-0.0999407 149.7 0.900059 149.1 2.20006 148.6C3.50006 148.1 4.60006 147.7 4.60006 147.9Z" fill="#557FAF"/>
<path d="M13.4004 143.2C13.5004 143.3 12.6004 144 11.4004 144.7C10.2004 145.4 9.20036 145.8 9.10036 145.7C9.00036 145.6 9.90036 144.9 11.1004 144.2C12.3004 143.5 13.4004 143.1 13.4004 143.2Z" fill="#557FAF"/>
<path d="M21.7004 137.5C21.8004 137.6 20.9004 138.4 19.8004 139.2C18.7004 140 17.7004 140.6 17.6004 140.5C17.5004 140.4 18.4004 139.6 19.5004 138.8C20.6004 138 21.6004 137.4 21.7004 137.5Z" fill="#557FAF"/>
<path d="M29.3003 131C29.4003 131.1 28.6003 131.9 27.6003 132.9C26.6003 133.8 25.7003 134.5 25.6003 134.4C25.5003 134.3 26.3003 133.5 27.3003 132.5C28.3003 131.6 29.2003 130.9 29.3003 131Z" fill="#557FAF"/>
<path d="M36.2005 123.8C36.3005 123.9 35.6005 124.8 34.7005 125.8C33.8005 126.8 32.9005 127.6 32.8005 127.5C32.7005 127.4 33.4005 126.5 34.3005 125.5C35.3005 124.5 36.1005 123.7 36.2005 123.8Z" fill="#557FAF"/>
<path d="M42.2997 115.9C42.3997 116 41.8997 117 40.9997 118.1C40.1997 119.2 39.3997 120.1 39.2997 120C39.1997 119.9 39.6997 118.9 40.5997 117.8C41.3997 116.6 42.1997 115.8 42.2997 115.9Z" fill="#557FAF"/>
<path d="M47.3996 107.3C47.4996 107.4 47.0996 108.4 46.3996 109.6C45.6996 110.8 45.0996 111.7 44.9996 111.7C44.8996 111.6 45.2996 110.6 45.9996 109.4C46.5996 108.1 47.1996 107.2 47.3996 107.3Z" fill="#557FAF"/>
<path d="M51.1 98C51.2 98 51 99.1 50.5 100.4C50 101.7 49.5 102.7 49.4 102.7C49.3 102.7 49.5 101.6 50 100.3C50.5 99 51 98 51.1 98Z" fill="#557FAF"/>
<path d="M53.1003 88.2002C53.2003 88.2002 53.2003 89.2002 53.1003 90.4002C52.9003 91.6002 52.6003 92.5002 52.5003 92.5002C52.4003 92.5002 52.4003 91.5002 52.6003 90.3002C52.8003 89.2002 53.0003 88.2002 53.1003 88.2002Z" fill="#557FAF"/>
<path d="M53.2996 78.2002C53.3996 78.2002 53.5996 79.3002 53.6996 80.7002C53.7996 82.1002 53.6996 83.2002 53.4996 83.2002C53.3996 83.2002 53.1996 82.1002 53.0996 80.7002C53.0996 79.4002 53.0996 78.2002 53.2996 78.2002Z" fill="#557FAF"/>
<path d="M51.0997 68.5C51.1997 68.4 51.6997 69.5 52.0997 70.8C52.3997 72.1 52.5997 73.3 52.4997 73.3C52.3997 73.3 51.9997 72.3 51.5997 70.9C51.1997 69.6 50.9997 68.5 51.0997 68.5Z" fill="#557FAF"/>
<path d="M46.0996 59.8999C46.1996 59.8999 46.3996 59.9999 46.6996 60.3999C46.8996 60.5999 46.9996 60.7999 47.1996 60.9999C47.2996 61.0999 47.3996 61.1999 47.4996 61.3999C47.5996 61.4999 47.6996 61.6999 47.7996 61.7999C48.4996 62.9999 49.0996 63.9999 48.8996 63.9999C48.7996 64.0999 48.0996 63.1999 47.2996 61.9999C47.1996 61.8999 47.0996 61.6999 46.9996 61.5999C46.8996 61.4999 46.7996 61.3999 46.6996 61.1999C46.4996 60.9999 46.3996 60.6999 46.2996 60.4999C46.1996 60.1999 46.0996 59.8999 46.0996 59.8999Z" fill="#557FAF"/>
<path d="M38.2996 53.7999C38.3996 53.6999 39.3996 54.0999 40.5996 54.7999C41.6996 55.5999 42.5996 56.2999 42.4996 56.4999C42.3996 56.5999 41.3996 56.0999 40.2996 55.2999C39.0996 54.4999 38.1996 53.8999 38.2996 53.7999Z" fill="#557FAF"/>
<path d="M28.7002 51.2C28.7002 51.1 29.8002 51.1 31.2002 51.2C32.5002 51.5 33.6002 51.8 33.6002 52C33.6002 52.1 32.5002 52 31.1002 51.7C29.8002 51.5 28.7002 51.3 28.7002 51.2Z" fill="#557FAF"/>
<path d="M19.0997 53.1999C18.9997 53.0999 19.9997 52.5999 21.2997 51.9999C22.5997 51.5999 23.6997 51.3999 23.7997 51.5999C23.7997 51.6999 22.7997 52.1999 21.4997 52.4999C20.1997 52.9999 19.0997 53.3999 19.0997 53.1999Z" fill="#557FAF"/>
<path d="M12 60.1999C11.9 60.0999 12.4 59.0999 13.2 57.8999C14.1 56.8999 14.9 56.0999 15 56.1999C15.1 56.2999 14.5 57.1999 13.6 58.2999C12.9 59.3999 12.2 60.2999 12 60.1999Z" fill="#557FAF"/>
<path d="M9.20045 69.7003C9.10045 69.7003 9.10045 68.6003 9.30045 67.2003C9.60045 65.9003 10.0005 64.8003 10.1005 64.8003C10.2005 64.8003 10.1005 65.9003 9.80045 67.3003C9.60045 68.6003 9.30045 69.7003 9.20045 69.7003Z" fill="#557FAF"/>
<path d="M10.1005 79.6002C10.0005 79.6002 9.60045 78.6002 9.30045 77.2002C9.10045 75.8002 9.10045 74.7002 9.20045 74.7002C9.30045 74.7002 9.60045 75.8002 9.80045 77.1002C10.1005 78.5002 10.2005 79.6002 10.1005 79.6002Z" fill="#557FAF"/>
<path d="M14.2998 88.5999C14.1998 88.6999 13.3998 87.7999 12.6998 86.5999C11.9998 85.3999 11.5998 84.2999 11.6998 84.2999C11.7998 84.1999 12.3998 85.1999 13.0998 86.3999C13.8998 87.5999 14.3998 88.4999 14.2998 88.5999Z" fill="#557FAF"/>
<path d="M21.3003 95.7001C21.2003 95.8001 20.3003 95.2002 19.2003 94.3002C18.2003 93.4002 17.5003 92.5002 17.6003 92.4002C17.7003 92.3002 18.6003 93.0002 19.6003 93.9002C20.6003 94.8002 21.4003 95.6001 21.3003 95.7001Z" fill="#557FAF"/>
<path d="M30.0001 100.6C29.9001 100.7 28.9001 100.4 27.6001 99.8001C26.4001 99.2001 25.4001 98.5001 25.5001 98.4001C25.6001 98.3001 26.6001 98.7001 27.8001 99.3001C29.1001 99.9001 30.0001 100.5 30.0001 100.6Z" fill="#557FAF"/>
<path d="M39.6002 103.3C39.6002 103.4 38.5002 103.4 37.1002 103.1C35.8002 102.8 34.7002 102.4 34.7002 102.3C34.7002 102.2 35.8002 102.3 37.2002 102.6C38.6002 102.8 39.6002 103.1 39.6002 103.3Z" fill="#557FAF"/>
<path d="M49.5996 103.8C49.5996 103.9 48.4996 104.1 47.0996 104.1C45.6996 104.1 44.5996 104 44.5996 103.9C44.5996 103.8 45.6996 103.6 47.0996 103.6C48.4996 103.5 49.5996 103.6 49.5996 103.8Z" fill="#557FAF"/>
<path d="M59.4 102.1C59.4 102.2 58.4 102.7 57 103C55.6 103.3 54.5 103.4 54.5 103.2C54.5 103.1 55.6 102.8 56.9 102.4C58.3 102.2 59.4 102 59.4 102.1Z" fill="#557FAF"/>
<path d="M68.6997 98.4003C68.7997 98.5003 67.7997 99.1003 66.4997 99.7003C65.1997 100.3 64.1997 100.6 64.0997 100.5C63.9997 100.4 64.9997 99.8003 66.2997 99.2003C67.5997 98.6003 68.5997 98.3003 68.6997 98.4003Z" fill="#557FAF"/>
<path d="M77.2004 93.1001C77.3004 93.2001 76.4004 93.9001 75.3004 94.7001C74.2004 95.5001 73.2004 96.0001 73.1004 95.9001C73.0004 95.8001 73.9004 95.1001 75.0004 94.3001C76.1004 93.5001 77.1004 93.0001 77.2004 93.1001Z" fill="#557FAF"/>
<path d="M84.6997 86.5999C84.7997 86.6999 84.0997 87.5999 82.9997 88.4999C81.9997 89.3999 81.0997 90.0999 80.9997 89.9999C80.8997 89.8999 81.5997 88.9999 82.6997 88.0999C83.6997 87.1999 84.5997 86.4999 84.6997 86.5999Z" fill="#557FAF"/>
<path d="M91.4003 79.1002C91.5003 79.2002 90.9003 80.1002 90.0003 81.2002C89.1003 82.3002 88.3003 83.1002 88.2003 83.0002C88.1003 82.9002 88.7003 82.0002 89.6003 80.9002C90.4003 79.8002 91.3003 79.0002 91.4003 79.1002Z" fill="#557FAF"/>
<path d="M96.9998 70.9002C97.0998 71.0002 96.5998 72.0002 95.8998 73.1002C95.0998 74.3002 94.3999 75.1002 94.2999 75.1002C94.1999 75.0002 94.6998 74.0002 95.3998 72.9002C96.1998 71.7002 96.8998 70.8002 96.9998 70.9002Z" fill="#557FAF"/>
<path d="M101.9 62.1002C102 62.2002 101.6 63.2002 101 64.4002C100.4 65.6002 99.7003 66.6002 99.6003 66.5002C99.5003 66.4002 99.9003 65.4002 100.5 64.2002C101.1 63.0002 101.7 62.0002 101.9 62.1002Z" fill="#557FAF"/>
<path d="M105.9 53.0001C106 53.1001 105.7 54.1001 105.2 55.4001C104.7 56.7001 104.1 57.7001 104 57.6001C103.9 57.5001 104.2 56.5001 104.7 55.2001C105.3 53.9001 105.8 52.9001 105.9 53.0001Z" fill="#557FAF"/>
<path d="M109.5 43.6001C109.6 43.6001 109.4 44.7001 108.9 46.0001C108.4 47.3001 107.9 48.3001 107.8 48.3001C107.7 48.3001 107.9 47.2001 108.4 45.9001C108.8 44.6001 109.3 43.6001 109.5 43.6001Z" fill="#557FAF"/>
<path d="M112.6 34.1001C112.7 34.1001 112.5 35.2001 112.1 36.6001C111.7 37.9001 111.2 38.9001 111.1 38.9001C111 38.9001 111.2 37.8001 111.6 36.4001C112 35.1001 112.4 34.1001 112.6 34.1001Z" fill="#557FAF"/>
<path d="M115.5 24.6001C115.6 24.6001 115.4 25.7001 115 27.1001C114.6 28.4001 114.2 29.5001 114 29.4001C113.9 29.4001 114.1 28.3001 114.5 26.9001C114.9 25.6001 115.4 24.5001 115.5 24.6001Z" fill="#557FAF"/>
<path d="M107.4 16.9L127.7 0L123.8 25.3L119.2 16.9L118.2 24L113.9 16.9H107.4Z" fill="#557FAF"/>
</g>
<defs>
<clipPath id="clip0">
<rect width="127.7" height="149.8" fill="white"/>
</clipPath>
</defs>
</svg>
