<svg width="66" height="107" viewBox="0 0 66 107" fill="none" xmlns="http://www.w3.org/2000/svg">
<g opacity="0.3">
<path d="M25.6289 80.4932C25.8623 81.3809 26.2381 82.2248 26.7416 82.9922C28.4126 85.2587 30.7661 86.9299 33.4566 87.7607C34.0745 89.277 35.255 90.4955 36.751 91.161C40.2429 92.6379 44.8419 90.7338 48.932 89.02C49.4133 88.8239 49.8779 88.6388 50.3537 88.4344C51.6278 89.7753 55.2673 92.2796 62.5872 88.5432C64.6309 88.9608 73.8501 90.0898 77.7229 80.0398C81.4917 78.3684 85.029 76.2174 88.2469 73.64C88.2469 73.64 88.3054 73.6016 88.3305 73.5852C90.1682 72.1788 91.5841 70.2945 92.4238 68.1382C92.8642 66.7524 92.7379 65.2486 92.0725 63.9557C93.2477 62.2283 96.0526 56.9686 91.9937 50.1233C94.0158 47.9003 93.0874 43.7495 91.0034 40.572C89.5909 38.309 87.4647 36.5812 84.9607 35.6616C83.619 35.2185 82.1918 35.0975 80.7947 35.3084C81.5428 34.1022 81.9951 32.7361 82.1144 31.3217C82.2679 28.6689 81.5366 26.0402 80.0351 23.8478C77.9676 20.6953 74.5055 18.2063 71.6998 19.1615C67.0388 12.7111 61.097 13.1877 59.0444 13.5772C58.1237 12.4518 56.7948 11.7367 55.3483 11.5884C53.036 11.4993 50.7436 12.0471 48.7214 13.1721C48.7214 13.1721 48.6712 13.205 48.6378 13.227C44.9918 15.1516 41.6094 17.5387 38.5744 20.3292C27.7833 19.8484 25.145 28.7539 24.7108 30.8087C18.3616 36.0251 19.2246 40.3861 19.9303 42.0639C19.5699 42.4079 19.1983 42.7712 18.8266 43.1345C15.6417 46.1919 12.046 49.6623 12.0091 53.4535C12.0233 55.0908 12.6705 56.6591 13.815 57.83C13.5046 60.6321 14.1016 63.4598 15.5182 65.8973C16.0201 66.6618 16.6426 67.3399 17.3614 67.9054C20.6839 70.5099 25.3873 70.2236 28.3478 69.705C26.7009 72.2082 24.5805 76.4331 25.6289 80.4932ZM30.3666 67.1852C29.3713 67.4911 22.5147 69.3809 18.5992 66.3282C16.5644 64.7209 15.6366 61.9569 15.8183 58.0947C17.257 57.4621 21.6965 56.1171 25.327 61.6527C25.4725 61.8745 25.7001 62.0294 25.9598 62.0834C26.2194 62.1374 26.4899 62.086 26.7117 61.9405C26.9334 61.7951 27.0884 61.5675 27.1423 61.3078C27.1963 61.0482 27.1449 60.7777 26.9995 60.5559C22.6944 53.9917 17.0919 55.4417 15.0721 56.2641C14.3854 55.5021 13.9952 54.5188 13.9725 53.4933C14.0086 50.5397 17.2858 47.3859 20.1994 44.6259C20.6604 44.1801 21.1018 43.7591 21.5294 43.3351C27.2379 43.6333 31.5444 46.334 33.6342 50.9428C33.6889 51.0624 33.7666 51.1701 33.863 51.2596C33.9594 51.3491 34.0725 51.4188 34.1958 51.4645C34.3191 51.5103 34.4502 51.5313 34.5817 51.5263C34.7131 51.5213 34.8423 51.4904 34.9618 51.4354C35.0814 51.3807 35.1891 51.3029 35.2786 51.2065C35.3682 51.1102 35.4378 50.9971 35.4836 50.8738C35.5293 50.7504 35.5503 50.6193 35.5453 50.4879C35.5403 50.3564 35.5094 50.2272 35.4544 50.1078C33.0643 44.8588 28.0709 41.6759 21.7194 41.3091C21.2505 40.2294 20.5703 37.0042 25.5591 32.7039C27.3123 34.1372 30.4961 35.6367 33.4445 33.7867C33.6663 33.6413 33.8212 33.4137 33.8752 33.154C33.9291 32.8944 33.8777 32.6239 33.7323 32.4021C33.5868 32.1803 33.3593 32.0254 33.0996 31.9715C32.8399 31.9175 32.5695 31.9689 32.3477 32.1143C29.9956 33.5971 27.5292 31.8423 26.6252 31.0838C27.0869 29.0709 29.3934 21.8659 38.5921 22.3984C40.9093 23.4323 42.9402 25.0144 44.5095 27.0083C42.8864 28.1804 39.5874 30.918 38.8581 34.2186C38.6729 35.0052 38.6538 35.8218 38.8021 36.6161C38.9503 37.4105 39.2627 38.1652 39.7192 38.832C39.8646 39.0538 40.0922 39.2087 40.3519 39.2627C40.6115 39.3166 40.882 39.2653 41.1038 39.1198C41.3256 38.9744 41.4805 38.7468 41.5344 38.4871C41.5884 38.2274 41.537 37.957 41.3916 37.7352C41.085 37.2902 40.8744 36.7863 40.7734 36.2555C40.6723 35.7246 40.6829 35.1786 40.8046 34.6521C41.3987 32.0022 44.2955 29.636 45.7066 28.6149C46.8777 30.3297 47.829 32.1847 48.5385 34.1362C48.6189 34.3895 48.7967 34.6005 49.0327 34.7226C49.2688 34.8448 49.5436 34.8683 49.7969 34.7878C50.0502 34.7073 50.2611 34.5295 50.3833 34.2935C50.5055 34.0575 50.529 33.7826 50.4485 33.5293C50.3237 33.1567 47.5849 24.8597 40.6152 21.1433C42.9163 19.1317 45.4039 17.3441 48.0442 15.8047C48.1506 17.2953 48.6404 18.7331 49.4661 19.9786C50.6476 21.7141 52.4329 22.9476 54.4741 23.4389C54.7303 23.5103 55.0044 23.4771 55.236 23.3464C55.4677 23.2158 55.638 22.9985 55.7094 22.7423C55.7809 22.4861 55.7476 22.2121 55.617 21.9804C55.4864 21.7487 55.269 21.5784 55.0129 21.507C53.5005 21.1672 52.1657 20.2834 51.2624 19.0237C50.359 17.764 49.9502 16.2163 50.1135 14.6748C51.6442 13.8701 53.3586 13.4796 55.0868 13.5418C55.6322 13.5955 56.1578 13.7748 56.6223 14.0656C57.0869 14.3563 57.4778 14.7507 57.7645 15.2178C61.6683 20.5503 60.977 22.4866 60.9825 22.495C60.8733 22.6581 60.8146 22.8498 60.8136 23.0461C60.8126 23.2424 60.8694 23.4346 60.9769 23.5988C61.0507 23.7108 61.1462 23.8068 61.2577 23.8811C61.4781 24.0282 61.7478 24.0818 62.0077 24.0302C62.2676 23.9786 62.4964 23.826 62.6438 23.6058C62.9243 23.1947 64.0063 20.9424 60.2765 15.3283C62.397 15.1335 66.5769 15.4895 70.049 20.3278C68.5387 22.2981 67.3835 24.5167 66.6352 26.8838C65.0249 26.7441 61.5749 26.6987 59.5352 28.3114C59.3391 28.4669 59.2084 28.6904 59.1691 28.9376C59.1297 29.1849 59.1846 29.4379 59.3227 29.6466L59.372 29.7219C59.5358 29.9299 59.7754 30.0644 60.0383 30.0961C60.3011 30.1277 60.5658 30.0538 60.7742 29.8906C62.0884 28.8493 64.5825 28.7682 66.1877 28.8635C65.7934 30.6123 66.0696 32.4454 66.9616 34.0005L67.1645 34.3099C67.3277 34.52 67.5677 34.6567 67.8317 34.6899C68.0957 34.7231 68.362 34.6501 68.5722 34.4869C68.7823 34.3237 68.919 34.0837 68.9522 33.8197C68.9854 33.5557 68.9124 33.2894 68.7492 33.0792C67.0931 30.9006 68.5769 25.3951 72.0007 21.1884C73.5437 20.3319 76.4268 21.9929 78.3627 24.9447C79.6267 26.77 80.2527 28.9616 80.1435 31.1792C80.0031 32.403 79.5766 33.5765 78.8986 34.6049C78.2207 35.6333 77.3102 36.4878 76.2408 37.0991L62.4267 46.159C60.9721 44.1233 58.5753 40.1224 58.9961 37.646C59.0333 37.3324 59.1398 37.031 59.3078 36.7637C59.4758 36.4963 59.7011 36.2696 59.9675 36.1001C60.1892 35.9546 60.3441 35.727 60.3981 35.4674C60.4521 35.2077 60.4007 34.9372 60.2552 34.7154C60.1098 34.4937 59.8822 34.3388 59.6225 34.2848C59.3629 34.2308 59.0924 34.2822 58.8706 34.4277C58.3717 34.7471 57.9472 35.1699 57.6258 35.6675C57.3043 36.1651 57.0934 36.7259 57.0072 37.312C56.894 38.2433 56.9575 39.1876 57.1943 40.0953C55.524 40.9037 51.1037 42.6427 49.0581 39.5237C48.9127 39.3019 48.6851 39.147 48.4254 39.093C48.1658 39.039 47.8953 39.0904 47.6735 39.2359C47.4517 39.3813 47.2968 39.6089 47.2428 39.8686C47.1889 40.1282 47.2403 40.3987 47.3857 40.6205C49.9194 44.4838 54.831 43.4391 57.8594 42.003C58.4734 43.4807 59.2291 44.8955 60.1158 46.2275C60.3681 46.6122 60.5874 46.9467 60.7794 47.2393L51.255 53.4858C47.5422 47.8247 44.1463 43.1755 37.9359 44.7013C37.8062 44.7344 37.6844 44.7932 37.5778 44.8743C37.4712 44.9553 37.382 45.0569 37.3154 45.173C37.2489 45.2892 37.2063 45.4176 37.1902 45.5505C37.1742 45.6834 37.185 45.8182 37.222 45.9468C37.27 46.0464 37.3308 46.1391 37.403 46.2228C37.5106 46.4101 37.6759 46.5575 37.8743 46.6429C38.0726 46.7284 38.2933 46.7474 38.5033 46.697C43.1855 45.5397 45.8158 48.7297 49.6821 54.625L40.8936 60.3888C38.9301 60.0693 37.0661 59.3034 35.4452 58.1501C33.8242 56.9968 32.4896 55.4869 31.544 53.7366C31.4803 53.6214 31.3944 53.5199 31.2914 53.4379C31.1884 53.3558 31.0702 53.2949 30.9436 53.2585C30.8171 53.2222 30.6846 53.2111 30.5537 53.2259C30.4229 53.2408 30.2962 53.2812 30.181 53.345C30.0658 53.4088 29.9643 53.4946 29.8822 53.5977C29.8002 53.7007 29.7393 53.8188 29.7029 53.9454C29.6665 54.072 29.6554 54.2045 29.6703 54.3353C29.6851 54.4662 29.7256 54.5928 29.7894 54.708C30.0252 55.0676 30.2555 55.4188 30.4804 55.7617C32.3907 58.6545 35.2475 60.793 38.5614 61.8107L30.3666 67.1852ZM39.6582 63.4831C39.2601 66.9605 40.0956 70.4672 42.0188 73.3915C42.2436 73.7343 42.4739 74.0856 42.7098 74.4451C42.8729 74.6553 43.1129 74.792 43.3769 74.8252C43.6409 74.8584 43.9073 74.7853 44.1174 74.6221C44.3275 74.459 44.4642 74.219 44.4974 73.955C44.5306 73.691 44.4576 73.4246 44.2944 73.2145C43.0693 71.6476 42.2201 69.8205 41.8121 67.8739C41.4041 65.9272 41.4482 63.9129 41.9411 61.986L50.6794 56.255C54.5183 62.1085 56.4318 65.8284 53.4962 69.6671C53.3718 69.8329 53.3021 70.0332 53.2965 70.2403C53.291 70.4475 53.35 70.6512 53.4653 70.8234C53.5132 70.923 53.5741 71.0157 53.6462 71.0994C53.7509 71.1794 53.8704 71.2379 53.9978 71.2715C54.1252 71.3052 54.258 71.3133 54.3886 71.2955C54.5191 71.2777 54.6448 71.2342 54.7585 71.1676C54.8723 71.101 54.9717 71.0126 55.0511 70.9075C58.9002 65.8359 56.0061 60.8577 52.3017 55.1911L61.8511 48.9282C62.0431 49.2209 62.2624 49.5554 62.5147 49.94C63.3769 51.295 64.3687 52.563 65.4761 53.7261C62.9856 55.9095 60.0368 60.0199 62.5705 63.8832C62.716 64.105 62.9436 64.2599 63.2032 64.3139C63.4629 64.3678 63.7334 64.3165 63.9551 64.171C64.1769 64.0256 64.3318 63.798 64.3858 63.5383C64.4398 63.2786 64.3884 63.0082 64.2429 62.7864C62.1973 59.6673 65.5705 56.2951 66.9775 55.0853C67.7157 55.6643 68.5564 56.0987 69.4557 56.366C70.0337 56.5184 70.6378 56.5438 71.2265 56.4405C71.8152 56.3372 72.3746 56.1077 72.8662 55.7676C73.0879 55.6222 73.2429 55.3946 73.2968 55.1349C73.3508 54.8753 73.2994 54.6048 73.154 54.383C73.0085 54.1612 72.7809 54.0063 72.5213 53.9524C72.2616 53.8984 71.9911 53.9498 71.7693 54.0952C71.5077 54.272 71.21 54.3883 70.8978 54.4358C70.5857 54.4834 70.2669 54.4609 69.9644 54.3701C67.5283 53.7554 64.8083 49.9545 63.5235 47.8314L77.3377 38.7716C78.3286 38.036 79.4789 37.5445 80.6953 37.3368C81.9118 37.1291 83.1601 37.2111 84.3389 37.5762C86.4065 38.3563 88.1606 39.7942 89.331 41.6688C91.2504 44.5955 91.6416 47.8907 90.2329 48.9701C87.688 49.7019 85.0159 49.8804 82.3963 49.4935C80.3105 49.1394 78.6689 48.3504 78.0396 47.2085C77.9111 46.9774 77.6963 46.8066 77.4421 46.7334C77.188 46.6603 76.9152 46.6908 76.6835 46.8183C76.5634 46.8806 76.4573 46.9667 76.3714 47.0712C76.2856 47.1757 76.2218 47.2966 76.184 47.4265C76.1462 47.5563 76.1352 47.6925 76.1515 47.8268C76.1679 47.9611 76.2113 48.0906 76.2792 48.2076L76.4821 48.517C77.5565 49.9288 79.1169 50.8914 80.8606 51.2182C80.3387 52.7564 79.2402 54.9836 77.7615 55.774C77.6448 55.8358 77.5415 55.92 77.4575 56.0218C77.3736 56.1237 77.3106 56.2412 77.2723 56.3675C77.2339 56.4938 77.221 56.6264 77.2342 56.7578C77.2474 56.8891 77.2864 57.0166 77.3491 57.1327L77.3984 57.208C77.5349 57.4179 77.7451 57.569 77.9875 57.6314C78.2299 57.6938 78.487 57.663 78.7078 57.5451C80.9997 56.3171 82.3273 53.1264 82.8464 51.602C85.3156 51.859 87.8107 51.6835 90.2197 51.0835C93.3011 56.2378 91.9594 60.1911 90.9165 62.0471C87.2147 56.4027 84.7731 56.5092 84.2623 56.5691C84.0936 56.5922 83.9335 56.6579 83.7973 56.7602C83.6611 56.8624 83.5533 56.9978 83.4841 57.1534C83.4148 57.309 83.3865 57.4797 83.4017 57.6493C83.4169 57.8189 83.4752 57.9819 83.5711 58.1226C83.6722 58.281 83.8184 58.4054 83.9908 58.4799C84.1633 58.5544 84.3541 58.5755 84.5387 58.5404C84.5387 58.5404 86.6186 58.5755 90.0113 64.3868C90.3255 64.8358 90.5314 65.3515 90.613 65.8935C90.6945 66.4354 90.6495 66.9889 90.4814 67.5106C89.8495 69.121 88.8105 70.54 87.466 71.6288C85.9819 71.1692 84.72 70.1773 83.9227 68.8438C83.1254 67.5103 82.849 65.9293 83.1465 64.4044C83.1831 64.1409 83.1135 63.8738 82.9531 63.6616C82.7927 63.4495 82.5545 63.3098 82.2911 63.2732C82.0277 63.2367 81.7605 63.3063 81.5484 63.4667C81.3362 63.6271 81.1965 63.8653 81.16 64.1287C80.7939 66.217 81.2261 68.3665 82.371 70.1509C83.2198 71.4135 84.3858 72.4305 85.752 73.0998C83.2879 74.908 80.6571 76.4772 77.8952 77.7862C77.2639 69.9128 70.7345 64.0779 70.4424 63.815C70.2422 63.6402 69.9808 63.5522 69.7156 63.5702C69.4505 63.5882 69.2033 63.7108 69.0286 63.9111C68.8538 64.1113 68.7658 64.3728 68.7838 64.6379C68.8018 64.9031 68.9245 65.1502 69.1247 65.3249C70.6318 66.7537 71.9565 68.3632 73.0687 70.1169C71.5698 71.0042 68.2369 72.7237 65.5698 72.2127C65.0384 72.1145 64.5333 71.9067 64.0868 71.6024C63.6402 71.2982 63.2618 70.9043 62.9759 70.4458C62.8305 70.224 62.6029 70.0691 62.3432 70.0151C62.0836 69.9612 61.8131 70.0125 61.5913 70.158C61.3695 70.3034 61.2146 70.531 61.1606 70.7907C61.1067 71.0504 61.1581 71.3208 61.3035 71.5426C61.7332 72.227 62.3009 72.8142 62.9704 73.2667C63.6399 73.7193 64.3965 74.0272 65.1917 74.1708C68.5096 74.817 72.3267 72.8877 74.0568 71.8606C75.2684 74.1011 75.9159 76.603 75.9434 79.1499C72.7804 87.7658 65.2418 87.0294 63.2087 86.6647C62.8569 85.5082 62.2359 82.5191 64.5439 81.0055C64.7656 80.8601 64.9206 80.6325 64.9745 80.3728C65.0285 80.1131 64.9771 79.8427 64.8317 79.6209C64.6862 79.3991 64.4586 79.2442 64.1989 79.1902C63.9393 79.1363 63.6688 79.1877 63.447 79.3331C60.5503 81.3166 60.657 84.8343 61.298 86.997C55.3576 89.8645 52.6763 87.9277 51.8838 87.0841C54.0645 81.1096 53.1405 75.2698 49.2787 70.986C49.1 70.7861 48.8491 70.6653 48.5814 70.6503C48.3136 70.6353 48.0509 70.7272 47.8509 70.9059C47.6509 71.0847 47.5302 71.3355 47.5152 71.6033C47.5001 71.871 47.5921 72.1338 47.7708 72.3337C51.1651 76.087 51.9535 81.1547 49.9248 86.4675C49.3656 86.6907 48.8036 86.9278 48.2109 87.1729C44.4548 88.7394 40.2981 90.461 37.5967 89.3506C36.6651 88.9212 35.9188 88.1715 35.4936 87.238C37.0527 85.7132 40.6151 81.1525 36.31 74.5883C36.1646 74.3665 35.937 74.2116 35.6773 74.1576C35.4177 74.1036 35.1472 74.155 34.9254 74.3005C34.7036 74.4459 34.5487 74.6735 34.4947 74.9332C34.4408 75.1929 34.4922 75.4633 34.6376 75.6851C38.2407 81.179 35.2265 84.7702 34.1119 85.8241C30.5027 84.4601 28.3402 82.4939 27.6739 80.001C26.4259 75.1989 30.9082 69.6522 31.5716 68.8584L39.6582 63.4831Z" fill="#58B58B"/>
</g>
</svg>
