<svg width="87" height="93" viewBox="0 0 87 93" fill="none" xmlns="http://www.w3.org/2000/svg">
<g opacity="0.3">
<path d="M53.8409 18.1373C70.7939 24.1554 80.0689 42.3576 74.8572 59.7892C69.5152 77.6565 50.5515 87.8906 32.6842 82.5487C14.5989 77.1415 4.36479 58.1778 9.70677 40.3105C14.9185 22.8789 32.6624 12.7548 50.1367 17.0298L51.3744 12.8898L45.4913 11.1309C44.6197 10.8703 44.0087 9.73811 44.3344 8.64864C44.595 7.77706 45.7272 7.16607 46.5988 7.42665L62.0693 12.052C63.1587 12.3778 63.5518 13.4448 63.2913 14.3163C62.9655 15.4058 62.0513 16.082 60.9618 15.7562L55.0786 13.9973L53.8409 18.1373ZM51.0554 21.1024C34.9312 16.2816 18.1666 25.5117 13.411 41.418C8.65531 57.3243 17.6675 74.0237 33.7917 78.8445C49.698 83.6001 66.3974 74.588 71.153 58.6817C75.9087 42.7754 66.9617 25.8581 51.0554 21.1024Z" fill="#CA5325"/>
<path d="M45.8076 46.5939C46.331 47.2251 47.0071 48.1394 47.1823 49.1413L54.8086 51.4214C55.8981 51.7471 56.727 52.9444 56.3361 54.2518C56.0104 55.3412 54.5952 56.105 53.5057 55.7793L45.8794 53.4991C44.5518 54.7638 42.766 55.1794 41.0228 54.6582C38.4081 53.8765 36.8154 51.2639 37.5972 48.6492C38.1184 46.9061 39.729 45.4886 41.4497 45.291L44.8373 33.9605C45.163 32.871 46.3603 32.0421 47.6677 32.433C48.7572 32.7587 49.5209 34.1739 49.1952 35.2634L45.8076 46.5939ZM42.7166 48.993C42.0629 48.7975 41.4968 49.103 41.3014 49.7567C41.1711 50.1925 41.4766 50.7586 42.1303 50.954C42.5661 51.0843 43.1322 50.7788 43.2624 50.343C43.4579 49.6893 43.1524 49.1232 42.7166 48.993Z" fill="#CA5325"/>
</g>
</svg>
