<svg width="91" height="101" viewBox="0 0 91 101" fill="none" xmlns="http://www.w3.org/2000/svg">
<g opacity="0.3">
<path d="M58.7989 39.6507C64.5666 36.1041 74.9752 23.7383 71.9021 12.2691C70.5799 7.33471 65.507 4.40586 60.5726 5.72803C59.7724 5.94244 59.1413 6.25448 58.5102 6.56651" stroke="#099E18" stroke-width="2" stroke-miterlimit="10" stroke-linejoin="round"/>
<path d="M13.0341 18.7519C12.3316 18.7973 11.4957 18.8783 10.8288 19.057C5.89443 20.3791 2.96559 25.452 4.28776 30.3865C7.39665 41.989 22.5937 47.4938 29.3262 47.548" stroke="#099E18" stroke-width="2" stroke-miterlimit="10" stroke-linejoin="round"/>
<path d="M44.688 64.8725C45.9501 64.2484 47.479 63.5529 49.2127 63.0883C50.8131 62.6595 52.4492 62.364 54.0234 62.3711L52.6655 57.3033L43.3301 59.8047L44.688 64.8725Z" stroke="#099E18" stroke-width="2" stroke-miterlimit="10" stroke-linejoin="round"/>
<path d="M37.5337 91.5176L38.8559 96.452L74.8638 86.8037L73.5416 81.8693L71.2744 82.4768L39.8009 90.9101L37.5337 91.5176Z" stroke="#099E18" stroke-width="2" stroke-miterlimit="10" stroke-linejoin="round"/>
<path d="M45.8318 69.14L39.8305 70.7481L34.7627 72.106L39.8012 90.9101L71.2748 82.4768L66.2363 63.6726L61.1685 65.0305L55.1672 66.6386L45.8318 69.14Z" stroke="#099E18" stroke-width="2" stroke-miterlimit="10" stroke-linejoin="round"/>
<path d="M62.198 70.4724L41.5269 76.0112L43.7067 84.1463L64.3778 78.6075L62.198 70.4724Z" stroke="#099E18" stroke-width="2" stroke-miterlimit="10" stroke-linejoin="round"/>
<path d="M41.7942 54.07L51.1296 51.5686L52.7299 51.1398C52.7299 51.1398 52.7299 51.1398 52.7657 51.2732C55.5018 48.6819 57.5782 44.695 58.9686 39.7484C59.2519 38.672 59.4995 37.4621 59.7828 36.3856C61.2944 28.6908 61.1673 19.148 59.1898 9.10053C58.9754 8.30035 58.8944 7.46444 58.68 6.66427C58.4298 5.73073 58.313 4.76146 58.0629 3.82792C57.92 3.29447 57.4127 3.00159 56.8792 3.14452L12.8696 14.9369C12.3361 15.0798 12.0432 15.5871 12.1862 16.1205C12.4363 17.0541 12.6865 17.9876 13.07 18.8854C13.2844 19.6856 13.6321 20.45 13.8465 21.2502C17.1577 30.9404 21.8191 39.2682 26.9756 45.1763C27.7949 46.1003 28.5785 46.8909 29.3621 47.6815C33.0037 51.1368 36.662 53.587 40.4963 54.5608C40.4963 54.5608 40.4963 54.5608 40.4606 54.4274L41.7942 54.07Z" stroke="#099E18" stroke-width="2" stroke-miterlimit="10" stroke-linejoin="round"/>
<path d="M49.707 44.6598C51.2167 42.8259 52.6097 40.0228 53.4596 36.7933C53.7786 35.8502 53.9643 34.9428 54.1143 33.9021C55.4402 27.1146 55.1632 18.6126 53.5788 10.0321C53.4716 9.632 53.3643 9.23191 53.3905 8.79609" stroke="#099E18" stroke-width="2" stroke-miterlimit="10" stroke-linejoin="round"/>
<path d="M41.794 54.07C41.1272 54.2487 41.237 56.7921 41.4156 57.4589C41.5943 58.1258 42.6995 60.1166 43.3663 59.9379L52.7017 57.4365C53.3685 57.2579 53.1969 55.0169 53.0182 54.35C52.8395 53.6832 51.6628 51.4256 51.1294 51.5686L41.794 54.07Z" stroke="#099E18" stroke-width="2" stroke-miterlimit="10" stroke-linejoin="round"/>
<path d="M44.6882 64.8724C41.3018 66.6374 39.3301 68.881 39.8304 70.7481L45.8317 69.14L55.1671 66.6386L61.1684 65.0306C60.6681 63.1635 57.8388 62.2064 54.0236 62.371C52.6185 62.4616 50.9467 62.6237 49.2129 63.0883C47.6483 63.6504 46.0837 64.2126 44.6882 64.8724Z" stroke="#099E18" stroke-width="2" stroke-miterlimit="10" stroke-linejoin="round"/>
</g>
</svg>
