<svg width="102" height="88" viewBox="0 0 102 88" fill="none" xmlns="http://www.w3.org/2000/svg">
<g opacity="0.5">
<path d="M82.4793 0.417062L1.55621 22.1003C0.697184 22.3305 0.18681 23.2145 0.416986 24.0735L15.4285 80.0972C15.6591 80.9578 16.5427 81.4666 17.4017 81.2365L98.3248 59.5532C99.1854 59.3226 99.6946 58.4406 99.464 57.58L84.4525 1.55629C84.2224 0.697261 83.3399 0.186469 82.4793 0.417062ZM95.9346 56.8577L18.1239 77.7071L3.9464 24.7958L81.7571 3.94648L95.9346 56.8577Z" fill="#58B58B"/>
<path d="M80.4846 67.6696L40.023 78.5112C39.164 78.7414 38.6532 79.6239 38.8838 80.4844C39.1144 81.345 39.998 81.8538 40.857 81.6237L81.3185 70.782C82.1791 70.5514 82.6884 69.6694 82.4578 68.8088C82.2272 67.9482 81.3452 67.439 80.4846 67.6696Z" fill="#58B58B"/>
<path d="M42.6414 54.2098C42.9332 54.2967 43.2373 54.2987 43.5221 54.2223C43.7602 54.1586 43.9837 54.0403 44.1739 53.8726L60.3466 39.5314C60.8033 39.1255 60.992 38.4978 60.834 37.908C60.6759 37.3182 60.1986 36.869 59.6002 36.7458L38.4237 32.4124C37.8771 32.302 37.3106 32.4788 36.9279 32.8866C36.5466 33.2939 36.4004 33.8685 36.5451 34.4086L41.5489 53.0831C41.6936 53.6231 42.1076 54.0476 42.6414 54.2098ZM40.3322 36.0925L55.7981 39.2574L43.9866 49.7312L40.3322 36.0925Z" fill="#58B58B"/>
</g>
</svg>
