<svg width="66" height="61" viewBox="0 0 66 61" fill="none" xmlns="http://www.w3.org/2000/svg">
<g clip-path="url(#clip0)">
<path d="M17.7305 24.5462C18.2598 21.2038 18.7361 17.8091 19.2654 14.4666C19.7947 11.1241 20.0064 7.62499 20.8003 4.38698C20.9591 3.70804 20.9061 3.0291 21.6471 3.0291C22.3352 3.0291 22.9174 4.07362 23.3937 4.59588C24.5052 5.79708 25.6166 6.99828 26.781 8.19948C29.2686 10.863 31.7032 13.5265 34.1908 16.1378C34.5613 16.5034 35.0376 16.5034 35.4611 16.2945C42.8708 13.1609 50.6511 11.2286 58.696 10.5496C58.3785 10.2363 58.0609 9.97516 57.7433 9.66181C56.3672 13.6832 54.5148 17.5479 52.1331 21.0993C50.4394 23.6584 48.3223 25.1729 50.2806 28.0454C54.8324 34.8348 58.5902 41.6241 61.0777 49.458C61.2894 49.1447 61.4482 48.8313 61.6599 48.518C56.2614 49.458 51.1804 47.3168 46.364 45.0711C43.6647 43.8176 39.9599 40.893 37.2077 43.1387C34.4025 45.4889 32.7618 49.1447 31.174 52.226C30.2213 54.0539 29.3215 55.8818 28.1571 57.5531C27.3632 58.7543 26.7281 59.4332 25.5108 58.232C24.7169 57.4486 24.1876 56.0385 23.8171 54.994C22.9703 52.6438 22.7586 50.1892 22.5998 47.7346C22.4939 45.8022 22.7586 43.0865 22.0176 41.2586C21.5942 40.214 20.9591 39.6918 19.9005 39.4306C17.6776 38.8039 15.0312 39.0128 12.7024 38.8039C10.1619 38.5428 7.56852 38.2294 5.02803 37.8116C4.3929 37.7072 3.75778 37.6027 3.12265 37.4983C1.74655 37.1327 1.69362 36.5582 2.96387 35.827C3.70485 34.9914 4.49876 34.2603 5.29266 33.5291C8.78584 30.3955 12.9142 28.1498 17.4129 26.7919C18.5773 26.4264 17.8893 25.0685 16.8307 25.3818C13.3905 26.4264 10.109 27.9409 7.14511 30.03C5.66315 31.0222 4.28705 32.1712 3.0168 33.3724C2.11704 34.208 0.423375 35.5137 0.105813 36.7149C-0.635165 39.1695 4.28705 39.1695 5.61022 39.3784C7.83316 39.6918 10.0561 40.0051 12.332 40.214C14.502 40.4229 18.0481 39.9529 19.583 41.4675C21.0649 42.982 20.6415 46.22 20.8003 48.2568C20.9061 50.1892 21.1178 52.1216 21.6471 53.9495C22.1764 55.9863 23.7642 60.6344 26.4635 60.9478C28.8452 61.2089 30.5918 57.1353 31.4915 55.5163C33.2381 52.4349 34.6142 49.0925 36.7842 46.22C37.5781 45.1755 38.4779 43.7132 40.0128 43.8699C41.1243 44.0265 42.6591 45.0188 43.6118 45.4889C45.7289 46.4812 47.846 47.5257 50.016 48.3613C53.9855 49.8758 58.1138 50.6592 62.348 49.9281C62.7714 49.8758 63.089 49.4058 62.9302 48.988C60.8131 42.3031 57.8492 35.9315 53.9326 30.0822C52.5565 28.0454 51.0216 26.3219 52.3977 23.8673C53.2445 22.405 54.4089 21.0471 55.2558 19.5325C57.0553 16.5034 58.4843 13.2654 59.6487 9.92294C59.8604 9.34845 59.1194 8.98287 58.696 9.03509C50.2277 9.81848 42.1299 11.8553 34.4025 15.1455C34.8259 15.1978 35.2494 15.25 35.6728 15.3022C32.5501 11.9075 29.3745 8.56506 26.2518 5.17037C24.9815 3.76026 22.7057 -9.05991e-06 20.271 1.619C19.4771 2.14126 19.1595 3.18578 18.9478 4.12585C18.4715 6.31934 18.2598 8.61728 17.9422 10.863C17.2542 15.3544 16.5661 19.8459 15.8781 24.2851C15.7722 25.2774 17.5717 25.4863 17.7305 24.5462Z" fill="#58B58B"/>
<path d="M37.2075 8.30404C38.0014 5.74497 39.0071 3.23812 40.3302 0.887945C40.5949 0.417911 38.9012 -0.365479 38.6366 0.156781C37.3134 2.50695 36.2548 4.96158 35.5139 7.57288C35.3022 8.19959 37.0488 8.87853 37.2075 8.30404Z" fill="#58B58B"/>
<path d="M57.6372 28.1498C60.2306 27.6798 62.824 27.0008 65.3645 26.1652C66.476 25.7996 66.0526 24.5462 64.9411 24.9118C62.5594 25.6952 60.1777 26.3219 57.743 26.7919C56.6845 27.0008 56.4199 28.4109 57.6372 28.1498Z" fill="#58B58B"/>
<path d="M41.4947 52.9049C41.2301 55.5162 41.6535 58.023 42.712 60.4254C43.0296 61.1566 44.8291 61.1044 44.4057 60.1643C43.453 57.9708 43.0825 55.6729 43.2942 53.3227C43.4001 52.4349 41.5476 52.0693 41.4947 52.9049Z" fill="#58B58B"/>
<path d="M12.4901 47.0558C9.31445 48.727 6.35053 51.2861 2.53979 50.9205C1.5871 50.816 2.48686 52.4351 3.22784 52.4873C7.19737 52.8006 10.2142 50.2416 13.5486 48.5703C14.2367 48.1525 13.1252 46.7424 12.4901 47.0558Z" fill="#58B58B"/>
<path d="M4.34033 17.2347C5.61058 17.2347 4.8696 16.1902 3.96984 16.1902C2.75252 16.1902 3.44057 17.2347 4.34033 17.2347Z" fill="#58B58B"/>
<path d="M3.54552 17.2872C6.13894 18.2795 8.73236 19.2195 11.3258 20.2118C11.9609 20.473 13.4429 19.4284 12.596 19.0628C10.0026 18.1228 7.40919 17.1305 4.81576 16.1904C4.12771 15.9293 2.64576 16.9738 3.54552 17.2872Z" fill="#58B58B"/>
</g>
<defs>
<clipPath id="clip0">
<rect width="66" height="61" fill="white"/>
</clipPath>
</defs>
</svg>
