<svg width="32" height="33" viewBox="0 0 32 33" fill="none" xmlns="http://www.w3.org/2000/svg">
<g clip-path="url(#clip0)">
<path d="M14.7895 10.1045C15.945 9.66093 17.1073 9.19102 18.2628 8.74743C19.4182 8.30384 20.5653 7.73102 21.736 7.39035C21.9801 7.31649 22.1855 7.17557 22.321 7.41026C22.4468 7.62819 22.2224 8.0036 22.1441 8.24998C21.9669 8.82168 21.7897 9.39339 21.6222 9.98185C21.2334 11.2568 20.835 12.515 20.4628 13.7805C20.4148 13.9647 20.5019 14.1155 20.6455 14.2115C22.993 15.9854 25.0278 18.0963 26.714 20.5203C26.7552 20.3624 26.7798 20.214 26.821 20.0561C25.2956 20.3557 23.7328 20.4757 22.1724 20.3707C21.0521 20.3022 20.1853 19.9087 19.6336 21.0542C18.3155 23.7374 16.8522 26.1692 14.8258 28.3897C14.9638 28.3995 15.0921 28.3925 15.2301 28.4022C13.9451 26.8642 13.6942 24.8633 13.5247 22.9271C13.4281 21.8429 13.6769 20.1346 12.4623 19.6736C11.205 19.2149 9.74702 19.3637 8.48069 19.4243C7.72751 19.4568 6.98401 19.5061 6.24174 19.4429C5.7161 19.4111 5.38491 19.3341 5.54276 18.7288C5.64571 18.3341 5.99556 17.9086 6.25864 17.6003C6.84817 16.9023 7.58692 16.3864 8.33535 15.8872C8.92804 15.5003 9.83661 15.0875 10.2801 14.5185C10.5335 14.1934 10.5828 13.8967 10.4719 13.5137C10.2639 12.695 9.7138 11.895 9.35411 11.1192C8.97224 10.2668 8.59724 9.38807 8.265 8.507C8.18194 8.28673 8.09888 8.06646 8.01582 7.84619C7.87997 7.34348 8.05225 7.22166 8.51612 7.49029C8.91629 7.57217 9.29306 7.68993 9.66983 7.80768C11.3011 8.34107 12.7674 9.23798 14.0201 10.4146C14.3489 10.7166 14.6531 10.2503 14.3603 9.97234C13.4004 9.07369 12.3206 8.3113 11.1169 7.75454C10.5316 7.4666 9.91602 7.24085 9.30327 7.05818C8.87406 6.926 8.1508 6.62832 7.71227 6.74739C6.7993 6.96157 7.69941 8.52061 7.87521 8.97791C8.18246 9.7393 8.48971 10.5007 8.83973 11.2597C9.17038 11.9853 9.96773 13.0225 9.76869 13.7856C9.55998 14.532 8.45696 14.99 7.84086 15.4127C7.24817 15.7996 6.67483 16.22 6.19266 16.7219C5.64431 17.2621 4.46244 18.615 4.8568 19.5272C5.20963 20.3293 6.81929 20.1376 7.49663 20.1265C8.79199 20.1163 10.1023 19.9409 11.4089 20.103C11.885 20.1634 12.5127 20.181 12.7437 20.6958C12.8973 21.0765 12.8637 21.7441 12.8891 22.1318C12.9619 22.9838 13.0182 23.8454 13.1504 24.6855C13.3966 26.2198 13.9034 27.6706 14.9093 28.878C15.0032 29.0026 15.2102 29.0172 15.3135 28.8905C17.0437 26.9975 18.5198 24.8935 19.6563 22.5834C20.0497 21.775 20.3149 20.9737 21.3441 20.9607C21.9621 20.9615 22.6051 21.082 23.2397 21.0733C24.5282 21.0893 25.8151 20.9498 27.0867 20.7074C27.3074 20.6694 27.2877 20.3678 27.1937 20.2433C25.397 17.7043 23.271 15.5119 20.8158 13.6661C20.8767 13.8097 20.9376 13.9534 20.9985 14.097C21.5027 12.4872 21.9806 10.8701 22.4848 9.26029C22.6991 8.60009 23.474 7.19161 22.516 6.71654C22.2054 6.56058 21.8165 6.65101 21.48 6.75586C20.6981 7.00611 19.9316 7.35927 19.1622 7.66936C17.6138 8.27276 16.0653 8.87617 14.5335 9.47003C14.1998 9.61796 14.4627 10.2261 14.7895 10.1045Z" fill="#557FAF"/>
<path d="M23.4951 13.3036C24.4508 13.087 25.4287 12.9471 26.415 12.9365C26.6123 12.9343 26.5507 12.2546 26.3369 12.2663C25.3506 12.277 24.3795 12.3906 23.4169 12.6334C23.1797 12.6809 23.2841 13.3583 23.4951 13.3036Z" fill="#557FAF"/>
<path d="M20.9456 23.4032C21.5687 24.1387 22.258 24.836 22.9873 25.4879C23.3063 25.773 23.6259 25.4097 23.3069 25.1245C22.6232 24.5134 21.9891 23.8736 21.3951 23.1885C21.1353 22.8914 20.6403 23.0654 20.9456 23.4032Z" fill="#557FAF"/>
<path d="M10.1523 22.8172C9.27684 23.211 8.56026 23.8035 7.9929 24.5781C7.81939 24.8124 8.165 25.3728 8.38533 25.0668C8.90587 24.3639 9.56596 23.8263 10.3491 23.4636C10.6496 23.3348 10.4267 22.6812 10.1523 22.8172Z" fill="#557FAF"/>
<path d="M6.70095 12.561C5.59089 11.8608 4.23833 11.39 3.65727 10.1162C3.51613 9.79532 3.16787 10.3764 3.28683 10.6206C3.91348 11.9352 5.27571 12.4228 6.41481 13.1733C6.67296 13.3148 6.91635 12.7049 6.70095 12.561Z" fill="#557FAF"/>
<path d="M14.6566 4.5262C14.8889 4.92853 15.0842 4.50283 14.9197 4.21784C14.697 3.83227 14.492 4.24121 14.6566 4.5262Z" fill="#557FAF"/>
<path d="M14.4947 4.28399C14.6547 5.28688 14.8312 6.28022 14.9911 7.28311C15.0246 7.53203 15.6264 7.81041 15.5874 7.47533C15.4109 6.48199 15.2509 5.4791 15.0744 4.48576C15.0313 4.22008 14.4294 3.9417 14.4947 4.28399Z" fill="#557FAF"/>
</g>
<defs>
<clipPath id="clip0">
<rect width="24.1385" height="22.3099" fill="white" transform="translate(19.3213) rotate(60)"/>
</clipPath>
</defs>
</svg>
