<svg width="64" height="66" viewBox="0 0 64 66" fill="none" xmlns="http://www.w3.org/2000/svg">
<g clip-path="url(#clip0)">
<path d="M30.1145 20.5765C32.4675 19.6732 34.8344 18.7163 37.1874 17.813C39.5404 16.9096 41.8761 15.7432 44.2603 15.0494C44.7573 14.899 45.1755 14.612 45.4515 15.09C45.7077 15.5338 45.2508 16.2982 45.0913 16.8C44.7304 17.9642 44.3696 19.1284 44.0284 20.3267C43.2368 22.9231 42.4255 25.4853 41.6675 28.0622C41.5697 28.4373 41.7471 28.7445 42.0395 28.9398C46.8199 32.5522 50.9636 36.8508 54.3973 41.7869C54.4812 41.4654 54.5314 41.1634 54.6152 40.8418C51.509 41.4518 48.3264 41.6961 45.1489 41.4824C42.8676 41.343 41.1023 40.5415 39.9789 42.8743C37.2948 48.3384 34.315 53.2905 30.1885 57.8122C30.4695 57.832 30.7307 57.8178 31.0116 57.8376C28.3949 54.7057 27.8839 50.631 27.5389 46.6882C27.3421 44.4804 27.8489 41.0017 25.3755 40.0628C22.8151 39.1287 19.8461 39.4318 17.2673 39.5551C15.7336 39.6213 14.2195 39.7217 12.708 39.593C11.6376 39.5283 10.9631 39.3714 11.2846 38.139C11.4942 37.3352 12.2067 36.4687 12.7424 35.8408C13.9429 34.4194 15.4473 33.3687 16.9714 32.3523C18.1783 31.5644 20.0285 30.7238 20.9316 29.5651C21.4476 28.9031 21.548 28.2989 21.3222 27.5189C20.8986 25.8518 19.7784 24.2227 19.0459 22.6428C18.2683 20.907 17.5047 19.1175 16.8281 17.3233C16.659 16.8748 16.4898 16.4262 16.3207 15.9777C16.044 14.954 16.3949 14.7059 17.3395 15.2529C18.1544 15.4197 18.9216 15.6595 19.6889 15.8993C23.0108 16.9854 25.9966 18.8119 28.5478 21.208C29.2172 21.8229 29.8368 20.8734 29.2405 20.3073C27.2857 18.4774 25.0868 16.9248 22.6356 15.791C21.4437 15.2047 20.1902 14.745 18.9424 14.373C18.0684 14.1038 16.5956 13.4976 15.7025 13.7401C13.8434 14.1763 15.6763 17.3511 16.0343 18.2823C16.66 19.8328 17.2857 21.3833 17.9985 22.929C18.6718 24.4064 20.2955 26.5186 19.8902 28.0726C19.4652 29.5925 17.219 30.5252 15.9644 31.3861C14.7575 32.1739 13.5899 33.0301 12.608 34.0521C11.4914 35.152 9.08464 37.907 9.88771 39.7648C10.6062 41.3982 13.8841 41.0078 15.2634 40.9852C17.9013 40.9643 20.5696 40.6072 23.2304 40.9372C24.1997 41.0603 25.478 41.0961 25.9485 42.1444C26.2614 42.9196 26.1929 44.2791 26.2445 45.0687C26.3928 46.8037 26.5075 48.5582 26.7766 50.269C27.278 53.3933 28.31 56.3478 30.3584 58.8065C30.5497 59.0602 30.9711 59.09 31.1815 58.832C34.7049 54.9771 37.7108 50.6927 40.0251 45.9882C40.8264 44.3422 41.3664 42.7104 43.4621 42.6839C44.7206 42.6855 46.0301 42.9309 47.3223 42.9131C49.9462 42.9458 52.5669 42.6617 55.1563 42.168C55.6057 42.0907 55.5656 41.4766 55.3742 41.2229C51.7154 36.0526 47.3862 31.588 42.3864 27.8292C42.5104 28.1217 42.6344 28.4143 42.7584 28.7068C43.7851 25.4286 44.7584 22.1356 45.7851 18.8573C46.2216 17.5129 47.7994 14.6447 45.8485 13.6773C45.216 13.3597 44.4241 13.5438 43.7389 13.7574C42.1467 14.2669 40.5857 14.9861 39.019 15.6176C35.8658 16.8464 32.7126 18.0751 29.5931 19.2844C28.9137 19.5857 29.449 20.8242 30.1145 20.5765Z" fill="#F0A744"/>
<path d="M47.8441 27.0911C49.7903 26.6502 51.7817 26.3653 53.7903 26.3436C54.192 26.3392 54.0666 24.9551 53.6312 24.9789C51.6226 25.0006 49.6452 25.2319 47.685 25.7264C47.2019 25.8233 47.4144 27.2026 47.8441 27.0911Z" fill="#F0A744"/>
<path d="M42.6515 47.6583C43.9204 49.156 45.3241 50.576 46.8091 51.9034C47.4588 52.4841 48.1096 51.7443 47.4599 51.1635C46.0677 49.9191 44.7765 48.6162 43.5667 47.2209C43.0378 46.616 42.0297 46.9704 42.6515 47.6583Z" fill="#F0A744"/>
<path d="M20.6728 46.4647C18.89 47.2664 17.4307 48.473 16.2754 50.0504C15.922 50.5275 16.6258 51.6688 17.0745 51.0456C18.1345 49.6143 19.4787 48.5196 21.0734 47.781C21.6855 47.5186 21.2315 46.1876 20.6728 46.4647Z" fill="#F0A744"/>
<path d="M13.6451 25.5787C11.3846 24.1528 8.6303 23.1941 7.44702 20.6C7.15962 19.9466 6.45042 21.1299 6.69267 21.6273C7.96876 24.3043 10.7428 25.2972 13.0624 26.8255C13.5881 27.1137 14.0838 25.8717 13.6451 25.5787Z" fill="#F0A744"/>
<path d="M29.8441 9.21716C30.3171 10.0365 30.7149 9.16957 30.3798 8.58923C29.9265 7.80406 29.509 8.63682 29.8441 9.21716Z" fill="#F0A744"/>
<path d="M29.5144 8.72406C29.8401 10.7663 30.1995 12.7892 30.5252 14.8314C30.5933 15.3383 31.8189 15.9052 31.7394 15.2229C31.3799 13.2 31.0542 11.1578 30.6948 9.13495C30.607 8.59392 29.3814 8.02703 29.5144 8.72406Z" fill="#F0A744"/>
</g>
<defs>
<clipPath id="clip0">
<rect width="49.1553" height="45.4314" fill="white" transform="translate(39.3447) rotate(60)"/>
</clipPath>
</defs>
</svg>
