<svg width="18" height="18" viewBox="0 0 18 18" fill="none" xmlns="http://www.w3.org/2000/svg">
<path d="M9 0C4.03953 0 0 4.03953 0 9C0 13.9605 4.03953 18 9 18C13.9605 18 18 13.9605 18 9C18 4.03953 13.9605 0 9 0ZM13.186 7.36744L8.16279 12.3907C7.99535 12.5581 7.78605 12.6419 7.57674 12.6419C7.36744 12.6419 7.15814 12.5581 6.9907 12.3907L4.39535 9.83721C4.06047 9.50233 4.06047 8.97907 4.39535 8.64419C4.73023 8.3093 5.25349 8.3093 5.58837 8.64419L7.55581 10.6116L11.993 6.17442C12.3279 5.83953 12.8512 5.83953 13.186 6.17442C13.5 6.5093 13.5 7.03256 13.186 7.36744Z" fill="#58B58B"/>
</svg>
