<svg width="28" height="22" viewBox="0 0 28 22" fill="none" xmlns="http://www.w3.org/2000/svg">
<path d="M0.50183 19.2762C0.50183 18.4329 1.10299 17.6799 1.94461 17.5293C3.20705 17.2884 4.43942 16.7463 5.64174 15.8728C7.29493 14.6982 8.13655 13.2525 8.13655 11.5358C8.13655 9.96964 6.66371 10.0299 5.49145 10.1503C1.34345 10.6021 -1.42188 6.14461 0.772352 2.59065C2.87641 -0.842832 8.16661 -0.692241 10.5712 2.25935C14.0279 6.50603 12.8256 14.2163 8.97817 17.8305C7.14464 19.5473 5.01052 20.6014 2.54577 21.0532C1.49374 21.2339 0.50183 20.3605 0.50183 19.2762ZM14.9296 19.2762C14.9296 18.4329 15.5308 17.6799 16.3724 17.5293C17.6349 17.2884 18.8672 16.7463 20.0696 15.8728C21.7227 14.6982 22.5644 13.2525 22.5644 11.5358C22.5644 9.96964 21.0915 10.0299 19.9193 10.1503C15.7713 10.6021 13.0059 6.14461 15.2002 2.56053C17.3042 -0.872951 22.5944 -0.72236 24.9991 2.22923C28.4557 6.47591 27.2534 14.1862 23.406 17.8004C21.5725 19.5171 19.4383 20.5713 16.9736 21.0231C15.9216 21.2339 14.9296 20.3605 14.9296 19.2762Z" fill="#58B58B"/>
</svg>
