<svg width="16" height="16" viewBox="0 0 16 16" fill="none" xmlns="http://www.w3.org/2000/svg">
<path d="M1.59664 15.0234H15.3672C15.5332 15.0234 15.6924 14.9575 15.8098 14.8401C15.9272 14.7227 15.9931 14.5635 15.9931 14.3975V13.1017C15.993 12.5825 15.8315 12.0762 15.5309 11.6528C15.2304 11.2294 14.8057 10.91 14.3156 10.7386L10.9856 9.57118V9.03597C11.7857 8.18983 12.2334 7.07062 12.2375 5.90609V3.10484C12.1655 1.42097 10.4473 0 8.4819 0C6.51647 0 4.79829 1.42097 4.7263 3.12988V5.90609C4.73044 7.07062 5.17809 8.18983 5.97817 9.03597V9.57118L2.6482 10.7386C2.15812 10.91 1.73341 11.2294 1.43287 11.6528C1.13233 12.0762 0.970823 12.5825 0.970703 13.1017V14.3975C0.970703 14.5635 1.03665 14.7227 1.15403 14.8401C1.27142 14.9575 1.43063 15.0234 1.59664 15.0234ZM2.22257 13.1017C2.22231 12.8418 2.30291 12.5883 2.4532 12.3763C2.60349 12.1643 2.81603 12.0044 3.06132 11.9186L6.81692 10.6072C6.9384 10.5633 7.04331 10.4828 7.11728 10.3769C7.19124 10.271 7.23063 10.1448 7.23004 10.0156V8.76367C7.23016 8.67807 7.21273 8.59335 7.17881 8.51475C7.1449 8.43615 7.09523 8.36535 7.03287 8.30671C6.7032 7.99922 6.43965 7.62777 6.25831 7.21502C6.07697 6.80228 5.98165 6.3569 5.97817 5.90609V3.15492C6.01886 2.14084 7.18935 1.25195 8.4819 1.25195C9.77446 1.25195 10.945 2.14084 10.9856 3.12988V5.90609C10.9839 6.35902 10.8894 6.80678 10.708 7.2218C10.5266 7.63682 10.2621 8.0103 9.93094 8.31923C9.87009 8.37641 9.8213 8.4452 9.78744 8.52152C9.75358 8.59785 9.73533 8.68018 9.73377 8.76367V10.0156C9.73364 10.1456 9.77394 10.2723 9.84908 10.3783C9.92423 10.4843 10.0305 10.5643 10.1531 10.6072L13.9087 11.9186C14.1529 12.0054 14.3641 12.1658 14.5132 12.3777C14.6623 12.5896 14.742 12.8426 14.7412 13.1017V13.7715H2.22257V13.1017Z" fill="#D85243"/>
</svg>
