<svg width="278" height="146" viewBox="0 0 278 146" fill="none" xmlns="http://www.w3.org/2000/svg">
<path d="M12.903 135.357C10.625 135.357 8.585 135.119 6.783 134.643C5.015 134.167 3.638 133.572 2.652 132.858C1.802 132.212 1.377 131.634 1.377 131.124C1.377 130.478 1.717 129.679 2.397 128.727C3.077 127.741 3.638 127.248 4.08 127.248C4.284 127.248 4.709 127.435 5.355 127.809C6.409 128.353 7.446 128.795 8.466 129.135C9.486 129.475 10.676 129.645 12.036 129.645C13.566 129.645 14.841 129.288 15.861 128.574C16.915 127.826 17.442 126.721 17.442 125.259C17.442 124.341 17.17 123.576 16.626 122.964C16.116 122.318 15.47 121.791 14.688 121.383C13.906 120.941 12.818 120.431 11.424 119.853L9.639 119.088C8.075 118.408 6.766 117.694 5.712 116.946C4.658 116.164 3.791 115.127 3.111 113.835C2.431 112.543 2.091 110.911 2.091 108.939C2.091 106.797 2.618 104.978 3.672 103.482C4.76 101.952 6.205 100.813 8.007 100.065C9.809 99.317 11.781 98.943 13.923 98.943C15.453 98.943 16.932 99.113 18.36 99.453C19.788 99.793 20.893 100.252 21.675 100.83C22.389 101.34 22.746 101.85 22.746 102.36C22.746 102.972 22.457 103.771 21.879 104.757C21.301 105.709 20.791 106.185 20.349 106.185C20.179 106.185 19.907 106.1 19.533 105.93C19.159 105.76 18.87 105.624 18.666 105.522C17.306 104.944 15.861 104.655 14.331 104.655C12.495 104.655 11.135 105.029 10.251 105.777C9.401 106.491 8.976 107.409 8.976 108.531C8.976 109.517 9.231 110.333 9.741 110.979C10.251 111.591 10.88 112.084 11.628 112.458C12.376 112.832 13.481 113.308 14.943 113.886C16.881 114.668 18.479 115.433 19.737 116.181C20.995 116.929 22.066 118 22.95 119.394C23.868 120.754 24.327 122.505 24.327 124.647C24.327 128.217 23.239 130.903 21.063 132.705C18.887 134.473 16.167 135.357 12.903 135.357ZM57.579 107.97C62.679 107.97 65.229 110.724 65.229 116.232V133.623C65.229 134.609 64.328 135.102 62.526 135.102H61.506C59.704 135.102 58.803 134.609 58.803 133.623V117.099C58.803 114.583 57.579 113.325 55.131 113.325C54.043 113.325 53.091 113.665 52.275 114.345C51.459 114.991 50.813 115.705 50.337 116.487V133.623C50.337 134.609 49.436 135.102 47.634 135.102H46.665C45.713 135.102 45.016 134.983 44.574 134.745C44.166 134.507 43.962 134.133 43.962 133.623V117.099C43.962 114.583 42.738 113.325 40.29 113.325C39.134 113.325 38.131 113.699 37.281 114.447C36.431 115.161 35.836 115.841 35.496 116.487V133.623C35.496 134.609 34.595 135.102 32.793 135.102H31.773C29.971 135.102 29.07 134.609 29.07 133.623L29.07 116.895C29.07 114.617 28.968 112.951 28.764 111.897C28.56 110.843 28.458 110.197 28.458 109.959C28.458 109.483 29.019 109.126 30.141 108.888C31.263 108.616 32.266 108.48 33.15 108.48C33.694 108.48 34.085 108.718 34.323 109.194C34.561 109.67 34.731 110.18 34.833 110.724C34.969 111.234 35.054 111.591 35.088 111.795C35.972 110.707 37.077 109.806 38.403 109.092C39.763 108.344 41.208 107.97 42.738 107.97C46.308 107.97 48.603 109.296 49.623 111.948C50.541 110.826 51.697 109.891 53.091 109.143C54.519 108.361 56.015 107.97 57.579 107.97ZM78.9305 135.357C76.3465 135.357 74.3745 134.694 73.0145 133.368C71.6545 132.008 70.9745 130.172 70.9745 127.86C70.9745 121.604 76.1255 118.459 86.4275 118.425V116.487C86.4275 114.243 84.9145 113.121 81.8885 113.121C80.6305 113.121 79.5255 113.274 78.5735 113.58C77.6215 113.852 76.7885 114.158 76.0745 114.498C75.3605 114.804 74.9525 114.957 74.8505 114.957C74.4085 114.957 73.8985 114.481 73.3205 113.529C72.7765 112.577 72.5045 111.863 72.5045 111.387C72.5045 110.843 72.9295 110.316 73.7795 109.806C74.6635 109.262 75.8535 108.82 77.3495 108.48C78.8455 108.14 80.4605 107.97 82.1945 107.97C85.7985 107.97 88.4675 108.718 90.2015 110.214C91.9695 111.676 92.8535 113.699 92.8535 116.283V126.534C92.8535 128.846 92.9555 130.546 93.1595 131.634C93.3635 132.688 93.4655 133.334 93.4655 133.572C93.4655 134.048 92.9045 134.422 91.7825 134.694C90.6605 134.932 89.6575 135.051 88.7735 135.051C88.2295 135.051 87.8385 134.813 87.6005 134.337C87.3625 133.827 87.1755 133.283 87.0395 132.705C86.9375 132.127 86.8695 131.736 86.8355 131.532C86.1215 132.45 85.1015 133.317 83.7755 134.133C82.4835 134.949 80.8685 135.357 78.9305 135.357ZM80.6645 130.206C81.8545 130.206 82.9425 129.9 83.9285 129.288C84.9145 128.642 85.7475 127.826 86.4275 126.84V122.964C83.6395 122.964 81.4465 123.287 79.8485 123.933C78.2845 124.545 77.5025 125.65 77.5025 127.248C77.5025 128.166 77.7745 128.897 78.3185 129.441C78.8625 129.951 79.6445 130.206 80.6645 130.206ZM102.896 135.102C101.094 135.102 100.193 134.609 100.193 133.623V116.895C100.193 114.617 100.091 112.951 99.8875 111.897C99.6835 110.843 99.5815 110.197 99.5815 109.959C99.5815 109.483 100.142 109.126 101.264 108.888C102.386 108.616 103.389 108.48 104.273 108.48C104.817 108.48 105.208 108.718 105.446 109.194C105.684 109.67 105.854 110.18 105.956 110.724C106.092 111.234 106.177 111.591 106.211 111.795C107.775 109.245 109.662 107.97 111.872 107.97C112.926 107.97 113.674 108.225 114.116 108.735C114.592 109.211 114.83 109.772 114.83 110.418C114.83 111.098 114.694 111.897 114.422 112.815C114.15 113.733 113.81 114.192 113.402 114.192C113.232 114.192 112.892 114.124 112.382 113.988C111.906 113.818 111.413 113.733 110.903 113.733C109.917 113.733 109.033 114.056 108.251 114.702C107.469 115.348 106.925 115.943 106.619 116.487V133.623C106.619 134.609 105.701 135.102 103.865 135.102H102.896ZM126.826 135.357C124.65 135.357 122.899 134.728 121.573 133.47C120.281 132.212 119.635 130.24 119.635 127.554V113.478H118.258C117.782 113.478 117.425 113.308 117.187 112.968C116.983 112.628 116.881 112.067 116.881 111.285V110.52C116.881 109.738 116.983 109.177 117.187 108.837C117.425 108.497 117.782 108.327 118.258 108.327H119.635L120.298 103.329C120.468 102.343 121.25 101.85 122.644 101.85H123.868C125.33 101.85 126.061 102.343 126.061 103.329V108.327H129.172C129.648 108.327 129.988 108.497 130.192 108.837C130.43 109.177 130.549 109.738 130.549 110.52V111.285C130.549 112.067 130.43 112.628 130.192 112.968C129.988 113.308 129.648 113.478 129.172 113.478H126.061V127.452C126.061 128.472 126.231 129.186 126.571 129.594C126.945 130.002 127.489 130.206 128.203 130.206C128.543 130.206 128.866 130.172 129.172 130.104C129.478 130.036 129.716 130.002 129.886 130.002C130.294 130.002 130.634 130.444 130.906 131.328C131.178 132.178 131.314 132.807 131.314 133.215C131.314 134.643 129.818 135.357 126.826 135.357ZM148.032 135.357C143.646 135.357 140.382 134.201 138.24 131.889C136.098 129.543 135.027 126.194 135.027 121.842C135.027 117.15 136.081 113.665 138.189 111.387C140.331 109.109 143.34 107.97 147.216 107.97C150.888 107.97 153.608 109.16 155.376 111.54C157.178 113.92 158.079 117.133 158.079 121.179C158.079 121.553 157.773 122.097 157.161 122.811C156.549 123.491 156.09 123.831 155.784 123.831H141.708C141.878 126.075 142.49 127.707 143.544 128.727C144.632 129.713 146.196 130.206 148.236 130.206C150.072 130.206 151.942 129.73 153.846 128.778C154.39 128.54 154.73 128.421 154.866 128.421C155.308 128.421 155.801 128.88 156.345 129.798C156.923 130.682 157.212 131.362 157.212 131.838C157.212 132.484 156.719 133.079 155.733 133.623C154.747 134.167 153.523 134.592 152.061 134.898C150.633 135.204 149.29 135.357 148.032 135.357ZM151.704 119.292C151.704 117.354 151.313 115.841 150.531 114.753C149.783 113.665 148.661 113.121 147.165 113.121C144.003 113.121 142.184 115.178 141.708 119.292H151.704ZM163.488 135.102C161.584 135.102 160.632 134.796 160.632 134.184C160.632 133.946 160.802 133.572 161.142 133.062L169.047 121.434L161.652 110.316C161.312 109.738 161.142 109.347 161.142 109.143C161.142 108.531 162.111 108.225 164.049 108.225H165.273C166.055 108.225 166.65 108.293 167.058 108.429C167.5 108.531 167.84 108.769 168.078 109.143L171.801 114.957L172.668 116.385L173.586 114.906L177.36 109.092C177.598 108.752 177.938 108.531 178.38 108.429C178.856 108.293 179.468 108.225 180.216 108.225H181.236C183.14 108.225 184.092 108.531 184.092 109.143C184.092 109.381 183.922 109.755 183.582 110.265L176.034 121.383L183.837 133.011C184.177 133.589 184.347 133.98 184.347 134.184C184.347 134.796 183.378 135.102 181.44 135.102H180.216C179.434 135.102 178.822 135.051 178.38 134.949C177.972 134.813 177.649 134.558 177.411 134.184L173.229 127.707C172.923 127.265 172.651 126.84 172.413 126.432L171.648 127.707L167.364 134.235C167.126 134.575 166.786 134.813 166.344 134.949C165.902 135.051 165.307 135.102 164.559 135.102H163.488ZM191.454 145.557C190.502 145.557 189.805 145.438 189.363 145.2C188.955 144.962 188.751 144.588 188.751 144.078V116.895C188.751 114.617 188.649 112.951 188.445 111.897C188.241 110.843 188.139 110.197 188.139 109.959C188.139 109.483 188.7 109.126 189.822 108.888C190.944 108.616 191.93 108.48 192.78 108.48C193.358 108.48 193.766 108.718 194.004 109.194C194.242 109.67 194.412 110.18 194.514 110.724C194.65 111.234 194.735 111.591 194.769 111.795C195.619 110.605 196.656 109.67 197.88 108.99C199.138 108.31 200.515 107.97 202.011 107.97C203.949 107.97 205.649 108.531 207.111 109.653C208.573 110.741 209.695 112.322 210.477 114.396C211.293 116.47 211.701 118.901 211.701 121.689C211.701 125.939 210.749 129.288 208.845 131.736C206.975 134.15 204.391 135.357 201.093 135.357C198.849 135.357 196.86 134.711 195.126 133.419V144.078C195.126 145.064 194.225 145.557 192.423 145.557H191.454ZM199.665 130.155C203.303 130.155 205.122 127.367 205.122 121.791C205.122 119.003 204.714 116.895 203.898 115.467C203.082 114.005 201.875 113.274 200.277 113.274C199.291 113.274 198.356 113.563 197.472 114.141C196.622 114.719 195.84 115.501 195.126 116.487V128.727C196.486 129.679 197.999 130.155 199.665 130.155ZM229.512 135.357C225.126 135.357 221.862 134.201 219.72 131.889C217.578 129.543 216.507 126.194 216.507 121.842C216.507 117.15 217.561 113.665 219.669 111.387C221.811 109.109 224.82 107.97 228.696 107.97C232.368 107.97 235.088 109.16 236.856 111.54C238.658 113.92 239.559 117.133 239.559 121.179C239.559 121.553 239.253 122.097 238.641 122.811C238.029 123.491 237.57 123.831 237.264 123.831H223.188C223.358 126.075 223.97 127.707 225.024 128.727C226.112 129.713 227.676 130.206 229.716 130.206C231.552 130.206 233.422 129.73 235.326 128.778C235.87 128.54 236.21 128.421 236.346 128.421C236.788 128.421 237.281 128.88 237.825 129.798C238.403 130.682 238.692 131.362 238.692 131.838C238.692 132.484 238.199 133.079 237.213 133.623C236.227 134.167 235.003 134.592 233.541 134.898C232.113 135.204 230.77 135.357 229.512 135.357ZM233.184 119.292C233.184 117.354 232.793 115.841 232.011 114.753C231.263 113.665 230.141 113.121 228.645 113.121C225.483 113.121 223.664 115.178 223.188 119.292H233.184ZM247.978 135.102C246.176 135.102 245.275 134.609 245.275 133.623V116.895C245.275 114.617 245.173 112.951 244.969 111.897C244.765 110.843 244.663 110.197 244.663 109.959C244.663 109.483 245.224 109.126 246.346 108.888C247.468 108.616 248.471 108.48 249.355 108.48C249.899 108.48 250.29 108.718 250.528 109.194C250.766 109.67 250.936 110.18 251.038 110.724C251.174 111.234 251.259 111.591 251.293 111.795C252.857 109.245 254.744 107.97 256.954 107.97C258.008 107.97 258.756 108.225 259.198 108.735C259.674 109.211 259.912 109.772 259.912 110.418C259.912 111.098 259.776 111.897 259.504 112.815C259.232 113.733 258.892 114.192 258.484 114.192C258.314 114.192 257.974 114.124 257.464 113.988C256.988 113.818 256.495 113.733 255.985 113.733C254.999 113.733 254.115 114.056 253.333 114.702C252.551 115.348 252.007 115.943 251.701 116.487V133.623C251.701 134.609 250.783 135.102 248.947 135.102H247.978ZM271.907 135.357C269.731 135.357 267.98 134.728 266.654 133.47C265.362 132.212 264.716 130.24 264.716 127.554V113.478H263.339C262.863 113.478 262.506 113.308 262.268 112.968C262.064 112.628 261.962 112.067 261.962 111.285V110.52C261.962 109.738 262.064 109.177 262.268 108.837C262.506 108.497 262.863 108.327 263.339 108.327H264.716L265.379 103.329C265.549 102.343 266.331 101.85 267.725 101.85H268.949C270.411 101.85 271.142 102.343 271.142 103.329V108.327H274.253C274.729 108.327 275.069 108.497 275.273 108.837C275.511 109.177 275.63 109.738 275.63 110.52V111.285C275.63 112.067 275.511 112.628 275.273 112.968C275.069 113.308 274.729 113.478 274.253 113.478H271.142V127.452C271.142 128.472 271.312 129.186 271.652 129.594C272.026 130.002 272.57 130.206 273.284 130.206C273.624 130.206 273.947 130.172 274.253 130.104C274.559 130.036 274.797 130.002 274.967 130.002C275.375 130.002 275.715 130.444 275.987 131.328C276.259 132.178 276.395 132.807 276.395 133.215C276.395 134.643 274.899 135.357 271.907 135.357Z" fill="#245868"/>
<path d="M141.294 12.5623L149.213 17.8089C149.065 18.1682 148.991 18.5276 148.991 18.8869C148.991 18.9588 148.991 18.9588 148.991 19.0307L138.999 22.3367C138.629 21.9055 138.185 21.5461 137.667 21.2587L139.221 13.3529C140.109 13.2092 140.775 12.9936 141.294 12.5623Z" fill="#245868"/>
<path d="M132.485 23.7028L119.607 24.7809C119.459 24.4215 119.311 24.134 119.015 23.8466L123.233 17.9532C123.604 18.097 123.974 18.1688 124.344 18.1688C125.084 18.1688 125.75 17.9532 126.342 17.5939L132.707 22.9841C132.633 23.1997 132.485 23.4153 132.485 23.7028Z" fill="#245868"/>
<path d="M128.049 14.5029C128.049 14.4311 128.049 14.4311 128.049 14.3592L135.969 11.7719C136.339 12.2031 136.783 12.6343 137.301 12.8499L135.747 20.7556C135.154 20.8275 134.636 20.9713 134.118 21.2587L127.753 15.8685C127.975 15.581 128.049 15.0779 128.049 14.5029Z" fill="#245868"/>
<path d="M132.637 25.7152C132.711 25.8589 132.785 26.0027 132.859 26.1464L124.2 34.9865C123.682 34.699 123.164 34.5552 122.498 34.5552C122.276 34.5552 122.054 34.5552 121.832 34.6271L118.649 28.6619C119.167 28.1588 119.537 27.5119 119.685 26.7932L132.637 25.7152Z" fill="#245868"/>
<path d="M107.102 21.1872C107.102 21.1872 107.324 20.3247 107.398 19.9654C107.472 19.606 107.768 18.6717 107.842 18.5998C112.949 4.15388 129.527 -1.52389 142.48 0.344747C152.101 1.78216 159.28 6.38187 163.129 13.497C164.017 15.1501 164.683 16.8031 165.127 18.5998L165.423 19.6779C165.423 19.6779 165.423 19.7498 165.423 19.8216L165.646 21.1153C165.942 23.2714 166.016 25.4994 165.72 27.8711C165.72 27.8711 165.72 27.943 165.72 28.0149C165.72 28.1586 165.72 28.4461 165.72 28.6617C165.72 29.5242 165.942 30.3866 166.312 31.1772L171.715 42.2452C172.159 43.1796 172.085 44.3295 171.492 45.1919C170.9 46.0544 169.938 46.6293 168.828 46.6293H165.868V61.0753C165.868 63.2314 164.165 64.8844 161.945 64.8844L153.359 65.0282C152.397 65.0282 151.657 65.7469 151.657 66.6812V70.6341C151.657 71.4246 150.991 71.9996 150.251 71.9996H119.24C118.796 71.9996 118.352 71.784 118.056 71.4246C117.833 71.0653 117.759 70.5622 117.908 70.131L118.13 69.6279C120.572 63.7345 120.942 58.6317 119.092 54.4632C118.056 52.0196 116.575 50.6541 115.539 49.7198L115.243 49.4323C107.028 41.1672 104.215 31.7521 107.102 21.1872ZM116.131 29.6679C116.353 29.6679 116.575 29.6679 116.797 29.596L119.98 35.5613C119.314 36.2081 118.87 37.1424 118.87 38.1486C118.87 40.161 120.498 41.7421 122.57 41.7421C124.643 41.7421 126.271 40.161 126.271 38.1486C126.271 37.5018 126.049 36.9268 125.753 36.3519L134.412 27.5837C134.93 27.8711 135.448 28.0149 136.115 28.0149C138.187 28.0149 139.815 26.4337 139.815 24.4214C139.815 24.3495 139.815 24.3495 139.815 24.2776L149.807 20.9716C150.473 21.9059 151.583 22.4809 152.841 22.4809C154.914 22.4809 156.542 20.8997 156.542 18.8873C156.542 16.875 154.914 15.2938 152.841 15.2938C151.953 15.2938 151.139 15.5813 150.547 16.0844L142.628 10.8378C142.776 10.4785 142.85 10.1191 142.85 9.75978C142.85 7.74741 141.221 6.16626 139.149 6.16626C137.077 6.16626 135.448 7.74741 135.448 9.75978C135.448 9.83165 135.448 9.83165 135.448 9.90352L127.529 12.4909C126.863 11.5565 125.753 10.9816 124.495 10.9816C122.422 10.9816 120.794 12.5627 120.794 14.5751C120.794 15.4375 121.09 16.2281 121.608 16.8031L117.389 22.6965C117.019 22.5527 116.649 22.4809 116.279 22.4809C114.207 22.4809 112.579 24.062 112.579 26.0744C112.431 28.0867 114.133 29.6679 116.131 29.6679Z" fill="#245868"/>
</svg>
