<svg width="172" height="34" viewBox="0 0 172 34" fill="none" xmlns="http://www.w3.org/2000/svg">
<path d="M47.9121 26.9679C46.841 26.9679 45.8819 26.856 45.0346 26.6322C44.2033 26.4084 43.5559 26.1286 43.0923 25.7929C42.6927 25.4892 42.4928 25.2174 42.4928 24.9776C42.4928 24.6739 42.6527 24.2982 42.9724 23.8506C43.2921 23.387 43.5559 23.1552 43.7637 23.1552C43.8596 23.1552 44.0595 23.2431 44.3632 23.419C44.8588 23.6748 45.3463 23.8826 45.8259 24.0424C46.3055 24.2023 46.865 24.2822 47.5044 24.2822C48.2238 24.2822 48.8233 24.1144 49.3029 23.7787C49.7984 23.427 50.0462 22.9074 50.0462 22.22C50.0462 21.7884 49.9183 21.4287 49.6626 21.141C49.4228 20.8373 49.119 20.5895 48.7514 20.3976C48.3837 20.1898 47.8721 19.95 47.2167 19.6783L46.3774 19.3186C45.6421 18.9989 45.0266 18.6632 44.5311 18.3115C44.0355 17.9438 43.6278 17.4562 43.3081 16.8488C42.9884 16.2413 42.8285 15.474 42.8285 14.5468C42.8285 13.5397 43.0763 12.6844 43.5719 11.981C44.0835 11.2617 44.7629 10.7261 45.6101 10.3744C46.4574 10.0227 47.3846 9.84689 48.3917 9.84689C49.111 9.84689 49.8064 9.92682 50.4778 10.0867C51.1493 10.2465 51.6688 10.4624 52.0365 10.7341C52.3722 10.9739 52.54 11.2137 52.54 11.4535C52.54 11.7412 52.4042 12.1169 52.1324 12.5805C51.8606 13.0281 51.6208 13.2519 51.413 13.2519C51.3331 13.2519 51.2052 13.2119 51.0294 13.132C50.8535 13.0521 50.7176 12.9881 50.6217 12.9402C49.9823 12.6684 49.3029 12.5325 48.5835 12.5325C47.7203 12.5325 47.0808 12.7084 46.6652 13.0601C46.2655 13.3958 46.0657 13.8274 46.0657 14.3549C46.0657 14.8185 46.1856 15.2022 46.4254 15.5059C46.6652 15.7937 46.9609 16.0255 47.3126 16.2013C47.6643 16.3772 48.1839 16.601 48.8713 16.8727C49.7825 17.2404 50.5338 17.6001 51.1253 17.9518C51.7168 18.3035 52.2203 18.807 52.6359 19.4625C53.0676 20.1019 53.2834 20.9252 53.2834 21.9323C53.2834 23.6108 52.7718 24.8737 51.7487 25.721C50.7256 26.5522 49.4467 26.9679 47.9121 26.9679Z" fill="#245868"/>
<path d="M68.9177 14.0912C71.3156 14.0912 72.5145 15.386 72.5145 17.9758V26.1526C72.5145 26.6162 72.0909 26.848 71.2436 26.848H70.7641C69.9168 26.848 69.4932 26.6162 69.4932 26.1526V18.3834C69.4932 17.2004 68.9177 16.609 67.7667 16.609C67.2551 16.609 66.8075 16.7688 66.4239 17.0885C66.0402 17.3923 65.7365 17.728 65.5127 18.0957V26.1526C65.5127 26.6162 65.089 26.848 64.2418 26.848H63.7862C63.3386 26.848 63.0108 26.792 62.803 26.6801C62.6112 26.5682 62.5153 26.3924 62.5153 26.1526V18.3834C62.5153 17.2004 61.9398 16.609 60.7888 16.609C60.2453 16.609 59.7737 16.7848 59.374 17.1365C58.9744 17.4722 58.6946 17.7919 58.5348 18.0957V26.1526C58.5348 26.6162 58.1111 26.848 57.2639 26.848H56.7843C55.9371 26.848 55.5134 26.6162 55.5134 26.1526V18.2875C55.5134 17.2164 55.4655 16.4331 55.3695 15.9376C55.2736 15.442 55.2257 15.1383 55.2257 15.0264C55.2257 14.8025 55.4894 14.6347 56.017 14.5228C56.5445 14.3949 57.0161 14.331 57.4317 14.331C57.6875 14.331 57.8714 14.4429 57.9833 14.6667C58.0952 14.8905 58.1751 15.1303 58.223 15.386C58.287 15.6258 58.327 15.7937 58.3429 15.8896C58.7586 15.378 59.2781 14.9544 59.9016 14.6187C60.541 14.267 61.2204 14.0912 61.9398 14.0912C63.6183 14.0912 64.6974 14.7146 65.1769 15.9615C65.6086 15.434 66.1521 14.9944 66.8075 14.6427C67.4789 14.275 68.1823 14.0912 68.9177 14.0912Z" fill="#245868"/>
<path d="M78.9566 26.9679C77.7417 26.9679 76.8145 26.6562 76.175 26.0327C75.5356 25.3933 75.2159 24.53 75.2159 23.443C75.2159 20.5016 77.6378 19.0228 82.4815 19.0069V18.0957C82.4815 17.0406 81.7701 16.513 80.3474 16.513C79.7559 16.513 79.2364 16.585 78.7888 16.7289C78.3412 16.8567 77.9495 17.0006 77.6138 17.1605C77.2781 17.3044 77.0863 17.3763 77.0383 17.3763C76.8305 17.3763 76.5907 17.1525 76.3189 16.7049C76.0632 16.2573 75.9353 15.9216 75.9353 15.6978C75.9353 15.442 76.1351 15.1942 76.5347 14.9544C76.9504 14.6986 77.5099 14.4908 78.2133 14.331C78.9166 14.1711 79.676 14.0912 80.4913 14.0912C82.1858 14.0912 83.4407 14.4429 84.256 15.1462C85.0872 15.8336 85.5029 16.7848 85.5029 17.9997V22.8195C85.5029 23.9066 85.5508 24.7059 85.6467 25.2174C85.7427 25.713 85.7906 26.0167 85.7906 26.1286C85.7906 26.3524 85.5269 26.5283 84.9993 26.6562C84.4718 26.7681 84.0002 26.824 83.5846 26.824C83.3288 26.824 83.1449 26.7121 83.033 26.4883C82.9211 26.2485 82.8332 25.9927 82.7693 25.721C82.7213 25.4492 82.6893 25.2654 82.6734 25.1695C82.3377 25.6011 81.8581 26.0087 81.2346 26.3924C80.6271 26.776 79.8678 26.9679 78.9566 26.9679ZM79.7719 24.546C80.3314 24.546 80.843 24.4021 81.3065 24.1144C81.7701 23.8106 82.1618 23.427 82.4815 22.9634V21.141C81.1707 21.141 80.1396 21.2929 79.3882 21.5966C78.6529 21.8843 78.2852 22.4039 78.2852 23.1552C78.2852 23.5868 78.4131 23.9305 78.6689 24.1863C78.9246 24.4261 79.2923 24.546 79.7719 24.546Z" fill="#245868"/>
<path d="M90.2249 26.848C89.3776 26.848 88.954 26.6162 88.954 26.1526V18.2875C88.954 17.2164 88.906 16.4331 88.8101 15.9376C88.7142 15.442 88.6662 15.1383 88.6662 15.0264C88.6662 14.8025 88.93 14.6347 89.4575 14.5228C89.9851 14.3949 90.4566 14.331 90.8723 14.331C91.1281 14.331 91.3119 14.4429 91.4238 14.6667C91.5357 14.8905 91.6156 15.1303 91.6636 15.386C91.7275 15.6258 91.7675 15.7937 91.7835 15.8896C92.5188 14.6906 93.4061 14.0912 94.4452 14.0912C94.9727 14.0912 95.3324 14.1871 95.5242 14.3789C95.732 14.5708 95.8359 14.8585 95.8359 15.2422C95.8359 15.5619 95.772 15.9376 95.6441 16.3692C95.5162 16.8008 95.3564 17.0166 95.1645 17.0166C95.0846 17.0166 94.9247 16.9846 94.685 16.9207C94.4611 16.8408 94.2293 16.8008 93.9896 16.8008C93.526 16.8008 93.1103 16.9527 92.7427 17.2564C92.375 17.5601 92.1192 17.8399 91.9753 18.0957V26.1526C91.9753 26.6162 91.5437 26.848 90.6805 26.848H90.2249Z" fill="#245868"/>
<path d="M101.242 26.9679C100.219 26.9679 99.3955 26.6721 98.772 26.0807C98.1646 25.4892 97.8608 24.562 97.8608 23.2991V16.6809H97.2134C96.9896 16.6809 96.8218 16.601 96.7099 16.4411C96.6139 16.2812 96.566 16.0175 96.566 15.6498V15.2901C96.566 14.9224 96.6139 14.6587 96.7099 14.4988C96.8218 14.339 96.9896 14.259 97.2134 14.259H97.8608L98.1726 11.9091C98.2525 11.4455 98.6202 11.2137 99.2756 11.2137H99.8511C100.538 11.2137 100.882 11.4455 100.882 11.9091V14.259H102.345C102.569 14.259 102.729 14.339 102.824 14.4988C102.936 14.6587 102.992 14.9224 102.992 15.2901V15.6498C102.992 16.0175 102.936 16.2812 102.824 16.4411C102.729 16.601 102.569 16.6809 102.345 16.6809H100.882V23.2511C100.882 23.7307 100.962 24.0664 101.122 24.2583C101.298 24.4501 101.554 24.546 101.889 24.546C102.049 24.546 102.201 24.53 102.345 24.498C102.489 24.4661 102.601 24.4501 102.681 24.4501C102.872 24.4501 103.032 24.6579 103.16 25.0735C103.288 25.4732 103.352 25.7689 103.352 25.9608C103.352 26.6322 102.649 26.9679 101.242 26.9679Z" fill="#245868"/>
<path d="M111.212 26.9679C109.15 26.9679 107.615 26.4244 106.608 25.3373C105.601 24.2343 105.098 22.6597 105.098 20.6135C105.098 18.4074 105.593 16.7688 106.584 15.6978C107.591 14.6267 109.006 14.0912 110.829 14.0912C112.555 14.0912 113.834 14.6507 114.665 15.7697C115.512 16.8887 115.936 18.3994 115.936 20.3017C115.936 20.4776 115.792 20.7333 115.505 21.0691C115.217 21.3888 115.001 21.5486 114.857 21.5486H108.239C108.319 22.6037 108.607 23.371 109.102 23.8506C109.614 24.3142 110.349 24.546 111.308 24.546C112.171 24.546 113.051 24.3222 113.946 23.8746C114.202 23.7627 114.362 23.7067 114.425 23.7067C114.633 23.7067 114.865 23.9226 115.121 24.3542C115.393 24.7698 115.528 25.0895 115.528 25.3133C115.528 25.6171 115.297 25.8968 114.833 26.1526C114.369 26.4084 113.794 26.6082 113.107 26.7521C112.435 26.8959 111.804 26.9679 111.212 26.9679ZM112.939 19.4145C112.939 18.5033 112.755 17.7919 112.387 17.2804C112.036 16.7688 111.508 16.513 110.805 16.513C109.318 16.513 108.463 17.4802 108.239 19.4145H112.939Z" fill="#245868"/>
<path d="M118.245 26.848C117.35 26.848 116.902 26.7041 116.902 26.4164C116.902 26.3045 116.982 26.1286 117.142 25.8888L120.859 20.4216L117.382 15.1942C117.222 14.9224 117.142 14.7386 117.142 14.6427C117.142 14.3549 117.598 14.2111 118.509 14.2111H119.084C119.452 14.2111 119.732 14.243 119.924 14.307C120.132 14.3549 120.291 14.4668 120.403 14.6427L122.154 17.3763L122.561 18.0477L122.993 17.3523L124.768 14.6187C124.879 14.4588 125.039 14.3549 125.247 14.307C125.471 14.243 125.759 14.2111 126.11 14.2111H126.59C127.485 14.2111 127.933 14.3549 127.933 14.6427C127.933 14.7546 127.853 14.9304 127.693 15.1702L124.144 20.3976L127.813 25.8648C127.973 26.1366 128.053 26.3204 128.053 26.4164C128.053 26.7041 127.597 26.848 126.686 26.848H126.11C125.743 26.848 125.455 26.824 125.247 26.776C125.055 26.7121 124.903 26.5922 124.791 26.4164L122.825 23.371C122.681 23.1632 122.553 22.9634 122.442 22.7716L122.082 23.371L120.068 26.4403C119.956 26.6002 119.796 26.7121 119.588 26.776C119.38 26.824 119.1 26.848 118.749 26.848H118.245Z" fill="#245868"/>
<path d="M131.394 31.7637C130.947 31.7637 130.619 31.7077 130.411 31.5958C130.219 31.4839 130.123 31.3081 130.123 31.0683V18.2875C130.123 17.2164 130.075 16.4331 129.979 15.9376C129.883 15.442 129.835 15.1383 129.835 15.0264C129.835 14.8025 130.099 14.6347 130.627 14.5228C131.154 14.3949 131.618 14.331 132.018 14.331C132.289 14.331 132.481 14.4429 132.593 14.6667C132.705 14.8905 132.785 15.1303 132.833 15.386C132.897 15.6258 132.937 15.7937 132.953 15.8896C133.352 15.3301 133.84 14.8905 134.415 14.5708C135.007 14.251 135.654 14.0912 136.358 14.0912C137.269 14.0912 138.068 14.3549 138.756 14.8825C139.443 15.394 139.971 16.1374 140.338 17.1125C140.722 18.0877 140.914 19.2307 140.914 20.5415C140.914 22.5398 140.466 24.1144 139.571 25.2654C138.692 26.4004 137.477 26.9679 135.926 26.9679C134.871 26.9679 133.936 26.6641 133.121 26.0567V31.0683C133.121 31.5319 132.697 31.7637 131.85 31.7637H131.394ZM135.255 24.522C136.965 24.522 137.82 23.2112 137.82 20.5895C137.82 19.2786 137.629 18.2875 137.245 17.6161C136.861 16.9287 136.294 16.585 135.542 16.585C135.079 16.585 134.639 16.7209 134.224 16.9926C133.824 17.2644 133.456 17.6321 133.121 18.0957V23.8506C133.76 24.2982 134.471 24.522 135.255 24.522Z" fill="#245868"/>
<path d="M149.288 26.9679C147.226 26.9679 145.691 26.4244 144.684 25.3373C143.677 24.2343 143.174 22.6597 143.174 20.6135C143.174 18.4074 143.669 16.7688 144.66 15.6978C145.667 14.6267 147.082 14.0912 148.905 14.0912C150.631 14.0912 151.91 14.6507 152.741 15.7697C153.588 16.8887 154.012 18.3994 154.012 20.3017C154.012 20.4776 153.868 20.7333 153.58 21.0691C153.293 21.3888 153.077 21.5486 152.933 21.5486H146.315C146.395 22.6037 146.683 23.371 147.178 23.8506C147.69 24.3142 148.425 24.546 149.384 24.546C150.247 24.546 151.127 24.3222 152.022 23.8746C152.278 23.7627 152.438 23.7067 152.501 23.7067C152.709 23.7067 152.941 23.9226 153.197 24.3542C153.469 24.7698 153.604 25.0895 153.604 25.3133C153.604 25.6171 153.373 25.8968 152.909 26.1526C152.445 26.4084 151.87 26.6082 151.183 26.7521C150.511 26.8959 149.88 26.9679 149.288 26.9679ZM151.015 19.4145C151.015 18.5033 150.831 17.7919 150.463 17.2804C150.112 16.7688 149.584 16.513 148.881 16.513C147.394 16.513 146.539 17.4802 146.315 19.4145H151.015Z" fill="#245868"/>
<path d="M157.97 26.848C157.123 26.848 156.699 26.6162 156.699 26.1526V18.2875C156.699 17.2164 156.651 16.4331 156.555 15.9376C156.459 15.442 156.411 15.1383 156.411 15.0264C156.411 14.8025 156.675 14.6347 157.203 14.5228C157.73 14.3949 158.202 14.331 158.618 14.331C158.873 14.331 159.057 14.4429 159.169 14.6667C159.281 14.8905 159.361 15.1303 159.409 15.386C159.473 15.6258 159.513 15.7937 159.529 15.8896C160.264 14.6906 161.151 14.0912 162.19 14.0912C162.718 14.0912 163.078 14.1871 163.269 14.3789C163.477 14.5708 163.581 14.8585 163.581 15.2422C163.581 15.5619 163.517 15.9376 163.389 16.3692C163.261 16.8008 163.102 17.0166 162.91 17.0166C162.83 17.0166 162.67 16.9846 162.43 16.9207C162.206 16.8408 161.975 16.8008 161.735 16.8008C161.271 16.8008 160.856 16.9527 160.488 17.2564C160.12 17.5601 159.864 17.8399 159.721 18.0957V26.1526C159.721 26.6162 159.289 26.848 158.426 26.848H157.97Z" fill="#245868"/>
<path d="M168.987 26.9679C167.964 26.9679 167.141 26.6721 166.517 26.0807C165.91 25.4892 165.606 24.562 165.606 23.2991V16.6809H164.959C164.735 16.6809 164.567 16.601 164.455 16.4411C164.359 16.2812 164.311 16.0175 164.311 15.6498V15.2901C164.311 14.9224 164.359 14.6587 164.455 14.4988C164.567 14.339 164.735 14.259 164.959 14.259H165.606L165.918 11.9091C165.998 11.4455 166.365 11.2137 167.021 11.2137H167.596C168.284 11.2137 168.627 11.4455 168.627 11.9091V14.259H170.09C170.314 14.259 170.474 14.339 170.57 14.4988C170.682 14.6587 170.738 14.9224 170.738 15.2901V15.6498C170.738 16.0175 170.682 16.2812 170.57 16.4411C170.474 16.601 170.314 16.6809 170.09 16.6809H168.627V23.2511C168.627 23.7307 168.707 24.0664 168.867 24.2583C169.043 24.4501 169.299 24.546 169.635 24.546C169.794 24.546 169.946 24.53 170.09 24.498C170.234 24.4661 170.346 24.4501 170.426 24.4501C170.618 24.4501 170.778 24.6579 170.905 25.0735C171.033 25.4732 171.097 25.7689 171.097 25.9608C171.097 26.6322 170.394 26.9679 168.987 26.9679Z" fill="#245868"/>
<path d="M16.5937 5.90651L20.3171 8.3733C20.2475 8.54226 20.2127 8.71122 20.2127 8.88018C20.2127 8.91397 20.2127 8.91397 20.2127 8.94776L15.5149 10.5022C15.3409 10.2994 15.1321 10.1305 14.8885 9.9953L15.6193 6.27822C16.0369 6.21063 16.3501 6.10926 16.5937 5.90651Z" fill="#245868"/>
<path d="M12.4521 11.1445L6.39713 11.6514C6.32753 11.4824 6.25794 11.3472 6.11874 11.2121L8.10227 8.44117C8.27627 8.50875 8.45026 8.54254 8.62426 8.54254C8.97224 8.54254 9.28544 8.44117 9.56383 8.27221L12.5565 10.8066C12.5217 10.908 12.4521 11.0093 12.4521 11.1445Z" fill="#245868"/>
<path d="M10.3665 6.81893C10.3665 6.78514 10.3665 6.78514 10.3665 6.75135L14.09 5.53485C14.264 5.7376 14.4728 5.94035 14.7164 6.04173L13.9856 9.7588C13.7072 9.79259 13.4636 9.86018 13.22 9.99534L10.2273 7.46097C10.3317 7.32581 10.3665 7.08927 10.3665 6.81893Z" fill="#245868"/>
<path d="M12.5238 12.0907C12.5586 12.1582 12.5934 12.2258 12.6282 12.2934L8.55669 16.4498C8.3131 16.3146 8.0695 16.247 7.75631 16.247C7.65192 16.247 7.54752 16.247 7.44313 16.2808L5.94677 13.4761C6.19037 13.2396 6.36436 12.9355 6.43396 12.5975L12.5238 12.0907Z" fill="#245868"/>
<path d="M0.517582 9.9617C0.517582 9.9617 0.621979 9.5562 0.656778 9.38724C0.691577 9.21828 0.830773 8.77899 0.865572 8.7452C3.26669 1.95306 11.0616 -0.716494 17.1514 0.162092C21.6753 0.837927 25.0508 3.0006 26.8603 6.34598C27.2779 7.12319 27.5911 7.90041 27.7999 8.7452L27.9391 9.25208C27.9391 9.25208 27.9391 9.28587 27.9391 9.31966L28.0435 9.92791C28.1827 10.9417 28.2175 11.9892 28.0783 13.1043C28.0783 13.1043 28.0783 13.1381 28.0783 13.1719C28.0783 13.2395 28.0783 13.3747 28.0783 13.476C28.0783 13.8815 28.1827 14.287 28.3567 14.6588L30.897 19.8627C31.1058 20.302 31.071 20.8427 30.7926 21.2482C30.5142 21.6537 30.0618 21.924 29.5398 21.924H28.1479V28.7161C28.1479 29.7299 27.3475 30.5071 26.3035 30.5071L22.2669 30.5747C21.8145 30.5747 21.4665 30.9126 21.4665 31.3519V33.2104C21.4665 33.5821 21.1533 33.8525 20.8053 33.8525H6.2246C6.0158 33.8525 5.80701 33.7511 5.66781 33.5821C5.56341 33.4132 5.52862 33.1766 5.59821 32.9739L5.70261 32.7374C6.85097 29.9664 7.02497 27.5672 6.15499 25.6073C5.66781 24.4584 4.97184 23.8163 4.48465 23.377L4.34546 23.2419C0.482783 19.3558 -0.839573 14.9291 0.517582 9.9617ZM4.76304 13.9491C4.86744 13.9491 4.97183 13.9491 5.07623 13.9153L6.57258 16.7201C6.25939 17.0242 6.0506 17.4635 6.0506 17.9366C6.0506 18.8827 6.81617 19.6261 7.79054 19.6261C8.76491 19.6261 9.53049 18.8827 9.53049 17.9366C9.53049 17.6324 9.42609 17.3621 9.28689 17.0918L13.3584 12.9692C13.602 13.1043 13.8455 13.1719 14.1587 13.1719C15.1331 13.1719 15.8987 12.4285 15.8987 11.4823C15.8987 11.4485 15.8987 11.4485 15.8987 11.4147L20.5965 9.86033C20.9097 10.2996 21.4317 10.57 22.0233 10.57C22.9976 10.57 23.7632 9.82654 23.7632 8.88037C23.7632 7.9342 22.9976 7.19078 22.0233 7.19078C21.6057 7.19078 21.2229 7.32595 20.9445 7.56249L17.221 5.09569C17.2906 4.92673 17.3254 4.75777 17.3254 4.58881C17.3254 3.64264 16.5599 2.89922 15.5855 2.89922C14.6111 2.89922 13.8455 3.64264 13.8455 4.58881C13.8455 4.6226 13.8455 4.6226 13.8455 4.6564L10.1221 5.8729C9.80888 5.43361 9.28689 5.16327 8.69531 5.16327C7.72094 5.16327 6.95537 5.90669 6.95537 6.85286C6.95537 7.25836 7.09456 7.63007 7.33816 7.90041L5.35462 10.6713C5.18063 10.6037 5.00663 10.57 4.83264 10.57C3.85827 10.57 3.0927 11.3134 3.0927 12.2595C3.0231 13.2057 3.82347 13.9491 4.76304 13.9491Z" fill="#245868"/>
</svg>
