<svg width="100" height="101" viewBox="0 0 100 101" fill="none" xmlns="http://www.w3.org/2000/svg">
<circle cx="50" cy="50" r="50" fill="#C4C4C4"/>
<circle cx="50" cy="51" r="50" fill="#C4C4C4"/>
<mask id="mask0" mask-type="alpha" maskUnits="userSpaceOnUse" x="0" y="1" width="100" height="100">
<circle cx="50" cy="51" r="50" fill="#C4C4C4"/>
</mask>
<g mask="url(#mask0)">
<path d="M0 103.45V94.43C0 94.43 0.587 88.893 7.255 87.175C7.255 87.175 17.994 83.254 26.405 79.593C30.755 77.701 31.691 76.564 36.079 74.625C36.079 74.625 36.537 72.372 36.372 71.031H39.804C39.804 71.031 40.588 71.488 39.804 66.194C39.804 66.194 35.621 65.084 35.426 56.652C35.426 56.652 32.284 57.71 32.092 52.6C31.961 49.136 29.281 46.129 33.138 43.646L31.177 38.352C31.177 38.352 27.256 16.98 38.53 20.117C33.774 14.431 65.49 8.74601 67.55 26.784C67.55 26.784 69.019 36.523 67.55 43.189C67.55 43.189 72.182 42.653 69.085 51.556C69.085 51.556 67.386 57.961 64.771 56.523C64.771 56.523 65.198 64.627 61.08 66.001C61.08 66.001 61.373 70.314 61.373 70.608L65.296 71.196C65.296 71.196 64.706 74.726 65.394 75.117C65.394 75.117 70.045 78.303 75.589 79.726C86.276 82.469 98.922 87.176 98.922 91.294C98.922 91.294 100.001 96.784 100.001 103.45H0Z" fill="#E7E7E7"/>
</g>
</svg>
