<svg width="22" height="24" viewBox="0 0 22 24" fill="none" xmlns="http://www.w3.org/2000/svg">
<path d="M11.7651 4.18739L14.4049 5.93625C14.3556 6.05603 14.3309 6.17582 14.3309 6.2956C14.3309 6.31956 14.3309 6.31956 14.3309 6.34351L11.0003 7.44553C10.877 7.30179 10.7289 7.18201 10.5562 7.08618L11.0743 4.45092C11.3704 4.40301 11.5924 4.33113 11.7651 4.18739Z" fill="white"/>
<path d="M8.82918 7.90092L4.53644 8.26027C4.4871 8.14049 4.43776 8.04466 4.33908 7.94884L5.74532 5.98438C5.86867 6.03229 5.99203 6.05625 6.11538 6.05625C6.36209 6.05625 6.58413 5.98438 6.7815 5.86459L8.9032 7.66135C8.87853 7.73322 8.82918 7.8051 8.82918 7.90092Z" fill="white"/>
<path d="M7.34899 4.83428C7.34899 4.81032 7.34899 4.81032 7.34899 4.78637L9.98878 3.92392C10.1121 4.06766 10.2602 4.2114 10.4329 4.28327L9.91477 6.91852C9.7174 6.94248 9.54471 6.99039 9.37201 7.08622L7.25031 5.28946C7.32433 5.19363 7.34899 5.02593 7.34899 4.83428Z" fill="white"/>
<path d="M8.87863 8.57172C8.9033 8.61963 8.92797 8.66754 8.95264 8.71546L6.06614 11.6622C5.89344 11.5663 5.72074 11.5184 5.4987 11.5184C5.42469 11.5184 5.35068 11.5184 5.27667 11.5424L4.21582 9.55395C4.38851 9.38625 4.51187 9.17064 4.56121 8.93107L8.87863 8.57172Z" fill="white"/>
<path d="M0.367113 7.06237C0.367113 7.06237 0.441126 6.77489 0.465797 6.6551C0.490469 6.53532 0.589151 6.22388 0.613823 6.19992C2.31612 1.38457 7.84241 -0.508026 12.1598 0.114855C15.367 0.593994 17.7601 2.12724 19.043 4.49898C19.3391 5.04999 19.5611 5.601 19.7091 6.19992L19.8078 6.55928C19.8078 6.55928 19.8078 6.58323 19.8078 6.60719L19.8818 7.03842C19.9805 7.75712 20.0052 8.49979 19.9065 9.29037C19.9065 9.29037 19.9065 9.31433 19.9065 9.33828C19.9065 9.3862 19.9065 9.48203 19.9065 9.5539C19.9065 9.84138 19.9805 10.1289 20.1039 10.3924L21.9048 14.0818C22.0529 14.3932 22.0282 14.7765 21.8308 15.064C21.6335 15.3515 21.3127 15.5431 20.9427 15.5431H19.9558V20.3585C19.9558 21.0772 19.3884 21.6282 18.6483 21.6282L15.7864 21.6761C15.4657 21.6761 15.219 21.9157 15.219 22.2271V23.5448C15.219 23.8083 14.997 23.9999 14.7503 23.9999H4.41315C4.26512 23.9999 4.11709 23.9281 4.01841 23.8083C3.9444 23.6885 3.91973 23.5208 3.96907 23.3771L4.04308 23.2094C4.85722 21.2449 4.98058 19.5439 4.3638 18.1544C4.01841 17.3399 3.52499 16.8847 3.1796 16.5733L3.08092 16.4775C0.342442 13.7224 -0.595053 10.584 0.367113 7.06237ZM3.37697 9.88929C3.45098 9.88929 3.52499 9.88929 3.599 9.86534L4.65986 11.8538C4.43782 12.0694 4.28979 12.3808 4.28979 12.7162C4.28979 13.387 4.83255 13.9141 5.52334 13.9141C6.21413 13.9141 6.75689 13.387 6.75689 12.7162C6.75689 12.5006 6.68287 12.3089 6.58419 12.1173L9.47069 9.19454C9.64339 9.29037 9.81608 9.33828 10.0381 9.33828C10.7289 9.33828 11.2717 8.81123 11.2717 8.14044C11.2717 8.11648 11.2717 8.11648 11.2717 8.09252L14.6022 6.9905C14.8243 7.30194 15.1943 7.4936 15.6138 7.4936C16.3045 7.4936 16.8473 6.96654 16.8473 6.29575C16.8473 5.62496 16.3045 5.0979 15.6138 5.0979C15.3177 5.0979 15.0463 5.19373 14.849 5.36143L12.2092 3.61257C12.2585 3.49279 12.2832 3.373 12.2832 3.25322C12.2832 2.58242 11.7404 2.05537 11.0496 2.05537C10.3588 2.05537 9.81608 2.58242 9.81608 3.25322C9.81608 3.27717 9.81608 3.27717 9.81608 3.30113L7.17629 4.16358C6.95425 3.85214 6.58419 3.66048 6.16478 3.66048C5.474 3.66048 4.93124 4.18754 4.93124 4.85833C4.93124 5.14582 5.02992 5.40934 5.20262 5.601L3.79637 7.56547C3.67302 7.51755 3.54966 7.4936 3.42631 7.4936C2.73552 7.4936 2.19276 8.02065 2.19276 8.69145C2.14342 9.36224 2.71085 9.88929 3.37697 9.88929Z" fill="white"/>
</svg>
