<svg width="77" height="5" viewBox="0 0 77 5" fill="none" xmlns="http://www.w3.org/2000/svg">
<path d="M0 2.5C0 1.11929 1.11929 0 2.5 0H27.5C28.8807 0 30 1.11929 30 2.5C30 3.88071 28.8778 5 27.4971 5C18.1006 5 11.8994 5 2.50291 5C1.1222 5 0 3.88071 0 2.5Z" fill="#60C09E"/>
<path d="M47 2.5C47 1.11929 48.1193 0 49.5 0H74.5C75.8807 0 77 1.11929 77 2.5C77 3.88071 75.8778 5 74.4971 5C65.1006 5 58.8994 5 49.5029 5C48.1222 5 47 3.88071 47 2.5Z" fill="#60C09E"/>
<path d="M36 2.5C36 1.11929 37.1193 0 38.5 0C39.8807 0 41 1.11929 41 2.5C41 3.88071 39.8807 5 38.5 5C37.1193 5 36 3.88071 36 2.5Z" fill="#60C09E"/>
</svg>
