<svg width="145" height="26" viewBox="0 0 145 26" fill="none" xmlns="http://www.w3.org/2000/svg">
<path d="M35.313 21.1471C34.375 21.1471 33.535 21.0491 32.793 20.8531C32.065 20.6571 31.498 20.4121 31.092 20.1181C30.742 19.8521 30.567 19.6141 30.567 19.4041C30.567 19.1381 30.707 18.8091 30.987 18.4171C31.267 18.0111 31.498 17.8081 31.68 17.8081C31.764 17.8081 31.939 17.8851 32.205 18.0391C32.639 18.2631 33.066 18.4451 33.486 18.5851C33.906 18.7251 34.396 18.7951 34.956 18.7951C35.586 18.7951 36.111 18.6481 36.531 18.3541C36.965 18.0461 37.182 17.5911 37.182 16.9891C37.182 16.6111 37.07 16.2961 36.846 16.0441C36.636 15.7781 36.37 15.5611 36.048 15.3931C35.726 15.2111 35.278 15.0011 34.704 14.7631L33.969 14.4481C33.325 14.1681 32.786 13.8741 32.352 13.5661C31.918 13.2441 31.561 12.8171 31.281 12.2851C31.001 11.7531 30.861 11.0811 30.861 10.2691C30.861 9.38706 31.078 8.63806 31.512 8.02206C31.96 7.39206 32.555 6.92306 33.297 6.61506C34.039 6.30706 34.851 6.15306 35.733 6.15306C36.363 6.15306 36.972 6.22306 37.56 6.36306C38.148 6.50306 38.603 6.69206 38.925 6.93006C39.219 7.14006 39.366 7.35006 39.366 7.56006C39.366 7.81206 39.247 8.14106 39.009 8.54706C38.771 8.93906 38.561 9.13506 38.379 9.13506C38.309 9.13506 38.197 9.10006 38.043 9.03006C37.889 8.96006 37.77 8.90406 37.686 8.86206C37.126 8.62406 36.531 8.50506 35.901 8.50506C35.145 8.50506 34.585 8.65906 34.221 8.96706C33.871 9.26106 33.696 9.63906 33.696 10.1011C33.696 10.5071 33.801 10.8431 34.011 11.1091C34.221 11.3611 34.48 11.5641 34.788 11.7181C35.096 11.8721 35.551 12.0681 36.153 12.3061C36.951 12.6281 37.609 12.9431 38.127 13.2511C38.645 13.5591 39.086 14.0001 39.45 14.5741C39.828 15.1341 40.017 15.8551 40.017 16.7371C40.017 18.2071 39.569 19.3131 38.673 20.0551C37.777 20.7831 36.657 21.1471 35.313 21.1471ZM53.709 9.87006C55.809 9.87006 56.859 11.0041 56.859 13.2721V20.4331C56.859 20.8391 56.488 21.0421 55.746 21.0421H55.326C54.584 21.0421 54.213 20.8391 54.213 20.4331V13.6291C54.213 12.5931 53.709 12.0751 52.701 12.0751C52.253 12.0751 51.861 12.2151 51.525 12.4951C51.189 12.7611 50.923 13.0551 50.727 13.3771V20.4331C50.727 20.8391 50.356 21.0421 49.614 21.0421H49.215C48.823 21.0421 48.536 20.9931 48.354 20.8951C48.186 20.7971 48.102 20.6431 48.102 20.4331V13.6291C48.102 12.5931 47.598 12.0751 46.59 12.0751C46.114 12.0751 45.701 12.2291 45.351 12.5371C45.001 12.8311 44.756 13.1111 44.616 13.3771V20.4331C44.616 20.8391 44.245 21.0421 43.503 21.0421H43.083C42.341 21.0421 41.97 20.8391 41.97 20.4331V13.5451C41.97 12.6071 41.928 11.9211 41.844 11.4871C41.76 11.0531 41.718 10.7871 41.718 10.6891C41.718 10.4931 41.949 10.3461 42.411 10.2481C42.873 10.1361 43.286 10.0801 43.65 10.0801C43.874 10.0801 44.035 10.1781 44.133 10.3741C44.231 10.5701 44.301 10.7801 44.343 11.0041C44.399 11.2141 44.434 11.3611 44.448 11.4451C44.812 10.9971 45.267 10.6261 45.813 10.3321C46.373 10.0241 46.968 9.87006 47.598 9.87006C49.068 9.87006 50.013 10.4161 50.433 11.5081C50.811 11.0461 51.287 10.6611 51.861 10.3531C52.449 10.0311 53.065 9.87006 53.709 9.87006ZM62.5008 21.1471C61.4368 21.1471 60.6248 20.8741 60.0648 20.3281C59.5048 19.7681 59.2248 19.0121 59.2248 18.0601C59.2248 15.4841 61.3458 14.1891 65.5878 14.1751V13.3771C65.5878 12.4531 64.9648 11.9911 63.7188 11.9911C63.2008 11.9911 62.7458 12.0541 62.3538 12.1801C61.9618 12.2921 61.6188 12.4181 61.3248 12.5581C61.0308 12.6841 60.8628 12.7471 60.8208 12.7471C60.6388 12.7471 60.4288 12.5511 60.1908 12.1591C59.9668 11.7671 59.8548 11.4731 59.8548 11.2771C59.8548 11.0531 60.0298 10.8361 60.3798 10.6261C60.7438 10.4021 61.2338 10.2201 61.8498 10.0801C62.4658 9.94006 63.1308 9.87006 63.8448 9.87006C65.3288 9.87006 66.4278 10.1781 67.1418 10.7941C67.8698 11.3961 68.2338 12.2291 68.2338 13.2931V17.5141C68.2338 18.4661 68.2758 19.1661 68.3598 19.6141C68.4438 20.0481 68.4858 20.3141 68.4858 20.4121C68.4858 20.6081 68.2548 20.7621 67.7928 20.8741C67.3308 20.9721 66.9178 21.0211 66.5538 21.0211C66.3298 21.0211 66.1688 20.9231 66.0708 20.7271C65.9728 20.5171 65.8958 20.2931 65.8398 20.0551C65.7978 19.8171 65.7698 19.6561 65.7558 19.5721C65.4618 19.9501 65.0418 20.3071 64.4958 20.6431C63.9638 20.9791 63.2988 21.1471 62.5008 21.1471ZM63.2148 19.0261C63.7048 19.0261 64.1528 18.9001 64.5588 18.6481C64.9648 18.3821 65.3078 18.0461 65.5878 17.6401V16.0441C64.4398 16.0441 63.5368 16.1771 62.8788 16.4431C62.2348 16.6951 61.9128 17.1501 61.9128 17.8081C61.9128 18.1861 62.0248 18.4871 62.2488 18.7111C62.4728 18.9211 62.7948 19.0261 63.2148 19.0261ZM72.3691 21.0421C71.6271 21.0421 71.2561 20.8391 71.2561 20.4331V13.5451C71.2561 12.6071 71.2141 11.9211 71.1301 11.4871C71.0461 11.0531 71.0041 10.7871 71.0041 10.6891C71.0041 10.4931 71.2351 10.3461 71.6971 10.2481C72.1591 10.1361 72.5721 10.0801 72.9361 10.0801C73.1601 10.0801 73.3211 10.1781 73.4191 10.3741C73.5171 10.5701 73.5871 10.7801 73.6291 11.0041C73.6851 11.2141 73.7201 11.3611 73.7341 11.4451C74.3781 10.3951 75.1551 9.87006 76.0651 9.87006C76.4991 9.87006 76.8071 9.97506 76.9891 10.1851C77.1851 10.3811 77.2831 10.6121 77.2831 10.8781C77.2831 11.1581 77.2271 11.4871 77.1151 11.8651C77.0031 12.2431 76.8631 12.4321 76.6951 12.4321C76.6251 12.4321 76.4851 12.4041 76.2751 12.3481C76.0791 12.2781 75.8761 12.2431 75.6661 12.2431C75.2601 12.2431 74.8961 12.3761 74.5741 12.6421C74.2521 12.9081 74.0281 13.1531 73.9021 13.3771V20.4331C73.9021 20.8391 73.5241 21.0421 72.7681 21.0421H72.3691ZM82.2226 21.1471C81.3266 21.1471 80.6056 20.8881 80.0596 20.3701C79.5276 19.8521 79.2616 19.0401 79.2616 17.9341V12.1381H78.6946C78.4986 12.1381 78.3516 12.0681 78.2536 11.9281C78.1696 11.7881 78.1276 11.5571 78.1276 11.2351V10.9201C78.1276 10.5981 78.1696 10.3671 78.2536 10.2271C78.3516 10.0871 78.4986 10.0171 78.6946 10.0171H79.2616L79.5346 7.95906C79.6046 7.55306 79.9266 7.35006 80.5006 7.35006H81.0046C81.6066 7.35006 81.9076 7.55306 81.9076 7.95906V10.0171H83.1886C83.3846 10.0171 83.5246 10.0871 83.6086 10.2271C83.7066 10.3671 83.7556 10.5981 83.7556 10.9201V11.2351C83.7556 11.5571 83.7066 11.7881 83.6086 11.9281C83.5246 12.0681 83.3846 12.1381 83.1886 12.1381H81.9076V17.8921C81.9076 18.3121 81.9776 18.6061 82.1176 18.7741C82.2716 18.9421 82.4956 19.0261 82.7896 19.0261C82.9296 19.0261 83.0626 19.0121 83.1886 18.9841C83.3146 18.9561 83.4126 18.9421 83.4826 18.9421C83.6506 18.9421 83.7906 19.1241 83.9026 19.4881C84.0146 19.8381 84.0706 20.0971 84.0706 20.2651C84.0706 20.8531 83.4546 21.1471 82.2226 21.1471ZM90.9543 21.1471C89.1483 21.1471 87.8043 20.6711 86.9223 19.7191C86.0403 18.7531 85.5993 17.3741 85.5993 15.5821C85.5993 13.6501 86.0333 12.2151 86.9013 11.2771C87.7833 10.3391 89.0223 9.87006 90.6183 9.87006C92.1303 9.87006 93.2503 10.3601 93.9783 11.3401C94.7203 12.3201 95.0913 13.6431 95.0913 15.3091C95.0913 15.4631 94.9653 15.6871 94.7133 15.9811C94.4613 16.2611 94.2723 16.4011 94.1463 16.4011H88.3503C88.4203 17.3251 88.6723 17.9971 89.1063 18.4171C89.5543 18.8231 90.1983 19.0261 91.0383 19.0261C91.7943 19.0261 92.5643 18.8301 93.3483 18.4381C93.5723 18.3401 93.7123 18.2911 93.7683 18.2911C93.9503 18.2911 94.1533 18.4801 94.3773 18.8581C94.6153 19.2221 94.7343 19.5021 94.7343 19.6981C94.7343 19.9641 94.5313 20.2091 94.1253 20.4331C93.7193 20.6571 93.2153 20.8321 92.6133 20.9581C92.0253 21.0841 91.4723 21.1471 90.9543 21.1471ZM92.4663 14.5321C92.4663 13.7341 92.3053 13.1111 91.9833 12.6631C91.6753 12.2151 91.2133 11.9911 90.5973 11.9911C89.2953 11.9911 88.5463 12.8381 88.3503 14.5321H92.4663ZM97.3186 21.0421C96.5346 21.0421 96.1426 20.9161 96.1426 20.6641C96.1426 20.5661 96.2126 20.4121 96.3526 20.2021L99.6076 15.4141L96.5626 10.8361C96.4226 10.5981 96.3526 10.4371 96.3526 10.3531C96.3526 10.1011 96.7516 9.97506 97.5496 9.97506H98.0536C98.3756 9.97506 98.6206 10.0031 98.7886 10.0591C98.9706 10.1011 99.1106 10.1991 99.2086 10.3531L100.742 12.7471L101.099 13.3351L101.477 12.7261L103.031 10.3321C103.129 10.1921 103.269 10.1011 103.451 10.0591C103.647 10.0031 103.899 9.97506 104.207 9.97506H104.627C105.411 9.97506 105.803 10.1011 105.803 10.3531C105.803 10.4511 105.733 10.6051 105.593 10.8151L102.485 15.3931L105.698 20.1811C105.838 20.4191 105.908 20.5801 105.908 20.6641C105.908 20.9161 105.509 21.0421 104.711 21.0421H104.207C103.885 21.0421 103.633 21.0211 103.451 20.9791C103.283 20.9231 103.15 20.8181 103.052 20.6641L101.33 17.9971C101.204 17.8151 101.092 17.6401 100.994 17.4721L100.679 17.9971L98.9146 20.6851C98.8166 20.8251 98.6766 20.9231 98.4946 20.9791C98.3126 21.0211 98.0676 21.0421 97.7596 21.0421H97.3186ZM108.834 25.3471C108.442 25.3471 108.155 25.2981 107.973 25.2001C107.805 25.1021 107.721 24.9481 107.721 24.7381V13.5451C107.721 12.6071 107.679 11.9211 107.595 11.4871C107.511 11.0531 107.469 10.7871 107.469 10.6891C107.469 10.4931 107.7 10.3461 108.162 10.2481C108.624 10.1361 109.03 10.0801 109.38 10.0801C109.618 10.0801 109.786 10.1781 109.884 10.3741C109.982 10.5701 110.052 10.7801 110.094 11.0041C110.15 11.2141 110.185 11.3611 110.199 11.4451C110.549 10.9551 110.976 10.5701 111.48 10.2901C111.998 10.0101 112.565 9.87006 113.181 9.87006C113.979 9.87006 114.679 10.1011 115.281 10.5631C115.883 11.0111 116.345 11.6621 116.667 12.5161C117.003 13.3701 117.171 14.3711 117.171 15.5191C117.171 17.2691 116.779 18.6481 115.995 19.6561C115.225 20.6501 114.161 21.1471 112.803 21.1471C111.879 21.1471 111.06 20.8811 110.346 20.3491V24.7381C110.346 25.1441 109.975 25.3471 109.233 25.3471H108.834ZM112.215 19.0051C113.713 19.0051 114.462 17.8571 114.462 15.5611C114.462 14.4131 114.294 13.5451 113.958 12.9571C113.622 12.3551 113.125 12.0541 112.467 12.0541C112.061 12.0541 111.676 12.1731 111.312 12.4111C110.962 12.6491 110.64 12.9711 110.346 13.3771V18.4171C110.906 18.8091 111.529 19.0051 112.215 19.0051ZM124.505 21.1471C122.699 21.1471 121.355 20.6711 120.473 19.7191C119.591 18.7531 119.15 17.3741 119.15 15.5821C119.15 13.6501 119.584 12.2151 120.452 11.2771C121.334 10.3391 122.573 9.87006 124.169 9.87006C125.681 9.87006 126.801 10.3601 127.529 11.3401C128.271 12.3201 128.642 13.6431 128.642 15.3091C128.642 15.4631 128.516 15.6871 128.264 15.9811C128.012 16.2611 127.823 16.4011 127.697 16.4011H121.901C121.971 17.3251 122.223 17.9971 122.657 18.4171C123.105 18.8231 123.749 19.0261 124.589 19.0261C125.345 19.0261 126.115 18.8301 126.899 18.4381C127.123 18.3401 127.263 18.2911 127.319 18.2911C127.501 18.2911 127.704 18.4801 127.928 18.8581C128.166 19.2221 128.285 19.5021 128.285 19.6981C128.285 19.9641 128.082 20.2091 127.676 20.4331C127.27 20.6571 126.766 20.8321 126.164 20.9581C125.576 21.0841 125.023 21.1471 124.505 21.1471ZM126.017 14.5321C126.017 13.7341 125.856 13.1111 125.534 12.6631C125.226 12.2151 124.764 11.9911 124.148 11.9911C122.846 11.9911 122.097 12.8381 121.901 14.5321H126.017ZM132.108 21.0421C131.366 21.0421 130.995 20.8391 130.995 20.4331V13.5451C130.995 12.6071 130.953 11.9211 130.869 11.4871C130.785 11.0531 130.743 10.7871 130.743 10.6891C130.743 10.4931 130.974 10.3461 131.436 10.2481C131.898 10.1361 132.311 10.0801 132.675 10.0801C132.899 10.0801 133.06 10.1781 133.158 10.3741C133.256 10.5701 133.326 10.7801 133.368 11.0041C133.424 11.2141 133.459 11.3611 133.473 11.4451C134.117 10.3951 134.894 9.87006 135.804 9.87006C136.238 9.87006 136.546 9.97506 136.728 10.1851C136.924 10.3811 137.022 10.6121 137.022 10.8781C137.022 11.1581 136.966 11.4871 136.854 11.8651C136.742 12.2431 136.602 12.4321 136.434 12.4321C136.364 12.4321 136.224 12.4041 136.014 12.3481C135.818 12.2781 135.615 12.2431 135.405 12.2431C134.999 12.2431 134.635 12.3761 134.313 12.6421C133.991 12.9081 133.767 13.1531 133.641 13.3771V20.4331C133.641 20.8391 133.263 21.0421 132.507 21.0421H132.108ZM141.962 21.1471C141.066 21.1471 140.345 20.8881 139.799 20.3701C139.267 19.8521 139.001 19.0401 139.001 17.9341V12.1381H138.434C138.238 12.1381 138.091 12.0681 137.993 11.9281C137.909 11.7881 137.867 11.5571 137.867 11.2351V10.9201C137.867 10.5981 137.909 10.3671 137.993 10.2271C138.091 10.0871 138.238 10.0171 138.434 10.0171H139.001L139.274 7.95906C139.344 7.55306 139.666 7.35006 140.24 7.35006H140.744C141.346 7.35006 141.647 7.55306 141.647 7.95906V10.0171L142.928 10.0171C143.124 10.0171 143.264 10.0871 143.348 10.2271C143.446 10.3671 143.495 10.5981 143.495 10.9201V11.2351C143.495 11.5571 143.446 11.7881 143.348 11.9281C143.264 12.0681 143.124 12.1381 142.928 12.1381L141.647 12.1381V17.8921C141.647 18.3121 141.717 18.6061 141.857 18.7741C142.011 18.9421 142.235 19.0261 142.529 19.0261C142.669 19.0261 142.802 19.0121 142.928 18.9841C143.054 18.9561 143.152 18.9421 143.222 18.9421C143.39 18.9421 143.53 19.1241 143.642 19.4881C143.754 19.8381 143.81 20.0971 143.81 20.2651C143.81 20.8531 143.194 21.1471 141.962 21.1471Z" fill="white"/>
<path d="M11.7651 4.18739L14.4049 5.93625C14.3556 6.05603 14.3309 6.17582 14.3309 6.2956C14.3309 6.31956 14.3309 6.31956 14.3309 6.34351L11.0003 7.44553C10.877 7.30179 10.7289 7.18201 10.5562 7.08618L11.0743 4.45092C11.3704 4.40301 11.5924 4.33113 11.7651 4.18739Z" fill="white"/>
<path d="M8.82918 7.90092L4.53644 8.26027C4.4871 8.14049 4.43776 8.04466 4.33908 7.94884L5.74532 5.98438C5.86867 6.03229 5.99203 6.05625 6.11538 6.05625C6.36209 6.05625 6.58413 5.98438 6.7815 5.86459L8.9032 7.66135C8.87853 7.73322 8.82918 7.8051 8.82918 7.90092Z" fill="white"/>
<path d="M7.34899 4.83428C7.34899 4.81032 7.34899 4.81032 7.34899 4.78637L9.98878 3.92392C10.1121 4.06766 10.2602 4.2114 10.4329 4.28327L9.91477 6.91852C9.7174 6.94248 9.54471 6.99039 9.37201 7.08622L7.25031 5.28946C7.32433 5.19363 7.34899 5.02593 7.34899 4.83428Z" fill="white"/>
<path d="M8.87863 8.57172C8.9033 8.61963 8.92797 8.66754 8.95264 8.71546L6.06614 11.6622C5.89344 11.5663 5.72074 11.5184 5.4987 11.5184C5.42469 11.5184 5.35068 11.5184 5.27667 11.5424L4.21582 9.55395C4.38851 9.38625 4.51187 9.17064 4.56121 8.93107L8.87863 8.57172Z" fill="white"/>
<path d="M0.367113 7.06237C0.367113 7.06237 0.441126 6.77489 0.465797 6.6551C0.490469 6.53532 0.589151 6.22388 0.613823 6.19992C2.31612 1.38457 7.84241 -0.508026 12.1598 0.114855C15.367 0.593994 17.7601 2.12724 19.043 4.49898C19.3391 5.04999 19.5611 5.601 19.7091 6.19992L19.8078 6.55928C19.8078 6.55928 19.8078 6.58323 19.8078 6.60719L19.8818 7.03842C19.9805 7.75712 20.0052 8.49979 19.9065 9.29037C19.9065 9.29037 19.9065 9.31433 19.9065 9.33828C19.9065 9.3862 19.9065 9.48203 19.9065 9.5539C19.9065 9.84138 19.9805 10.1289 20.1039 10.3924L21.9048 14.0818C22.0529 14.3932 22.0282 14.7765 21.8308 15.064C21.6335 15.3515 21.3127 15.5431 20.9427 15.5431H19.9558V20.3585C19.9558 21.0772 19.3884 21.6282 18.6483 21.6282L15.7864 21.6761C15.4657 21.6761 15.219 21.9157 15.219 22.2271V23.5448C15.219 23.8083 14.997 23.9999 14.7503 23.9999H4.41315C4.26512 23.9999 4.11709 23.9281 4.01841 23.8083C3.9444 23.6885 3.91973 23.5208 3.96907 23.3771L4.04308 23.2094C4.85722 21.2449 4.98058 19.5439 4.3638 18.1544C4.01841 17.3399 3.52499 16.8847 3.1796 16.5733L3.08092 16.4775C0.342442 13.7224 -0.595053 10.584 0.367113 7.06237ZM3.37697 9.88929C3.45098 9.88929 3.52499 9.88929 3.599 9.86534L4.65986 11.8538C4.43782 12.0694 4.28979 12.3808 4.28979 12.7162C4.28979 13.387 4.83255 13.9141 5.52334 13.9141C6.21413 13.9141 6.75689 13.387 6.75689 12.7162C6.75689 12.5006 6.68287 12.3089 6.58419 12.1173L9.47069 9.19454C9.64339 9.29037 9.81608 9.33828 10.0381 9.33828C10.7289 9.33828 11.2717 8.81123 11.2717 8.14044C11.2717 8.11648 11.2717 8.11648 11.2717 8.09252L14.6022 6.9905C14.8243 7.30194 15.1943 7.4936 15.6138 7.4936C16.3045 7.4936 16.8473 6.96654 16.8473 6.29575C16.8473 5.62496 16.3045 5.0979 15.6138 5.0979C15.3177 5.0979 15.0463 5.19373 14.849 5.36143L12.2092 3.61257C12.2585 3.49279 12.2832 3.373 12.2832 3.25322C12.2832 2.58242 11.7404 2.05537 11.0496 2.05537C10.3588 2.05537 9.81608 2.58242 9.81608 3.25322C9.81608 3.27717 9.81608 3.27717 9.81608 3.30113L7.17629 4.16358C6.95425 3.85214 6.58419 3.66048 6.16478 3.66048C5.474 3.66048 4.93124 4.18754 4.93124 4.85833C4.93124 5.14582 5.02992 5.40934 5.20262 5.601L3.79637 7.56547C3.67302 7.51755 3.54966 7.4936 3.42631 7.4936C2.73552 7.4936 2.19276 8.02065 2.19276 8.69145C2.14342 9.36224 2.71085 9.88929 3.37697 9.88929Z" fill="white"/>
</svg>
