<svg width="18" height="18" viewBox="0 0 18 18" fill="none" xmlns="http://www.w3.org/2000/svg">
<path d="M15.6218 8.9997C15.6218 12.6588 12.6558 15.6218 8.99792 15.6218C5.34041 15.6218 2.37442 12.659 2.37442 8.9997C2.37442 5.34021 5.34041 2.377 8.99792 2.377C12.6558 2.377 15.6218 5.34001 15.6218 8.9997ZM3.57124 3.57105L1.20496 4.49995L1.58295 7.0114L0 8.9997L1.58295 10.984L1.20496 13.4999L3.57124 14.4284L4.49817 16.7948L7.0118 16.4135L8.99792 18L10.9842 16.4135L13.4981 16.7948L14.425 14.4284L16.7927 13.4999L16.4131 10.984L17.998 8.9997L16.4133 7.0114L16.7929 4.49995L14.4252 3.57105L13.4981 1.20476L10.9842 1.58453L8.99792 0L7.0118 1.58453L4.49817 1.20476L3.57124 3.57105Z" fill="#F0A744"/>
<circle cx="9" cy="9" r="6" fill="#F0A744"/>
</svg>
