<svg width="75" height="75" viewBox="0 0 75 75" fill="none" xmlns="http://www.w3.org/2000/svg">
<circle cx="37.5" cy="37.5" r="37.5" fill="#557FAF"/>
<path d="M38.0028 23.5955C37.6266 23.5955 37.2615 23.6177 36.8964 23.6508V21.1063C36.8964 20.4978 37.3943 20 38.0028 20C38.6112 20 39.1091 20.4978 39.1091 21.1063V23.6508C38.744 23.6177 38.3789 23.5955 38.0028 23.5955ZM38.0028 55.9553C39.2363 55.9553 40.2707 55.1366 40.6247 54.0193H35.3808C35.7348 55.1366 36.7692 55.9553 38.0028 55.9553ZM48.1311 47.6081C47.6498 47.1269 47.3843 46.4852 47.3843 45.8048V35.1897C47.3843 30.0177 43.1748 25.8082 38.0028 25.8082C32.8307 25.8082 28.6212 30.0177 28.6212 35.1897V45.8048C28.6212 46.4852 28.3557 47.1269 27.8744 47.6081L25.1031 50.3795C25.0367 50.4403 25.0035 50.5288 25.0035 50.6173V51.4637C25.0035 51.6517 25.1584 51.8066 25.3465 51.8066H50.659C50.8471 51.8066 51.002 51.6517 51.002 51.4637V50.6173C51.002 50.5288 50.9688 50.4403 50.9024 50.3795L48.1311 47.6081ZM22.8518 31.6053C22.4203 31.1738 21.7178 31.1738 21.2863 31.6053C19.5107 33.3809 18.5316 35.7429 18.5316 38.2542C18.5316 40.7656 19.5107 43.1276 21.2863 44.9032C21.502 45.1189 21.7842 45.2296 22.0663 45.2296C22.3484 45.2296 22.6305 45.1189 22.8462 44.9032C23.2777 44.4717 23.2777 43.7692 22.8462 43.3378C21.4855 41.977 20.7387 40.1737 20.7387 38.2542C20.7387 36.3348 21.4855 34.5259 22.8462 33.1707C23.2832 32.7392 23.2832 32.0367 22.8518 31.6053ZM15.2126 38.2542C15.2126 34.8578 16.5347 31.6606 18.9409 29.2599C19.3724 28.8284 19.3724 28.1259 18.9409 27.6944C18.5095 27.263 17.8069 27.263 17.3755 27.6944C14.5544 30.5155 13 34.266 13 38.2542C13 42.2425 14.5544 45.9929 17.3755 48.814C17.5912 49.0298 17.8733 49.1404 18.1554 49.1404C18.4375 49.1404 18.7197 49.0298 18.9354 48.814C19.3669 48.3826 19.3669 47.6801 18.9354 47.2486C16.5402 44.8479 15.2126 41.6506 15.2126 38.2542ZM54.7192 31.6053C54.2878 31.1738 53.5852 31.1738 53.1538 31.6053C52.7223 32.0367 52.7223 32.7392 53.1538 33.1707C55.9583 35.9752 55.9583 40.5388 53.1538 43.3378C52.7223 43.7692 52.7223 44.4717 53.1538 44.9032C53.3695 45.1189 53.6516 45.2296 53.9337 45.2296C54.2158 45.2296 54.498 45.1189 54.7137 44.9032C58.3867 41.2358 58.3867 35.2727 54.7192 31.6053ZM58.63 27.6944C58.1986 27.263 57.4961 27.263 57.0646 27.6944C56.6331 28.1259 56.6331 28.8284 57.0646 29.2599C59.4653 31.6606 60.7929 34.8578 60.7929 38.2542C60.7929 41.6506 59.4708 44.8479 57.0646 47.2486C56.6331 47.6801 56.6331 48.3826 57.0646 48.814C57.2803 49.0298 57.5625 49.1404 57.8446 49.1404C58.1267 49.1404 58.4088 49.0298 58.6245 48.814C61.4456 45.9929 63 42.2425 63 38.2542C63 34.266 61.4512 30.5155 58.63 27.6944Z" fill="#F0F0F0"/>
</svg>
