<svg width="35" height="35" viewBox="0 0 35 35" fill="none" xmlns="http://www.w3.org/2000/svg">
<path d="M17.5 0.744681C26.7538 0.744681 34.2553 8.24622 34.2553 17.5C34.2553 26.7538 26.7538 34.2553 17.5 34.2553C8.24622 34.2553 0.744681 26.7538 0.744681 17.5C0.744681 8.24622 8.24622 0.744681 17.5 0.744681ZM14.3601 24.0562C14.5358 24.0562 14.7164 24.0111 14.8862 23.9121L24.3272 18.4048C25.0202 18.0008 25.0202 16.9999 24.3272 16.5956L14.8862 11.0883C14.7164 10.9893 14.5362 10.9442 14.3601 10.9442C13.8135 10.9442 13.3112 11.3813 13.3112 11.9931V23.0077C13.3112 23.619 13.8131 24.0562 14.3601 24.0562ZM17.5 0C7.85043 0 0 7.85043 0 17.5C0 27.1496 7.85043 35 17.5 35C27.1496 35 35 27.1496 35 17.5C35 7.85043 27.1496 0 17.5 0ZM14.3601 23.3115C14.2372 23.3115 14.0559 23.2147 14.0559 23.0073V11.9927C14.0559 11.7853 14.2376 11.6885 14.3601 11.6885C14.4122 11.6885 14.4613 11.7027 14.5109 11.7313L23.9519 17.2386C24.0826 17.3149 24.102 17.4352 24.102 17.5C24.102 17.5648 24.0826 17.6851 23.9519 17.7614L14.5109 23.2687C14.4621 23.297 14.4114 23.3115 14.3601 23.3115Z" fill="#638CDB"/>
</svg>
