<svg width="114" height="20" viewBox="0 0 114 20" fill="none" xmlns="http://www.w3.org/2000/svg">
<path d="M5.313 15.1471C4.375 15.1471 3.535 15.0491 2.793 14.8531C2.065 14.6571 1.498 14.4121 1.092 14.1181C0.742 13.8521 0.567 13.6141 0.567 13.4041C0.567 13.1381 0.707 12.8091 0.987 12.4171C1.267 12.0111 1.498 11.8081 1.68 11.8081C1.764 11.8081 1.939 11.8851 2.205 12.0391C2.639 12.2631 3.066 12.4451 3.486 12.5851C3.906 12.7251 4.396 12.7951 4.956 12.7951C5.586 12.7951 6.111 12.6481 6.531 12.3541C6.965 12.0461 7.182 11.5911 7.182 10.9891C7.182 10.6111 7.07 10.2961 6.846 10.0441C6.636 9.77806 6.37 9.56106 6.048 9.39306C5.726 9.21106 5.278 9.00106 4.704 8.76306L3.969 8.44806C3.325 8.16806 2.786 7.87406 2.352 7.56606C1.918 7.24406 1.561 6.81706 1.281 6.28506C1.001 5.75306 0.861 5.08106 0.861 4.26906C0.861 3.38706 1.078 2.63806 1.512 2.02206C1.96 1.39206 2.555 0.92306 3.297 0.61506C4.039 0.30706 4.851 0.153061 5.733 0.153061C6.363 0.153061 6.972 0.223061 7.56 0.36306C8.148 0.50306 8.603 0.69206 8.925 0.930061C9.219 1.14006 9.366 1.35006 9.366 1.56006C9.366 1.81206 9.247 2.14106 9.009 2.54706C8.771 2.93906 8.561 3.13506 8.379 3.13506C8.309 3.13506 8.197 3.10006 8.043 3.03006C7.889 2.96006 7.77 2.90406 7.686 2.86206C7.126 2.62406 6.531 2.50506 5.901 2.50506C5.145 2.50506 4.585 2.65906 4.221 2.96706C3.871 3.26106 3.696 3.63906 3.696 4.10106C3.696 4.50706 3.801 4.84306 4.011 5.10906C4.221 5.36106 4.48 5.56406 4.788 5.71806C5.096 5.87206 5.551 6.06806 6.153 6.30606C6.951 6.62806 7.609 6.94306 8.127 7.25106C8.645 7.55906 9.086 8.00006 9.45 8.57406C9.828 9.13406 10.017 9.85506 10.017 10.7371C10.017 12.2071 9.569 13.3131 8.673 14.0551C7.777 14.7831 6.657 15.1471 5.313 15.1471ZM23.709 3.87006C25.809 3.87006 26.859 5.00406 26.859 7.27206V14.4331C26.859 14.8391 26.488 15.0421 25.746 15.0421H25.326C24.584 15.0421 24.213 14.8391 24.213 14.4331V7.62906C24.213 6.59306 23.709 6.07506 22.701 6.07506C22.253 6.07506 21.861 6.21506 21.525 6.49506C21.189 6.76106 20.923 7.05506 20.727 7.37706V14.4331C20.727 14.8391 20.356 15.0421 19.614 15.0421H19.215C18.823 15.0421 18.536 14.9931 18.354 14.8951C18.186 14.7971 18.102 14.6431 18.102 14.4331V7.62906C18.102 6.59306 17.598 6.07506 16.59 6.07506C16.114 6.07506 15.701 6.22906 15.351 6.53706C15.001 6.83106 14.756 7.11106 14.616 7.37706L14.616 14.4331C14.616 14.8391 14.245 15.0421 13.503 15.0421H13.083C12.341 15.0421 11.97 14.8391 11.97 14.4331L11.97 7.54506C11.97 6.60706 11.928 5.92106 11.844 5.48706C11.76 5.05306 11.718 4.78706 11.718 4.68906C11.718 4.49306 11.949 4.34606 12.411 4.24806C12.873 4.13606 13.286 4.08006 13.65 4.08006C13.874 4.08006 14.035 4.17806 14.133 4.37406C14.231 4.57006 14.301 4.78006 14.343 5.00406C14.399 5.21406 14.434 5.36106 14.448 5.44506C14.812 4.99706 15.267 4.62606 15.813 4.33206C16.373 4.02406 16.968 3.87006 17.598 3.87006C19.068 3.87006 20.013 4.41606 20.433 5.50806C20.811 5.04606 21.287 4.66106 21.861 4.35306C22.449 4.03106 23.065 3.87006 23.709 3.87006ZM32.5008 15.1471C31.4368 15.1471 30.6248 14.8741 30.0648 14.3281C29.5048 13.7681 29.2248 13.0121 29.2248 12.0601C29.2248 9.48406 31.3458 8.18906 35.5878 8.17506V7.37706C35.5878 6.45306 34.9648 5.99106 33.7188 5.99106C33.2008 5.99106 32.7458 6.05406 32.3538 6.18006C31.9618 6.29206 31.6188 6.41806 31.3248 6.55806C31.0308 6.68406 30.8628 6.74706 30.8208 6.74706C30.6388 6.74706 30.4288 6.55106 30.1908 6.15906C29.9668 5.76706 29.8548 5.47306 29.8548 5.27706C29.8548 5.05306 30.0298 4.83606 30.3798 4.62606C30.7438 4.40206 31.2338 4.22006 31.8498 4.08006C32.4658 3.94006 33.1308 3.87006 33.8448 3.87006C35.3288 3.87006 36.4278 4.17806 37.1418 4.79406C37.8698 5.39606 38.2338 6.22906 38.2338 7.29306V11.5141C38.2338 12.4661 38.2758 13.1661 38.3598 13.6141C38.4438 14.0481 38.4858 14.3141 38.4858 14.4121C38.4858 14.6081 38.2548 14.7621 37.7928 14.8741C37.3308 14.9721 36.9178 15.0211 36.5538 15.0211C36.3298 15.0211 36.1688 14.9231 36.0708 14.7271C35.9728 14.5171 35.8958 14.2931 35.8398 14.0551C35.7978 13.8171 35.7698 13.6561 35.7558 13.5721C35.4618 13.9501 35.0418 14.3071 34.4958 14.6431C33.9638 14.9791 33.2988 15.1471 32.5008 15.1471ZM33.2148 13.0261C33.7048 13.0261 34.1528 12.9001 34.5588 12.6481C34.9648 12.3821 35.3078 12.0461 35.5878 11.6401V10.0441C34.4398 10.0441 33.5368 10.1771 32.8788 10.4431C32.2348 10.6951 31.9128 11.1501 31.9128 11.8081C31.9128 12.1861 32.0248 12.4871 32.2488 12.7111C32.4728 12.9211 32.7948 13.0261 33.2148 13.0261ZM42.3691 15.0421C41.6271 15.0421 41.2561 14.8391 41.2561 14.4331V7.54506C41.2561 6.60706 41.2141 5.92106 41.1301 5.48706C41.0461 5.05306 41.0041 4.78706 41.0041 4.68906C41.0041 4.49306 41.2351 4.34606 41.6971 4.24806C42.1591 4.13606 42.5721 4.08006 42.9361 4.08006C43.1601 4.08006 43.3211 4.17806 43.4191 4.37406C43.5171 4.57006 43.5871 4.78006 43.6291 5.00406C43.6851 5.21406 43.7201 5.36106 43.7341 5.44506C44.3781 4.39506 45.1551 3.87006 46.0651 3.87006C46.4991 3.87006 46.8071 3.97506 46.9891 4.18506C47.1851 4.38106 47.2831 4.61206 47.2831 4.87806C47.2831 5.15806 47.2271 5.48706 47.1151 5.86506C47.0031 6.24306 46.8631 6.43206 46.6951 6.43206C46.6251 6.43206 46.4851 6.40406 46.2751 6.34806C46.0791 6.27806 45.8761 6.24306 45.6661 6.24306C45.2601 6.24306 44.8961 6.37606 44.5741 6.64206C44.2521 6.90806 44.0281 7.15306 43.9021 7.37706V14.4331C43.9021 14.8391 43.5241 15.0421 42.7681 15.0421H42.3691ZM52.2226 15.1471C51.3266 15.1471 50.6056 14.8881 50.0596 14.3701C49.5276 13.8521 49.2616 13.0401 49.2616 11.9341V6.13806H48.6946C48.4986 6.13806 48.3516 6.06806 48.2536 5.92806C48.1696 5.78806 48.1276 5.55706 48.1276 5.23506V4.92006C48.1276 4.59806 48.1696 4.36706 48.2536 4.22706C48.3516 4.08706 48.4986 4.01706 48.6946 4.01706H49.2616L49.5346 1.95906C49.6046 1.55306 49.9266 1.35006 50.5006 1.35006H51.0046C51.6066 1.35006 51.9076 1.55306 51.9076 1.95906V4.01706H53.1886C53.3846 4.01706 53.5246 4.08706 53.6086 4.22706C53.7066 4.36706 53.7556 4.59806 53.7556 4.92006V5.23506C53.7556 5.55706 53.7066 5.78806 53.6086 5.92806C53.5246 6.06806 53.3846 6.13806 53.1886 6.13806H51.9076V11.8921C51.9076 12.3121 51.9776 12.6061 52.1176 12.7741C52.2716 12.9421 52.4956 13.0261 52.7896 13.0261C52.9296 13.0261 53.0626 13.0121 53.1886 12.9841C53.3146 12.9561 53.4126 12.9421 53.4826 12.9421C53.6506 12.9421 53.7906 13.1241 53.9026 13.4881C54.0146 13.8381 54.0706 14.0971 54.0706 14.2651C54.0706 14.8531 53.4546 15.1471 52.2226 15.1471ZM60.9543 15.1471C59.1483 15.1471 57.8043 14.6711 56.9223 13.7191C56.0403 12.7531 55.5993 11.3741 55.5993 9.58206C55.5993 7.65006 56.0333 6.21506 56.9013 5.27706C57.7833 4.33906 59.0223 3.87006 60.6183 3.87006C62.1303 3.87006 63.2503 4.36006 63.9783 5.34006C64.7203 6.32006 65.0913 7.64306 65.0913 9.30906C65.0913 9.46306 64.9653 9.68706 64.7133 9.98106C64.4613 10.2611 64.2723 10.4011 64.1463 10.4011H58.3503C58.4203 11.3251 58.6723 11.9971 59.1063 12.4171C59.5543 12.8231 60.1983 13.0261 61.0383 13.0261C61.7943 13.0261 62.5643 12.8301 63.3483 12.4381C63.5723 12.3401 63.7123 12.2911 63.7683 12.2911C63.9503 12.2911 64.1533 12.4801 64.3773 12.8581C64.6153 13.2221 64.7343 13.5021 64.7343 13.6981C64.7343 13.9641 64.5313 14.2091 64.1253 14.4331C63.7193 14.6571 63.2153 14.8321 62.6133 14.9581C62.0253 15.0841 61.4723 15.1471 60.9543 15.1471ZM62.4663 8.53206C62.4663 7.73406 62.3053 7.11106 61.9833 6.66306C61.6753 6.21506 61.2133 5.99106 60.5973 5.99106C59.2953 5.99106 58.5463 6.83806 58.3503 8.53206H62.4663ZM67.3186 15.0421C66.5346 15.0421 66.1426 14.9161 66.1426 14.6641C66.1426 14.5661 66.2126 14.4121 66.3526 14.2021L69.6076 9.41406L66.5626 4.83606C66.4226 4.59806 66.3526 4.43706 66.3526 4.35306C66.3526 4.10106 66.7516 3.97506 67.5496 3.97506H68.0536C68.3756 3.97506 68.6206 4.00306 68.7886 4.05906C68.9706 4.10106 69.1106 4.19906 69.2086 4.35306L70.7416 6.74706L71.0986 7.33506L71.4766 6.72606L73.0306 4.33206C73.1286 4.19206 73.2686 4.10106 73.4506 4.05906C73.6466 4.00306 73.8986 3.97506 74.2066 3.97506H74.6266C75.4106 3.97506 75.8026 4.10106 75.8026 4.35306C75.8026 4.45106 75.7326 4.60506 75.5926 4.81506L72.4846 9.39306L75.6976 14.1811C75.8376 14.4191 75.9076 14.5801 75.9076 14.6641C75.9076 14.9161 75.5086 15.0421 74.7106 15.0421H74.2066C73.8846 15.0421 73.6326 15.0211 73.4506 14.9791C73.2826 14.9231 73.1496 14.8181 73.0516 14.6641L71.3296 11.9971C71.2036 11.8151 71.0916 11.6401 70.9936 11.4721L70.6786 11.9971L68.9146 14.6851C68.8166 14.8251 68.6766 14.9231 68.4946 14.9791C68.3126 15.0211 68.0676 15.0421 67.7596 15.0421H67.3186ZM78.834 19.3471C78.442 19.3471 78.155 19.2981 77.973 19.2001C77.805 19.1021 77.721 18.9481 77.721 18.7381V7.54506C77.721 6.60706 77.679 5.92106 77.595 5.48706C77.511 5.05306 77.469 4.78706 77.469 4.68906C77.469 4.49306 77.7 4.34606 78.162 4.24806C78.624 4.13606 79.03 4.08006 79.38 4.08006C79.618 4.08006 79.786 4.17806 79.884 4.37406C79.982 4.57006 80.052 4.78006 80.094 5.00406C80.15 5.21406 80.185 5.36106 80.199 5.44506C80.549 4.95506 80.976 4.57006 81.48 4.29006C81.998 4.01006 82.565 3.87006 83.181 3.87006C83.979 3.87006 84.679 4.10106 85.281 4.56306C85.883 5.01106 86.345 5.66206 86.667 6.51606C87.003 7.37006 87.171 8.37106 87.171 9.51906C87.171 11.2691 86.779 12.6481 85.995 13.6561C85.225 14.6501 84.161 15.1471 82.803 15.1471C81.879 15.1471 81.06 14.8811 80.346 14.3491V18.7381C80.346 19.1441 79.975 19.3471 79.233 19.3471H78.834ZM82.215 13.0051C83.713 13.0051 84.462 11.8571 84.462 9.56106C84.462 8.41306 84.294 7.54506 83.958 6.95706C83.622 6.35506 83.125 6.05406 82.467 6.05406C82.061 6.05406 81.676 6.17306 81.312 6.41106C80.962 6.64906 80.64 6.97106 80.346 7.37706V12.4171C80.906 12.8091 81.529 13.0051 82.215 13.0051ZM94.5051 15.1471C92.6991 15.1471 91.3551 14.6711 90.4731 13.7191C89.5911 12.7531 89.1501 11.3741 89.1501 9.58206C89.1501 7.65006 89.5841 6.21506 90.4521 5.27706C91.3341 4.33906 92.5731 3.87006 94.1691 3.87006C95.6811 3.87006 96.8011 4.36006 97.5291 5.34006C98.2711 6.32006 98.6421 7.64306 98.6421 9.30906C98.6421 9.46306 98.5161 9.68706 98.2641 9.98106C98.0121 10.2611 97.8231 10.4011 97.6971 10.4011H91.9011C91.9711 11.3251 92.2231 11.9971 92.6571 12.4171C93.1051 12.8231 93.7491 13.0261 94.5891 13.0261C95.3451 13.0261 96.1151 12.8301 96.8991 12.4381C97.1231 12.3401 97.2631 12.2911 97.3191 12.2911C97.5011 12.2911 97.7041 12.4801 97.9281 12.8581C98.1661 13.2221 98.2851 13.5021 98.2851 13.6981C98.2851 13.9641 98.0821 14.2091 97.6761 14.4331C97.2701 14.6571 96.7661 14.8321 96.1641 14.9581C95.5761 15.0841 95.0231 15.1471 94.5051 15.1471ZM96.0171 8.53206C96.0171 7.73406 95.8561 7.11106 95.5341 6.66306C95.2261 6.21506 94.7641 5.99106 94.1481 5.99106C92.8461 5.99106 92.0971 6.83806 91.9011 8.53206H96.0171ZM102.108 15.0421C101.366 15.0421 100.995 14.8391 100.995 14.4331V7.54506C100.995 6.60706 100.953 5.92106 100.869 5.48706C100.785 5.05306 100.743 4.78706 100.743 4.68906C100.743 4.49306 100.974 4.34606 101.436 4.24806C101.898 4.13606 102.311 4.08006 102.675 4.08006C102.899 4.08006 103.06 4.17806 103.158 4.37406C103.256 4.57006 103.326 4.78006 103.368 5.00406C103.424 5.21406 103.459 5.36106 103.473 5.44506C104.117 4.39506 104.894 3.87006 105.804 3.87006C106.238 3.87006 106.546 3.97506 106.728 4.18506C106.924 4.38106 107.022 4.61206 107.022 4.87806C107.022 5.15806 106.966 5.48706 106.854 5.86506C106.742 6.24306 106.602 6.43206 106.434 6.43206C106.364 6.43206 106.224 6.40406 106.014 6.34806C105.818 6.27806 105.615 6.24306 105.405 6.24306C104.999 6.24306 104.635 6.37606 104.313 6.64206C103.991 6.90806 103.767 7.15306 103.641 7.37706V14.4331C103.641 14.8391 103.263 15.0421 102.507 15.0421H102.108ZM111.962 15.1471C111.066 15.1471 110.345 14.8881 109.799 14.3701C109.267 13.8521 109.001 13.0401 109.001 11.9341V6.13806H108.434C108.238 6.13806 108.091 6.06806 107.993 5.92806C107.909 5.78806 107.867 5.55706 107.867 5.23506V4.92006C107.867 4.59806 107.909 4.36706 107.993 4.22706C108.091 4.08706 108.238 4.01706 108.434 4.01706H109.001L109.274 1.95906C109.344 1.55306 109.666 1.35006 110.24 1.35006H110.744C111.346 1.35006 111.647 1.55306 111.647 1.95906V4.01706L112.928 4.01706C113.124 4.01706 113.264 4.08706 113.348 4.22706C113.446 4.36706 113.495 4.59806 113.495 4.92006V5.23506C113.495 5.55706 113.446 5.78806 113.348 5.92806C113.264 6.06806 113.124 6.13806 112.928 6.13806L111.647 6.13806V11.8921C111.647 12.3121 111.717 12.6061 111.857 12.7741C112.011 12.9421 112.235 13.0261 112.529 13.0261C112.669 13.0261 112.802 13.0121 112.928 12.9841C113.054 12.9561 113.152 12.9421 113.222 12.9421C113.39 12.9421 113.53 13.1241 113.642 13.4881C113.754 13.8381 113.81 14.0971 113.81 14.2651C113.81 14.8531 113.194 15.1471 111.962 15.1471Z" fill="white"/>
</svg>
